<svg viewBox="0 0 72 63" xmlns="http://www.w3.org/2000/svg"><path d="m17.234 10.923c0-4.758-3.86-8.618-8.617-8.618s-8.617 3.86-8.617 8.618c0 4.757 3.86 8.617 8.617 8.617 4.758 0 8.617-3.86 8.617-8.617zm26.508 6.36c4.758 0 8.617-3.86 8.617-8.618s-3.86-8.617-8.618-8.617-8.617 3.86-8.617 8.617c.004 4.758 3.86 8.617 8.617 8.617zm-15.02 26.866s2.555-11.774-1.913-12.907c-4.126-1.047-6.76 0-6.76 0v-2.555l-7.92-2.765 12.765 2.765s5.746 2.766 7.66 0c1.914-2.765 0-2.13-2.34-2.765-2.34-.637-1.703-1.704-1.703-1.704s-2.766 1.488-3.403.636c-.64-.85 4.042-2.555 4.042-2.555s-.64-1.702-4.043 0c0 0-3.512-3.19-10.426-3.19 0 0-1.914 2.766-9.15 1.703 0 0 3.404 7.66 3.193 13.402-.21 5.747 1.277 8.297 5.53 12.98 0 0 .212 3.618-4.362 5.32 0 0-4.15 1.49-2.13 5.107s2.45 4.68 6.493 4.68 6.492-4.68 0-4.68c0 0 7.234-5.53 5.957-11.49-1.277-5.956-1.914-7.444-1.914-7.444l5.532-2.34v10c0 3.828.852 7.02 4.895 3.828 4.043-3.19 6.808-4.894 5.53-7.234-1.276-2.336-5.534 1.207-5.534 1.207zm-5.105-20.142s-1.062 0-10.64-2.128c.004 0 7.45-.637 10.64 2.128zm30.496 3.262s.407-2.89-.355-8.156c-.746-5.18-5.39-1.563-5.39-1.563s-2.907 2.34-7.872.783c0 0-.922 3.758-11.633 2.765 0 0 .778.215 1.418 1.207 0 0-4.323 1.754-4.327 2.055-.008.754 3.477-1.027 3.477-1.027s-.852 1.242.07 1.668 3.973.426 4.324 1.915c0 0-.008-1.278.74-1.133.75.14 10.89.785 14.72-2.87 0 0-1.346 2.444-4.608 3.01l-.14 1.985s-6.028.707-8.438 5.39c0 0-3.332 1.133-1.844 3.403 0 0-2.41 1.348-.922 2.13 1.488.776 3.477.776 3.477.776s2.483 2.98 3.33 3.477c0 0-4.324 5.675-.64 7.945 3.688 2.27 6.81-7.234 5.39-8.863-1.417-1.633-1.773-2.766-1.773-2.766-1.277-1.67-2.98-3.76-2.98-3.76 2.383.517 2.98 3.76 2.98 3.76s2.34.07 2.836-.993l-1.137-1.563h1.063s2.554 7.45 10.284 3.868c0 0-.707 1.668-3.758 1.88 0 0 1.703 1.56-.64 4.538-2.34 2.98-5.532 6.668-4.54 7.8.993 1.137 4.33 6.453 7.73 5.746 3.403-.707-1.487-6.738-1.487-6.738s2.835-3.12 4.327-6.312c1.488-3.192.78-5.743 0-7.87 0 0 1.56-.923 2.98-2.837 1.418-1.915 3.9-3.69 5.106-3.62.004-.002-2.3-5.17-11.77-6.03zm-18.027-4.117c-3.332.254-5.52.36-5.52.36s2.696-1.208 5.887-1.208c3.192 0 10.07-2.2 10.07-2.2-1.558 1.208-7.105 2.798-10.437 3.048zm6.188 10.438c-2.626-2.34-4.83-.644-4.83-.644 4.26-3.902 7.59 2.695 7.59 2.695s-.136.29-2.76-2.05zm17.714-25.377c4.95 4.94 11.18.718 11.18.718-2.293 1.293-7.586-3.422-7.586-3.422l2.422.54c-1.44-2.653-6.668-4.793-6.668-4.793l1.434-.68c-5.454-2.332-8.692 3.183-8.692 3.183.793.83.926 1.875.926 1.875s2.04-2.363 6.984 2.58z" fill="#585a5e"/></svg>