<svg viewBox="0 0 76 65" xmlns="http://www.w3.org/2000/svg"><path d="m37.97 55.953-.75 1.8-1.048 1.2h-1.952l-4.665 3.465h46.445l-2.102-2.106-1.664-1.656-2.7.153-1.8-1.95s-1.35-2.25-1.35-2.708c0-.45.3-2.11-.154-2.398-.45-.31-1.96-1.207-1.96-1.207l-3.602.152-1.96-2.4-1.954-2.706-2.4-.457s-1.51.148-2.096.898c-.613.758-1.96 1.356-3.313 1.96-.38.17-.765.36-1.133.548l-18.167-14.803 8.773-17.008-8.863-12.777h-18.637l-2.45 12.524-3.62-2.96c-.778-.63-1.91-.52-2.55.256-.63.778-.505 1.91.272 2.536l7.028 5.725-4.426 4.78.332 16.67-4.38 16.183c-.52 1.922.614 3.906 2.536 4.426.313.082.64.125.942.125 1.597 0 3.054-1.06 3.492-2.665l4.636-17.18.708-12.992 9.222 10.883-8.605 15.87c-.942 1.76-.3 3.95 1.457 4.895.547.302 1.133.44 1.718.44 1.282 0 2.524-.685 3.176-1.888l10.938-20.201-4.387-5.185 18.09 14.746-1.215 1.7c0-.003-2.55 1.055-3.45 1.66-.898.602-2.413 1.653-2.413 1.653zm-13.444-26.398-3.73-3.04 6.96-3.03zm-9.25-19 4.504.597-5.85 6.016 1.347-6.613zm26.606 2.55c3.394 0 6.16-2.753 6.16-6.156.004-3.403-2.766-6.165-6.16-6.165-3.41 0-6.164 2.762-6.164 6.164s2.753 6.155 6.163 6.155z" fill="#585a5e"/></svg>