<svg xmlns="http://www.w3.org/2000/svg" viewBox="0 0 141.7 141.7"><title>vk-1</title><path d="M92.6,0H49.1C9.4,0,0,9.4,0,49.1V92.6c0,39.7,9.4,49.1,49.1,49.1H92.6c39.7,0,49.1-9.4,49.1-49.1V49.1C141.7,9.4,132.3,0,92.6,0Zm21.8,101.1H104.1c-3.9,0-5.1-3.2-12.1-10.2-6.1-5.9-8.8-6.7-10.3-6.7-2.1,0-2.7.5-2.7,3.5V97c0,2.5-.8,4-7.4,4-10.9,0-23-6.6-31.5-18.9-12.8-18-16.3-31.6-16.3-34.3,0-1.5.5-2.9,3.5-2.9H37.7c2.6,0,3.6,1.1,4.6,4,5.1,14.7,13.6,27.6,17.1,27.6,1.3,0,1.9-.6,1.9-3.9V57.4c-.4-7-4.1-7.6-4.1-10.1a2.48,2.48,0,0,1,2.6-2.4H76c2.2,0,3,1.2,3,3.8V69.2c0,2.2.9,3,1.6,3,1.3,0,2.4-.8,4.8-3.2,7.4-8.3,12.7-21.1,12.7-21.1a4.56,4.56,0,0,1,4.5-2.9h10.3c3.1,0,3.8,1.6,3.1,3.8-1.3,6-13.9,23.8-13.8,23.8-1.1,1.8-1.5,2.6,0,4.6,1.1,1.5,4.7,4.6,7.1,7.4,4.4,5,7.8,9.2,8.7,12.1S117.4,101.1,114.4,101.1Z" fill-rule="evenodd"/></svg>