<svg xmlns="http://www.w3.org/2000/svg" viewBox="0 0 94.42 56.2"><title>vk-2</title><path d="M92.2,3.9c.7-2.2,0-3.8-3.1-3.8H78.8A4.56,4.56,0,0,0,74.3,3S69,15.8,61.6,24.1c-2.4,2.4-3.5,3.2-4.8,3.2-.7,0-1.6-.8-1.6-3V3.8c0-2.6-.8-3.8-3-3.8H36a2.48,2.48,0,0,0-2.6,2.4c0,2.5,3.7,3.1,4.1,10.1V27.7c0,3.3-.6,3.9-1.9,3.9-3.5,0-12-12.9-17.1-27.6-1-2.9-2-4-4.6-4H3.5C.5,0,0,1.4,0,2.9,0,5.6,3.5,19.2,16.3,37.2c8.5,12.3,20.6,18.9,31.5,18.9,6.6,0,7.4-1.5,7.4-4V42.8c0-3,.6-3.5,2.7-3.5,1.5,0,4.2.8,10.3,6.7,7,7,8.2,10.2,12.1,10.2H90.6c3,0,4.4-1.5,3.6-4.4s-4.3-7.1-8.7-12.1c-2.4-2.8-6-5.9-7.1-7.4-1.5-2-1.1-2.8,0-4.6-.1,0,12.5-17.8,13.8-23.8" fill-rule="evenodd"/></svg>