<svg viewBox="0 0 80.03 90.01" xmlns="http://www.w3.org/2000/svg"><path d="m56 2h-32a2 2 0 0 0 -2 2v7.73h36v-7.73a2 2 0 0 0 -2-2zm-35.99 77.76h40v8.25h-40zm42.99-68.03h-46a15 15 0 0 0 -15 15v38a15 15 0 0 0 15 15h46a15 15 0 0 0 15-15v-38a15 15 0 0 0 -15-15z" fill="none" stroke="#585a5d" stroke-miterlimit="10" stroke-width="4"/><path d="m25.76 59.33h28.5" fill="none" stroke="#585a5d" stroke-linecap="round" stroke-miterlimit="10" stroke-width="4"/><g fill="#585a5d"><path d="m33.79 44.93a1.83 1.83 0 0 1 0 2.59 1.83 1.83 0 0 1 -2.59 0l-7-7a1.83 1.83 0 0 1 0-2.59 1.83 1.83 0 0 1 2.59 0z"/><path d="m31.19 38a1.83 1.83 0 0 1 2.59 0 1.83 1.83 0 0 1 0 2.59l-7 7a1.83 1.83 0 0 1 -2.59 0 1.83 1.83 0 0 1 0-2.59zm24.6 6.93a1.83 1.83 0 0 1 0 2.59 1.83 1.83 0 0 1 -2.59 0l-7-7a1.83 1.83 0 0 1 0-2.59 1.83 1.83 0 0 1 2.59 0z"/><path d="m53.19 38a1.84 1.84 0 0 1 2.59 0 1.84 1.84 0 0 1 0 2.59l-7 7a1.83 1.83 0 0 1 -2.59 0 1.83 1.83 0 0 1 0-2.59z"/></g></svg>