<svg xmlns="http://www.w3.org/2000/svg" viewBox="0 0 500 500"><path fill="#4B86C2" d="M50 500c-27.614 0-50-22.386-50-50V50C0 22.386 22.386 0 50 0h400c27.615 0 50 22.386 50 50v219.224l-84.14-84.14-17.68 17.677L500 304.58v35.354L380.502 220.438l-17.678 17.678L500 375.29v35.397l-154.852-154.85-17.677 17.676L500 446.04v3.962c0 27.614-22.386 50-50 50H340.38c4.13-39.908-9.14-81.33-39.787-111.978l-61.52-61.518-61.517-61.518c-24.497-24.498-24.568-64.143-.16-88.55 24.406-24.407 64.052-24.335 88.548.16l8.484 8.485V291.15l159.1-159.1H327.46l-8.483-8.484c-53.893-53.893-141.11-54.05-194.808-.354s-53.54 140.916.353 194.81l61.518 61.517 61.52 61.517c16.006 16.006 21.584 38.48 16.72 58.945zm0 0"/></svg>