<svg xmlns="http://www.w3.org/2000/svg" viewBox="0 0 109.937 88.457" fill="#28334c"><path d="M43.637 3.9c.1.6-.2 1.1-1.2 1.6a13.572 13.572 0 0 0-6.4-.9c-2.5.2-4.6 1-4.3 2.7.4 1.7 2.8 2.7 7.1 2.3 10.5-.9 10.4-8 25.8-9.4 12-1.1 18.7 2.6 19.6 7.1.7 3.5-2.2 6.9-10.9 7.6-7.7.7-12.2-1.4-12.6-3.5-.2-1.1.4-2.7 4.1-3.1.4 1.7 2.5 3.5 7.5 3 3.6-.3 6.6-1.6 6.2-3.6-.4-2.1-4.2-3.3-10.2-2.8-12.2 1.1-15.2 7.8-25.6 8.7-7.4.7-13.4-2-14.2-6-.3-1.5-.3-5 7.5-5.7 4-.3 7.2.4 7.6 2zm-39 41.8a20.725 20.725 0 0 0-4.6 14.2 16.515 16.515 0 0 0 6.5 12 15.716 15.716 0 0 0 13.2 3.1 44.893 44.893 0 0 0 5.9-1.9 16.639 16.639 0 0 1-10.8-4 16.217 16.217 0 0 1-6.8-11.1 14.879 14.879 0 0 1 2.4-11.8 15.615 15.615 0 0 1 10.8-5.9 18.871 18.871 0 0 1 12.6 3.7 27.286 27.286 0 0 0-3.4-3.4c-4-2.7-8.3-4-13.6-2.7a20.42 20.42 0 0 0-12.2 7.8z"/><path d="M58.237 22.6a160.34 160.34 0 0 1-32.7-3.1c-8.9-2.2-13.6-4.6-13.6-7.7 0-1.3.6-2.4 2.4-3.7-5.6 2.2-8.6 4-8.6 6.8.3 3.1 5.3 6.2 15.5 8.6 9.6 2.4 21.9 3.7 36.7 3.7 15.1 0 27.1-1.3 36.7-3.7 10.2-2.4 15.1-5.6 15.1-8.6 0-2.2-2.2-4.3-6.2-5.9a3.383 3.383 0 0 1 1.6 2.7c0 3.1-4.6 5.6-13.9 7.7a154.4 154.4 0 0 1-33 3.2z"/><path d="M95.037 31.2a166.142 166.142 0 0 1-36.7 3.7 173.326 173.326 0 0 1-37-3.7c-8.6-2.2-13.2-4.6-14.8-7.1a91.036 91.036 0 0 0 10.2 30c3.7 5.6 7.4 10.5 11.1 15.8a38.8 38.8 0 0 1 3.4 9.3 17.9 17.9 0 0 0 10.2 6.8 41.661 41.661 0 0 0 16.4 2.4h.6a46.485 46.485 0 0 0 16.9-2.4 19.119 19.119 0 0 0 9.9-6.8h.3a37.66 37.66 0 0 1 3.1-9.3c3.7-5.3 7.4-10.2 11.1-15.8a96.666 96.666 0 0 0 10.2-30c-2 2.8-6.6 5.2-14.9 7.1z"/></svg>