<svg viewBox="0 0 254.432 343.031" xmlns="http://www.w3.org/2000/svg"><path d="m16.432 83.373s5.875 22.658 6.712 30.212-15.112 24.336-15.112 32.728 3.353 23.5 21.817 31.052 20.98 26.853 20.98 38.6-6.712 34.4-6.712 34.4-4.185 56.235 18.466 66.305 17.623 10.069 22.656 10.069 41.96 15.109 63.778 9.234 27.69-12.587 27.69-12.587 21.821 1.676 28.534-17.627 10.91-59.579 8.392-78.043-5.874-42.8 9.23-51.191 31.052-18.46 28.534-26.853-15.942-20.142-15.942-20.142-3.358-20.978-.842-26.014 17.623-17.626 9.23-26.855-23.5-9.23-23.5-9.23l-19.3 1.676s-32.728-29.37-75.527-27.692-69.65 27.692-69.65 27.692-14.264-5.035-26.853 0-15.1 0-12.583 14.266z" fill="#fba919"/><path d="m93.11 208.319s-16.619 25.411-28.809 43.444c-1.886 2.789 12.19 2.983 12.19 2.983l16.618-46.426zm7.912-52.682s-5.009 12.5-7.754 19.123c-2.979 7.2-14.336 10.786-14.336 10.786s5.887-6.175 5.887-21.817c0-6.563 8.473-9.172 8.473-9.172z" fill="#e78724"/><path d="m95.961 162.7s-10.264 12.217-29.32 5.375-21.014-31.275-21.014-38.117 36.165 6.842 41.053 9.775 14.168 14.661 9.282 22.97zm-71.986-130.547s17.592-3.423 29.32 5.863 15.15 16.617 15.15 16.617l-19.769 15.667s-9.552-4.425-12.484-17.133-.977-18.567-12.217-21.014z" fill="#e78724"/><path d="m90.832 127.413c-7.575-10.752-20.057-15.442-30.024-16.219-16.994-1.329-25.062 4.679-25.062 4.679s27.832 1.179 35.854 11.715c14.934 19.61 36.721 21.2 40.2 16.9-4.028.2-8.46-1.8-13.2-6.28-2.968-2.808-5.368-7.382-7.768-10.795zm-46.986 38.018s-30.881-10.616-25.014-21.365 1.2-16.611 1.2-16.611-17.244 12.871-12.85 26.554c2.7 8.4 7.23 14.479 32.106 26.138 11.932 22.162 2.464 62.054 3.031 62.242.945.314 16.753-7.813 15.673-45.135-.329-11.461-1.245-27.106-14.147-31.822zm40.466-114.155c-12.948 6.578-30.687 15.739-30.687 15.739l6.982 3.493c-.667 1.079-.988 1.723-.988 1.723l7.166 3.258s17.493 12.672 28.211 20.819c-3.574-11.008-14.064-28.291-14.064-28.291s-2.973-7.943 3.38-16.741zm43.02 268.144c-39.8 0-53.28-20.2-53.28-20.2l6.22 15.146c2.351 6.553 27.431 26.942 47 26.942" fill="#e78724"/><path d="m78.409 285.564s3.662 22.379 18.323 22.379c12.459 0 16.13-18.9 16.13-22.81l-34.454.431zm-24.399-33.75a161.465 161.465 0 0 0 7.329-31.278c1.756-15.8 1.116-38.915 1.116-38.915s-3.912 15.15-7.333 17.6-9.774 19.057-9.774 19.057-3.4 24.736-5.024 33.05c4.483.9 8.258-1.744 13.686.488zm-35.406-98.048s8.306-2.935 10.752-21.015a81.631 81.631 0 0 0 -2.934-33.722s.488 24.924-2.442 29.813-5.375 6.352-8.8 12.707 1.465 10.262 3.423 12.217z" fill="#e78724"/><path d="m28.522 36.43-1.7-1.074c-5 .169 1.7 1.074 1.7 1.074z" fill="#fdc168"/><path d="m91.073 45.922s-7.817-1.3-11.729-7.166-14.987-17.596-32.644-17.727-35.124 4.693-35.124 4.693l15.248 9.635c1.613-.052 4.433-.031 9.1.125 19.137.636 22.083 19.565 22.083 19.565l67.443-9.287" fill="#fba919"/><path d="m97.591 150.469a26.518 26.518 0 0 1 -23.135 6.189c-14.011-2.931-22.484-9.122-23.135-19.875s2.934-14.983 2.934-14.983 15.637 4.886 23.135 11.4 13.031 16.941 20.2 17.266z" fill="#fff"/><path d="m86.549 147.209a24.955 24.955 0 0 1 -16.757.671c-11.577-3.861-12.348-15.9-12.348-15.9s-7.1 20.842 12.81 24.855c15.971 3.217 25.417-6.038 25.417-6.038l-9.122-3.586z" fill="#c9c9c9"/><path d="m92.172 41.5c-.851-17.875 13.8-32.112 18.879-32.718.281 3.029-.283 14.844 4.793 18.477 1.478-9.649 6.475-20.289 26.208-27.259-4.226 11.209-.564 20.6 1.18 24.95 13.475-12.231 22.554-10.209 22.554-10.209s-9.364 16.159-5.702 26.759c-27.05-2.121-67.781 2.874-67.913 0zm-57.346 27.228c-6.455-5.355-1.644-10.328-2.154-16.408-.278-3.237-.534-6.291-1.6-7.976-5.94-9.378-19.951-12.224-20.091-12.254l-6.576-1.29 4.353-5.09c.564-.659 18.441-17.716 46.106-8.785 19.352 6.241 33.677 27.405 34.211 28.26l-9.7 4.563c-.118-.18-11.443-20.074-28.043-25.427-13.421-4.33-25.789-.211-31.088 2.489 5.632 2.249 13 6.344 17.433 13.349 2.093 3.309 2.446 7.474 2.787 11.508.45 5.34.87 10.381 4.8 13.646zm-17.238 78.165s8.132-10.083 10.54-29.7c.946-7.728-.734-22.971-3.423-28.836a117.9 117.9 0 0 1 -3.173 28.832s-2.471 26.771-3.94 29.7z" fill="#463014"/><path d="m60.466 58.544c0-.022-2.609-11.405-9.831-17.152-10.188-8.1-22.627-3.793-22.747-3.755l-1.806-5.58c.6-.2 14.82-4.676 27.923 4.535 13.182 9.263 14.764 17.66 14.9 18.588l-8.44 3.364zm-17.334 81.117s-4.266-6.107-3.5-12.824c.382-3.317 1.919-6.722 4.663-7.93 5.1-2.241 7.359 3.54 7.359 3.54s-7.18 1.772-8.522 17.214z" fill="#463014"/><path d="m89.968 148.969c.178.333.269.519.269.519s-13.306 9.986-26.942-.147c-7.3-5.429-6.61-18.859-4.374-24.554a43.891 43.891 0 0 1 14.871 6.468c-5.21-4.65-9.771-8.073-9.759-8.152l-5.922-1.676-11.51-3.946c-.147.878-4.346 20.556 7.772 33.964 5.371 5.945 30.551 19.259 42.506-3.506l-6.912 1.032z" fill="#463014"/><path d="m88.722 150.433c7.492 11.4 26.394 4.887 26.068-7.168 0 0-12.63 6.97-23.789-5.863-6.515-7.493-27.39-28.152-55.7-21.286 19.55 4.3 45.432 22.16 53.42 34.317z" fill="#463014"/><path d="m32.657 182.613c1.8 1.041 8.158 7.624 8.162 17.468 0 4.937-.492 29.737-2.935 44.888 3.675 2.388 6.235 2.9 9.895 5.33 1.832-17.547 3.146-42.979 2.533-53.246-.7-11.7-6.966-19.557-12.777-22.907-1.82-1.047-3.721-2.076-5.636-3.111-9.953-5.378-20.246-10.941-20.246-20.441 0-7.431 2.889-9.756 5.947-12.219l.33-.267c2.03-1.639 4.326-3.5 5.687-6.553 3.713-8.349 4.32-29.615 0-35.014-2.153-2.69-7.924-11.736-6.265-17.815a8.144 8.144 0 0 1 4.472-5.258 22.389 22.389 0 0 1 10.1-1.943c8.223 0 17.342 2.5 22.048 3.993 16.813 5.329 37.1 20.693 42.916 25.275.167.128.265.2.283.215l3.721 2.588-2.323-3.896c-.144-.24-14.883-24.476-41.237-33.362-5.127-1.729-15.2-4.63-25.1-4.63-5.894 0-10.9 1.029-14.855 3.057a17.887 17.887 0 0 0 -9.453 11.388c-3.328 12.207 7.511 25.8 7.881 26.233 1.264 2.256 1.8 18.643-1.12 25.2a10.1 10.1 0 0 1 -2.9 2.919c-.436.353-.925.72-1.442 1.112-4.111 3.111-10.343 7.808-10.343 18.635 0 14.814 15.014 22.846 27.08 29.3 1.979 1.065 3.869 2.073 5.577 3.057z" fill="#463014"/><path d="m34.826 68.728c-6.455-5.355-1.644-10.328-2.154-16.408-.278-3.237-.534-6.291-1.6-7.976-5.94-9.378-19.951-12.224-20.091-12.254l-6.576-1.29 4.353-5.09c.564-.659 18.441-17.716 46.106-8.785 19.352 6.241 33.677 27.405 34.211 28.26l-9.7 4.563c-.118-.18-11.443-20.074-28.043-25.427-13.421-4.33-25.789-.211-31.088 2.489 5.632 2.249 13 6.344 17.433 13.349 2.093 3.309 2.446 7.474 2.787 11.508.45 5.34.87 10.381 4.8 13.646z" fill="#463014"/><path d="m34.616 69.825-.417-.345c-4.786-3.972-3.937-7.885-3.115-11.671a18.3 18.3 0 0 0 .608-5.409c-.261-3.115-.512-6.054-1.45-7.538-5.656-8.929-19.323-11.79-19.458-11.818l-8.213-1.607 5.445-6.365a45.79 45.79 0 0 1 31.016-11.706 52.5 52.5 0 0 1 16.13 2.627c20.2 6.513 34.606 28.456 34.742 28.673l.583.932-11.478 5.402-.461-.731c-1.235-2.109-12.116-20.057-27.516-25.023a38.476 38.476 0 0 0 -11.837-1.837 43.158 43.158 0 0 0 -16.54 3.36c5.319 2.4 11.769 6.427 15.85 12.863 2.219 3.506 2.578 7.792 2.931 11.932.432 5.149.841 9.99 4.452 12.988l1.363 1.131z" fill="#463014"/><path d="m60.466 58.544c0-.022-2.609-11.405-9.831-17.152-10.188-8.1-22.627-3.793-22.747-3.755l-1.806-5.58c.6-.2 14.82-4.676 27.923 4.535 13.182 9.263 14.764 17.66 14.9 18.588l-8.44 3.364z" fill="#463014"/><path d="m59.765 59.875-.254-1.12c-.027-.11-2.582-11.1-9.488-16.6a22.052 22.052 0 0 0 -14.1-4.726 25.928 25.928 0 0 0 -7.715 1.128l-.934.31-2.423-7.443.929-.3a33.191 33.191 0 0 1 9.528-1.309 33.3 33.3 0 0 1 19.262 5.972c13.512 9.5 15.161 18.276 15.3 19.245l.119.766zm-23.843-24.393a24.306 24.306 0 0 1 15.32 5.145c6.133 4.884 9.017 13.508 9.89 16.6l6.648-2.649c-.6-2.347-3.252-9.391-14.336-17.183a30.907 30.907 0 0 0 -18.136-5.616 33.179 33.179 0 0 0 -7.983.946l1.2 3.706a29.084 29.084 0 0 1 7.4-.948zm60.198 267.092a12.328 12.328 0 0 1 -7.878-2.816c-1.564-1.348-6.852-6.2-9.183-12.155-.87-2.225-.675-4 .588-5.286.87-.878 2.677-1.927 6.344-1.927h19.716c2.789 0 4.789.6 5.939 1.779a4.03 4.03 0 0 1 .591 4.464 48.787 48.787 0 0 1 -8.73 12.956 9.937 9.937 0 0 1 -7.387 2.993zm3.027-151.474-10.426-.671a54.484 54.484 0 0 1 4.392 10.775c1.95 6.873-1.783 16.918-1.783 16.918s13.9-15.739 7.817-27.021zm-13.015 179c-37.109-2.852-50.165-37.917-50.165-45.22h9.691-4.846 4.846c.048 3.157 9.91 33.152 41.216 35.559z" fill="#463014"/><path d="m75.704 267.28a24.339 24.339 0 0 1 .068-9.653c-2.82-2.12-7.881-2.907-11.678-4.138-3.1-1.965-18.993 2.014-30.52-11.936-14.442-17.468-11.4-27.9-11.4-27.9-3.7 4.114-7.292 2.547-12.936 21.73s2.653 32.564 18.133 45.993c7.313 6.344 17.652 8.957 26.544 9.957-2.979-2.991 5.088-3.29 10.649-5.371-.443-4.489.3-8.847 3.646-12.357a18.911 18.911 0 0 1 7.309-4.388c.151-.348.278-.67.421-1a8.579 8.579 0 0 1 -.232-.937z" fill="#fff"/><path d="m64.485 285.849c-.322-.942-.564-1.9-.8-2.869-.257-1.056-1.537-4.047.041-.632a12.655 12.655 0 0 1 -.866-2.684c-25.07-.032-46.88-17.244-42.666-53.431-3.282-4.357-7.878 8.786-7.878 8.786s-12.553 36.441 19.86 50.565c10.8 4.71 20.345 8.087 22.6 6.724 4.691.953 8.925-2.317 10.513-4.468-.3-.66-.569-1.322-.8-1.992z" fill="#c9c9c9"/><path d="m75.252 262.033a20.14 20.14 0 0 1 2.139-8.961c.1-.2.223-.4.334-.595-9.647-.083-20.758-1.007-30.218-4.793-10.4-4.159-23.407-18.39-25.642-35.11 0 0-19.584 15.112-13.829 47.458 5.4 30.374 30.818 40.276 59.806 41.951.015-.2-3.26-6.963-2.225-11.105-16.46 1.2-34.866-5.163-43.751-19.784-8.135-13.382-5.853-36.228-2.51-39.576 8.155 25.732 37.5 30.963 55.9 30.514z" fill="#463014"/><path d="m78.289 243.612c-5.216 15.308-15.871 27.7-15.871 27.7s14.657-.667 15.465-3.26c.6-1.912 13.234-31.49 18.084-66.139-4.561 7.487-17.235 40.387-17.678 41.699z" fill="#463014"/><path d="m161.326 208.319s16.615 25.411 28.806 43.444c1.886 2.789-12.194 2.983-12.194 2.983l-16.614-46.426zm-7.914-52.682s5.01 12.5 7.751 19.123c2.979 7.2 14.335 10.786 14.335 10.786s-5.886-6.175-5.886-21.817c0-6.563-8.472-9.172-8.472-9.172z" fill="#e78724"/><path d="m158.472 162.7s10.264 12.217 29.325 5.375 21.015-31.278 21.015-38.12-36.165 6.842-41.053 9.775-14.172 14.661-9.287 22.97zm71.988-130.547s-17.593-3.424-29.328 5.863-15.15 16.617-15.15 16.617l19.773 15.667s9.556-4.429 12.489-17.137.977-18.569 12.216-21.014z" fill="#e78724"/><path d="m163.605 127.413c7.575-10.752 20.053-15.442 30.024-16.219 17-1.329 25.059 4.679 25.059 4.679s-27.832 1.179-35.855 11.715c-14.935 19.61-36.715 21.2-40.2 16.9 4.027.2 8.461-1.8 13.2-6.28 2.962-2.806 5.366-7.377 7.769-10.79zm46.984 38.018s30.877-10.616 25.012-21.366-1.2-16.611-1.2-16.611 17.247 12.872 12.849 26.554c-2.7 8.4-7.23 14.479-32.106 26.138-11.932 22.162-2.464 62.054-3.028 62.242-.946.314-16.752-7.813-15.672-45.135.328-11.461 1.244-27.106 14.146-31.822zm-40.465-114.155c12.944 6.578 30.686 15.739 30.686 15.739l-6.978 3.493c.667 1.079.989 1.723.989 1.723l-7.166 3.258s-17.494 12.672-28.212 20.819c3.57-11 14.06-28.291 14.06-28.291s2.978-7.943-3.376-16.741zm-43.015 268.144c39.793 0 53.274-20.2 53.274-20.2l-6.216 15.146c-2.351 6.553-27.433 26.942-47 26.942" fill="#e78724"/><path d="m176.026 285.564s-3.666 22.379-18.323 22.379c-12.457 0-16.129-18.9-16.129-22.81zm24.399-33.75a161.7 161.7 0 0 1 -7.333-31.278c-1.756-15.8-1.112-38.915-1.112-38.915s3.911 15.15 7.328 17.6 9.775 19.057 9.775 19.057 3.4 24.736 5.024 33.05c-4.482.9-8.252-1.744-13.682.488zm35.407-98.048s-8.31-2.935-10.752-21.015a81.641 81.641 0 0 1 2.934-33.722s-.492 24.924 2.442 29.813 5.376 6.352 8.8 12.707-1.468 10.262-3.422 12.217z" fill="#e78724"/><path d="m225.912 36.43 1.7-1.074c5 .169-1.7 1.074-1.7 1.074z" fill="#fdc168"/><path d="m163.359 45.922s7.821-1.3 11.729-7.166 14.99-17.6 32.648-17.727 35.124 4.693 35.124 4.693l-15.249 9.635c-1.613-.052-4.433-.031-9.1.125-19.133.636-22.079 19.565-22.079 19.565l-67.441-9.287" fill="#fba919"/><path d="m156.844 150.469a26.515 26.515 0 0 0 23.132 6.189c14.012-2.931 22.484-9.122 23.136-19.875s-2.932-14.987-2.932-14.987-15.642 4.891-23.135 11.407-13.031 16.941-20.2 17.266z" fill="#fff"/><path d="m167.883 147.209a24.959 24.959 0 0 0 16.757.671c11.58-3.861 12.351-15.9 12.351-15.9s7.1 20.842-12.814 24.855c-15.968 3.217-25.416-6.038-25.416-6.038l9.122-3.586z" fill="#c9c9c9"/><g fill="#463014"><path d="m219.608 68.728c6.454-5.354 1.648-10.324 2.158-16.408.272-3.237.528-6.291 1.6-7.976 5.94-9.379 19.951-12.225 20.095-12.254l6.571-1.29-4.354-5.092c-.564-.659-18.441-17.716-46.11-8.785-19.348 6.241-33.674 27.405-34.207 28.26l9.7 4.563c.118-.18 11.444-20.073 28.046-25.427 13.42-4.33 25.788-.211 31.084 2.489-5.629 2.249-13 6.344-17.433 13.349-2.093 3.309-2.443 7.474-2.783 11.508-.45 5.34-.874 10.381-4.806 13.646l10.437 3.415zm17.235 78.165s-8.127-10.083-10.536-29.7c-.946-7.728.731-22.971 3.419-28.836-.488 14.417 3.18 28.836 3.18 28.836s2.472 26.771 3.937 29.7z"/><path d="m193.97 58.544c0-.022 2.609-11.405 9.832-17.152 10.187-8.1 22.627-3.793 22.743-3.755l1.811-5.58c-.6-.2-14.82-4.676-27.928 4.535-13.182 9.263-14.76 17.66-14.9 18.588zm17.338 81.117s4.266-6.107 3.495-12.824c-.378-3.317-1.915-6.722-4.659-7.93-5.1-2.241-7.361 3.54-7.361 3.54s7.178 1.772 8.525 17.213z"/><path d="m164.468 148.969c-.178.333-.27.519-.27.519s13.3 9.986 26.938-.147c7.3-5.429 6.614-18.859 4.374-24.554a43.924 43.924 0 0 0 -14.868 6.468c5.211-4.65 9.772-8.073 9.756-8.152l5.926-1.676 11.509-3.944c.147.878 4.345 20.556-7.777 33.964-5.37 5.945-30.55 19.259-42.5-3.506l6.916 1.03z"/><path d="m165.71 150.433c-7.492 11.4-26.388 4.887-26.062-7.168 0 0 12.626 6.97 23.784-5.863 6.515-7.493 27.394-28.152 55.7-21.286-19.549 4.3-45.433 22.16-53.425 34.317z"/><path d="m221.781 182.613c-1.8 1.041-8.162 7.624-8.162 17.468 0 4.937.488 29.737 2.935 44.888-3.676 2.388-6.236 2.9-9.9 5.33-1.832-17.547-3.15-42.979-2.533-53.246.7-11.7 6.963-19.557 12.773-22.907 1.82-1.047 3.722-2.076 5.641-3.111 9.953-5.378 20.245-10.941 20.245-20.441 0-7.431-2.892-9.756-5.95-12.219l-.326-.267c-2.03-1.639-4.33-3.5-5.687-6.553-3.714-8.349-4.323-29.615 0-35.014 2.153-2.69 7.928-11.736 6.269-17.815a8.165 8.165 0 0 0 -4.476-5.258 22.38 22.38 0 0 0 -10.1-1.943c-8.218 0-17.342 2.5-22.044 3.993-16.813 5.329-37.1 20.693-42.92 25.275l-.281.215-3.723 2.588 2.328-3.894c.147-.243 14.884-24.479 41.238-33.365 5.128-1.729 15.2-4.63 25.1-4.63 5.894 0 10.89 1.029 14.854 3.057a17.892 17.892 0 0 1 9.454 11.388c3.328 12.207-7.512 25.8-7.882 26.233-1.264 2.256-1.8 18.643 1.117 25.2a10.083 10.083 0 0 0 2.9 2.919c.436.353.921.72 1.442 1.112 4.12 3.109 10.344 7.806 10.344 18.633 0 14.814-15.014 22.846-27.076 29.3-1.981 1.065-3.873 2.073-5.576 3.057z"/><path d="m203.871 66.985c-2.388-4.045-8.5-11.855-22.571-18.718-15.708-7.656-33.888-11.543-54.044-11.552h-.078c-20.158.009-38.346 3.895-54.046 11.55-14.076 6.864-20.181 14.673-22.571 18.718l-1.029 1.357 12.054 2.683.382-.482.2-.442c.186-.8 1.8-5.1 15.241-11.651 14.367-7.007 31.123-10.559 49.8-10.566s35.428 3.558 49.794 10.566c13.446 6.552 15.067 10.852 15.251 11.652l.2.442.378.482 12.058-2.683-1.02-1.355z"/><path d="m219.608 68.728c6.454-5.354 1.648-10.324 2.158-16.408.272-3.237.528-6.291 1.6-7.976 5.94-9.379 19.951-12.225 20.095-12.254l6.571-1.29-4.354-5.092c-.564-.659-18.441-17.716-46.11-8.785-19.348 6.241-33.674 27.405-34.207 28.26l9.7 4.563c.118-.18 11.444-20.073 28.046-25.427 13.42-4.33 25.788-.211 31.084 2.489-5.629 2.249-13 6.344-17.433 13.349-2.093 3.309-2.443 7.474-2.783 11.508-.45 5.34-.874 10.381-4.806 13.646l10.437 3.415z"/><path d="m207.186 65.687 1.358-1.131c3.615-3 4.02-7.841 4.456-12.988.35-4.142.712-8.428 2.931-11.932 4.078-6.435 10.533-10.467 15.851-12.865a43.2 43.2 0 0 0 -16.543-3.359 38.445 38.445 0 0 0 -11.833 1.837c-15.4 4.966-26.282 22.914-27.514 25.019l-.46.732-11.48-5.4.584-.932c.135-.217 14.54-22.16 34.738-28.673a52.494 52.494 0 0 1 16.134-2.626 45.8 45.8 0 0 1 31.016 11.705l5.445 6.365-8.215 1.611c-.136.028-13.8 2.887-19.462 11.818-.938 1.485-1.184 4.421-1.45 7.538a18.3 18.3 0 0 0 .613 5.406c.821 3.786 1.669 7.7-3.119 11.671l-.416.345-12.634-4.143z"/><path d="m193.97 58.544c0-.022 2.609-11.405 9.832-17.152 10.187-8.1 22.627-3.793 22.743-3.755l1.811-5.58c-.6-.2-14.82-4.676-27.928 4.535-13.182 9.263-14.76 17.66-14.9 18.588z"/><path d="m184.45 55.8.114-.766c.143-.969 1.794-9.747 15.3-19.245a34.452 34.452 0 0 1 28.793-4.663l.928.3-2.422 7.443-.935-.31a26.059 26.059 0 0 0 -7.718-1.128 22.031 22.031 0 0 0 -14.1 4.726c-6.908 5.494-9.465 16.487-9.488 16.6l-.254 1.118zm41.462-19.37 1.2-3.706a33.122 33.122 0 0 0 -7.98-.946 30.91 30.91 0 0 0 -18.134 5.616c-11.088 7.794-13.738 14.836-14.339 17.183l6.653 2.649c.87-3.094 3.752-11.717 9.888-16.6a24.3 24.3 0 0 1 15.317-5.145 29.122 29.122 0 0 1 7.4.948zm-74.98 263.15a48.875 48.875 0 0 1 -8.734-12.956 4.035 4.035 0 0 1 .6-4.464c1.151-1.176 3.146-1.779 5.935-1.779h19.718c3.665 0 5.47 1.049 6.34 1.927 1.264 1.279 1.461 3.059.591 5.286-2.332 5.951-7.621 10.808-9.184 12.155a12.333 12.333 0 0 1 -7.876 2.816 9.933 9.933 0 0 1 -7.386-2.993zm4.358-148.48 10.42-.671a54.625 54.625 0 0 0 -4.388 10.775c-1.95 6.873 1.783 16.918 1.783 16.918s-13.9-15.739-7.815-27.021z"/></g><path d="m127.219 113.88c-6.645 0-15.309-.182-21.809-4.854 0 0 8.511 14.921 21.8 14.921l.011-1.888.011 1.888c13.287 0 21.8-14.921 21.8-14.921-6.5 4.671-15.171 4.854-21.809 4.854z" fill="#e78724"/><path d="m145.515 113.808a35.7 35.7 0 0 1 -18.3 5.555 35.7 35.7 0 0 1 -18.3-5.555s9.706 11.845 18.247 11.936v.007h.096v-.007c8.538-.091 18.249-11.936 18.249-11.936zm22.789 216.292-.743-9.661c31.3-2.407 41.161-32.4 41.212-35.559h9.691c0 7.3-13.056 42.369-50.16 45.221z" fill="#463014"/><path d="m178.732 267.28a24.3 24.3 0 0 0 -.068-9.653c2.824-2.12 7.881-2.907 11.678-4.138 3.1-1.965 19 2.014 30.524-11.936 14.442-17.468 11.4-27.9 11.4-27.9 3.706 4.114 7.292 2.547 12.94 21.73s-2.657 32.564-18.137 45.993c-7.312 6.344-17.652 8.957-26.544 9.957 2.979-2.991-5.088-3.29-10.645-5.371.444-4.489-.3-8.847-3.649-12.357a18.888 18.888 0 0 0 -7.307-4.388c-.152-.348-.282-.67-.421-1a8.57 8.57 0 0 0 .229-.937z" fill="#fff"/><path d="m189.946 285.849c.326-.942.564-1.9.8-2.869.261-1.056 1.541-4.047-.039-.632a12.655 12.655 0 0 0 .866-2.684c25.07-.032 46.88-17.244 42.662-53.431 3.282-4.357 7.881 8.786 7.881 8.786s12.551 36.442-19.863 50.566c-10.8 4.71-20.344 8.087-22.6 6.724-4.7.953-8.929-2.317-10.513-4.468.3-.66.573-1.322.8-1.992z" fill="#c9c9c9"/><path d="m179.179 262.033a20.134 20.134 0 0 0 -2.135-8.961c-.1-.2-.224-.4-.334-.595 9.646-.083 20.758-1.007 30.218-4.793 10.4-4.159 23.406-18.39 25.642-35.11 0 0 19.584 15.112 13.829 47.458-5.406 30.374-30.819 40.276-59.806 41.951-.015-.2 3.261-6.963 2.225-11.105 16.456 1.2 34.862-5.163 43.752-19.784 8.13-13.382 5.849-36.228 2.506-39.576-8.152 25.732-37.5 30.963-55.9 30.514z" fill="#463014"/><path d="m190.884 269.652c-3.463-3.744-9.83-8.206-24.511-8.206l-39.1-.024h-.1c-11.269.008-39.111.024-39.111.024-14.677 0-21.044 4.464-24.509 8.206-5.047 5.449-5.839 13.028-2.347 22.5 9.278 25.217 22.317 50.836 65.965 50.872h.096c43.644-.038 56.682-25.655 65.964-50.872 3.492-9.474 2.7-17.054-2.346-22.5zm-6.8 20.734c-4.421 12.663-16.3 43.313-56.872 43.366-40.576-.053-52.452-30.7-56.873-43.366-2.446-7.026-2.26-12.225.572-15.454 1.934-2.208 6.378-4.842 16.507-4.842h10.581c7.806-.007 17.607-.015 29.214-.019s21.409.012 29.213.019h10.577c10.131 0 14.575 2.634 16.51 4.842 2.829 3.233 3.018 8.429.571 15.454z" fill="#463014"/><path d="m176.144 243.612c5.216 15.308 15.87 27.7 15.87 27.7s-14.655-.667-15.465-3.26c-.595-1.912-13.231-31.49-18.081-66.139 4.559 7.495 17.229 40.393 17.676 41.7z" fill="#463014"/></svg>