<svg xmlns="http://www.w3.org/2000/svg" viewBox="0 0 174.1 385.298"><path d="M86.246 304.037a211.264 211.264 0 0 1-48.405-5.412A93.041 93.041 0 0 1 24 294.344l11.187 19.113 4.376 59.719c0 6.7 21.268 12.122 47.5 12.122s47.5-5.427 47.5-12.122l3.465-60.369 10.585-18.519a92.079 92.079 0 0 1-13.969 4.337 211.261 211.261 0 0 1-48.398 5.412zm62.736-194.328c-16.568 2.314-38.556 3.589-61.916 3.589s-45.348-1.275-61.916-3.589a116.006 116.006 0 0 1-19.3-4.016 27.936 27.936 0 0 1-4.745-1.968l10.266 94.473q.715-2.44 1.6-4.871a92.352 92.352 0 0 1 4.181-9.731 86.2 86.2 0 0 1 5.169-8.984 69.482 69.482 0 0 1 5.946-7.79 47.478 47.478 0 0 1 6.469-6.124 30.794 30.794 0 0 1 6.7-4.006 16.99 16.99 0 0 1 6.7-1.444 14.456 14.456 0 0 1 7.4 2.091 21.208 21.208 0 0 1 6.681 6.769 5.41 5.41 0 0 1 .9 2.115 11.531 11.531 0 0 1 .189 2.016 5.377 5.377 0 0 1-1.071 3.534 3.21 3.21 0 0 1-2.542 1.294 3.255 3.255 0 0 1-2.5-1.418 26.87 26.87 0 0 1-2.585-4.057 9.8 9.8 0 0 0-2.962-3.459 6.24 6.24 0 0 0-3.509-1.07 10.842 10.842 0 0 0-6.282 2.439 36.5 36.5 0 0 0-6.618 6.445 70.612 70.612 0 0 0-6.283 9.159 95.584 95.584 0 0 0-5.317 10.551 75.365 75.365 0 0 0-3.676 10.653 37.854 37.854 0 0 0-1.366 9.431 22.564 22.564 0 0 0 .189 2.862 9.654 9.654 0 0 0 .715 2.664 5.355 5.355 0 0 0 1.428 1.964 3.4 3.4 0 0 0 2.29.772 7.722 7.722 0 0 0 3.531-1.045 26.529 26.529 0 0 0 4.1-2.736 51.477 51.477 0 0 0 4.266-3.834q2.145-2.139 3.992-4.33t3.277-4.2a24.879 24.879 0 0 0 2.143-3.513l3.908-11.7a5.5 5.5 0 0 1 1.87-2.687 4.137 4.137 0 0 1 2.375-.8 3.676 3.676 0 0 1 1.176.2 2.874 2.874 0 0 1 1.786 1.718 4.139 4.139 0 0 1 .273 1.567 22.741 22.741 0 0 1-.42 4.48 35.6 35.6 0 0 1-1.072 4.082q-.651 1.989-1.45 4.006t-1.554 4.207a9.551 9.551 0 0 0-.61 1.566q-.441 1.322-1.071 3.311t-1.366 4.455q-.737 2.465-1.512 5.027t-1.492 5.028q-.715 2.463-1.282 4.455t-.946 3.334c-.252.9-.406 1.426-.462 1.594a10.364 10.364 0 0 1-.672 1.765 11.665 11.665 0 0 1-1.093 1.842 6.712 6.712 0 0 1-1.386 1.448 2.554 2.554 0 0 1-1.555.573 2.193 2.193 0 0 1-1.953-.9 6.255 6.255 0 0 1-.609-3.285v-.7a7.07 7.07 0 0 1 .041-.746 17.656 17.656 0 0 1 .631-2.989q.588-2.188 1.408-4.951t1.765-5.725q.943-2.961 1.7-5.3-2.23 2.49-4.833 4.953a52.125 52.125 0 0 1-5.337 4.429 31.648 31.648 0 0 1-5.505 3.211 13.029 13.029 0 0 1-5.337 1.245 9.545 9.545 0 0 1-5.065-1.295c-.255-.157-.5-.332-.736-.506l5.712 59.888c1.487 3.727 29.481 12.884 66.391 12.884 36.927 0 64.932-9.166 66.393-12.89l8.2-71.2c-.679.623-1.34 1.232-1.972 1.822a86.044 86.044 0 0 1-6.662 5.648 30.052 30.052 0 0 1-6.114 3.658 15.863 15.863 0 0 1-6.388 1.3 7.733 7.733 0 0 1-4.938-1.394 4.636 4.636 0 0 1-1.744-3.832v-.373a2.527 2.527 0 0 1 .043-.424 9.046 9.046 0 0 1 1.3-3.434 39.467 39.467 0 0 1 2.73-4.031q1.6-2.091 3.4-4.232t3.342-4.057a39.179 39.179 0 0 0 2.541-3.508 5.273 5.273 0 0 0 1.01-2.588 1.172 1.172 0 0 0-.42-.947 2.2 2.2 0 0 0-1.387-.348 7.886 7.886 0 0 0-3.466.871 17.221 17.221 0 0 0-3.532 2.34 31.981 31.981 0 0 0-3.4 3.36 49.565 49.565 0 0 0-3.109 3.931q-1.45 2.043-2.647 4.108t-2.039 3.806q-.252.549-.715 1.543t-1.008 2.241q-.548 1.245-1.156 2.562t-1.113 2.49c-.336.78-.637 1.475-.9 2.09s-.457 1.037-.569 1.27q-.21.447-.693 1.691t-1.113 2.912q-.63 1.666-1.325 3.51t-1.3 3.484q-.61 1.641-1.071 2.887c-.308.828-.506 1.393-.59 1.692a18.168 18.168 0 0 1-.986 2.44 10.044 10.044 0 0 1-1.3 2.016 5.96 5.96 0 0 1-1.681 1.392 4.3 4.3 0 0 1-2.121.523 4.141 4.141 0 0 1-2.5-.722 3.241 3.241 0 0 1-.987-2.762 8.678 8.678 0 0 1 .252-2.04 18.189 18.189 0 0 1 .631-2.066c.252-.682.512-1.344.778-1.991s.511-1.269.734-1.867q2.271-4.977 4.623-9.98t4.518-9.9c.3-.682.576-1.35.869-2.028-.088.086-.174.176-.26.26a55.792 55.792 0 0 1-5.442 4.654 28.867 28.867 0 0 1-5.378 3.211 12.69 12.69 0 0 1-5.192 1.194 6.7 6.7 0 0 1-2.877-.547 4.8 4.8 0 0 1-1.849-1.493 5.964 5.964 0 0 1-.989-2.24c-.066-.295-.107-.6-.15-.91a40.99 40.99 0 0 1-1.488 1.11 30.165 30.165 0 0 1-5.127 2.96 11.343 11.343 0 0 1-4.537 1.12 4.294 4.294 0 0 1-3.28-1.344q-1.26-1.342-1.259-4.578a25.1 25.1 0 0 1 .671-5.326 27.216 27.216 0 0 1-2.73 3.931 23.952 23.952 0 0 1-3.74 3.635 18.687 18.687 0 0 1-4.709 2.659 15.436 15.436 0 0 1-5.673 1.02 10.143 10.143 0 0 1-2.669-.348 5.594 5.594 0 0 1-2.248-1.195 6 6 0 0 1-1.555-2.264 9.345 9.345 0 0 1-.588-3.559q0-.05.168-1.519a32.439 32.439 0 0 1 1.072-4.629q.9-3.159 2.793-8.188t5.338-12.193a6.723 6.723 0 0 1 2.037-2.713 4.231 4.231 0 0 1 2.5-.822 4.611 4.611 0 0 1 1.219.174 3.942 3.942 0 0 1 1.178.548 2.959 2.959 0 0 1 .883.946 2.57 2.57 0 0 1 .336 1.318 3.457 3.457 0 0 1-.127.945 11.345 11.345 0 0 1-.9 2.215q-.695 1.371-1.62 3.137t-1.953 3.809q-1.03 2.038-1.912 4.23a42.235 42.235 0 0 0-1.513 4.455 19.192 19.192 0 0 0-.714 4.4 3.282 3.282 0 0 0 .42 1.642 1.466 1.466 0 0 0 1.387.746 8.775 8.775 0 0 0 5.211-1.791 23.156 23.156 0 0 0 4.58-4.455 42.766 42.766 0 0 0 3.8-5.725q1.7-3.062 2.836-5.6a28.385 28.385 0 0 0 1.408-3.633 36.134 36.134 0 0 1 1.324-3.584 11.039 11.039 0 0 1 1.639-2.738 2.9 2.9 0 0 1 2.31-1.1 2.868 2.868 0 0 1 2.4 1.145 4.354 4.354 0 0 1 .881 2.737 7.793 7.793 0 0 1-.567 2.465q-.569 1.568-1.429 3.584t-1.869 4.3q-1.008 2.292-1.869 4.655a46.12 46.12 0 0 0-1.43 4.629 17.335 17.335 0 0 0-.567 4.205 1.61 1.61 0 0 0 1.848 1.793 8.061 8.061 0 0 0 3.236-.9 22.119 22.119 0 0 0 4.055-2.514c.353-.269.709-.55 1.062-.845a34.552 34.552 0 0 1 1.4-4.5q1.47-3.885 2.984-7.715t2.774-7.019l12.732-32.1a5.377 5.377 0 0 1 2.037-2.738 4.87 4.87 0 0 1 2.586-.8 3.742 3.742 0 0 1 2.373.846 3.28 3.28 0 0 1 1.073 2.738 5.6 5.6 0 0 1-.358 1.891 22.892 22.892 0 0 1-.9 2.14q-1.048 2.342-2.5 5.724t-3.11 7.367q-1.66 3.982-3.4 8.287t-3.4 8.387q-1.657 4.083-3.11 7.74t-2.5 6.346a27.944 27.944 0 0 0-.9 2.664 9.8 9.8 0 0 0-.441 2.713 2.433 2.433 0 0 0 .252 1.193 1.009 1.009 0 0 0 .966.449 5.44 5.44 0 0 0 2.206-.623 22.54 22.54 0 0 0 2.857-1.643q1.536-1.019 3.193-2.339t3.3-2.737q1.641-1.42 3.131-2.838t2.67-2.613a1.887 1.887 0 0 1 .646-.427c.473-1.413.905-2.8 1.286-4.151q.336-.9.925-2.539a34.884 34.884 0 0 1 1.344-3.236 13.864 13.864 0 0 1 1.7-2.762 2.659 2.659 0 0 1 2.039-1.17 3.306 3.306 0 0 1 2.438.771 3.113 3.113 0 0 1 .756 2.266 8.225 8.225 0 0 1-.084.945c-.057.432-.125.889-.209 1.37s-.176.937-.274 1.369a6.27 6.27 0 0 1-.273.945q1.553-1.693 3.361-3.359a34.584 34.584 0 0 1 3.74-3.012 21.613 21.613 0 0 1 3.952-2.192 10.384 10.384 0 0 1 4.033-.845 9.767 9.767 0 0 1 2.752.4 7.918 7.918 0 0 1 2.437 1.169 6.113 6.113 0 0 1 1.744 1.942 5.343 5.343 0 0 1 .672 2.712 10.736 10.736 0 0 1-1.029 4.356 31.547 31.547 0 0 1-2.584 4.652q-1.556 2.341-3.361 4.555t-3.383 4.031q-1.576 1.819-2.649 3.086a4.645 4.645 0 0 0-1.113 1.719 1.308 1.308 0 0 0 .379.971 1.757 1.757 0 0 0 1.26.373 4.845 4.845 0 0 0 2.1-.8 35.807 35.807 0 0 0 3.872-2.742q2.5-1.967 6.346-5.277a605.745 605.745 0 0 0 6.135-5.366l11.114-102.929a27.847 27.847 0 0 1-4.75 1.971 115.962 115.962 0 0 1-19.299 4.012zM87 85.288c-48.049 0-87 5.372-87 12s38.951 12 87 12 87-5.372 87-12-38.951-12-87-12zm34.738 15.51c0 1.555-4.629 2.816-10.34 2.816s-10.339-1.261-10.339-2.816 4.629-2.817 10.339-2.817 10.34 1.258 10.34 2.817z" fill="#da4648"/><path d="M103.153 99.55a.467.467 0 0 0-.078.25c0 1.007 3.727 1.822 8.323 1.822s8.323-.815 8.323-1.822l10.871-44.078 43.234-45.645.041-.043c.915-1.035-.942-4.238-4.023-6.985s-6.409-3.677-7.443-2.631l-.023.024-46.127 48.538z" fill="#da4648"/></svg>