<svg xmlns="http://www.w3.org/2000/svg" viewBox="0 0 65.8 65.8"><title>a11y</title><path d="M65.8 32.9a32.9 32.9 0 1 0-32.9 32.9 32.93 32.93 0 0 0 32.9-32.9zM32.9 7.2a5.6 5.6 0 1 1-5.6 5.6 5.66 5.66 0 0 1 5.6-5.6zm-8.2 50.6a2.66 2.66 0 0 1-1.2-.3 2.88 2.88 0 0 1-1.4-3.9s5.5-12.6 6.5-17.2a62.73 62.73 0 0 0 .7-7.9 1.54 1.54 0 0 0-1-1.5L16 23.3a3 3 0 0 1-2-3.7 3 3 0 0 1 3.7-1.8S29 21.4 33 21.4s15.5-3.7 15.5-3.7a2.91 2.91 0 0 1 1.6 5.6L37.8 27a1.42 1.42 0 0 0-1 1.5 62.73 62.73 0 0 0 .7 7.9c1 4.6 6.5 17.2 6.5 17.2a3 3 0 0 1-1.4 3.9 2.66 2.66 0 0 1-1.2.3 2.71 2.71 0 0 1-2.6-1.7l-5.9-12-5.6 12.1a2.88 2.88 0 0 1-2.6 1.6z" fill="#4b86c2"/></svg>