<svg xmlns="http://www.w3.org/2000/svg" viewBox="0 0 80.03 90.01"><path fill="none" stroke="#585a5d" stroke-miterlimit="10" stroke-width="4" d="M56 2H24a2 2 0 0 0-2 2v7.73h36V4a2 2 0 0 0-2-2zM20.01 79.76h40v8.25h-40zM63 11.73H17a15 15 0 0 0-15 15v38a15 15 0 0 0 15 15h46a15 15 0 0 0 15-15v-38a15 15 0 0 0-15-15z"/><path d="M58.31 61.06A6.93 6.93 0 0 1 51.39 68H28.64a6.93 6.93 0 0 1-6.93-6.93 6.93 6.93 0 0 1 6.93-6.93h22.75a6.93 6.93 0 0 1 6.93 6.93z" fill="#585a5d"/><path fill="none" stroke="#585a5d" stroke-linecap="round" stroke-miterlimit="10" stroke-width="4" d="M23.58 40.64s5.25 4.75 10.92 0m11.03 0s5.25 4.75 10.92 0"/></svg>