<svg xmlns="http://www.w3.org/2000/svg" viewBox="0 0 80.03 90.01"><path fill="none" stroke="white" stroke-miterlimit="10" stroke-width="4" d="M56 2H24a2 2 0 0 0-2 2v7.73h36V4a2 2 0 0 0-2-2zM20.01 79.76h40v8.25h-40zM63 11.73H17a15 15 0 0 0-15 15v38a15 15 0 0 0 15 15h46a15 15 0 0 0 15-15v-38a15 15 0 0 0-15-15z"/><circle cx="51.01" cy="42.48" r="4" fill="white"/><circle cx="29.01" cy="42.48" r="4" fill="white"/><path fill="none" stroke="white" stroke-linecap="round" stroke-miterlimit="10" stroke-width="4" d="M25.51 60.8s13.88-11.25 29 0"/></svg>