<svg height="640" viewBox="0 0 1024 640" width="1024" xmlns="http://www.w3.org/2000/svg"><path d="m0 0h1024v640h-1024z" fill="#fff"/><g fill="#706f6f"><path d="m731.71 549.6c-5.221-15.721-17.842-21.844-28.255-25.436-8.146-2.801-40.991-5.107-98.746-8.391-7.308-.416-14.322-.816-19.248-1.115v15.203c4.152.27 9.983.602 18.389 1.082 28.229 1.602 86.957 4.941 94.668 7.594 10.986 3.777 16.25 8.217 18.777 15.848 2.456 7.588 35.314 157.23 57.865 260.9h15.551c-9.08-41.68-55.71-255.75-59-265.68z"/><path d="m567.27 512.39c-32.987-5.225-128.04-20.074-143.24-20.162-16.145 0-26.472 6.914-30.686 20.543-3.247 10.486-17.546 217.31-23.248 301.27h15.217c8.343-122.71 20.09-286.58 22.537-296.78 1.831-5.904 5.277-9.836 16.433-9.836 12.776.078 100.6 13.617 142.98 20.35v-15.38z"/></g><g fill="#706f6f"><path d="m595.02 515.57c-30.369 6.094-117.42 28.547-132.15 36.676-12.316 6.793-18.959 15.691-20.909 27.988-2.123 13.33-15.336 302.29-18.531 372.69h15.2c6.728-148.11 16.759-360.41 18.323-370.31 1.211-7.604 5.053-12.547 13.26-17.08 14.024-7.736 95.758-28.301 124.81-34.521v-15.45z"/><path d="m823.92 618.43c-5.038-19.111-16.189-32.689-35.101-42.738-10.194-5.418-142.45-48.549-175.61-59.332v15.973c65.535 21.322 161.32 52.996 168.48 56.768 15.319 8.143 23.558 18.074 27.547 33.199 3.328 12.627 67.414 267.52 82.967 329.36h15.661c-13.98-55.55-80.48-320.07-83.95-333.23z"/></g><path d="m429.4 503.44c-9.312-22.877-22.919-42.764-18.182-46.77 21.879-18.471 50.735-23.152 139.75-12.459 89.008 10.678 179.81 32.045 201.16 3.562 21.369-28.494 12.463-63.201 17.802-100.59 5.332-37.373 60.534-254.56 60.534-254.56 28.475 9.791 79.213 40.951 72.984 66.758-6.237 25.804-47.177 193.15-51.627 212.73-4.451 19.586-10.686 64.973-11.568 84.561-.891 19.586-5.346 68.535-27.6 81.893-7.684 4.604-19.402 7.688-34.236 9.549-7.112.84-14.331 1.371-14.331 1.371-1.577.111-3.298.158-4.933.244-34.517.5-182.5-15.172-219.97-19.203.031 0 .083-.014.11-.014-2.654-.477-5.681-.758-8.782-.922h-.006c-11.063-.58-23.105.445-23.105.445-31.657 3.447-49.445 7.777-58.947 13.273-3.114 1.344-5.427-6.512-9.462-15.766l-9.57-24.1z" fill="#8c7ba3"/></svg>