<svg height="332.12" viewBox="0 0 316.61 332.12" width="316.61" xmlns="http://www.w3.org/2000/svg" xmlns:xlink="http://www.w3.org/1999/xlink"><filter id="a" height="2.1931" width="1.1482" x="-.07409" y="-.59655"><feGaussianBlur stdDeviation="9.8808712"/></filter><filter id="b" height="1.8775" width="1.1251" x="-.062532" y="-.43877"><feGaussianBlur stdDeviation="5.1544931"/></filter><filter id="c" height="1.3374" width="1.2348" x="-.11742" y="-.1687"><feGaussianBlur stdDeviation="15.770927"/></filter><filter id="d" height="1.5272" width="1.2841" x="-.14205" y="-.26362"><feGaussianBlur stdDeviation="14.129591"/></filter><filter id="e"><feGaussianBlur stdDeviation="3.1642301"/></filter><clipPath id="f"><path d="m261.13 178.47s-38.58 19.29-50.45 87.54c-5.59 32.16 1.62 80.9 31.16 100.89 50.45 34.13 112.76 56.38 152.82 35.61s119.41-113.53 63.8-194.36c-34.13-49.61-51.93-54.9-97.93-59.35-45.99-4.45-97.92 29.67-99.4 29.67z"/></clipPath><radialGradient id="g" cx="280.11" cy="246.39" gradientTransform="matrix(.0067004 -.46977 1.0383 .014809 73.699 392.57)" gradientUnits="userSpaceOnUse" r="134.33"><stop offset="0" stop-color="#ff8626"/><stop offset="1" stop-color="#e12e00"/></radialGradient><clipPath id="h"><path d="m261.13 178.47s-38.58 19.29-50.45 87.54c-5.59 32.16 1.62 80.9 31.16 100.89 50.45 34.13 112.76 56.38 152.82 35.61s119.41-113.53 63.8-194.36c-34.13-49.61-51.93-54.9-97.93-59.35-45.99-4.45-97.92 29.67-99.4 29.67z"/></clipPath><clipPath id="i"><path d="m261.13 178.47s-38.58 19.29-50.45 87.54c-5.59 32.16 1.62 80.9 31.16 100.89 50.45 34.13 112.76 56.38 152.82 35.61s119.41-113.53 63.8-194.36c-34.13-49.61-51.93-54.9-97.93-59.35-45.99-4.45-97.92 29.67-99.4 29.67z"/></clipPath><clipPath id="j"><path d="m261.13 178.47s-38.58 19.29-50.45 87.54c-5.59 32.16 1.62 80.9 31.16 100.89 50.45 34.13 112.76 56.38 152.82 35.61s119.41-113.53 63.8-194.36c-34.13-49.61-51.93-54.9-97.93-59.35-45.99-4.45-97.92 29.67-99.4 29.67z"/></clipPath><filter id="k"><feGaussianBlur stdDeviation="3.9192257"/></filter><filter id="l" height="1.5864" width="1.3479" x="-.17393" y="-.2932"><feGaussianBlur stdDeviation="6.4305314"/></filter><filter id="m"><feGaussianBlur stdDeviation=".085324878"/></filter><radialGradient id="n" cx="325.95" cy="195.25" gradientTransform="matrix(1.0703 -.0095907 .0037457 .61118 -23.642 78.399)" gradientUnits="userSpaceOnUse" r="105.41"><stop offset="0"/><stop offset="1" stop-opacity="0"/></radialGradient><radialGradient id="o" cx="271.91" cy="-61.018" gradientTransform="matrix(.00000101 -2.8131 1.3597 .0000011 239.98 832.44)" gradientUnits="userSpaceOnUse" r="8.8655"><stop offset="0" stop-color="#152609"/><stop offset="1" stop-color="#457526"/></radialGradient><radialGradient id="p" cx="197.74" cy="-53.954" gradientTransform="matrix(-.013732 .24723 -.58918 -.029298 130.51 11.561)" gradientUnits="userSpaceOnUse" r="105.81" spreadMethod="reflect"><stop offset="0" stop-color="#163800"/><stop offset=".69504" stop-color="#598c1d"/><stop offset="1" stop-color="#91a125"/></radialGradient><linearGradient id="q" gradientUnits="userSpaceOnUse" x1="269.88" x2="281.47" y1="202.21" y2="314.46"><stop offset="0" stop-color="#fff"/><stop offset="1" stop-color="#fff" stop-opacity="0"/></linearGradient><path d="m411.8 322.43a133.36 16.563 0 1 1 -266.73 0 133.36 16.563 0 1 1 266.73 0z" fill="#4d4d4d" filter="url(#a)" opacity=".67692" transform="matrix(.88783 0 0 3.2673 -83.262 -852.04)"/><path d="m304.27 315a82.43 11.748 0 1 1 -164.86 0 82.43 11.748 0 1 1 164.86 0z" fill-opacity=".95339" filter="url(#b)" transform="matrix(.91483 0 0 1.9015 -39.776 -375.93)"/><g transform="matrix(.84729 0 0 .80169 -135.71 -88.68)"><path clip-path="url(#j)" d="m261.13 178.47s-38.58 19.29-50.45 87.54c-5.59 32.16 1.62 80.9 31.16 100.89 50.45 34.13 112.76 56.38 152.82 35.61s119.41-113.53 63.8-194.36c-34.13-49.61-51.93-54.9-97.93-59.35-45.99-4.45-97.92 29.67-99.4 29.67z" fill="url(#g)"/><path clip-path="url(#i)" d="m275.96 185.89c-4.19 1.68-13.31 9.99-17.8 13.35-5.98 4.49-10.27 8.46-11.87 14.84-1.95 7.82-3.02 13.58-4.45 19.29-1.33 5.32 7.74 10.84 11.87 11.87 7.27 1.82 16.52.05 22.25 1.48 8.05 2.01 9.21 8.9 19.29 8.9 9.13 0 15.31.24 20.77 2.97 5.65 2.83 10.61 8.27 14.84 10.39 6.95 3.47 9.51 5.71 16.32 7.42 7.53 1.88 15.11 1.18 22.26 2.96 11.57 2.9 11.28-6.54 13.35-14.83.52-2.08 15.42-10.97 16.32-11.87 4.37-4.38 12.07-2.97 19.29-2.97 10.08 0 11.28-3.66 16.32-10.39 3.93-5.24 5.93-14.16 5.93-20.77 0-9.89-6.16-12.1-11.87-17.8l-13.35-13.35c-5.96-5.97-11.61-9.4-17.8-11.87-9.31-3.73-13.36-5.43-13.36 5.93 0 8.59 2.97 9.74 2.97 19.29 0 9.11-1 13.35-10.38 13.35-7.63 0-15.58 3.34-20.78 5.94-6.35 3.17-22.7 1.48-29.67 1.48-9.93 0-23.48.44-31.16-1.48-3.31-.83-11.35-15.73-11.87-17.81-1.68-6.73-7.42-2.27-7.42-16.32z" fill="#fff6d5" filter="url(#d)" opacity=".63077"/><path clip-path="url(#h)" d="m467.41 232.46c-.87 17.69 1.82 35.75-1.83 53.17-4 10.68-5.4 25.85-18.6 28.68-10.83 8.44-23.73 14.56-32.01 25.85-9.61 10.03-19.78 20-32.95 24.94-13.67 1.58-21.35 17.86-35.61 16.06-10.11-7.84-28.47-7.56-41.01-9.14-14.09.83-12.57-17.21-22-23.61-11.37-9.57-26.44-6.68-39.46-10.85-13.08-6.66-18.76-21.45-27.18-32.78-4.29-7.29-9.13-23.08-7.73-6.64.44 26.51 7.29 55.37 27.83 73.61 23.41 17.94 50.37 31.14 78.3 40.44 27.95 8.86 61 12.02 86.62-5.03 26.03-17.62 46.59-42.9 60.85-70.77 16.26-31.92 21.13-71.01 4.78-103.93z" fill="#800000" filter="url(#c)"/><path clip-path="url(#f)" d="m262.61 224.47c-.49.99-.99 1.98-1.48 2.96-12.08 24.16-14.84 9.45-14.84 38.58-1.19 2.38 10.88 7.91 13.35 8.9-1.41 2.83 35.91 2.97 22.26-31.15-4.85-12.13-8.62-13.96-19.29-19.29zm32.64 19.29c-.39-.99 10.15 19.52-7.42 37.09-1.66 1.66 27 5.33 46 14.83 34.63 17.32 38.39-27.21 19.29-41.54-5.89-4.42-48.32-10.38-57.87-10.38z" fill="url(#q)" filter="url(#e)" opacity=".61538"/></g><path d="m338.71 204.59c-2.01-.4-4.42-8.84-33.34-7.63-28.93 1.2-47.81 12.45-50.62 18.07-2.81 5.63-4.42 13.66-4.42 13.66l-2.81 2.01s0-10.44.8-12.45c.81-2.01 21.29-24.1 27.72-28.12s27.32-5.63 33.75-2.01c6.42 3.61 18.88 4.42 18.88 4.42s2.01-10.45-16.88-22.1c-18.88-11.65-29.32-18.47-36.55-16.06s-17.68 11.24-16.07 13.65 1.61-7.63 1.61-7.63l15.66-8.03s17.28-3.22 29.73 4.42c12.45 7.63 39.77 22.09 39.77 22.09s6.43-12.85 9.64-17.27c3.22-4.42 12.05-28.53 18.08-30.94 6.02-2.41 12.05-1.2 12.05-1.2l-2.41 4.82 2.01 2.01h-4.02s-1.2 2.01-4.82 11.65c-3.61 9.64-7.23 28.92-7.23 31.73 0 2.82-.4 5.23-.4 5.23s12.45-2.82 20.89-5.23c8.43-2.41 20.89-7.23 26.11-6.83 5.22.41 16.47-.4 21.29 1.61s10.44.8 14.06 7.23c3.61 6.43 8.44 21.29 6.83 22.9s-3.22-14.06-10.45-17.68c-7.23-3.61-14.86-7.63-25.71-6.02-10.84 1.61 3.62-1.61-14.86 4.42-18.48 6.02-37.36 13.25-37.36 13.25s10.45 13.66 12.86 16.47c2.41 2.82 14.06 20.09 15.26 24.91 1.21 4.82 0 18.08 0 18.08s1.21-18.08-3.21-21.69c-4.42-3.62-10.05-15.27-18.08-19.69s-16.07-16.07-20.49-14.86c-4.42 1.2-5.62 4.82-9.64 4.01-4.02-.8-8.84-2-7.63-1.2z" fill="url(#n)" filter="url(#k)" opacity=".95" transform="matrix(.84729 0 0 .66322 -133.42 -54.306)"/><path d="m147.53 77.666c-1.7-.322-3.74-7.085-28.25-6.119-24.504.966-40.501 9.983-42.883 14.492-2.383 4.509-3.744 10.95-3.744 10.95l-2.383 1.61s0-8.373.681-9.984c.68-1.61 18.039-19.323 23.485-22.543 5.446-3.221 23.144-4.509 28.594-1.61 5.44 2.898 15.99 3.542 15.99 3.542s1.71-8.373-14.29-17.713c-16-9.339-24.848-14.814-30.975-12.882-6.126 1.933-14.976 9.018-13.614 10.95 1.361 1.932 1.361-6.119 1.361-6.119l13.274-6.441s14.634-2.576 25.184 3.543c10.55 6.118 33.7 17.712 33.7 17.712s5.45-10.305 8.17-13.848c2.72-3.542 10.21-22.866 15.32-24.798 5.1-1.932 10.21-.966 10.21-.966l-.12 2.227 1.31 5.25-4.94-2.002s-1.02 1.61-4.08 9.339c-3.07 7.73-6.13 23.188-6.13 25.442 0 2.255-.34 4.187-.34 4.187s10.55-2.254 17.7-4.187c7.15-1.932 17.7-5.796 22.12-5.474 4.43.322 13.96-.322 18.04 1.288 4.09 1.61 8.85.644 11.92 5.797 3.06 5.153 7.14 17.068 5.78 18.357-1.36 1.288-2.72-11.272-8.85-14.171-6.12-2.898-12.59-6.119-21.78-4.83-9.19 1.288 3.06-1.289-12.59 3.542-15.66 4.831-31.66 10.628-31.66 10.628s8.85 10.95 10.89 13.204c2.05 2.254 11.92 16.101 12.94 19.971 1.02 3.86 0 14.49 0 14.49s1.02-14.49-2.73-17.39c-3.74-2.9-8.5-12.24-15.31-15.783-6.81-3.542-13.62-12.882-17.36-11.916s-4.77 3.865-8.17 3.221-7.49-1.61-6.47-.966z" fill="url(#p)" stroke="#8d7100" stroke-opacity=".61864" stroke-width=".24725"/><path d="m180.88 17.631s.83-.222-2.87 3.724c-3.71 3.945-15.06 33.975-18.07 41.208l-7.42 4.384c1.63 0 15.53 2.192 21.09.438 5.56-1.753 25.94-10.083 37.99-11.179 12.04-1.096 21.31-2.191 25.48 1.096 4.17 3.288 8.57 8.549 8.57 8.549m-144.32-30.468s15.29 6.138 22.7 10.521c7.41 4.384 22.01 15.563 24.56 18.193 2.54 2.631 3.01 2.85 3.01 2.85s13.43-1.534 15.98 2.63c2.55 4.165 16.45 18.632 16.45 18.632m-31.51-21.043s-.92 1.534-8.57 2.411c-7.64.877-14.13-1.753-24.32-2.411-10.19-.657-19.692.877-24.094 2.85-4.401 1.972-20.849 11.836-20.849 14.466" fill="none" opacity=".73077" stroke="#529330" stroke-width=".32967"/><path d="m52.011-198.42a36.972 21.933 0 1 1 -73.944 0 36.972 21.933 0 1 1 73.944 0z" fill="#071f05" filter="url(#l)" transform="matrix(.38774 0 0 .29777 151.38 125.81)"/><path d="m150.23 33.643-.68 30.917s-.68 3.542 3.06 3.864c3.75.322 8.19 1.758 9.89-.174s3.02.165 1-11.42c-3.7-21.261-3.74-23.832-3.74-23.832z" fill="url(#o)"/><path d="m338.83 153.43s-.31 35.09 0 37.91 1.88 3.13 1.88 3.13 1.57-13.47 1.25-23.81c-.31-10.34-3.13-17.55-3.13-17.23z" fill="#e2e3db" filter="url(#m)" opacity=".46923" transform="matrix(.84729 0 0 .80169 -135.71 -88.68)"/><path d="m271.35-83.38a5.4573 1.3762 0 1 1 -10.92 0 5.4573 1.3762 0 1 1 10.92 0z" fill="#89a02c" transform="matrix(.89028 -.042742 .047533 .80055 -77.791 111.59)"/></svg>