<svg xmlns="http://www.w3.org/2000/svg" viewBox="0 0 227.47 425.41"><path fill="#10100f" d="M215.92 113.41l-.16 2c-.84.23-1.59.6-1.72 1.56-1.71 12.83-6.35 24.94-9.31 37.47-2.08 8.83-3.49 17.61-2.74 26.6.43 5.06-.14 10.39 1.1 15.12 1.7 6.46 5.3 12.42 8.07 18.6.75 1.68 1.38 3.47 3.63 3.65 6.16 11.29 11 22.89 7.84 36.16-.91 3.84 3.13 3.76 4.22 6l-.93 1.64c-8.75.09-11.68 3.8-8.81 12.17 2.4 7 1.88 14.15 2.24 21.25 1.56 30.29 1.81 60.6-1.27 90.8-.9 8.89-1.66 17.81-2.52 26.71-.66 6.69-4.57 9.51-10.17 11.26-.87.27-2.08-.3-2.49 1.05h-18c-2-4.56-6.79-4.33-10.47-5.62-15.11-5.27-29.2-12.74-43.52-19.71-4.17-2-4.89-.36-5.14 3.14-.22 3.08.9 5.85 1.77 8.71s1 5.81-2.67 6.19c-5 .51-5.41 3.44-5 7.29h-5c-.43-2.41 1.45-5.66-2.15-6.93s-3.21-3.84-2.44-6.49c.65-2.23 1.75-4.32 2.49-6.52 1.76-5.27 1.23-5.91-4.11-5.14-9.86 1.41-19.48 4.24-29.43 5.11-10.26.9-20.53 1.65-30.83 1.77-2 0-4.52-.63-4.74 2.82-.33 5.13-1.39 10.21-.79 15.38h-5c2-5.52.23-11.36 1.46-17 0-.24-.93-.7-1.42-1l-1-1.12c-.84-2.78-3.56-2.39-5.4-2.63-5.58-.72-11.22-.89-16.84-1.23-1.31-.08-2.69-.16-3.74.92l-1-.15c-1.56-2.68-3.75-3.1-6.42-1.79a.55.55 0 0 1-.55-.59c1.28-3.38-1.29-6.23-1.18-9.62.39-11.62-.11-23.28 1.16-34.88.77-7.08 1.23-14.21 2.34-21.24 2.71-17.35 5.35-34.73 8.75-52 2.05-10.37 3.31-20.25-3.19-29.51-1.16-1.64 0-4.61-3-5.2l-.13-.34-.93-5 .94-.7c1.08-.12 2-.54 2.08-1.74.5-8.72 4.66-16.14 8.36-23.74 4.31-8.88 4.72-18 2.29-27.6-5.64-22.36-9.18-45.15-9.31-68.18-.1-17.39 2.28-34.69 9-51 .52-1.28 1.14-2.47-.18-3.61C30.84 37.55 63.07 2.17 104.7.17a143.31 143.31 0 0 1 30.39 1.72C147.91 4 155.94 13 163.74 22.16c1.21 1.43 1.9 3.09 4.16 2.46 13.6-3.75 23.55 2.23 32 12.07a48.23 48.23 0 0 1 3.1 4.49 7.37 7.37 0 0 0 .95 4.3c8.74 17.55 13.16 36 12 55.71-.11 1.76-.53 3.7.95 5.22 0 .66-.09 1.33-.13 2-2.84 1.24-2.2 3.06-.85 5zM79.08 171.28v-.05c-.27 2.3.31 4 3 4.12l.85 1.09c0 2.26.63 3.91 3.3 3.85a67.3 67.3 0 0 0 5.77 5.43c12.35 9.18 26.32 12 40.51 6.51 19.22-7.48 35.08-35.23 33.72-56.12-.13-2-.42-2.72-2.63-1.86a40.72 40.72 0 0 1-13.16 2.63c-14.91.65-26-10.13-28.42-23.39-.41-2.26-.06-5-3.15-5.44-3.64-.48-3.54 2.68-4.24 5-2.59 8.5-6.76 15.76-15.39 19.5a3.33 3.33 0 0 0-1-.05c-10.23 2.52-20.4 3.14-30.72.19-3.18-.91-3.9 1.84-3.44 4.44a91 91 0 0 0 9 26.71c.62 1.18 1.15 2.44 2.74 2.59a1 1 0 0 1 .15.76c.23 1.96.52 3.89 3.11 4.09zm19.73-45.93c3.39.14 5-1.54 5.11-4.88l.73-1.16a2.65 2.65 0 0 0 2.45-1.42c2.52-4.45 4.25-9.52 3.45-14.28-.68-4.09.26-9.55-4.85-12.13l-2.8-2.21c-.37-.52-.68-1.42-1.12-1.49-7.31-1.17-14.73.39-22.06-.84a8.35 8.35 0 0 0-.65 1.7h.05c-1.58-.2-3-.16-3.1 2h.06c-5-.17-8.72 2.72-12.68 5-1.42.82-1.6 2.45-1.37 4v-.06c-5.63 4.24-2.86 9.94-2.45 15.13.15 1.93.59 4.4 3.45 4.69 6.23 9.47 15.48 11.14 25.81 10 4.33 1.15 7.65-.21 10-4zm31.26-7.53c-.15 1.7-.23 3.36 2.18 3.45 3.46 3.6 7.3 7 12.27 7.8 17.53 2.75 29.09-7.76 28.54-25.44-.2-6.51-3.32-11.33-8.34-15.1-6.71-5-13.86-3.89-21.39-2-7.08 1.8-11.24 6-13.52 12.59-2.17 6.29-1.19 12.49.26 18.7zm56.06 258.34c-.24-.15-.59-.47-.71-.4-.58.33-.24.69.07 1 .41 1.78.9 3.55 1.18 5.35.19 1.18 0 2.52-1.36 2.89-1.09.32-1.81-.69-2.28-1.58-4.86-9.12-13.54-14.05-21.77-19.23-17.87-11.25-38-17.66-57.23-26-2.27-1-4.16-.42-6.1.81-10.23 6.54-16.08 16.24-19.93 27.34-1 3-.31 5 3.53 5.39a88.15 88.15 0 0 1 29.21 8.07c14.64 7.2 29.13 14.67 43.79 21.81 15 7.32 30.46 13.37 47.52 14 3.95.15 5.38-1.28 5.69-4.9 1.65-18.88 4-37.72 4.9-56.63a599.53 599.53 0 0 0-1-69.39c-.4-5.94-.06-12-1.58-17.86-.59-2.24-1.37-4.37-4-4.36-9.46 0-19-1.23-28.33 1.33-5.58 1.53-6.12 2.9-3 7.93 3.67 5.94 9.47 9.24 15.41 12.3 3 1.56 3.86 2.87.52 5.14a130 130 0 0 0-10.72 8.16c-14.78 12.47-29.4 25.1-38.24 42.87-.68 1.37-2.52 2.76-.88 4.41s3.39.76 5-.2a56.19 56.19 0 0 1 12.51-4.94c3-.89 5.86-1.19 8.33 1.3s3.09.85 3.54-1.57c1.19-6.54 2.36-13.1 3.8-19.59.94-4.22 1.05-8.71 3.19-12.95 1.71 2.1 1.62 4.14 1.62 6.12 0 7.16-.28 14.33-.08 21.48.28 9.74-2.25 19.55 1 29.25.81 2.42 1.58 3.93 4 5.11a28.84 28.84 0 0 1 9.95 8.17c.94 1.19 2 2.81.68 4s-2.39-.46-3.43-1.15c-1.65-1.06-3.21-2.3-4.8-3.48zM20 84.44c-1.32 8.88-2.85 17.72-3.06 26.74-.64 28.22 4.91 55.59 11.28 82.86 1.78 7.96 4.09 15.81 3.68 24.08-.09 1.82-.56 4.53-2.38 4.41-2.48-.15-1.36-2.9-1.3-4.51.1-3 1.43-6-.91-9.63-2 10.44-8.44 18.51-10.4 28.8a33.73 33.73 0 0 0 9.25-5.41c10.66-7.85 19.29-17.87 28.85-26.89 7.3-6.88 15-13.34 24.58-16.77 3.77-1.34 3.94-2.9 1.47-5.53a70.25 70.25 0 0 1-15.87-27.42c-.84-2.7-2.34-3.82-5.46-3.73-4 .11-6.95-2.49-6.75-6.49a19.19 19.19 0 0 0-3.86-12.49c-2.34-3.39-2.22-8 1.5-9.6 4.33-1.9 4.32-4 3.07-7.52a10.07 10.07 0 0 1-.39-5.42c.2-1 .51-2.14-.85-2.43-1-.22-1.33.73-1.6 1.53-.37 1.11-.81 2.64-2.22 2-1.62-.72-.89-2.32-.24-3.44a38.06 38.06 0 0 1 8.23-10c6.59-5.68 14-10.14 21.14-15.08C86 76.8 92.6 69.74 95.74 59.9c.44-1.38.58-3.21 2.61-4-.43 9.56-3.16 17.9-9.3 25-.73.83-2.14 1.5-1.48 2.84.74 1.5 2.36 1 3.6.87 17.71-2 32.34-8.89 40.22-26.12.51-1.12.63-2.61 2.64-3.13-2.24 10.72-7.45 19.42-15.9 27 21.81 1.35 40.49-2.7 53.18-21.85-.55 6.56-4.43 10.71-8.07 15-2 2.37-3.74 4.14 1.08 5.27 3.3.77 5.73 3.32 7.9 5.88 7.46 8.79 8.1 19 5.85 29.67-.43 2-2.12 4.26.11 6 3.54 2.73 3.09 6.08 1.7 9.43a28.34 28.34 0 0 0-1.88 10.55c-.07 4.94-2.21 8.71-7.36 9.93-1.82.44-2.34 1.53-2.71 3.09a70.31 70.31 0 0 1-13.52 27.59c-1.6 2.05-1.8 3.37.66 4.69 4.69 2.51 7.77 6.66 10.92 10.78 13.01 17.08 26.77 33.61 43.08 47.73 3.51 3 4.4 2.83 5.28-1.73 1.49-7.67-.6-14.84-3.34-21.9-4.09-10.5-10.73-19.86-13.79-30.9-1 6.74-.19 13.39.37 20.08-.78-.35-1.2-.69-1.31-1.11-.52-2.1-1.06-4.2-1.4-6.33-2.68-16.58-.76-32.83 3.55-48.92 5.12-19.07 12.22-37.68 11.95-58-.21-16.69-2.21-32.88-10-47.88-4.14-8-9.94-14.58-18.36-18.4-4.05-1.84-8.77-3.31-12.52-1.26-3.3 1.82-4.26.73-5.87-1.4a49.93 49.93 0 0 0-29.46-19.18c-19.11-4.38-37.64-1.48-56.07 4.16C63 18 51.28 27 41.84 39.4a154 154 0 0 0-16.05 27c-2.07.39-1.86 1.93-1.72 3.43l-.24 1.57A13.5 13.5 0 0 0 20 84.44zm26.38 220.14c1.46 2.18 1.93 4.59 2.49 6.93 3.31 13.6 4.22 27.6 6.93 41.31.22 1.09-.21 2.65 1.05 3.12 1.64.6 2.12-1.21 3-2.1 7.74-8.14 15.51-15.93 27.85-16.73 5.66-.37 7-4.46 3.4-8.77a445.66 445.66 0 0 0-14.41-16.59 287.13 287.13 0 0 0-36-33.06c-3.88-3-3.75-4.21.31-6.95 1-.65 2.08-1.07 3-1.75 5.13-3.75 9.79-8 13-13.54 1.34-2.3 1.43-3.85-2.05-4.28a505 505 0 0 1-22.18-3.37c-3-.51-4.71.79-5.83 3.4a107.9 107.9 0 0 0-5 14.64c-3.79 14.18-5.32 28.75-7.49 43.21C10.66 335.24 7.59 360.48 8 386c.17 11.24.89 11.92 12.22 12.36a307.18 307.18 0 0 0 57.74-3.15c9.58-1.45 19.08-3.43 28.62-5.18-7.52-5.4-15.73-7.89-24.06-10-4.94-1.26-10.34-1.3-13.15-6.75a4 4 0 0 0-2.58-1.39c-6.9-1.4-13.56-1.35-19.42 3.41-1.22 1-2 2.79-4.18 2.58-1.31-5.22 4.18-6.64 6.31-10.39-8.68.88-13.47 8.29-21.08 10.21 3.76-6.2 7.69-12.28 14.76-14.71 3.26-1.12 3.91-2.58 3.9-5.64 0-16-.94-31.93-1.85-47.88-.12-1.47-.85-3.28 1.15-4.89zM26.67 241c1.71.59 2.62 1.16 3.56 1.21 10.55.52 20.62 3.35 30.81 5.8 4.21 1 4.22 2.88 3.41 5.89a35.82 35.82 0 0 1-10 16.45c-6.09 6-5.84 5.8.61 11.54 14.56 13 28.7 26.39 39.39 42.91a16.85 16.85 0 0 0 10.72 7.5c5.86 1.45 6.39.9 5.18-5-2.77-13.47-10-25-16.22-36.9-7.73-14.82-15-29.73-16.86-46.63-1.62-15 2.42-28.66 10.26-41.33.75-1.2 1.68-2.68 3.39-2.65 2.74 0 3.35-.5 2.56-3-1.23-3.82-3.9-5.19-7.78-4.22-6.59 1.64-12.31 5-17.67 9-10 7.6-17.73 17.54-26.43 26.46-4.38 4.62-9.66 8.11-14.93 12.97zm184.25 17.52c.29-2-.77-2.48-1.5-3-16.76-12.59-29.75-28.54-40.74-46.17a67.89 67.89 0 0 0-12.32-15c-6.18-5.53-12.57-4.41-16.55 2.73-.81 1.45-.84 2.8.93 3.07 8.43 1.3 11.46 7.86 14 14.57 5.91 15.45 4.66 31 0 46.5-5.67 18.74-16 35.47-23.13 53.6-2.5 6.36-5 12.66-5.83 19.53-.39 3.39 1.59 4.9 4.25 5.85s3.86-1.13 4.91-3.07c2.07-3.8 3.63-7.9 6.39-11.29 10.89-13.36 23-25.41 37.73-34.58 2.7-1.68 3.14-2.79.41-5-5.48-4.48-10-9.84-12.3-16.69-1.89-5.59-1.27-6.86 4.35-8.85 5.08-1.81 10.46-2 15.75-2.12 7.93-.23 15.85-.07 23.65-.07zm-60.25-24.76c1.09-3.86-.32-6.77-5.21-8.54-4-1.44-6.38-5.2-8.3-9a45.35 45.35 0 0 1-4-13.84c-.29-1.83-.65-2.61-2.79-2-8.4 2.26-16.87 1.53-25.27-.05-2.64-.5-3.71-.08-4.46 2.72-1.57 5.85-3.89 11.9-9 15.2-5.23 3.38-6.57 7.56-7.36 13.2-.87 6.19.82 10.59 5.45 14.47 5.59 4.67 12.43 5.88 19.15 7.39 9 2 18.12 2.77 27.21.3 12.01-3.28 14.57-6.61 14.58-19.84zm-31.2 100.69a88.91 88.91 0 0 1 7-23.45c4.34-10.08 8.84-20.09 13-30.23a100.71 100.71 0 0 0 7.42-26.37c-20.31 10-40 8.24-59.44-.92-.94 1.82-.09 3.2.25 4.61 2.13 8.61 5.63 16.69 9.47 24.64 8.15 16.88 17.95 33.04 22.3 51.73zM81 345.12c-10.5 4.24-17.83 10.63-24.35 19.68a24.82 24.82 0 0 1 13 .46c1.68.55 2.78.16 3.51-1.62 2.37-5.89 4.91-11.73 7.84-18.52zm37.41-243.7c1.85.14 3.43.3 3.89-1.28 1-3.39 2.75-6.38 4.3-9.48.79-1.57 0-2-1.5-2.07-4-.12-7.94-.49-11.52-2.59-1.09-.64-3-.54-2.55.91a136.71 136.71 0 0 0 5.09 13.94c.18.52 1.78.47 2.25.57zM150.21 348c7.18 4.48 14.3 8.17 22.12 13-1.64-6.8-6.54-10.38-8.61-15.52-.42-1.05-2.05-1.11-3.2-.77-3.45 1-6.87 2.14-10.31 3.29zM61.75 144.33c-1.25-3.89-.46-7.94-.91-11.89-.32-2.79-1.35-5.13-4-6.43-1-.5-2.18-1.16-3.24-.21s-.39 2.11.24 3.1c2.14 3.32 2.58 7.13 3.1 10.92.22 1.64.44 3.29.82 4.9.32 1.35 1.51 1.72 2.73 1.69s1.51-.95 1.26-2.08zm87.64 76.23c.76-7.43-3.44-14.77-9.38-16.51 1.26 6.62 3.5 12.33 9.38 16.51zm26.51-95.47c-4 3.36-5.56 14.66-2.91 19.82.13-6.73 2.39-13.11 2.91-19.82zm-53.79 287.45c1-2.91-.21-5.5-1.13-8-.39-1-3-2.5-3.47-.86-1 3.29-2.64 6.86-1.14 10.75 2.36-1.83-.89-5.62 2.79-6 2.67-.23 2.2 2.49 2.95 4.11z"/><path fill="#326f4a" d="M42.9 425.41c-.6-5.17.46-10.25.79-15.38.22-3.45 2.74-2.8 4.74-2.82 10.3-.12 20.57-.87 30.83-1.77 9.95-.87 19.57-3.7 29.43-5.11 5.34-.77 5.87-.13 4.11 5.14-.74 2.2-1.84 4.29-2.49 6.52-.77 2.65-1.14 5.23 2.44 6.49s1.72 4.52 2.15 6.93zm77 0c-.44-3.85 0-6.78 5-7.29 3.71-.38 3.5-3.46 2.67-6.19s-2-5.63-1.77-8.71c.25-3.5 1-5.17 5.14-3.14 14.32 7 28.41 14.44 43.52 19.71 3.68 1.29 8.45 1.06 10.47 5.62z"/><path fill="#131310" d="M37.94 407.41c.49.35 1.47.81 1.42 1-1.23 5.59.52 11.43-1.46 17h-2zm-18.03-341c1.32 1.14.7 2.33.18 3.61-6.7 16.36-9.08 33.66-9 51.05.13 23 3.67 45.82 9.31 68.18 2.43 9.6 2 18.72-2.29 27.6-3.7 7.6-7.86 15-8.36 23.74-.07 1.2-1 1.62-2.08 1.74.62-9.71 4.82-18.2 9-26.73a34.7 34.7 0 0 0 2.39-24.69c-6.33-25.43-10.43-51.21-9.31-77.56.69-16.21 3.25-32.06 10.16-46.94zm-12.1 182c3 .59 1.84 3.56 3 5.2 6.5 9.26 5.24 19.14 3.19 29.51-3.4 17.23-6 34.61-8.75 52-1.11 7-1.57 14.16-2.34 21.24-1.27 11.6-.77 23.26-1.16 34.88-.11 3.39 2.46 6.24 1.18 9.62-3-3.41-2.86-7.63-2.91-11.74-.34-28.4 3.47-56.4 8.22-84.3 1.84-10.82 3.6-21.66 5.82-32.4a16.14 16.14 0 0 0-1.91-11.89c-2.1-3.79-4.05-7.68-4.34-12.12zm206.98-30c-2.25-.18-2.88-2-3.63-3.65-2.77-6.18-6.37-12.14-8.07-18.6-1.24-4.73-.67-10.06-1.1-15.12-.75-9 .66-17.77 2.74-26.6 3-12.53 7.6-24.64 9.31-37.47.13-1 .88-1.33 1.72-1.56-.14 8.75-3.1 16.94-5.47 25.18-4.76 16.54-8.24 33-5.55 50.45 1.53 9.96 6.07 18.49 10.05 27.37zm2.1-112c-1.48-1.52-1.06-3.46-.95-5.22 1.16-19.69-3.26-38.16-12-55.71a7.37 7.37 0 0 1-.95-4.3c11.87 20.2 17.3 41.82 13.9 65.23zM10.92 403.35c1.05-1.08 2.43-1 3.74-.92 5.62.34 11.26.51 16.84 1.23 1.84.24 4.56-.15 5.4 2.63-8.61-1.41-17.46-.77-25.98-2.94zM6.75 243l.93 5c-1.29-1.82-3.29-1.9-5.49-2 .62-2.58 2.89-2.33 4.56-3zM3.48 401.41c2.67-1.31 4.86-.89 6.42 1.79-2.17-.5-4.62.02-6.42-1.79zm212.44-288c-1.35-1.94-2-3.76.84-5 .02 1.72.6 3.53-.84 5zm10 148.76l.93-1.64c.22.37.7.81.61 1.1-.21.73-.87.77-1.54.54z"/><path fill="#7c402c" d="M23.83 71.41l.24-1.57a5.17 5.17 0 0 0 1.72-3.43 154 154 0 0 1 16.05-27C51.28 27 63 18 78.1 13.35c18.43-5.64 37-8.54 56.07-4.16a49.93 49.93 0 0 1 29.49 19.22c1.61 2.13 2.57 3.22 5.87 1.4 3.75-2 8.47-.58 12.52 1.26 8.42 3.82 14.22 10.39 18.36 18.4 7.76 15 9.76 31.19 10 47.88.27 20.28-6.83 38.89-11.95 58-4.31 16.09-6.23 32.34-3.55 48.92.34 2.13.88 4.23 1.4 6.33.11.42.53.76 1.31 1.11-.56-6.69-1.38-13.34-.37-20.08 3.06 11 9.7 20.4 13.79 30.9 2.74 7.06 4.83 14.23 3.34 21.9-.88 4.56-1.77 4.78-5.28 1.73-16.31-14.16-30-30.65-43.13-47.73-3.15-4.12-6.23-8.27-10.92-10.78-2.46-1.32-2.26-2.64-.66-4.69a70.31 70.31 0 0 0 13.52-27.59c.37-1.56.89-2.65 2.71-3.09 5.15-1.22 7.29-5 7.36-9.93a28.34 28.34 0 0 1 1.93-10.69c1.39-3.35 1.84-6.7-1.7-9.43-2.23-1.73-.54-4-.11-6 2.25-10.71 1.61-20.88-5.85-29.67-2.17-2.56-4.6-5.11-7.9-5.88-4.82-1.13-3.11-2.9-1.08-5.27 3.64-4.25 7.52-8.4 8.07-15-12.69 19.15-31.37 23.2-53.18 21.85 8.45-7.55 13.66-16.25 15.9-27-2 .52-2.13 2-2.64 3.13-7.88 17.23-22.51 24.07-40.22 26.12-1.24.14-2.86.63-3.6-.87-.66-1.34.75-2 1.48-2.84 6.14-7.08 8.87-15.42 9.3-25-2 .83-2.17 2.66-2.61 4-3.14 9.84-9.71 16.9-18 22.65-7.12 5.04-14.56 9.55-21.15 15.18a38.06 38.06 0 0 0-8.23 10c-.65 1.12-1.38 2.72.24 3.44 1.41.63 1.85-.9 2.22-2 .27-.8.59-1.75 1.6-1.53 1.36.29 1 1.45.85 2.43a10.07 10.07 0 0 0 .39 5.42c1.25 3.49 1.26 5.62-3.07 7.52-3.72 1.63-3.84 6.21-1.5 9.6A19.19 19.19 0 0 1 53 145c-.2 4 2.76 6.6 6.75 6.49 3.12-.09 4.62 1 5.46 3.73a70.25 70.25 0 0 0 15.87 27.42c2.47 2.63 2.3 4.19-1.47 5.53C70 191.55 62.31 198 55 204.89c-9.56 9-18.19 19-28.85 26.89a33.73 33.73 0 0 1-9.25 5.41c2-10.29 8.37-18.36 10.4-28.8 2.34 3.63 1 6.66.91 9.63-.06 1.61-1.18 4.36 1.3 4.51 1.82.12 2.29-2.59 2.38-4.41.42-8.27-1.89-16.12-3.7-24.12-6.37-27.27-11.92-54.64-11.28-82.86.21-9 1.74-17.86 3.06-26.74q1.94-6.48 3.86-12.99z"/><path fill="#326f4a" d="M186.13 376.16c1.59 1.18 3.15 2.42 4.79 3.52 1 .69 2.25 2.25 3.43 1.15s.26-2.83-.68-4a28.84 28.84 0 0 0-9.95-8.17c-2.39-1.18-3.16-2.69-4-5.11-3.24-9.7-.71-19.51-1-29.25-.2-7.15.07-14.32.08-21.48 0-2 .09-4-1.62-6.12-2.14 4.24-2.25 8.73-3.19 12.95-1.44 6.49-2.61 13.05-3.8 19.59-.45 2.42-1 4.11-3.54 1.57s-5.29-2.19-8.33-1.3a56.19 56.19 0 0 0-12.51 4.94c-1.65 1-3.46 1.79-5 .2s.2-3 .88-4.41c8.84-17.77 23.46-30.4 38.24-42.87a130 130 0 0 1 10.72-8.16c3.34-2.27 2.52-3.58-.52-5.14-5.94-3.06-11.74-6.36-15.41-12.3-3.11-5-2.57-6.4 3-7.93 9.34-2.56 18.87-1.32 28.33-1.33 2.65 0 3.43 2.12 4 4.36 1.52 5.87 1.18 11.92 1.58 17.86a599.53 599.53 0 0 1 1 69.39c-.92 18.91-3.25 37.75-4.9 56.63-.31 3.62-1.74 5-5.69 4.9-17.06-.65-32.49-6.7-47.52-14-14.66-7.14-29.15-14.61-43.79-21.81a88.15 88.15 0 0 0-29.21-8.07c-3.82-.47-4.52-2.47-3.52-5.43 3.84-11.1 9.69-20.8 19.92-27.28 1.94-1.23 3.83-1.79 6.1-.81 19.24 8.3 39.36 14.71 57.23 26 8.23 5.18 16.91 10.11 21.77 19.23.47.89 1.19 1.9 2.28 1.58 1.31-.37 1.55-1.71 1.36-2.89-.28-1.8-.77-3.57-1.18-5.35l.65-.66z"/><path fill="#326f4a" d="M46.38 304.58c-2 1.61-1.27 3.39-1.18 4.92.91 15.95 1.81 31.9 1.85 47.88 0 3.06-.64 4.52-3.9 5.64-7.07 2.43-11 8.51-14.76 14.71 7.61-1.92 12.4-9.33 21.08-10.21-2.13 3.75-7.62 5.17-6.31 10.39 2.21.21 3-1.59 4.18-2.58 5.86-4.76 12.52-4.81 19.42-3.41a4 4 0 0 1 2.58 1.39c2.81 5.45 8.21 5.49 13.15 6.75 8.33 2.11 16.54 4.6 24.06 10-9.54 1.75-19 3.73-28.62 5.18a307.18 307.18 0 0 1-57.74 3.15C8.86 398 8.14 397.27 8 386c-.38-25.55 2.69-50.79 6.48-76 2.17-14.46 3.7-29 7.49-43.21a107.9 107.9 0 0 1 5-14.64c1.12-2.61 2.79-3.91 5.83-3.4a505 505 0 0 0 22.18 3.37c3.48.43 3.39 2 2.05 4.28-3.29 5.6-7.95 9.84-13.03 13.6-.94.68-2.06 1.1-3 1.75-4.06 2.74-4.19 4-.31 6.95a287.13 287.13 0 0 1 36 33.06c5 5.38 9.71 11 14.41 16.59 3.6 4.31 2.26 8.4-3.4 8.77-12.34.8-20.11 8.59-27.85 16.73-.84.89-1.32 2.7-3 2.1-1.26-.47-.83-2-1.05-3.12-2.71-13.71-3.62-27.71-6.93-41.31-.56-2.35-1.03-4.76-2.49-6.94z"/><path fill="#f8eace" d="M99.22 132.53c8.63-3.74 12.8-11 15.39-19.5.7-2.3.6-5.46 4.24-5 3.09.4 2.74 3.18 3.15 5.44 2.45 13.26 13.51 24 28.42 23.39a40.72 40.72 0 0 0 13.16-2.63c2.21-.86 2.5-.1 2.63 1.86 1.36 20.89-14.5 48.64-33.72 56.12-14.19 5.53-28.16 2.67-40.51-6.51a67.3 67.3 0 0 1-5.79-5.43l-3.3-3.85-.89-1.07-3-4.12v.05c-.71-1.61-1.3-3.31-3.08-4.11a1 1 0 0 0-.15-.76c-4.6-10.25-9.13-20.51-10.14-32 26.77 1.93 26.77 1.93 33.59-1.88zm17.26 41.6a32.49 32.49 0 0 0 17.1-4.73c2.3-1.37 2.86-2.73.49-4.86-4.29-3.86-8.64-6.83-14.77-4.48a4.27 4.27 0 0 1-2.91.19c-6.06-2.71-10.92.19-15.88 3.07-3.72 2.15-3.15 4.12-.08 6.28 4.83 3.4 10.3 4.46 16.05 4.53zM111.59 145c3.51 5.15 8.85 6 11.29 2.33a3.44 3.44 0 0 0 .49-1.77c0-.19-.94-.66-1.1-.54-3.27 2.46-6.69-.02-10.68-.02z"/><path fill="#265a3f" d="M26.67 241c5.27-4.87 10.55-8.36 15-12.89 8.7-8.92 16.4-18.86 26.43-26.46 5.36-4.06 11.08-7.39 17.67-9 3.88-1 6.55.4 7.78 4.22.79 2.48.18 3-2.56 3-1.71 0-2.64 1.45-3.39 2.65-7.84 12.67-11.88 26.34-10.26 41.33 1.82 16.9 9.13 31.81 16.86 46.63 6.22 11.92 13.45 23.43 16.22 36.9 1.21 5.87.68 6.42-5.18 5a16.85 16.85 0 0 1-10.72-7.5C83.8 308.29 69.66 294.87 55.1 281.9c-6.45-5.74-6.7-5.58-.61-11.54a35.82 35.82 0 0 0 10-16.45c.81-3 .8-4.88-3.41-5.89-10.19-2.45-20.26-5.28-30.81-5.8-.98-.05-1.89-.62-3.6-1.22zm184.25 17.53c-7.8 0-15.72-.16-23.63.06-5.29.15-10.67.31-15.75 2.12-5.62 2-6.24 3.26-4.35 8.85 2.32 6.85 6.82 12.21 12.3 16.69 2.73 2.24 2.29 3.35-.41 5-14.72 9.17-26.84 21.22-37.73 34.58-2.76 3.39-4.32 7.49-6.39 11.29-1.05 1.94-2.14 4.06-4.91 3.07s-4.64-2.46-4.25-5.85c.79-6.87 3.33-13.17 5.83-19.53 7.12-18.13 17.46-34.86 23.13-53.6 4.67-15.47 5.92-31.05 0-46.5-2.57-6.71-5.6-13.27-14-14.57-1.77-.27-1.74-1.62-.93-3.07 4-7.14 10.37-8.26 16.55-2.73a67.89 67.89 0 0 1 12.32 15c11 17.63 24 33.58 40.74 46.17.71.54 1.77 1.01 1.48 3.02z"/><path fill="#f8eace" d="M150.67 233.77c0 13.22-2.57 16.56-14.6 19.83-9.09 2.47-18.18 1.73-27.21-.3-6.72-1.51-13.56-2.72-19.15-7.39-4.63-3.88-6.32-8.28-5.45-14.47.79-5.64 2.13-9.82 7.36-13.2 5.08-3.3 7.4-9.35 9-15.2.75-2.8 1.82-3.22 4.46-2.72 8.4 1.58 16.87 2.31 25.27.05 2.14-.58 2.5.2 2.79 2a45.35 45.35 0 0 0 4 13.84c1.92 3.79 4.32 7.55 8.3 9 4.91 1.79 6.32 4.7 5.23 8.56z"/><path fill="#b69036" d="M119.47 334.46c-4.35-18.69-14.15-34.85-22.3-51.72-3.84-7.95-7.34-16-9.47-24.64-.34-1.41-1.19-2.79-.25-4.61 19.44 9.16 39.13 11 59.44.92a100.71 100.71 0 0 1-7.42 26.37c-4.19 10.14-8.69 20.15-13 30.23a88.91 88.91 0 0 0-7 23.45z"/><path fill="#f6e8cd" d="M130.07 117.82c-1.45-6.21-2.43-12.41-.26-18.68 2.28-6.62 6.44-10.79 13.52-12.59 7.53-1.91 14.68-3.07 21.39 2 5 3.77 8.14 8.59 8.34 15.1.55 17.68-11 28.19-28.54 25.44-5-.77-8.81-4.2-12.27-7.8-.73-1.17-1.46-2.29-2.18-3.47zm3.34-10.82c1 1.87 2.75 1.67 4.36 1.71 3.49.07 7-.22 9.25 3.43.82 1.33 3.15 1 3.51.13 2.2-5.4 6.72-4.34 10.93-4.44 1.22 0 3.17.13 3.21-1.56 0-2.07-1.9-1.76-3.35-1.69l-24.35 1a4.45 4.45 0 0 0-3.56 1.42zm-28.76 12.31l-.73 1.16-5.11 4.88-10 4c-10.33 1.13-19.58-.54-25.81-10a24.58 24.58 0 0 1-1-19.82v.06c1.8-2.07 3.37-4.28 6.3-5.11a19.31 19.31 0 0 0 7.75-3.92h-.06a5 5 0 0 0 3.1-2h-.05c5.64 1.22 11.29 1.69 17 .39a16.82 16.82 0 0 1 6.85.24l2.8 2.21c3.79 9.52 4.16 18.82-1.04 27.91zm-19.32-13.16v.36c-4.14.22-8.29.35-12.42.69-1 .09-3.13-.91-2.92 1.36.14 1.54 1.83 1.75 3.19 1.68 3.16-.15 6.1-.37 8.56 2.57a3.12 3.12 0 0 0 5.12-.58c1.59-2.42 4-2.68 6.56-2.69a23.81 23.81 0 0 0 4-.25c1.09-.19 2.6-.35 2.56-1.82 0-1.71-1.63-1.29-2.68-1.3-4.01-.05-7.99-.02-11.97-.02z"/><path fill="#f0e5ca" d="M81 345.12c-2.89 6.79-5.43 12.63-7.84 18.52-.73 1.78-1.83 2.17-3.51 1.62a24.82 24.82 0 0 0-13-.46c6.48-9.05 13.81-15.44 24.35-19.68zm37.37-243.7c-.47-.1-2.07 0-2.29-.57A136.71 136.71 0 0 1 111 86.91c-.41-1.45 1.46-1.55 2.55-.91 3.58 2.1 7.52 2.47 11.52 2.59 1.5 0 2.29.5 1.5 2.07-1.55 3.1-3.32 6.09-4.3 9.48-.47 1.58-2.05 1.42-3.9 1.28zM150.21 348c3.44-1.1 6.86-2.24 10.31-3.27 1.15-.34 2.78-.28 3.2.77 2.07 5.14 7 8.72 8.61 15.52-7.82-4.9-14.94-8.59-22.12-13.02z"/><path fill="#131310" d="M99.22 132.53c-6.82 3.81-6.82 3.81-33.51 1.91 1 11.46 5.54 21.72 10.14 32-1.59-.15-2.12-1.41-2.74-2.59a91 91 0 0 1-9-26.71c-.46-2.6.26-5.35 3.44-4.44 10.32 3 20.49 2.33 30.72-.19a3.33 3.33 0 0 1 .95.02z"/><path fill="#f0e5ca" d="M61.76 144.33c.26 1.13.07 2-1.29 2.08s-2.41-.34-2.73-1.69c-.38-1.61-.6-3.26-.82-4.9-.52-3.79-1-7.6-3.1-10.92-.63-1-1.4-2.06-.24-3.1s2.2-.29 3.24.21c2.67 1.3 3.7 3.64 4 6.43.47 3.95-.32 8 .94 11.89z"/><path fill="#326f4a" d="M149.39 220.56c-5.88-4.18-8.12-9.89-9.38-16.51 5.99 1.74 10.14 9.08 9.38 16.51z"/><path fill="#131310" d="M104.65 119.31c5.2-9.09 4.83-18.39 1-27.83 5.11 2.58 4.17 8 4.85 12.13.8 4.76-.93 9.83-3.45 14.28a2.65 2.65 0 0 1-2.4 1.42z"/><path fill="#f0e5ca" d="M175.9 125.09c-.52 6.71-2.78 13.09-2.91 19.82-2.65-5.16-1.07-16.46 2.91-19.82z"/><path fill="#131310" d="M102.9 89.27a16.82 16.82 0 0 0-6.85-.27c-5.69 1.3-11.34.83-17-.39a8.35 8.35 0 0 1 .65-1.7c7.33 1.23 14.75-.33 22.06.84.46.1.77 1 1.14 1.52z"/><path fill="#b69036" d="M122.11 412.54c-.75-1.62-.28-4.34-3-4.07-3.68.37-.43 4.16-2.79 6-1.5-3.89.16-7.46 1.14-10.75.48-1.64 3.08-.16 3.47.86.97 2.42 2.21 5.05 1.18 7.96z"/><g fill="#131310"><path d="M62.07 99.52a24.58 24.58 0 0 0 1 19.82c-2.86-.29-3.3-2.76-3.45-4.69-.41-5.19-3.18-10.89 2.45-15.13z"/><path d="M76.08 90.55a19.31 19.31 0 0 1-7.75 3.92c-2.93.83-4.5 3-6.3 5.11-.23-1.58-.05-3.21 1.37-4 3.96-2.31 7.73-5.2 12.68-5.03zM23.83 71.41l-3.86 13a13.5 13.5 0 0 1 3.86-13zm65.05 57.94l10-4c-2.35 3.79-5.67 5.15-10 4z"/><path d="M98.81 125.35l5.11-4.88c-.07 3.34-1.72 5.02-5.11 4.88zm-15.92 51.09l3.3 3.85c-2.67.06-3.34-1.59-3.3-3.85zM79 171.23l3 4.12c-2.65-.14-3.23-1.82-3-4.12z"/><path d="M76 167.17c1.78.8 2.37 2.5 3.08 4.11-2.59-.2-2.88-2.13-3.08-4.11zm3.12-78.57a5 5 0 0 1-3.1 2c.08-2.16 1.52-2.2 3.1-2zM25.79 66.41a5.17 5.17 0 0 1-1.72 3.43c-.14-1.5-.35-3.04 1.72-3.43zm104.28 51.41l2.18 3.45c-2.41-.09-2.33-1.75-2.18-3.45z"/></g><path fill="#326f4a" d="M185.49 376.78c-.31-.33-.65-.69-.07-1 .12-.07.47.25.71.4l-.64.6z"/><path fill="#131310" d="M116.48 174.13c-5.75-.07-11.22-1.13-16-4.53-3.07-2.16-3.64-4.13.08-6.28 5-2.88 9.82-5.78 15.88-3.07a4.27 4.27 0 0 0 2.91-.19c6.13-2.35 10.48.62 14.77 4.48 2.37 2.13 1.81 3.49-.49 4.86a32.49 32.49 0 0 1-17.15 4.73zm10.3-6.83c-7.08.91-13.42-1.11-20.43-.51 6.06 4.73 14.83 5 20.43.51zm.06-4.13c-5.65-1.61-11.36 1.14-17.09-.37 5.63 2.5 11.32 2.04 17.09.37zM111.59 145c4 0 7.38 2.48 10.68 0 .16-.12 1.1.35 1.1.54a3.44 3.44 0 0 1-.49 1.77c-2.44 3.69-7.78 2.84-11.29-2.31zm21.82-38a4.45 4.45 0 0 1 3.56-1.37q12.18-.54 24.35-1c1.45-.07 3.38-.38 3.35 1.69 0 1.69-2 1.53-3.21 1.56-4.21.1-8.73-1-10.93 4.44-.36.87-2.69 1.2-3.51-.13-2.26-3.65-5.76-3.36-9.25-3.43-1.61-.13-3.41.07-4.36-1.76zm-48.08-.85h11.94c1 0 2.64-.41 2.68 1.3 0 1.47-1.47 1.63-2.56 1.82a23.81 23.81 0 0 1-4 .25c-2.57 0-5 .27-6.56 2.69a3.12 3.12 0 0 1-5.12.58c-2.46-2.94-5.4-2.72-8.56-2.57-1.36.07-3-.14-3.19-1.68-.21-2.27 1.87-1.27 2.92-1.36 4.13-.34 8.28-.47 12.42-.69z"/><path fill="#f0e5ca" d="M126.78 167.3c-5.6 4.49-14.37 4.22-20.43-.51 7.01-.6 13.35 1.42 20.43.51zm.06-4.13c-5.77 1.67-11.46 2.13-17.09-.37 5.73 1.51 11.44-1.24 17.09.37z"/></svg>