<svg xmlns="http://www.w3.org/2000/svg" viewBox="0 0 161.396 54.623"><title>html-academy</title><path fill="none" stroke="#fff" stroke-width="2.791" d="M1.4 3.5l20.4-2.1 20.3 2.1V41L21.8 53 1.4 41z"/><path fill="none" stroke="#fff" stroke-width="2.057" d="M1.7 20.9L21.1 9.6 42 20.9v1.2L21.8 34 1.7 22.1z"/><path fill="#fff" d="M21.8 32.8l2.9-1.9-2.9-1.9v-1.9l4.7 2.8L28 29l-6.2-3.7v-2.2l7.9 4.8 1.6-.9-9.5-5.9V19l12.9 7.9v8.4l-12.9 7.8-13.1-7.6v-2.2l13.1 7.9v-2.1L8.7 31.4v-1.9l13.1 7.6zm44.9 7.1a1.884 1.884 0 0 0 .8-.2v2a5.662 5.662 0 0 1-1.8.3 2.5 2.5 0 0 1-2.5-1.5 7.02 7.02 0 0 1-4.7 1.6c-2.3 0-4.4-1.2-4.4-3.8 0-3.2 3-4.2 5.5-4.2a11.235 11.235 0 0 1 3.2.4v-.4c0-1.6-1.1-2.6-3.3-2.6a10.178 10.178 0 0 0-4.5 1V30a15.1 15.1 0 0 1 4.8-.8c3.5 0 5.8 1.7 5.8 5.4V39a.993.993 0 0 0 1.1.9M57 38.2c0 1.2 1.1 1.8 2.3 1.8a5.075 5.075 0 0 0 3.6-1.5v-2.1a12.412 12.412 0 0 0-2.7-.3c-1.5.1-3.2.6-3.2 2.1m18.5-9.1a6.97 6.97 0 0 1 3.8 1v2.5a6.461 6.461 0 0 0-3.4-1c-2.2 0-4.4 1.2-4.4 4.1 0 2.8 2.2 4.1 4.4 4.1a6.528 6.528 0 0 0 3.6-1v2.6a8.85 8.85 0 0 1-4.1.9c-3.3 0-6.7-2-6.7-6.5-.1-4.7 3.5-6.7 6.8-6.7m18.1 10.8a1.884 1.884 0 0 0 .8-.2v2a5.662 5.662 0 0 1-1.8.3 2.5 2.5 0 0 1-2.5-1.5 7.02 7.02 0 0 1-4.7 1.6c-2.3 0-4.4-1.2-4.4-3.8 0-3.2 3-4.2 5.5-4.2a11.235 11.235 0 0 1 3.2.4v-.4c0-1.6-1.1-2.6-3.3-2.6a10.178 10.178 0 0 0-4.5 1V30a15.1 15.1 0 0 1 4.8-.8c3.5 0 5.8 1.7 5.8 5.4V39a1.049 1.049 0 0 0 1.1.9M84 38.2c0 1.2 1.1 1.8 2.3 1.8a5.075 5.075 0 0 0 3.6-1.5v-2.1a12.412 12.412 0 0 0-2.7-.3c-1.5.1-3.2.6-3.2 2.1m25-14.5v18.1h-2.5v-2a5.859 5.859 0 0 1-4.8 2.3c-3.8 0-6.2-3-6.2-6.6s2.4-6.6 6.2-6.6a6.116 6.116 0 0 1 4.5 1.9v-7.3h2.8zm-6.7 7.8a3.893 3.893 0 0 0-3.9 4.1 3.836 3.836 0 0 0 3.9 4.1 4.375 4.375 0 0 0 4-2.6v-3a4.375 4.375 0 0 0-4-2.6m15.7-2.4c4.9 0 6.7 4 5.9 7.6h-9.4c.3 2.2 2.5 3.2 4.8 3.2a8.6 8.6 0 0 0 3.9-.9v2.4a11.2 11.2 0 0 1-4.5.9c-3.8 0-7.1-2.2-7.1-6.6a6.337 6.337 0 0 1 6.4-6.6m.2 2.3a3.46 3.46 0 0 0-3.7 3.2h6.9a2.929 2.929 0 0 0-3.2-3.2m8.5 10.5V29.4h2.5V31a5.492 5.492 0 0 1 4.1-1.9 4.24 4.24 0 0 1 3.9 2 6.084 6.084 0 0 1 4.4-2c3.3 0 4.7 2.4 4.7 5v7.8h-2.8v-7.7a2.39 2.39 0 0 0-2.5-2.6 4.2 4.2 0 0 0-3.1 1.7c0 .3.1.6.1.9V42h-2.8v-7.7a2.39 2.39 0 0 0-2.5-2.6 4.616 4.616 0 0 0-3.3 1.9V42l-2.7-.1zm31.8-12.5h2.9l-5.8 14.1c-1.3 3.2-3.1 4.3-5 4.3a7.772 7.772 0 0 1-1.6-.2v-2.4a5.067 5.067 0 0 0 1.3.2c1.3 0 2.4-1 3.1-2.9l.3-.6-5.9-12.5h3l4.2 9.4zM57.9 1.9V9a5.606 5.606 0 0 1 4-1.7 4.829 4.829 0 0 1 5.1 5.1v7.7h-2.8v-7.3a2.708 2.708 0 0 0-2.9-3 4.445 4.445 0 0 0-3.5 2.1v8.2H55V1.9zm16.7 1.3v4.4h4.5V10h-4.5v5.7c0 1.6.8 2.2 2.4 2.2a6.963 6.963 0 0 0 2.5-.5v2.4a7.6 7.6 0 0 1-3.3.5c-2.4 0-4.3-1.2-4.3-4.1V10h-2.2V7.6h2.2V3.9zm8 16.9V7.6h2.5v1.6a5.867 5.867 0 0 1 4.1-1.9 4.24 4.24 0 0 1 3.9 2 6.084 6.084 0 0 1 4.4-2c3.3 0 4.7 2.4 4.7 5v7.8h-2.8v-7.7a2.39 2.39 0 0 0-2.5-2.6 4.2 4.2 0 0 0-3.1 1.7c0 .3.1.6.1.9v7.8h-2.8v-7.7a2.39 2.39 0 0 0-2.5-2.6 4.616 4.616 0 0 0-3.3 1.9v8.4zm23.7-18.2h2.8V20h-2.8z"/></svg>