<svg xmlns="http://www.w3.org/2000/svg" viewBox="0 0 333.91 109.25"><path d="M87.19 45.6h3.26c6 0 8.3 3 8.3 9s-2 9-7.32 9h-4.24v-18zm0-24.09H91c4.48 0 6.59 2.85 6.59 8.3 0 4.88-2.93 7.49-6.75 7.49h-3.65V21.51zM77.1 72h16c11.47 0 15.79-7.32 15.79-17 0-7.57-3-11.64-8.14-13.92 4.88-2 7-7.24 7-12.29 0-10-4.8-15.54-15.63-15.54h-15V72zM121.94 71.97V13.21h-9.11v58.76h9.11zM146.35 28.19v34.34c-2.12 1.55-3.91 2.77-5.86 2.77s-3.26-1-3.26-3.17V28.19h-9.11v35.4c0 5.7 2.85 9.2 7.65 9.2 5.29 0 7.24-2 11.07-5.21V72h8.63V28.19zM170.18 44.3V42c0-5 1.79-7.16 5-7.16s5 2.12 5 7.16v2.3zm19.21-.65c0-9.6-3.74-16.28-14.16-16.28S161.07 34 161.07 43.65v12.86c0 9.6 3.74 16.28 14.16 16.28 10.17 0 14-6.35 14.16-15.63h-9.11v1c0 5-1.79 7.16-5 7.16s-5-2.12-5-7.16v-6.37h19.21v-8.14zM197.43 35.67v27.27c0 6.67 3.82 9.85 10.66 9.85a15.7 15.7 0 0 0 4.56-.49v-7.82h-3c-2.12 0-3.09-1.3-3.09-3.58V35.67h6.1v-7.48h-6.1V16.38h-9.11v11.8h-5v7.49zM235.66 58.13c0 5-1.79 7.16-5 7.16s-5-2.12-5-7.16V42c0-5 1.79-7.16 5-7.16s5 2.12 5 7.16v16.13zm-19.21-1.63c0 9.6 3.74 16.28 14.16 16.28s14.16-6.67 14.16-16.28V43.65c0-9.6-3.74-16.28-14.16-16.28S216.45 34 216.45 43.65v12.86zM268.76 58.13c0 5-1.79 7.16-5 7.16s-5-2.12-5-7.16V42c0-5 1.79-7.16 5-7.16s5 2.12 5 7.16v16.13zm-19.21-1.63c0 9.6 3.74 16.28 14.16 16.28s14.16-6.67 14.16-16.28V43.65c0-9.6-3.74-16.28-14.16-16.28S249.56 34 249.56 43.65v12.86zM285.67 35.67v27.27c0 6.67 3.83 9.85 10.66 9.85a15.7 15.7 0 0 0 4.56-.49v-7.82h-3c-2.12 0-3.09-1.3-3.09-3.58V35.67h6.1v-7.48h-6.1V16.38h-9.12v11.8h-5v7.49zM315.68 72V37.63c2.12-1.55 3.91-2.77 5.86-2.77s3.26 1 3.26 3.17V72h9.11V36.57c0-5.7-2.85-9.2-7.65-9.2-5.29 0-7.24 2-10.58 4.88v-19h-9.12V72z"/><path d="M34.85 21l7 7-7 7V21zm0 43.09l7-7-7-7v14.03zm-7.52-21.52L12.11 27.31l4.41-4.41L28.65 35V6l22 22-14.51 14.57L50.7 57.13l-22 22V50.11L16.52 62.24l-4.41-4.41 15.22-15.26zm4.08 42.57c18.59 0 31.4-8.83 31.4-42.57S50 0 31.41 0 0 8.83 0 42.57s12.82 42.57 31.41 42.57zM246.13 101.95c.5 1.85 1.38 4.27 4.51 4.27a3.32 3.32 0 0 0 3.68-3.35c0-2.17-1.28-2.94-3.61-4-2.65-1.22-5.58-2.6-5.58-6.34a6.47 6.47 0 0 1 6.71-6.63 6.88 6.88 0 0 1 7 5.43l-3.37 1.1c-.26-.91-1-3.5-3.66-3.5a2.93 2.93 0 0 0-3 3c0 1.91 1.11 2.55 4.14 4 2.15 1 5.15 2.47 5.15 6.1 0 1.72-.77 7.18-7.64 7.18-6.25 0-7.25-4.67-7.62-6.38zM264.05 86.35h5.19l1.44 16.8 7.11-16.8h5.33l-3.77 22.47h-3.48l3.31-19.27-8.36 19.27h-2.58l-1.82-18.89-3.06 18.89h-3.08zM298.27 108.82h-3.68L294 103h-6.18l-2.45 5.86h-3.44l9.84-22.47h3.83zM293 90.15l-4 9.9h4.68zM304.2 86.35h6.08c2.6 0 6.85.3 6.85 5.73 0 5.06-3.15 6.26-4.28 6.71l2.63 10h-3.88l-2.32-9.44h-3.69l-1.59 9.47h-3.56zm1.88 10.17h2.63a5.17 5.17 0 0 0 3.22-.85A4.63 4.63 0 0 0 313.5 92c0-2.73-1.86-2.91-3.77-2.91h-2.42zM324 89.41h-5l.49-3.06h13.69l-.51 3.06h-5.07l-3.23 19.4h-3.57z" fill="#0082fc"/></svg>