<svg viewBox="0 0 1376 355" xmlns="http://www.w3.org/2000/svg"><g fill="#c44230"><path d="m0 85h144v60h-144z"/><path d="m462 85h144v60h-144z"/><path d="m770 85h144v60h-144z"/><path d="m924 85h144v60h-144z"/><path d="m1078 85h144v60h-144z"/><path d="m1232 85h144v60h-144z"/><path d="m0 155h144v60h-144z"/><path d="m154 155h144v60h-144z"/><path d="m462 155h144v60h-144z"/><path d="m770 155h144v60h-144z"/><path d="m1232 155h144v60h-144z"/><path d="m0 225h144v60h-144z"/><path d="m308 225h144v60h-144z"/><path d="m462 225h144v60h-144z"/><path d="m770 225h144v60h-144z"/><path d="m1232 225h144v60h-144z"/><path d="m0 295h144v60h-144z"/><path d="m462 295h144v60h-144z"/><path d="m770 295h144v60h-144z"/><path d="m924 295h144v60h-144z"/><path d="m1078 295h144v60h-144z"/><path d="m1232 295h144v60h-144z"/></g><path d="m0 55h144v10h-144z" fill="#233d61"/><path d="m154 55h144v10h-144z" fill="#233d61"/><path d="m308 55h144v10h-144z" fill="#a36222"/><path d="m462 55h144v10h-144z" fill="#3f77bb"/><path d="m616 55h144v10h-144z" fill="#666"/><path d="m770 55h144v10h-144z" fill="#812323"/><path d="m924 55h144v10h-144z" fill="#333"/><path d="m1078 55h144v10h-144z" fill="#7ba13b"/><path d="m1232 55h144v10h-144z"/><path d="m61.13 18h2.74v23.1h-2.74z"/><path d="m71.42 18h12.58v2.44h-9.84v7.56h9v2.44h-9v8.22h10v2.44h-12.74z"/><path d="m191.86 18h12.57v2.44h-9.83v7.56h9v2.44h-9v8.22h10v2.44h-12.74z"/><path d="m223.28 35.42q0 1.68 0 3.05a15.52 15.52 0 0 0 .3 2.69h-1.78l-.66-2.34h-.14a5.32 5.32 0 0 1 -1.91 1.91 5.56 5.56 0 0 1 -2.94.76 5.79 5.79 0 0 1 -4.9-2.08q-1.6-2.08-1.6-6.5 0-4.22 2-6.42a7.06 7.06 0 0 1 5.49-2.19 11.14 11.14 0 0 1 1.93.13 10 10 0 0 1 1.53.43v-6.86h2.64zm-6.67 3.76a3.89 3.89 0 0 0 2.67-.87 4.67 4.67 0 0 0 1.35-2.66v-8.18a3.7 3.7 0 0 0 -1.35-.66 8.26 8.26 0 0 0 -2-.2 4.44 4.44 0 0 0 -3.56 1.5q-1.29 1.5-1.29 4.8a13.75 13.75 0 0 0 .21 2.51 5.93 5.93 0 0 0 .71 2 3.69 3.69 0 0 0 1.3 1.3 3.79 3.79 0 0 0 1.96.47z"/><path d="m242.32 41.86a6 6 0 0 1 -1.7 4.72 7.34 7.34 0 0 1 -5 1.52 16.43 16.43 0 0 1 -3.18-.25 9.49 9.49 0 0 1 -2.06-.64l.62-2.21q.76.3 1.68.56a9 9 0 0 0 2.41.26 8.51 8.51 0 0 0 2.26-.25 2.93 2.93 0 0 0 1.4-.83 3.15 3.15 0 0 0 .73-1.48 10.28 10.28 0 0 0 .2-2.16v-1.62h-.13a4.41 4.41 0 0 1 -1.65 1.52 6 6 0 0 1 -2.67.51 5.74 5.74 0 0 1 -4.9-2.08q-1.57-2.08-1.57-6.47 0-4.22 2-6.42a7.66 7.66 0 0 1 5.94-2.19 15 15 0 0 1 3.22.3 18 18 0 0 1 2.39.69zm-6.63-2.71a3.86 3.86 0 0 0 2.64-.84 4.76 4.76 0 0 0 1.35-2.62v-8.45a7.86 7.86 0 0 0 -3.37-.63 4.38 4.38 0 0 0 -3.53 1.52 7.26 7.26 0 0 0 -1.29 4.75 13 13 0 0 0 .23 2.54 6.17 6.17 0 0 0 .73 2 3.6 3.6 0 0 0 1.29 1.29 3.8 3.8 0 0 0 1.95.44z"/><path d="m260.77 39.78a7.47 7.47 0 0 1 -2.5 1.22 10.78 10.78 0 0 1 -3.18.46 8.06 8.06 0 0 1 -3.27-.61 5.81 5.81 0 0 1 -2.28-1.75 7.56 7.56 0 0 1 -1.32-2.72 13.64 13.64 0 0 1 -.43-3.56q0-4.22 1.88-6.44a6.67 6.67 0 0 1 5.38-2.21 10.39 10.39 0 0 1 2.24.25 4.74 4.74 0 0 1 3.46 2.9 8.4 8.4 0 0 1 .56 3.35 16.37 16.37 0 0 1 -.2 2.41h-10.57a10.1 10.1 0 0 0 .3 2.57 5 5 0 0 0 .92 1.9 4 4 0 0 0 1.63 1.19 6.48 6.48 0 0 0 2.46.41 6.7 6.7 0 0 0 2.24-.4 4.78 4.78 0 0 0 1.68-.92zm-5.68-13.27a4.57 4.57 0 0 0 -3.12 1 5.12 5.12 0 0 0 -1.4 3.5h8.18a5.07 5.07 0 0 0 -1-3.51 3.56 3.56 0 0 0 -2.66-.99z"/><path d="m330.37 18h12.57v2.44h-9.83v7.89h9.17v2.44h-9.17v10.33h-2.74z"/><path d="m348.48 19.58a1.83 1.83 0 0 1 .51-1.3 1.71 1.71 0 0 1 1.3-.54 1.87 1.87 0 0 1 1.35.54 1.75 1.75 0 0 1 .56 1.3 1.6 1.6 0 0 1 -.56 1.25 2 2 0 0 1 -1.35.5 1.8 1.8 0 0 1 -1.3-.5 1.67 1.67 0 0 1 -.51-1.25zm.56 5h2.64v16.52h-2.68z"/><path d="m366.44 27.14a6 6 0 0 0 -1.88-.33 3.14 3.14 0 0 0 -2.24.78 3.38 3.38 0 0 0 -1 2v11.51h-2.64v-16.5h1.85l.49 2h.13a5.09 5.09 0 0 1 1.5-1.73 3.8 3.8 0 0 1 2.23-.61 8.11 8.11 0 0 1 2.15.33z"/><path d="m383.23 39.78a7.47 7.47 0 0 1 -2.49 1.22 10.78 10.78 0 0 1 -3.18.46 8.06 8.06 0 0 1 -3.27-.61 5.81 5.81 0 0 1 -2.29-1.71 7.56 7.56 0 0 1 -1.32-2.72 13.64 13.64 0 0 1 -.43-3.56q0-4.22 1.88-6.44a6.67 6.67 0 0 1 5.38-2.21 10.39 10.39 0 0 1 2.24.25 4.74 4.74 0 0 1 3.46 2.9 8.4 8.4 0 0 1 .56 3.35 16.37 16.37 0 0 1 -.2 2.41h-10.57a10.1 10.1 0 0 0 .3 2.57 5 5 0 0 0 .92 1.9 4 4 0 0 0 1.63 1.19 6.48 6.48 0 0 0 2.46.41 6.7 6.7 0 0 0 2.24-.4 4.78 4.78 0 0 0 1.68-.92zm-5.68-13.27a4.57 4.57 0 0 0 -3.12 1 5.12 5.12 0 0 0 -1.43 3.49h8.18a5.07 5.07 0 0 0 -1-3.51 3.56 3.56 0 0 0 -2.62-.98z"/><path d="m387.46 24.6h2.54v-.92a12.38 12.38 0 0 1 .25-2.64 4.46 4.46 0 0 1 .81-1.83 3.37 3.37 0 0 1 1.45-1.06 6.14 6.14 0 0 1 2.21-.35 11.76 11.76 0 0 1 1.86.13 7.94 7.94 0 0 1 1.7.5l-.59 2.21a5.7 5.7 0 0 0 -1.44-.43 8.81 8.81 0 0 0 -1.27-.1 2.8 2.8 0 0 0 -1.34.26 1.54 1.54 0 0 0 -.69.78 3.94 3.94 0 0 0 -.26 1.25q0 .74 0 1.73v.46h4.39v2.31h-4.39v14.2h-2.69v-14.19h-2.57z"/><path d="m399.83 32.85q0-4.19 1.86-6.42a6.6 6.6 0 0 1 5.36-2.23 7.85 7.85 0 0 1 3.22.61 5.85 5.85 0 0 1 2.26 1.75 7.57 7.57 0 0 1 1.32 2.74 13.71 13.71 0 0 1 .43 3.55q0 4.19-1.86 6.42a6.6 6.6 0 0 1 -5.36 2.23 7.85 7.85 0 0 1 -3.22-.61 5.83 5.83 0 0 1 -2.26-1.75 7.55 7.55 0 0 1 -1.32-2.74 13.68 13.68 0 0 1 -.43-3.55zm2.74 0a11.47 11.47 0 0 0 .25 2.41 6.35 6.35 0 0 0 .78 2 4.16 4.16 0 0 0 1.4 1.4 3.89 3.89 0 0 0 2.08.53q4.49 0 4.49-6.34a11.63 11.63 0 0 0 -.25-2.44 6.36 6.36 0 0 0 -.78-2 4 4 0 0 0 -1.4-1.41 4 4 0 0 0 -2.08-.51q-4.49-.01-4.49 6.36z"/><path d="m423.29 32.65-5.54-8.05h3.25l3.13 4.55.87 1.85 1-1.88 3.2-4.55h3l-5.58 7.92 5.91 8.58h-3.13l-3.5-5-1-2-1 2-3.56 5h-2.94z"/><path d="m493.61 40.14a5.93 5.93 0 0 1 -2.51 1.06 16.86 16.86 0 0 1 -3.23.3 10.6 10.6 0 0 1 -3.89-.71 8.51 8.51 0 0 1 -3.17-2.16 10.4 10.4 0 0 1 -2.15-3.71 16.24 16.24 0 0 1 -.79-5.36 15.26 15.26 0 0 1 .87-5.49 10.49 10.49 0 0 1 2.31-3.7 8.89 8.89 0 0 1 3.22-2.1 10.37 10.37 0 0 1 3.63-.66 19.87 19.87 0 0 1 3.23.21 10.41 10.41 0 0 1 2.15.58l-.66 2.44a10.36 10.36 0 0 0 -4.52-.84 7.56 7.56 0 0 0 -2.67.5 6.15 6.15 0 0 0 -2.36 1.62 8.2 8.2 0 0 0 -1.67 2.94 13.76 13.76 0 0 0 -.63 4.46 13.18 13.18 0 0 0 .59 4.16 8.58 8.58 0 0 0 1.63 3 6.66 6.66 0 0 0 2.44 1.78 7.74 7.74 0 0 0 3.05.59 10.06 10.06 0 0 0 2.59-.3 7.17 7.17 0 0 0 1.87-.76z"/><path d="m509.32 41.1v-9.4a15.21 15.21 0 0 0 -.15-2.26 4.33 4.33 0 0 0 -.54-1.62 2.55 2.55 0 0 0 -1.07-1 4 4 0 0 0 -1.77-.33 4.37 4.37 0 0 0 -2.8 1 4.52 4.52 0 0 0 -1.62 2.59v11h-2.64v-23.08h2.64v8.45h.13a6.49 6.49 0 0 1 2.06-1.63 6.57 6.57 0 0 1 3-.61 8.25 8.25 0 0 1 2.41.31 3.56 3.56 0 0 1 1.7 1.11 5 5 0 0 1 1 2.13 15.18 15.18 0 0 1 .31 3.38v10z"/><path d="m525.88 27.14a6 6 0 0 0 -1.88-.33 3.14 3.14 0 0 0 -2.24.78 3.37 3.37 0 0 0 -1 2v11.51h-2.64v-16.5h1.85l.5 2h.13a5.09 5.09 0 0 1 1.5-1.73 3.81 3.81 0 0 1 2.23-.61 8.11 8.11 0 0 1 2.14.33z"/><path d="m529.71 32.85q0-4.19 1.86-6.42a6.6 6.6 0 0 1 5.36-2.23 7.85 7.85 0 0 1 3.22.61 5.85 5.85 0 0 1 2.26 1.75 7.54 7.54 0 0 1 1.32 2.74 13.69 13.69 0 0 1 .43 3.55q0 4.19-1.87 6.42a6.6 6.6 0 0 1 -5.36 2.23 7.86 7.86 0 0 1 -3.22-.61 5.84 5.84 0 0 1 -2.26-1.75 7.55 7.55 0 0 1 -1.32-2.74 13.68 13.68 0 0 1 -.42-3.55zm2.74 0a11.47 11.47 0 0 0 .25 2.41 6.33 6.33 0 0 0 .78 2 4.16 4.16 0 0 0 1.39 1.39 3.9 3.9 0 0 0 2.08.53q4.49 0 4.49-6.34a11.7 11.7 0 0 0 -.25-2.44 6.39 6.39 0 0 0 -.78-2 4 4 0 0 0 -1.41-1.4 4 4 0 0 0 -2.08-.51q-4.47-.01-4.47 6.36z"/><path d="m559.31 41.1v-9.34a20 20 0 0 0 -.12-2.29 5 5 0 0 0 -.45-1.63 2.22 2.22 0 0 0 -.94-1 3.36 3.36 0 0 0 -1.6-.33 3.59 3.59 0 0 0 -2.53.92 4.89 4.89 0 0 0 -1.4 2.31v11.36h-2.64v-16.5h1.85l.49 2h.13a7.76 7.76 0 0 1 2.06-1.73 6.07 6.07 0 0 1 3.05-.68 4.94 4.94 0 0 1 2.59.61 4 4 0 0 1 1.57 2.13 5.35 5.35 0 0 1 2.09-2 6.23 6.23 0 0 1 3-.73 7.6 7.6 0 0 1 2.34.31 3.29 3.29 0 0 1 1.58 1.11 5.07 5.07 0 0 1 .91 2.15 17.41 17.41 0 0 1 .28 3.43v9.9h-2.57v-9.93a16 16 0 0 0 -.12-2.06 3.77 3.77 0 0 0 -.46-1.45 2.14 2.14 0 0 0 -1-.86 3.88 3.88 0 0 0 -1.6-.28 3.48 3.48 0 0 0 -2.57.92 5.34 5.34 0 0 0 -1.25 2.64v11z"/><path d="m589.8 39.78a7.46 7.46 0 0 1 -2.49 1.22 10.78 10.78 0 0 1 -3.18.46 8.06 8.06 0 0 1 -3.27-.61 5.81 5.81 0 0 1 -2.28-1.75 7.56 7.56 0 0 1 -1.32-2.72 13.64 13.64 0 0 1 -.43-3.56q0-4.22 1.88-6.44a6.67 6.67 0 0 1 5.38-2.21 10.39 10.39 0 0 1 2.24.25 4.74 4.74 0 0 1 3.46 2.9 8.4 8.4 0 0 1 .56 3.35 16.37 16.37 0 0 1 -.2 2.41h-10.58a10.12 10.12 0 0 0 .3 2.57 5 5 0 0 0 .92 1.9 4 4 0 0 0 1.63 1.19 6.48 6.48 0 0 0 2.46.41 6.71 6.71 0 0 0 2.24-.4 4.78 4.78 0 0 0 1.68-.92zm-5.68-13.27a4.57 4.57 0 0 0 -3.12 1 5.12 5.12 0 0 0 -1.4 3.5h8.18a5.07 5.07 0 0 0 -1-3.51 3.56 3.56 0 0 0 -2.65-.99z"/><path d="m657.51 35.23a3.16 3.16 0 0 0 -.83-2.26 8.23 8.23 0 0 0 -2.06-1.55 26.53 26.53 0 0 0 -2.69-1.27 14.57 14.57 0 0 1 -2.69-1.44 7.58 7.58 0 0 1 -2.06-2.08 5.57 5.57 0 0 1 -.82-3.15 5.32 5.32 0 0 1 1.88-4.29 8.07 8.07 0 0 1 5.35-1.58 20.78 20.78 0 0 1 3.66.3 9.8 9.8 0 0 1 2.57.76l-.82 2.43a10.83 10.83 0 0 0 -2.23-.72 14.76 14.76 0 0 0 -3.32-.34 4.77 4.77 0 0 0 -3.27 1 3.07 3.07 0 0 0 -.26 4.44 8.44 8.44 0 0 0 2.08 1.52q1.24.68 2.69 1.34a16.47 16.47 0 0 1 2.69 1.53 8.12 8.12 0 0 1 2.06 2.1 5.31 5.31 0 0 1 .83 3 6.51 6.51 0 0 1 -.53 2.67 5.63 5.63 0 0 1 -1.55 2 7.19 7.19 0 0 1 -2.5 1.36 10.88 10.88 0 0 1 -3.3.46 18.38 18.38 0 0 1 -4.09-.38 11.14 11.14 0 0 1 -2.51-.84l.92-2.44a10.61 10.61 0 0 0 2.24.82 12.75 12.75 0 0 0 3.33.4 9.3 9.3 0 0 0 2-.21 4.65 4.65 0 0 0 1.65-.69 3.61 3.61 0 0 0 1.11-1.2 3.41 3.41 0 0 0 .47-1.69z"/><path d="m665.39 25.82a9.52 9.52 0 0 1 2.92-1.12 16.3 16.3 0 0 1 3.48-.36 6.87 6.87 0 0 1 2.76.46 3.84 3.84 0 0 1 1.58 1.2 4.12 4.12 0 0 1 .73 1.63 9 9 0 0 1 .18 1.78q0 2-.1 3.86t-.1 3.56q0 1.22.1 2.31a10.9 10.9 0 0 0 .36 2h-1.95l-.69-2.31h-.17a5.48 5.48 0 0 1 -.74.91 4.76 4.76 0 0 1 -1.07.79 6.78 6.78 0 0 1 -1.45.58 7 7 0 0 1 -1.88.23 5.71 5.71 0 0 1 -2-.33 4.57 4.57 0 0 1 -1.57-.94 4.37 4.37 0 0 1 -1-1.47 4.75 4.75 0 0 1 -.38-1.95 4.59 4.59 0 0 1 .59-2.43 4.29 4.29 0 0 1 1.67-1.55 8.23 8.23 0 0 1 2.57-.83 20.44 20.44 0 0 1 3.32-.25h.91a6.43 6.43 0 0 1 .91.07q.1-1 .1-1.78a3.54 3.54 0 0 0 -.73-2.54 3.72 3.72 0 0 0 -2.64-.73 9.21 9.21 0 0 0 -1.2.08q-.64.09-1.32.24a10.76 10.76 0 0 0 -1.29.37 6.36 6.36 0 0 0 -1.07.49zm4.69 13.23a5.09 5.09 0 0 0 1.65-.25 4.79 4.79 0 0 0 1.25-.63 4 4 0 0 0 .87-.84 3.74 3.74 0 0 0 .51-.89v-2.73h-.94-.94a16.89 16.89 0 0 0 -2 .12 6.33 6.33 0 0 0 -1.72.43 3 3 0 0 0 -1.19.86 2.09 2.09 0 0 0 -.45 1.37 2.44 2.44 0 0 0 .82 1.9 3 3 0 0 0 2.14.66z"/><path d="m681.53 24.6h2.57v-.92a12.38 12.38 0 0 1 .25-2.64 4.45 4.45 0 0 1 .81-1.83 3.36 3.36 0 0 1 1.45-1.06 6.14 6.14 0 0 1 2.21-.35 11.75 11.75 0 0 1 1.86.13 7.93 7.93 0 0 1 1.7.5l-.59 2.21a5.69 5.69 0 0 0 -1.44-.43 8.8 8.8 0 0 0 -1.27-.1 2.8 2.8 0 0 0 -1.34.26 1.55 1.55 0 0 0 -.69.78 3.93 3.93 0 0 0 -.26 1.25q0 .74 0 1.73v.46h4.39v2.31h-4.39v14.2h-2.64v-14.19h-2.57z"/><path d="m694.93 25.82a9.51 9.51 0 0 1 2.92-1.12 16.31 16.31 0 0 1 3.48-.36 6.87 6.87 0 0 1 2.75.46 3.85 3.85 0 0 1 1.58 1.2 4.14 4.14 0 0 1 .73 1.63 8.9 8.9 0 0 1 .18 1.78q0 2-.1 3.86t-.1 3.56q0 1.22.1 2.31a10.9 10.9 0 0 0 .36 2h-1.93l-.69-2.31h-.21a5.43 5.43 0 0 1 -.74.91 4.76 4.76 0 0 1 -1.07.79 6.77 6.77 0 0 1 -1.45.58 7 7 0 0 1 -1.88.23 5.71 5.71 0 0 1 -2-.33 4.58 4.58 0 0 1 -1.57-.94 4.39 4.39 0 0 1 -1-1.47 4.77 4.77 0 0 1 -.38-1.95 4.58 4.58 0 0 1 .59-2.43 4.29 4.29 0 0 1 1.67-1.55 8.24 8.24 0 0 1 2.57-.83 20.48 20.48 0 0 1 3.32-.25h.94a6.42 6.42 0 0 1 .91.07q.1-1 .1-1.78a3.55 3.55 0 0 0 -.73-2.54 3.72 3.72 0 0 0 -2.64-.73 9.24 9.24 0 0 0 -1.21.08q-.64.09-1.32.24a10.87 10.87 0 0 0 -1.29.37 6.5 6.5 0 0 0 -1.07.49zm4.69 13.23a5.11 5.11 0 0 0 1.65-.25 4.79 4.79 0 0 0 1.25-.63 4 4 0 0 0 .88-.84 3.76 3.76 0 0 0 .51-.89v-2.73h-.94-.94a16.9 16.9 0 0 0 -2 .12 6.32 6.32 0 0 0 -1.71.43 3 3 0 0 0 -1.19.86 2.09 2.09 0 0 0 -.45 1.37 2.44 2.44 0 0 0 .83 1.9 3 3 0 0 0 2.11.66z"/><path d="m720.67 27.14a6 6 0 0 0 -1.88-.33 3.15 3.15 0 0 0 -2.24.78 3.37 3.37 0 0 0 -1 2v11.51h-2.64v-16.5h1.85l.5 2h.13a5.1 5.1 0 0 1 1.5-1.73 3.8 3.8 0 0 1 2.23-.61 8.12 8.12 0 0 1 2.15.33z"/><path d="m725.42 19.58a1.83 1.83 0 0 1 .51-1.3 1.71 1.71 0 0 1 1.3-.54 1.87 1.87 0 0 1 1.35.54 1.75 1.75 0 0 1 .56 1.3 1.6 1.6 0 0 1 -.56 1.25 2 2 0 0 1 -1.35.5 1.8 1.8 0 0 1 -1.3-.5 1.67 1.67 0 0 1 -.51-1.25zm.56 5h2.64v16.52h-2.62z"/><path d="m798.82 29.55q0-5.77 2.44-8.86a8.36 8.36 0 0 1 7-3.09 9.65 9.65 0 0 1 4.22.86 7.93 7.93 0 0 1 3 2.43 10.59 10.59 0 0 1 1.73 3.76 19.8 19.8 0 0 1 .56 4.9q0 5.78-2.46 8.86a8.45 8.45 0 0 1 -7 3.09 9.46 9.46 0 0 1 -4.17-.86 8 8 0 0 1 -2.94-2.43 10.58 10.58 0 0 1 -1.73-3.76 19.8 19.8 0 0 1 -.65-4.9zm2.9 0a16.78 16.78 0 0 0 .38 3.63 9.87 9.87 0 0 0 1.17 3 6.21 6.21 0 0 0 2 2.08 5.39 5.39 0 0 0 2.92.78 5.69 5.69 0 0 0 4.81-2.31q1.75-2.33 1.75-7.18a16.79 16.79 0 0 0 -.38-3.61 9.6 9.6 0 0 0 -1.19-3 6.38 6.38 0 0 0 -2-2.08 5.45 5.45 0 0 0 -3-.78 5.62 5.62 0 0 0 -4.77 2.33q-1.69 2.29-1.69 7.14z"/><path d="m823.4 24.6h1.82l.5 2h.13a5 5 0 0 1 2-1.77 6.95 6.95 0 0 1 7.67 1.34q1.62 1.95 1.62 6.37a12 12 0 0 1 -.54 3.75 8.17 8.17 0 0 1 -1.6 2.8 6.73 6.73 0 0 1 -2.39 1.78 7.57 7.57 0 0 1 -3.12.63 9.86 9.86 0 0 1 -1.93-.15 7.76 7.76 0 0 1 -1.53-.51v6.86h-2.63zm6.67 1.91a3.83 3.83 0 0 0 -2.66.87 4.89 4.89 0 0 0 -1.41 2.62v8.18a4.4 4.4 0 0 0 1.35.71 6.66 6.66 0 0 0 2 .25 4.36 4.36 0 0 0 3.61-1.7 8 8 0 0 0 1.34-5 12.1 12.1 0 0 0 -.23-2.46 5.38 5.38 0 0 0 -.74-1.88 3.57 3.57 0 0 0 -1.32-1.2 4.23 4.23 0 0 0 -1.94-.39z"/><path d="m854.62 39.78a7.47 7.47 0 0 1 -2.49 1.22 10.78 10.78 0 0 1 -3.18.46 8.06 8.06 0 0 1 -3.27-.61 5.81 5.81 0 0 1 -2.28-1.75 7.58 7.58 0 0 1 -1.32-2.72 13.68 13.68 0 0 1 -.43-3.56q0-4.22 1.88-6.44a6.67 6.67 0 0 1 5.38-2.21 10.39 10.39 0 0 1 2.24.25 4.75 4.75 0 0 1 3.46 2.9 8.41 8.41 0 0 1 .56 3.35 16.5 16.5 0 0 1 -.2 2.41h-10.58a10.12 10.12 0 0 0 .3 2.57 5 5 0 0 0 .92 1.9 4 4 0 0 0 1.63 1.19 6.48 6.48 0 0 0 2.46.41 6.7 6.7 0 0 0 2.24-.4 4.78 4.78 0 0 0 1.68-.92zm-5.68-13.27a4.57 4.57 0 0 0 -3.12 1 5.12 5.12 0 0 0 -1.4 3.5h8.18a5.07 5.07 0 0 0 -1-3.51 3.56 3.56 0 0 0 -2.65-.99z"/><path d="m868.45 27.14a6 6 0 0 0 -1.88-.33 3.14 3.14 0 0 0 -2.24.78 3.38 3.38 0 0 0 -1 2v11.51h-2.64v-16.5h1.85l.49 2h.13a5.08 5.08 0 0 1 1.5-1.73 3.8 3.8 0 0 1 2.23-.61 8.1 8.1 0 0 1 2.14.33z"/><path d="m872.94 25.82a9.51 9.51 0 0 1 2.92-1.12 16.3 16.3 0 0 1 3.48-.36 6.87 6.87 0 0 1 2.75.46 3.84 3.84 0 0 1 1.58 1.2 4.12 4.12 0 0 1 .73 1.63 8.9 8.9 0 0 1 .18 1.78q0 2-.1 3.86t-.1 3.56q0 1.22.1 2.31a11 11 0 0 0 .36 2h-1.94l-.69-2.31h-.21a5.48 5.48 0 0 1 -.74.91 4.76 4.76 0 0 1 -1.07.79 6.77 6.77 0 0 1 -1.45.58 7 7 0 0 1 -1.88.23 5.7 5.7 0 0 1 -2-.33 4.58 4.58 0 0 1 -1.57-.94 4.39 4.39 0 0 1 -1-1.47 4.75 4.75 0 0 1 -.38-1.95 4.58 4.58 0 0 1 .59-2.43 4.29 4.29 0 0 1 1.67-1.55 8.23 8.23 0 0 1 2.57-.83 20.46 20.46 0 0 1 3.32-.25h.94a6.4 6.4 0 0 1 .91.07q.1-1 .1-1.78a3.54 3.54 0 0 0 -.73-2.54 3.72 3.72 0 0 0 -2.64-.73 9.22 9.22 0 0 0 -1.2.08q-.64.09-1.32.24a10.82 10.82 0 0 0 -1.29.37 6.43 6.43 0 0 0 -1.07.49zm4.69 13.23a5.1 5.1 0 0 0 1.65-.25 4.82 4.82 0 0 0 1.25-.63 4 4 0 0 0 .87-.84 3.7 3.7 0 0 0 .51-.89v-2.73h-.94-.94a16.89 16.89 0 0 0 -2 .12 6.33 6.33 0 0 0 -1.72.43 3 3 0 0 0 -1.19.86 2.09 2.09 0 0 0 -.45 1.37 2.44 2.44 0 0 0 .83 1.9 3 3 0 0 0 2.12.66z"/><path d="m972.75 19.58a1.83 1.83 0 0 1 .51-1.3 1.71 1.71 0 0 1 1.3-.54 1.87 1.87 0 0 1 1.35.54 1.75 1.75 0 0 1 .56 1.3 1.6 1.6 0 0 1 -.56 1.25 2 2 0 0 1 -1.35.5 1.8 1.8 0 0 1 -1.3-.5 1.67 1.67 0 0 1 -.51-1.25zm.56 5h2.69v16.52h-2.64z"/><path d="m982.22 29.55q0-5.77 2.44-8.86a8.36 8.36 0 0 1 7-3.09 9.65 9.65 0 0 1 4.22.86 7.93 7.93 0 0 1 3 2.43 10.59 10.59 0 0 1 1.73 3.76 19.8 19.8 0 0 1 .56 4.9q0 5.78-2.46 8.86a8.45 8.45 0 0 1 -7 3.09 9.46 9.46 0 0 1 -4.17-.86 8 8 0 0 1 -2.94-2.43 10.58 10.58 0 0 1 -1.73-3.76 19.8 19.8 0 0 1 -.65-4.9zm2.9 0a16.78 16.78 0 0 0 .38 3.63 9.87 9.87 0 0 0 1.17 3 6.21 6.21 0 0 0 2 2.08 5.39 5.39 0 0 0 2.92.78 5.69 5.69 0 0 0 4.82-2.33q1.75-2.33 1.75-7.18a16.79 16.79 0 0 0 -.38-3.61 9.6 9.6 0 0 0 -1.19-3 6.38 6.38 0 0 0 -2-2.08 5.45 5.45 0 0 0 -3-.78 5.62 5.62 0 0 0 -4.77 2.33q-1.69 2.31-1.69 7.16z"/><path d="m1017.5 35.23a3.16 3.16 0 0 0 -.83-2.26 8.23 8.23 0 0 0 -2.06-1.55 26.65 26.65 0 0 0 -2.69-1.27 14.63 14.63 0 0 1 -2.69-1.44 7.59 7.59 0 0 1 -2.06-2.08 5.58 5.58 0 0 1 -.82-3.15 5.32 5.32 0 0 1 1.88-4.29 8.08 8.08 0 0 1 5.35-1.58 20.8 20.8 0 0 1 3.66.3 9.81 9.81 0 0 1 2.57.76l-.81 2.43a10.8 10.8 0 0 0 -2.23-.72 14.78 14.78 0 0 0 -3.32-.34 4.77 4.77 0 0 0 -3.27 1 3.07 3.07 0 0 0 -.26 4.44 8.41 8.41 0 0 0 2.08 1.52q1.24.68 2.69 1.34a16.55 16.55 0 0 1 2.69 1.53 8.15 8.15 0 0 1 2.06 2.1 5.31 5.31 0 0 1 .82 3 6.52 6.52 0 0 1 -.53 2.67 5.63 5.63 0 0 1 -1.55 2 7.2 7.2 0 0 1 -2.48 1.32 10.88 10.88 0 0 1 -3.3.46 18.37 18.37 0 0 1 -4.09-.38 11.14 11.14 0 0 1 -2.51-.84l.92-2.44a10.61 10.61 0 0 0 2.24.82 12.74 12.74 0 0 0 3.33.4 9.31 9.31 0 0 0 2-.21 4.66 4.66 0 0 0 1.65-.69 3.62 3.62 0 0 0 1.11-1.2 3.42 3.42 0 0 0 .45-1.65z"/><path d="m1104.51 34.7h-8.51l-2.3 6.4h-2.7l8.75-23.46h1.25l8.78 23.46h-2.9zm-7.58-2.38h6.76l-2.56-7-.82-3.5-.82 3.56z"/><path d="m1124.49 41.1v-9.4a8 8 0 0 0 -.74-3.88 2.86 2.86 0 0 0 -2.72-1.3 4.38 4.38 0 0 0 -2.89.94 5 5 0 0 0 -1.6 2.36v11.28h-2.64v-16.5h1.85l.5 2h.13a6 6 0 0 1 2.13-1.73 7 7 0 0 1 3.18-.68 8.13 8.13 0 0 1 2.38.31 3.56 3.56 0 0 1 1.7 1.11 5.27 5.27 0 0 1 1 2.13 13.82 13.82 0 0 1 .35 3.38v10z"/><path d="m1145.94 35.42q0 1.68 0 3.05a15.57 15.57 0 0 0 .3 2.69h-1.78l-.66-2.34h-.13a5.31 5.31 0 0 1 -1.91 1.91 5.56 5.56 0 0 1 -2.94.76 5.8 5.8 0 0 1 -4.9-2.08q-1.6-2.08-1.6-6.5 0-4.22 2-6.42a7.05 7.05 0 0 1 5.49-2.19 11.16 11.16 0 0 1 1.93.13 9.94 9.94 0 0 1 1.53.43v-6.86h2.64zm-6.67 3.76a3.9 3.9 0 0 0 2.67-.87 4.68 4.68 0 0 0 1.35-2.66v-8.18a3.7 3.7 0 0 0 -1.35-.66 8.27 8.27 0 0 0 -2-.2 4.45 4.45 0 0 0 -3.56 1.5q-1.29 1.5-1.29 4.8a13.79 13.79 0 0 0 .21 2.51 5.93 5.93 0 0 0 .71 2 3.69 3.69 0 0 0 1.3 1.3 3.79 3.79 0 0 0 1.97.47z"/><path d="m1160.13 27.14a6 6 0 0 0 -1.88-.33 3.15 3.15 0 0 0 -2.24.78 3.38 3.38 0 0 0 -1 2v11.51h-2.64v-16.5h1.85l.49 2h.13a5.09 5.09 0 0 1 1.5-1.73 3.8 3.8 0 0 1 2.23-.61 8.11 8.11 0 0 1 2.15.33z"/><path d="m1164 32.85q0-4.19 1.86-6.42a6.6 6.6 0 0 1 5.36-2.23 7.85 7.85 0 0 1 3.22.61 5.84 5.84 0 0 1 2.26 1.75 7.59 7.59 0 0 1 1.3 2.74 13.73 13.73 0 0 1 .43 3.55q0 4.19-1.86 6.42a6.6 6.6 0 0 1 -5.36 2.23 7.84 7.84 0 0 1 -3.22-.61 5.83 5.83 0 0 1 -2.26-1.75 7.55 7.55 0 0 1 -1.32-2.74 13.68 13.68 0 0 1 -.41-3.55zm2.74 0a11.47 11.47 0 0 0 .25 2.41 6.36 6.36 0 0 0 .78 2 4.16 4.16 0 0 0 1.39 1.39 3.89 3.89 0 0 0 2.08.53q4.49 0 4.49-6.34a11.57 11.57 0 0 0 -.25-2.44 6.34 6.34 0 0 0 -.78-2 4 4 0 0 0 -1.39-1.37 4 4 0 0 0 -2.08-.51q-4.53-.04-4.53 6.33z"/><path d="m1183.89 19.58a1.83 1.83 0 0 1 .51-1.3 1.71 1.71 0 0 1 1.3-.54 1.87 1.87 0 0 1 1.35.54 1.75 1.75 0 0 1 .56 1.3 1.6 1.6 0 0 1 -.56 1.25 2 2 0 0 1 -1.35.5 1.8 1.8 0 0 1 -1.3-.5 1.67 1.67 0 0 1 -.51-1.25zm.56 5h2.64v16.52h-2.64z"/><path d="m1206.73 35.42q0 1.68 0 3.05a15.57 15.57 0 0 0 .3 2.69h-1.78l-.66-2.34h-.13a5.31 5.31 0 0 1 -1.91 1.91 5.56 5.56 0 0 1 -2.94.76 5.8 5.8 0 0 1 -4.9-2.08q-1.6-2.08-1.6-6.5 0-4.22 2-6.42a7.05 7.05 0 0 1 5.49-2.19 11.16 11.16 0 0 1 1.93.13 9.94 9.94 0 0 1 1.53.43v-6.86h2.64zm-6.67 3.76a3.9 3.9 0 0 0 2.67-.87 4.68 4.68 0 0 0 1.35-2.66v-8.18a3.7 3.7 0 0 0 -1.35-.66 8.27 8.27 0 0 0 -2-.2 4.45 4.45 0 0 0 -3.56 1.5q-1.29 1.5-1.29 4.8a13.79 13.79 0 0 0 .21 2.51 5.93 5.93 0 0 0 .71 2 3.69 3.69 0 0 0 1.3 1.3 3.79 3.79 0 0 0 1.96.47z"/><path d="m1263.61 40.14a5.93 5.93 0 0 1 -2.51 1.06 16.86 16.86 0 0 1 -3.23.3 10.6 10.6 0 0 1 -3.89-.71 8.51 8.51 0 0 1 -3.17-2.16 10.39 10.39 0 0 1 -2.14-3.71 16.21 16.21 0 0 1 -.79-5.36 15.25 15.25 0 0 1 .88-5.49 10.49 10.49 0 0 1 2.31-3.7 8.89 8.89 0 0 1 3.22-2.1 10.37 10.37 0 0 1 3.63-.66 19.87 19.87 0 0 1 3.23.21 10.41 10.41 0 0 1 2.15.58l-.66 2.44a10.36 10.36 0 0 0 -4.52-.79 7.56 7.56 0 0 0 -2.67.5 6.15 6.15 0 0 0 -2.36 1.62 8.2 8.2 0 0 0 -1.67 2.94 13.76 13.76 0 0 0 -.63 4.46 13.18 13.18 0 0 0 .59 4.16 8.58 8.58 0 0 0 1.63 3 6.66 6.66 0 0 0 2.44 1.78 7.74 7.74 0 0 0 3.05.59 10.06 10.06 0 0 0 2.59-.3 7.17 7.17 0 0 0 1.87-.76z"/><path d="m1279.32 41.1v-9.4a15.21 15.21 0 0 0 -.15-2.26 4.33 4.33 0 0 0 -.54-1.62 2.55 2.55 0 0 0 -1.07-1 4 4 0 0 0 -1.77-.33 4.37 4.37 0 0 0 -2.8 1 4.52 4.52 0 0 0 -1.62 2.59v11h-2.64v-23.08h2.64v8.45h.13a6.49 6.49 0 0 1 2.06-1.63 6.57 6.57 0 0 1 3-.61 8.25 8.25 0 0 1 2.41.31 3.56 3.56 0 0 1 1.7 1.11 5 5 0 0 1 1 2.13 15.18 15.18 0 0 1 .31 3.38v10z"/><path d="m1295.88 27.14a6 6 0 0 0 -1.88-.33 3.14 3.14 0 0 0 -2.24.78 3.37 3.37 0 0 0 -1 2v11.51h-2.64v-16.5h1.85l.5 2h.13a5.09 5.09 0 0 1 1.5-1.73 3.81 3.81 0 0 1 2.23-.61 8.11 8.11 0 0 1 2.14.33z"/><path d="m1299.71 32.85q0-4.19 1.86-6.42a6.6 6.6 0 0 1 5.36-2.23 7.85 7.85 0 0 1 3.22.61 5.85 5.85 0 0 1 2.26 1.75 7.54 7.54 0 0 1 1.32 2.74 13.69 13.69 0 0 1 .43 3.55q0 4.19-1.87 6.42a6.6 6.6 0 0 1 -5.36 2.23 7.86 7.86 0 0 1 -3.22-.61 5.84 5.84 0 0 1 -2.26-1.75 7.55 7.55 0 0 1 -1.32-2.74 13.68 13.68 0 0 1 -.42-3.55zm2.74 0a11.47 11.47 0 0 0 .25 2.41 6.33 6.33 0 0 0 .78 2 4.16 4.16 0 0 0 1.39 1.39 3.9 3.9 0 0 0 2.08.53q4.49 0 4.49-6.34a11.7 11.7 0 0 0 -.25-2.44 6.39 6.39 0 0 0 -.78-2 4 4 0 0 0 -1.41-1.4 4 4 0 0 0 -2.08-.51q-4.47-.01-4.47 6.36z"/><path d="m1329.31 41.1v-9.34a20 20 0 0 0 -.12-2.29 5 5 0 0 0 -.45-1.63 2.22 2.22 0 0 0 -.94-1 3.36 3.36 0 0 0 -1.6-.33 3.59 3.59 0 0 0 -2.53.92 4.89 4.89 0 0 0 -1.4 2.31v11.36h-2.64v-16.5h1.85l.49 2h.13a7.76 7.76 0 0 1 2.06-1.73 6.07 6.07 0 0 1 3.05-.68 4.94 4.94 0 0 1 2.59.61 4 4 0 0 1 1.57 2.13 5.35 5.35 0 0 1 2.09-2 6.23 6.23 0 0 1 3-.73 7.6 7.6 0 0 1 2.34.31 3.29 3.29 0 0 1 1.58 1.11 5.07 5.07 0 0 1 .91 2.15 17.41 17.41 0 0 1 .28 3.43v9.9h-2.57v-9.93a16 16 0 0 0 -.12-2.06 3.77 3.77 0 0 0 -.46-1.45 2.14 2.14 0 0 0 -1-.86 3.88 3.88 0 0 0 -1.6-.28 3.48 3.48 0 0 0 -2.57.92 5.34 5.34 0 0 0 -1.32 2.64v11z"/><path d="m1359.8 39.78a7.46 7.46 0 0 1 -2.49 1.25 10.78 10.78 0 0 1 -3.18.46 8.06 8.06 0 0 1 -3.27-.61 5.81 5.81 0 0 1 -2.28-1.75 7.56 7.56 0 0 1 -1.32-2.72 13.64 13.64 0 0 1 -.43-3.56q0-4.22 1.88-6.44a6.67 6.67 0 0 1 5.38-2.21 10.39 10.39 0 0 1 2.24.25 4.74 4.74 0 0 1 3.46 2.9 8.4 8.4 0 0 1 .56 3.35 16.37 16.37 0 0 1 -.2 2.41h-10.59a10.12 10.12 0 0 0 .3 2.57 5 5 0 0 0 .92 1.9 4 4 0 0 0 1.63 1.19 6.48 6.48 0 0 0 2.46.41 6.71 6.71 0 0 0 2.24-.4 4.78 4.78 0 0 0 1.68-.92zm-5.68-13.27a4.57 4.57 0 0 0 -3.12 1 5.12 5.12 0 0 0 -1.4 3.5h8.18a5.07 5.07 0 0 0 -1-3.51 3.56 3.56 0 0 0 -2.65-.99z"/></svg>