<svg viewBox="0 0 1024 640" xmlns="http://www.w3.org/2000/svg" xmlns:xlink="http://www.w3.org/1999/xlink"><clipPath id="a"><path d="m0 0h1024v640h-1024z"/></clipPath><clipPath id="b"><path d="m442.16 201.6s-52.87 3.36-53 49.43a269.42 269.42 0 0 0 12.45 80.56s10.89 26.77 40.39 28.21c32.53 1.59 41.82-28.22 41.82-28.22s15-40.58 14-84.43c-1-45.55-55.66-45.55-55.66-45.55z"/></clipPath><clipPath id="c"><circle cx="443.07" cy="153.09" r="66.64"/></clipPath><clipPath id="d"><path d="m508.5 350.5h155v-137.57s-6.56-57.57-74.33-57.57c-75.25 0-80.67 58-80.67 58z"/></clipPath><g clip-path="url(#a)"><path d="m1162.45 335.65c.19-6.29.29-12.68.29-19a628.28 628.28 0 0 0 -8.89-105l-590.66 100.41a24.32 24.32 0 0 0 -.47-2.41l580.1-149.65a624.4 624.4 0 0 0 -43.12-117.13l-538.59 262.24a24.4 24.4 0 0 0 -2.39-4l475.28-364.57a626 626 0 0 0 -85.24-90.73l-393.48 451.5a24.49 24.49 0 0 0 -4.37-3.13l296.52-520.29a626 626 0 0 0 -113.79-50.57l-187.45 568.83a24.33 24.33 0 0 0 -4.6-.94l70-594.93a624.33 624.33 0 0 0 -72.69-4.28c-17.3 0-34.83.76-52.1 2.2l50 597a24.3 24.3 0 0 0 -5.55 1.18l-166.25-575.7a624 624 0 0 0 -116 46.5l277.89 531.1a24.49 24.49 0 0 0 -3.79 2.66l-378.43-465a626.31 626.31 0 0 0 -88.2 87.76l463.21 380.9a24.42 24.42 0 0 0 -2.68 4.4l-529.49-282a625.57 625.57 0 0 0 -47.32 115.27l575.12 171.33a24.38 24.38 0 0 0 -.68 4.36l-597.92-52.86c-1.6 18.14-2.42 36.57-2.42 54.82a627.51 627.51 0 0 0 3.92 69.86l596.56-67.12a24.25 24.25 0 0 0 1.27 5.21l-571.89 183.13a623.59 623.59 0 0 0 49.85 114.57l523.89-293.75a24.49 24.49 0 0 0 2.57 3.62l-454.79 392.34a626.66 626.66 0 0 0 90.19 85.61l368.14-474.56a24.42 24.42 0 0 0 4.24 2.64l-267.12 538a625.33 625.33 0 0 0 116.63 44l154.87-580.36a24.32 24.32 0 0 0 4.23.76l-35.6 599.27c12.22.72 24.63.85 36.87.85h.06a627.39 627.39 0 0 0 87.49-5.92l-84-594.37a24.19 24.19 0 0 0 5.12-1.07l199.4 566.27a623.42 623.42 0 0 0 113.16-53.15l-308.54-514.81a24.48 24.48 0 0 0 3.83-2.61l404.76 442.91a626.81 626.81 0 0 0 83-92.57l-484.19-354a24.44 24.44 0 0 0 2.74-4.35l544.49 251.2a624.94 624.94 0 0 0 40.67-117.91l-583.49-137.8a24.35 24.35 0 0 0 .75-4.52z" fill="#55dd7a"/></g><path d="m471.17 343.52 4.89 115.69a1.74 1.74 0 0 0 2.16 1.62c3.44-.87 10.23-2.42 12.89-1.76m-76.6-112.87s.79 36.15-1 46.12-2.15 13.26-1.7 25 .45 35.36-2.27 39-15.87 0-15.87 0m103.6-216 15.41-2.16m-121.48-1.66s-25.65 66.19-25.2 128.74m-10.88 0s14-19 19 0" fill="none" stroke="#000" stroke-miterlimit="10" stroke-width="3"/><g clip-path="url(#b)"><path d="m442.16 201.6s-52.87 3.36-53 49.43a269.42 269.42 0 0 0 12.45 80.56s10.89 26.77 40.39 28.21c32.53 1.59 41.82-28.22 41.82-28.22s15-40.58 14-84.43c-1-45.55-55.66-45.55-55.66-45.55z" fill="#000091"/><path d="m419 201.6s-52.83 3.4-53 49.4a269.42 269.42 0 0 0 12.45 80.56s10.91 26.78 40.46 28.22c32.53 1.59 41.82-28.22 41.82-28.22s15-40.58 14-84.43c-1.06-45.53-55.73-45.53-55.73-45.53z" fill="#0000d1"/></g><path d="m442.16 201.6s-52.87 3.36-53 49.43a269.42 269.42 0 0 0 12.45 80.56s10.89 26.77 40.39 28.21c32.53 1.59 41.82-28.22 41.82-28.22s15-40.58 14-84.43c-1-45.55-55.66-45.55-55.66-45.55z" fill="none" stroke="#000" stroke-miterlimit="10" stroke-width="3"/><g clip-path="url(#c)"><circle cx="443.07" cy="153.09" fill="#cfae65" r="66.64"/><circle cx="415.87" cy="153.09" fill="#e2bd73" r="66.64"/></g><g stroke="#000" stroke-miterlimit="10" stroke-width="3"><circle cx="443.07" cy="153.09" fill="none" r="66.64"/><path d="m488.17 181.76c0 6.82-19.69 12.35-44 12.35s-44-5.53-44-12.35" fill="none"/><ellipse cx="475.03" cy="146.97" fill="#fff" rx="23.8" ry="10.2"/></g><circle cx="475.88" cy="146.91" r="8.9"/><ellipse cx="413.83" cy="145.61" fill="#fff" rx="23.8" ry="10.2" stroke="#000" stroke-miterlimit="10" stroke-width="3"/><circle cx="414.45" cy="145.56" r="8.9"/><path d="m615.5 349v117m-56-117v117" fill="#fff" stroke="#000" stroke-miterlimit="10" stroke-width="3"/><g clip-path="url(#d)"><path d="m511 349h156v-136.07s-7.06-57.57-74.83-57.57c-75.25 0-81.17 58-81.17 58z" fill="#b90000"/><path d="m486 349h155v-136.07s-6.56-57.57-74.33-57.57c-75.25 0-80.67 58-80.67 58z" fill="#e70000"/></g><path d="m508.5 350.5h155v-137.57s-6.56-57.57-74.33-57.57c-75.25 0-80.67 58-80.67 58z" fill="none" stroke="#000" stroke-miterlimit="10" stroke-width="3"/><path d="m623.94 275.6c0 6.07-16.54 11-37 11s-37-4.93-37-11" fill="none" stroke="#000" stroke-miterlimit="10" stroke-width="3"/><ellipse cx="613.53" cy="223.62" fill="#fff" rx="19.02" ry="8.15" stroke="#000" stroke-miterlimit="10" stroke-width="3"/><circle cx="614.21" cy="223.58" r="7.11"/><ellipse cx="563.21" cy="223.62" fill="#fff" rx="19.02" ry="8.15" stroke="#000" stroke-miterlimit="10" stroke-width="3"/><circle cx="563.89" cy="223.58" r="7.11"/><path d="m645.7 263.25s52.4-32 18.58-34.52m-20.28 24.66s20.4-4.39 10.88 12.61" fill="none" stroke="#000" stroke-miterlimit="10" stroke-width="3"/><path d="m427.67 263.93 33 33.21-15.9 19.26v-68.8l15.9 18.4-33 32.34" fill="none" stroke="#fff" stroke-width="5.73"/></svg>