<svg xmlns="http://www.w3.org/2000/svg" viewBox="0 0 376 88" fill="#585a5e"><path d="M0 15h99v58H0zM169 7h-54a10 10 0 0 0-10 10v54a10 10 0 0 0 10 10h54a10 10 0 0 0 10-10V17a10 10 0 0 0-10-10zm-4 54a6 6 0 0 1-6 6h-34a6 6 0 0 1-6-6V27a6 6 0 0 1 6-6h34a6 6 0 0 1 6 6z"/><rect x="127" y="29" width="30" height="30" rx="4" ry="4"/><path d="M277 15v-5a10 10 0 0 0-10-10h-7c-5.5 0-9 3-14 8l-10 10h-27a10 10 0 0 0-10 10v32a10 10 0 0 0 10 10h27l10 10c4 5 8.5 8 14 8h7a10 10 0 0 0 10-10v-5h99V15zm-53 43h-13V30h13zm43 11a3 3 0 0 1-6 0V17a3 3 0 0 1 6 0z"/></svg>