<svg viewBox="0 0 1044 1144" xmlns="http://www.w3.org/2000/svg" xmlns:xlink="http://www.w3.org/1999/xlink"><linearGradient id="a" gradientUnits="userSpaceOnUse" x1="984" x2="984" y1="572" y2="316"><stop offset="0" stop-color="#a8cd4b"/><stop offset=".9" stop-color="#98c55b"/></linearGradient><linearGradient id="b" gradientUnits="userSpaceOnUse" x1="984" x2="522" y1="316" y2="60"><stop offset="0" stop-color="#98c55b"/><stop offset=".9" stop-color="#79b580"/></linearGradient><linearGradient id="c" gradientUnits="userSpaceOnUse" x1="522" x2="60" y1="60" y2="316"><stop offset="0" stop-color="#79b580"/><stop offset=".8" stop-color="#5aa5a7"/></linearGradient><linearGradient id="d" gradientUnits="userSpaceOnUse" x1="60" x2="522" y1="316" y2="572"><stop offset="0" stop-color="#5aa5a7"/><stop offset=".9" stop-color="#4a94b1"/></linearGradient><linearGradient id="e" gradientUnits="userSpaceOnUse" x1="522" x2="522" y1="572" y2="1084"><stop offset="0" stop-color="#4a94b1"/><stop offset=".8" stop-color="#49839f"/></linearGradient><linearGradient id="f" gradientUnits="userSpaceOnUse" x1="984" x2="522" y1="828" y2="1084"><stop offset="0" stop-color="#466d85"/><stop offset=".7" stop-color="#49839f"/></linearGradient><linearGradient id="g" gradientUnits="userSpaceOnUse" x1="522" x2="60" y1="1084" y2="828"><stop offset=".3" stop-color="#49839f"/><stop offset=".9" stop-color="#47728b"/></linearGradient><linearGradient id="h" gradientUnits="userSpaceOnUse" x1="60" x2="60" y1="828" y2="572"><stop offset="0" stop-color="#47728b"/><stop offset="1" stop-color="#456a81"/></linearGradient><g fill="none" stroke-linecap="round" stroke-linejoin="round" stroke-width="120"><path d="m984 572v-256" stroke="url(#a)"/><path d="m984 316-462-256" stroke="url(#b)"/><path d="m522 60-462 256" stroke="url(#c)"/><path d="m60 316 462 256" stroke="url(#d)"/><path d="m522 572v512" stroke="url(#e)"/><path d="m984 828-462 256" stroke="url(#f)"/><path d="m522 1084-462-256" stroke="url(#g)"/><path d="m60 828v-256" stroke="url(#h)"/></g></svg>