<svg viewBox="0 0 180.08 146.52" xmlns="http://www.w3.org/2000/svg"><path d="m178.08 70.37v40.86l-57.66 33.29v-40.86z" fill="#9c3527"/><path d="m90 64 .12.07 19.44-11.22-19.56-11.28-19.46 11.22zm33.62 19.4.12.07 19.44-11.22-19.59-11.25-19.44 11.2zm54.49-13.05-57.66 33.29-118.45-68.35 57.66-33.29zm-121.62-25.67 19.44-11.22-19.56-11.3-19.44 11.23 19 10.94z" fill="#c24231"/><path d="m143.15 72.27-19.44 11.22-.12-.07v-22.44z" fill="#822c20"/><path d="m123.59 60.98v22.44l-19.44-11.22z" fill="#591f18"/><path d="m120.42 103.66v40.86l-118.42-68.37v-40.86zm-10.88-50.8-19.44 11.23-.12-.07v-22.45z" fill="#822c20"/><path d="m89.98 41.57v22.45l-19.44-11.23z" fill="#591f18"/><path d="m75.93 33.46-19.44 11.22-.61-.35.49-.85v-21.32z" fill="#822c20"/><path d="m56.37 22.16v21.32l-.49.85-18.95-10.94z" fill="#591f18"/><path d="m180 70v-.09a2.06 2.06 0 0 0 -.1-.33 2 2 0 0 0 -.15-.27l-.05-.08a1.83 1.83 0 0 0 -.22-.26 2 2 0 0 0 -.25-.21l-.08-.05h-.07l-118.42-68.44a2 2 0 0 0 -2 0l-57.66 33.29-.08.05-.08.05a2 2 0 0 0 -.48.48v.07a1.93 1.93 0 0 0 -.15.28 1.92 1.92 0 0 0 -.1.33v.08a1.94 1.94 0 0 0 0 .36h-.11v40.89a2 2 0 0 0 1 1.73l118.42 68.37.18.09a2 2 0 0 0 .32.1h.09a1.76 1.76 0 0 0 .71 0h.09a2 2 0 0 0 .32-.1l.19-.09 57.76-33.25a2 2 0 0 0 1-1.73v-40.9a2 2 0 0 0 -.08-.37zm-120.34-65.69 114.42 66.06-53.66 31-114.42-66.08zm-55.66 34.44 114.42 66.06v36.24l-114.42-66.05zm118.42 102.31v-36.25l53.66-31v36.24z"/><path d="m111.54 52.87a2 2 0 0 0 -1-1.73l-19.54-11.3-.18-.09a2 2 0 0 0 -.32-.1h-.09a2 2 0 0 0 -.71 0h-.09a2 2 0 0 0 -.32.1l-.18.09-19.57 11.22a2 2 0 0 0 0 3.46l19.06 11a2 2 0 0 0 1.38.56h.12a2 2 0 0 0 1-.27l19.44-11.21a2 2 0 0 0 1-1.73zm-23.54-7.87v15.55l-13.46-7.75zm4 15.66v-15.66l13.56 7.83zm-14.07-27.2a2 2 0 0 0 -1-1.73l-19.56-11.29-.18-.09a2 2 0 0 0 -.32-.1h-.09a2 2 0 0 0 -.35 0 2 2 0 0 0 -.35 0h-.09a1.94 1.94 0 0 0 -.32.1l-.19.09-19.55 11.22a2 2 0 0 0 0 3.46l19.56 11.29a2 2 0 0 0 2 0l19.44-11.22a2 2 0 0 0 1-1.73zm-23.56-7.83v15.52l-13.44-7.76zm4 15.66v-15.66l13.56 7.83zm65.22 44.2h.12a2 2 0 0 0 1-.27l19.44-11.22a2 2 0 0 0 0-3.46l-19.56-11.29-.18-.09a2 2 0 0 0 -.41-.16h-.09a2 2 0 0 0 -.71 0h-.09a2 2 0 0 0 -.32.1l-.18.09-19.46 11.28a2 2 0 0 0 0 3.46l19.06 11a2 2 0 0 0 1.38.56zm2-5.39v-15.66l13.56 7.83zm-4-15.66v15.56l-13.44-7.8z"/></svg>