<svg viewBox="0 0 180.08 146.52" xmlns="http://www.w3.org/2000/svg"><path d="m178.08 70.37v40.87l-57.65 33.29v-40.87z" fill="#9c3527"/><path d="m178.08 70.37-57.65 33.29-118.43-68.37 57.66-33.29z" fill="#c24231"/><path d="m120.43 103.66v40.87l-118.43-68.38v-40.86z" fill="#822c20"/><path d="m180 70v-.09a2 2 0 0 0 -.1-.32 2.07 2.07 0 0 0 -.15-.27l-.05-.08a2 2 0 0 0 -.22-.26 2.05 2.05 0 0 0 -.25-.21l-.08-.05h-.07l-118.42-68.45a2 2 0 0 0 -2 0l-57.66 33.29-.08.05-.08.05a2 2 0 0 0 -.26.21 1.91 1.91 0 0 0 -.22.26l-.05.08a1.89 1.89 0 0 0 -.15.27 2 2 0 0 0 -.1.33v.09a2 2 0 0 0 0 .36v40.89a2 2 0 0 0 1 1.73l118.42 68.37.19.09a2 2 0 0 0 .33.1h.09a1.78 1.78 0 0 0 .71 0h.09a2 2 0 0 0 .33-.1l.19-.09 57.67-33.25a2 2 0 0 0 1-1.73v-40.9a2 2 0 0 0 -.08-.37zm-120.34-65.69 114.42 66.06-53.66 31-114.42-66.08zm-55.66 34.44 114.42 66.06v36.24l-114.42-66.05zm118.42 102.31v-36.24l53.66-31v36.24z"/></svg>