<svg viewBox="0 0 180.08 146.52" xmlns="http://www.w3.org/2000/svg"><path d="m178.08 70.37v40.86l-57.66 33.29v-40.86z" fill="#9c3527"/><path d="m178.08 70.37-57.66 33.29-118.42-68.37 57.66-33.29zm-57.71 23.32 40.45-23.35-101.11-58.34-40.45 23.32z" fill="#c24231"/><path d="m160.81 70.34-40.44 23.35-.1-6.44 10.33-5.96z" fill="#9c3527"/><path d="m160.81 70.34-30.21 10.95-70.79-40.88-.1-28.44z" fill="#d64936"/><path d="m130.6 81.29-10.33 5.96-70.79-40.87 10.33-5.97z" fill="#c24231"/><path d="m120.42 103.66v40.86l-118.42-68.37v-40.86zm-.15-16.41.1 6.44-101.11-58.37 30.22 11.06z" fill="#822c20"/><path d="m59.71 11.97.1 28.44-10.33 5.97-30.22-11.06z" fill="#9c3527"/><path d="m180 70v-.09a2.14 2.14 0 0 0 -.1-.32 2.13 2.13 0 0 0 -.15-.27l-.05-.08a2 2 0 0 0 -.22-.26 2.1 2.1 0 0 0 -.25-.21l-.08-.05h-.07l-118.42-68.45a2 2 0 0 0 -2 0l-57.66 33.29-.08.05-.08.05a2 2 0 0 0 -.26.21 1.9 1.9 0 0 0 -.21.26l-.05.08a1.89 1.89 0 0 0 -.15.27 2.06 2.06 0 0 0 -.1.33v.09a2 2 0 0 0 0 .36v40.89a2 2 0 0 0 1 1.73l118.42 68.37.19.09a2 2 0 0 0 .33.1h.09a1.78 1.78 0 0 0 .71 0h.09a2 2 0 0 0 .33-.1l.19-.09 57.66-33.25a2 2 0 0 0 1-1.73v-40.9a2 2 0 0 0 -.08-.37zm-120.34-65.69 114.42 66.06-53.66 31-114.42-66.08zm-55.66 34.44 114.42 66.06v36.24l-114.42-66.05zm118.42 102.31v-36.24l53.66-31v36.24z"/><path d="m120.43 95.69h.4a2.06 2.06 0 0 0 .32-.1h.07l.15-.07 40.45-23.35h.06l.22-.17.07-.06a2 2 0 0 0 .22-.25v-.06a1.94 1.94 0 0 0 .14-.24v-.08a2.08 2.08 0 0 0 .11-.31v-.06a1.88 1.88 0 0 0 0-.28v-.1-.06a2 2 0 0 0 0-.28 2 2 0 0 0 -.08-.31v-.07a2 2 0 0 0 -.15-.31v-.07a1.92 1.92 0 0 0 -.17-.22l-.06-.07a1.94 1.94 0 0 0 -.24-.22h-.07l-.12-.08-101.04-58.63-.19-.09a2 2 0 0 0 -.32-.1h-.09a2 2 0 0 0 -.35 0 2 2 0 0 0 -.34 0h-.09a1.94 1.94 0 0 0 -.32.1h-.05l-.17.09-40.52 23.35-.13.09h-.06a2 2 0 0 0 -.25.22l-.05.06a2 2 0 0 0 -.17.23v.07a2.05 2.05 0 0 0 -.15.31v.08a2 2 0 0 0 -.08.3v.05a2.06 2.06 0 0 0 0 .28v.16a2.13 2.13 0 0 0 0 .27v.07a2 2 0 0 0 .11.32v.07a2.09 2.09 0 0 0 .14.24v.06a2 2 0 0 0 .22.25l.07.06.22.17h.07l101.1 58.37.2.1a2 2 0 0 0 .32.1h.09a2.06 2.06 0 0 0 .35 0h.06zm10.36-16.6-69-39.83-.08-23.82 94.37 54.48zm-10.52 5.85-66.79-38.56 6.32-3.65 66.8 38.56zm-62.47-45.68-8.51 4.91-25.29-9.26 33.72-19.48zm-9.17 8.93 69.66 40.22v1.79l-78.04-45.07zm73.66 40.2 9.15-5.29 8.75-3.17-17.87 10.33z"/></svg>