<svg xmlns="http://www.w3.org/2000/svg" xmlns:xlink="http://www.w3.org/1999/xlink" viewBox="0 0 180.08 146.52"><defs><linearGradient id="a" x1="110.06" y1="73.24" x2="140.7" y2="73.24" gradientUnits="userSpaceOnUse"><stop offset="0" stop-color="#591f18"/><stop offset=".66" stop-color="#9c3527"/></linearGradient><linearGradient id="b" x1="74.72" y1="52.83" x2="105.36" y2="52.83" xlink:href="#a"/><linearGradient id="c" x1="39.38" y1="32.42" x2="70.02" y2="32.42" xlink:href="#a"/></defs><title>bricks</title><path fill="#9c3527" d="M178.08 70.37v40.86l-57.66 33.29v-40.86l57.66-33.29z"/><path d="M178.08 70.37l-57.66 33.29L2 35.29 59.66 2zm-41.83 9.13c6-3.44 5.93-9-.07-12.5s-15.7-3.49-21.67 0-5.93 9 .07 12.51 15.71 3.49 21.67 0zm-35.34-20.4c6-3.45 5.93-9-.07-12.51s-15.7-3.48-21.67 0-5.93 9 .07 12.5 15.7 3.46 21.67.01zM65.56 38.7c6-3.44 5.93-9-.06-12.51s-15.71-3.48-21.66 0-5.94 9 .06 12.51 15.7 3.44 21.66 0z" fill="#c24231"/><path d="M136.18 67c6 3.46 6 9.07.07 12.5s-15.66 3.43-21.66 0-6-9.07-.07-12.51 15.66-3.45 21.66.01z" fill="url(#a)"/><path fill="#822c20" d="M120.42 103.66v40.86L2 76.15V35.29l118.42 68.37z"/><path d="M100.84 46.59c6 3.46 6 9.06.07 12.51s-15.67 3.42-21.67 0-6-9.06-.07-12.5 15.67-3.47 21.67-.01z" fill="url(#b)"/><path d="M65.5 26.19c6 3.46 6 9.07.06 12.51s-15.66 3.43-21.67 0-6-9.06-.06-12.51 15.66-3.47 21.67 0z" fill="url(#c)"/><path d="M180.08 70.37a2 2 0 0 0 0-.36v-.08a2 2 0 0 0-.1-.34 2 2 0 0 0-.16-.3v-.06a2 2 0 0 0-.49-.49h-.06l-.08-.06L60.66.27a2 2 0 0 0-2 0L1 33.56H.93l-.08.05a2 2 0 0 0-.25.21 2 2 0 0 0-.22.26l-.05.08a1.94 1.94 0 0 0-.15.27 2 2 0 0 0-.1.32v.09a2 2 0 0 0 0 .36v40.95a2 2 0 0 0 1 1.73l118.42 68.37.19.09a2 2 0 0 0 .32.1h.09a1.76 1.76 0 0 0 .71 0h.09a2 2 0 0 0 .32-.1l.19-.09L179.08 113a2 2 0 0 0 1-1.73V70.38zM59.66 4.31l114.42 66.06-53.66 31L6 35.29zM4 38.75l114.42 66.06v36.24L4 75zm118.42 102.31v-36.24l53.66-31v36.24z"/><path d="M66.5 24.46a24.16 24.16 0 0 0-11.9-2.88 23.92 23.92 0 0 0-11.77 2.84c-3.52 2-5.45 4.86-5.45 8s2 6 5.52 8a24.16 24.16 0 0 0 11.9 2.88 23.91 23.91 0 0 0 11.77-2.84c3.52-2 5.45-4.85 5.45-8s-1.96-5.95-5.52-8zM64.56 37a19.88 19.88 0 0 1-9.77 2.3 20.14 20.14 0 0 1-9.9-2.34c-2.24-1.29-3.52-3-3.52-4.56s1.23-3.2 3.45-4.49a19.89 19.89 0 0 1 9.77-2.3 20.13 20.13 0 0 1 9.89 2.34c2.24 1.29 3.52 3 3.52 4.56s-1.21 3.17-3.44 4.49zM101.84 44.86A24.17 24.17 0 0 0 89.94 42a23.91 23.91 0 0 0-11.77 2.84c-3.52 2-5.45 4.85-5.45 7.95s2 6 5.52 8a24.15 24.15 0 0 0 11.89 2.88 23.91 23.91 0 0 0 11.77-2.84c3.52-2 5.45-4.85 5.45-8s-1.95-5.91-5.51-7.97zm-1.93 12.51a19.9 19.9 0 0 1-9.77 2.3 20.14 20.14 0 0 1-9.89-2.34c-2.24-1.29-3.52-3-3.52-4.56s1.23-3.2 3.45-4.49A19.89 19.89 0 0 1 89.94 46a20.13 20.13 0 0 1 9.89 2.34c2.24 1.29 3.52 3 3.52 4.56s-1.22 3.19-3.44 4.47zM137.25 81.24c3.52-2 5.45-4.85 5.45-8s-2-6-5.52-8a24.16 24.16 0 0 0-11.89-2.88 23.91 23.91 0 0 0-11.77 2.84c-3.52 2-5.45 4.85-5.45 8s2 6 5.52 8a24.16 24.16 0 0 0 11.9 2.88 23.91 23.91 0 0 0 11.76-2.84zm-25.19-8.06c0-1.61 1.23-3.2 3.45-4.49a19.9 19.9 0 0 1 9.77-2.3 20.42 20.42 0 0 1 9.89 2.34c2.24 1.29 3.52 3 3.52 4.56s-1.23 3.2-3.45 4.49a19.9 19.9 0 0 1-9.77 2.3 20.14 20.14 0 0 1-9.9-2.34c-2.22-1.29-3.51-2.96-3.51-4.56z"/></svg>