<svg viewBox="0 0 180.08 146.52" xmlns="http://www.w3.org/2000/svg"><path d="m54.6 31.36-11.67 6.74v-13.48z" fill="#822c20"/><path d="m42.93 24.62v13.48l-5.73 3.31-11.67-6.74z" fill="#591f18"/><path d="m178.08 70.37v40.86l-57.66 33.29v-40.86z" fill="#9c3527"/><path d="m79.66 41.23 11.67-6.74-11.67-6.74-17.4 10 11.67 6.74zm14.89 33.28 5.87 3.4 5.8-3.35-11.67-6.74-5.79 3.35zm27.26-9 11.67-6.74-11.67-6.74-17.4 10 11.67 6.74zm56.28 4.81-57.66 33.29-118.43-68.32 57.66-33.29zm-29.33 4 5.8-3.35-11.67-6.73-5.81 3.34 5.81 3.35zm-21.54 12.45 11.67-6.77-11.67-6.74-17.4 10 11.67 6.74zm-20.62-36.77 5.8-3.35-11.67-6.73-5.8 3.34 5.8 3.35zm-21.53 12.43 11.68-6.73-11.68-6.7-17.39 10 11.67 6.73zm-20.61-36.76 5.8-3.35-11.68-6.74-5.8 3.35 5.8 3.34zm-6.18 27.9 5.8-3.35-11.68-6.73-5.8 3.35 5.72 3.3zm-21.08-12.16 17.4-10-11.67-6.79-17.4 10z" fill="#c24231"/><path d="m154.55 70.99-5.8 3.35-5.87-3.39v-6.7z" fill="#822c20"/><path d="m142.88 64.25v6.7l-5.8-3.35z" fill="#c24231"/><path d="m138.89 80.03-11.67 6.74v-13.48zm-5.41-21.21-11.67 6.74v-13.48z" fill="#822c20"/><path d="m127.22 73.29v13.48l-5.72 3.3-11.68-6.74zm-5.41-21.21v13.48l-5.73 3.31-11.67-6.74z" fill="#591f18"/><path d="m120.42 103.66v40.86l-118.42-68.37v-40.86zm-8.02-57.01-5.8 3.35-5.87-3.39v-6.69zm-6.18 27.91-5.8 3.35-5.87-3.4v-6.69z" fill="#822c20"/><path d="m100.73 39.92v6.69l-5.8-3.35z" fill="#c24231"/><path d="m96.75 55.7-11.68 6.73v-13.47z" fill="#822c20"/><path d="m94.55 67.82v6.69l-5.8-3.34z" fill="#c24231"/><path d="m91.33 34.49-11.67 6.74v-13.48z" fill="#822c20"/><path d="m85.07 48.96v13.47l-5.72 3.31-11.67-6.74zm-5.41-21.21v13.48l-5.73 3.3-11.67-6.74z" fill="#591f18"/><path d="m70.26 22.32-5.8 3.35-5.88-3.39v-6.7zm-6.19 27.9-5.8 3.35-5.95-3.43.08-.14v-6.51z" fill="#822c20"/><path d="m58.58 15.58v6.7l-5.8-3.35zm-6.18 27.91v6.51l-.08.14-5.72-3.31z" fill="#c24231"/><path d="m180 70v-.09a2 2 0 0 0 -.1-.32 1.91 1.91 0 0 0 -.15-.27l-.05-.08a2 2 0 0 0 -.21-.26 2 2 0 0 0 -.25-.21l-.08-.05h-.07l-118.43-68.45a2 2 0 0 0 -2 0l-57.66 33.29h-.07l-.09.06a2 2 0 0 0 -.24.2 2 2 0 0 0 -.21.26l-.05.08a1.87 1.87 0 0 0 -.15.27 2.17 2.17 0 0 0 -.1.33v.08a2 2 0 0 0 0 .36h-.09v40.95a2 2 0 0 0 1 1.73l118.42 68.37.19.09a2 2 0 0 0 .33.1h.09a1.72 1.72 0 0 0 .71 0h.09a2 2 0 0 0 .33-.1l.19-.09 57.73-33.25a2 2 0 0 0 1-1.73v-40.9a2 2 0 0 0 -.08-.37zm-120.34-65.69 114.42 66.06-53.66 31-114.42-66.08zm-55.66 34.44 114.42 66.06v36.24l-114.42-66.05zm118.42 102.3v-36.23l53.66-31v36.24z"/><path d="m136.08 69.33 11.67 6.74a2 2 0 0 0 2 0l5.8-3.35a2 2 0 0 0 0-3.46l-11.67-6.74-.18-.09a2 2 0 0 0 -.32-.1h-.09a1.93 1.93 0 0 0 -.35 0 2 2 0 0 0 -.35 0h-.09a2 2 0 0 0 -.32.1l-.18.09-5.8 3.35a2 2 0 0 0 0 3.46zm12.67 2.67-3.87-2.23v-2.05l5.67 3.28zm-27.25 20.08a2 2 0 0 0 1-.27l17.4-10a2 2 0 0 0 0-3.46l-11.67-6.74-.18-.09a2 2 0 0 0 -.32-.1h-.09a2 2 0 0 0 -.71 0h-.09a2 2 0 0 0 -.32.1l-.19.09-17.4 10a2 2 0 0 0 0 3.46l11.67 6.74a2 2 0 0 0 .9.27zm7.73-8.77v-6.55l5.66 3.24zm-4-6.55v8.86l-3.73 2.15-7.67-4.43zm-60.16-28.26-11.67-6.74-.19-.09a2 2 0 0 0 -.32-.1h-.09a2 2 0 0 0 -.35 0 2 2 0 0 0 -.35 0h-.09a2 2 0 0 0 -.32.1l-.18.09-5.91 3.34a2 2 0 0 0 0 3.46l11.67 6.74a2 2 0 0 0 2 0l5.8-3.3a2 2 0 0 0 0-3.46zm-6.8 2.77-3.87-2.27v-2l5.67 3.27zm35.66-6.27 11.67 6.74a2 2 0 0 0 2 0l5.8-3.35a2 2 0 0 0 0-3.46l-11.67-6.74-.18-.09a2 2 0 0 0 -.32-.1h-.09a2 2 0 0 0 -.35 0 1.94 1.94 0 0 0 -.35 0h-.09a2 2 0 0 0 -.33.1l-.19.09-5.8 3.35a2 2 0 0 0 0 3.46zm12.67 2.7-3.87-2.24v-2.08l5.67 3.27zm-7.85 8a2 2 0 0 0 -1-1.73l-11.67-6.74-.18-.09a2 2 0 0 0 -.32-.1h-.09a2 2 0 0 0 -.71 0h-.09a2 2 0 0 0 -.32.1l-.18.09-17.4 10a2 2 0 0 0 0 3.46l11.67 6.74a2 2 0 0 0 2 0l17.4-10a2 2 0 0 0 .89-1.73zm-19.4 7.74-7.67-4.44 11.4-6.58v8.86zm7.73-4.44v-6.58l5.67 3.27zm20.14 13.83-11.67-6.74-.19-.09a2 2 0 0 0 -.32-.1h-.09a2 2 0 0 0 -.35 0 2 2 0 0 0 -.35 0h-.09a2 2 0 0 0 -.32.1l-.19.09-5.8 3.35a2 2 0 0 0 0 3.46l5.61 3.24a2 2 0 0 0 .42.24l5.63 3.25a2 2 0 0 0 2 0l5.8-3.35a2 2 0 0 0 0-3.46zm-6.8 2.77-3.87-2.24v-2.07l5.67 3.27zm-48.63-54.93 11.67 6.73a2 2 0 0 0 2 0l5.8-3.35a2 2 0 0 0 0-3.46l-11.67-6.74-.18-.09a2 2 0 0 0 -.32-.1h-.09a2 2 0 0 0 -.35 0 2 2 0 0 0 -.35 0h-.09a1.93 1.93 0 0 0 -.33.1l-.19.09-5.8 3.35a2 2 0 0 0 0 3.46zm12.67 2.7-3.87-2.24v-2.13l5.67 3.27zm-7.86 7.99a2 2 0 0 0 -1-1.73l-11.67-6.74-.18-.09a2 2 0 0 0 -.32-.1h-.09a2 2 0 0 0 -.71 0h-.09a2 2 0 0 0 -.32.1l-.18.09-17.4 10a2 2 0 0 0 0 3.46l11.56 6.79a2 2 0 0 0 2 0l17.4-10a2 2 0 0 0 1-1.78zm-19.4 7.74-7.67-4.43 11.4-6.58v8.86zm7.73-4.46v-6.55l5.67 3.27zm34.29-8.83a1.92 1.92 0 0 0 -.33.1l-.19.09-17.4 10a2 2 0 0 0 0 3.46l11.67 6.74a2 2 0 0 0 2 0l5-2.89a2 2 0 0 0 1.3-.75l11.1-6.41a2 2 0 0 0 0-3.46l-11.71-6.69-.18-.09a2 2 0 0 0 -.32-.1h-.09a2 2 0 0 0 -.35 0 2 2 0 0 0 -.35 0zm-5.29 16.42-7.67-4.43 11.4-6.58v8.86zm7.73-4.46v-6.55l5.67 3.27zm39.7 12.37a2 2 0 0 0 -.33.1l-.19.09-17.4 10a2 2 0 0 0 0 3.46l11.67 6.74a2 2 0 0 0 2 0l5-2.89a2 2 0 0 0 1.3-.75l11.1-6.41a2 2 0 0 0 0-3.46l-11.67-6.74-.18-.09a2 2 0 0 0 -.32-.1h-.09a2 2 0 0 0 -.35 0 1.94 1.94 0 0 0 -.35 0zm-5.28 16.42-7.67-4.43 11.4-6.58v8.86zm7.73-4.46v-6.55l5.67 3.27z"/></svg>