<svg xmlns="http://www.w3.org/2000/svg" xmlns:xlink="http://www.w3.org/1999/xlink" viewBox="0 0 180.08 146.52"><defs><linearGradient id="a" x1="134.69" y1="70.97" x2="151.15" y2="70.97" gradientUnits="userSpaceOnUse"><stop offset="0" stop-color="#591f18"/><stop offset=".66" stop-color="#9c3527"/></linearGradient><linearGradient id="b" x1="113.62" y1="58.8" x2="130.07" y2="58.8" xlink:href="#a"/><linearGradient id="c" x1="113.24" y1="83.36" x2="129.69" y2="83.36" xlink:href="#a"/><linearGradient id="d" x1="92.54" y1="46.64" x2="109" y2="46.64" xlink:href="#a"/><linearGradient id="e" x1="92.16" y1="71.19" x2="108.61" y2="71.19" xlink:href="#a"/><linearGradient id="f" x1="71.47" y1="34.47" x2="87.92" y2="34.47" xlink:href="#a"/><linearGradient id="g" x1="71.09" y1="59.02" x2="87.54" y2="59.02" xlink:href="#a"/><linearGradient id="h" x1="50.4" y1="22.3" x2="66.85" y2="22.3" xlink:href="#a"/><linearGradient id="i" x1="50.01" y1="46.86" x2="66.47" y2="46.86" xlink:href="#a"/><linearGradient id="j" x1="28.94" y1="34.69" x2="45.39" y2="34.69" xlink:href="#a"/></defs><title>bricks</title><path fill="#9c3527" d="M178.08 70.37v40.86l-57.65 33.29v-40.86l57.65-33.29z"/><path d="M178.08 70.37l-57.66 33.29L2 35.29 59.66 2zm-29.33 4c3.21-1.85 3.19-4.86 0-6.72a12.84 12.84 0 0 0-11.63 0c-3.2 1.85-3.19 4.86 0 6.72a12.86 12.86 0 0 0 11.63-.03zm-21.07-12.2c3.2-1.85 3.19-4.86 0-6.72a12.86 12.86 0 0 0-11.63 0c-3.2 1.85-3.19 4.85 0 6.71a12.86 12.86 0 0 0 11.63.01zm-.38 24.55c3.21-1.85 3.19-4.86 0-6.72a12.85 12.85 0 0 0-11.63 0c-3.21 1.85-3.19 4.85 0 6.72a12.85 12.85 0 0 0 11.63.01zM106.61 50c3.2-1.85 3.19-4.85 0-6.71a12.86 12.86 0 0 0-11.63 0c-3.2 1.84-3.19 4.85 0 6.71a12.86 12.86 0 0 0 11.63 0zm-.39 24.55c3.21-1.85 3.19-4.85 0-6.71a12.86 12.86 0 0 0-11.64 0c-3.2 1.84-3.19 4.85 0 6.71a12.86 12.86 0 0 0 11.64.01zM85.53 37.84c3.21-1.85 3.18-4.86 0-6.72a12.86 12.86 0 0 0-11.63 0c-3.21 1.85-3.19 4.86 0 6.72a12.86 12.86 0 0 0 11.63 0zm-.38 24.56c3.2-1.85 3.18-4.86 0-6.72a12.86 12.86 0 0 0-11.63 0c-3.2 1.85-3.19 4.86 0 6.72a12.86 12.86 0 0 0 11.63-.01zM64.46 25.67c3.2-1.84 3.19-4.85 0-6.71a12.86 12.86 0 0 0-11.64 0c-3.2 1.85-3.18 4.85 0 6.71a12.86 12.86 0 0 0 11.64 0zm-.38 24.56c3.2-1.85 3.19-4.86 0-6.71a12.86 12.86 0 0 0-11.63 0c-3.2 1.85-3.19 4.85 0 6.71a12.86 12.86 0 0 0 11.63-.01zM43 38.06c3.2-1.85 3.19-4.86 0-6.72a12.86 12.86 0 0 0-11.63 0c-3.21 1.85-3.19 4.86 0 6.72a12.86 12.86 0 0 0 11.63 0z" fill="#c24231"/><path d="M148.72 67.62c3.23 1.86 3.24 4.87 0 6.72a12.86 12.86 0 0 1-11.64 0c-3.22-1.86-3.23-4.87 0-6.72a12.84 12.84 0 0 1 11.64 0z" fill="url(#a)"/><path d="M127.64 55.45c3.23 1.86 3.24 4.87 0 6.72a12.86 12.86 0 0 1-11.63 0c-3.23-1.86-3.24-4.87 0-6.71a12.86 12.86 0 0 1 11.63-.01z" fill="url(#b)"/><path d="M127.26 80c3.22 1.86 3.24 4.87 0 6.72a12.85 12.85 0 0 1-11.64 0c-3.22-1.87-3.24-4.87 0-6.72a12.85 12.85 0 0 1 11.64 0z" fill="url(#c)"/><path fill="#822c20" d="M120.43 103.66v40.86L2 76.15V35.29l118.43 68.37z"/><path d="M106.57 43.29c3.22 1.86 3.24 4.87 0 6.71A12.86 12.86 0 0 1 95 50c-3.23-1.86-3.24-4.87 0-6.71a12.86 12.86 0 0 1 11.57 0z" fill="url(#d)"/><path d="M106.19 67.84c3.22 1.86 3.24 4.86 0 6.71a12.86 12.86 0 0 1-11.63 0c-3.22-1.86-3.23-4.87 0-6.71a12.86 12.86 0 0 1 11.63 0z" fill="url(#e)"/><path d="M85.5 31.12c3.22 1.86 3.24 4.87 0 6.72a12.86 12.86 0 0 1-11.63 0c-3.22-1.86-3.24-4.87 0-6.72a12.86 12.86 0 0 1 11.63 0z" fill="url(#f)"/><path d="M85.11 55.67c3.22 1.86 3.24 4.87 0 6.72a12.86 12.86 0 0 1-11.64 0c-3.22-1.86-3.24-4.87 0-6.72a12.86 12.86 0 0 1 11.64 0z" fill="url(#g)"/><path d="M64.42 19c3.23 1.86 3.24 4.87 0 6.71a12.86 12.86 0 0 1-11.64 0c-3.22-1.86-3.24-4.87 0-6.71a12.86 12.86 0 0 1 11.64 0z" fill="url(#h)"/><path d="M64 43.51c3.23 1.86 3.24 4.87 0 6.71a12.86 12.86 0 0 1-11.63 0c-3.23-1.86-3.24-4.87 0-6.71a12.86 12.86 0 0 1 11.63 0z" fill="url(#i)"/><path d="M43 31.34c3.22 1.86 3.23 4.86 0 6.72a12.86 12.86 0 0 1-11.64 0c-3.23-1.86-3.24-4.87 0-6.72a12.86 12.86 0 0 1 11.64 0z" fill="url(#j)"/><path d="M180 70v-.09a2 2 0 0 0-.1-.32 2 2 0 0 0-.15-.27l-.05-.08a2 2 0 0 0-.22-.26 2 2 0 0 0-.26-.21l-.08-.05-.08-.05L60.66.27a2 2 0 0 0-2 0L1 33.56l-.08.05H.85a2 2 0 0 0-.49.49v.06a2 2 0 0 0-.16.29 2 2 0 0 0-.1.33v.08a2 2 0 0 0 0 .36H0v40.93a2 2 0 0 0 1 1.73l118.42 68.37.19.09a1.92 1.92 0 0 0 .33.1h.09a1.81 1.81 0 0 0 .71 0h.09a1.92 1.92 0 0 0 .33-.1l.19-.09L179.08 113a2 2 0 0 0 1-1.73v-40.9A2 2 0 0 0 180 70zM59.66 4.31l114.42 66.06-53.66 31L6 35.29zM4 38.75l114.42 66.06v36.24L4 75zm118.42 102.31v-36.24l53.66-31v36.24z"/><path d="M65.42 17.22a13.91 13.91 0 0 0-6.85-1.67 13.77 13.77 0 0 0-6.78 1.65 6 6 0 0 0-3.39 5.07c0 2 1.25 3.85 3.43 5.11a14.83 14.83 0 0 0 13.63 0 6 6 0 0 0 3.39-5.07c0-1.97-1.25-3.83-3.43-5.09zm-2 6.72a9.89 9.89 0 0 1-4.78 1.11 10 10 0 0 1-4.85-1.13c-.88-.51-1.43-1.14-1.43-1.65s.52-1.1 1.39-1.61a9.89 9.89 0 0 1 4.78-1.11 10 10 0 0 1 4.85 1.13c.88.51 1.43 1.14 1.43 1.65s-.48 1.11-1.35 1.61zM86.5 29.39a13.91 13.91 0 0 0-6.85-1.67 13.77 13.77 0 0 0-6.78 1.65 6 6 0 0 0-3.39 5.07c0 2 1.25 3.85 3.43 5.11a14.84 14.84 0 0 0 13.63 0 6 6 0 0 0 3.39-5.07c-.01-1.97-1.26-3.83-3.43-5.09zm-2 6.72a9.89 9.89 0 0 1-4.78 1.11 10 10 0 0 1-4.85-1.13c-.88-.51-1.43-1.14-1.43-1.65s.52-1.1 1.39-1.61a9.89 9.89 0 0 1 4.78-1.11 10 10 0 0 1 4.85 1.13c.88.51 1.43 1.14 1.43 1.65s-.49 1.1-1.36 1.61zM107.57 41.56a14.84 14.84 0 0 0-13.64 0 6 6 0 0 0-3.39 5.07c0 2 1.25 3.85 3.43 5.11a14.83 14.83 0 0 0 13.63 0 6 6 0 0 0 3.4-5.07c0-1.99-1.25-3.86-3.43-5.11zm-2 6.72a9.9 9.9 0 0 1-4.79 1.11A10 10 0 0 1 96 48.25c-.88-.51-1.43-1.14-1.43-1.65s.52-1.1 1.39-1.61a9.89 9.89 0 0 1 4.78-1.11 10 10 0 0 1 4.83 1.12c.88.51 1.43 1.14 1.43 1.65s-.52 1.12-1.39 1.62zM115 63.88a14.84 14.84 0 0 0 13.64 0 6 6 0 0 0 3.39-5.07c0-2-1.25-3.85-3.43-5.11a14.84 14.84 0 0 0-13.63 0 6 6 0 0 0-3.39 5.07c.04 1.99 1.29 3.86 3.42 5.11zm2-6.72a9.89 9.89 0 0 1 4.78-1.11 10 10 0 0 1 4.85 1.13c.88.51 1.43 1.14 1.43 1.65s-.52 1.1-1.39 1.61a9.9 9.9 0 0 1-4.79 1.11 10 10 0 0 1-4.88-1.13c-.88-.51-1.43-1.14-1.43-1.65s.57-1.1 1.43-1.6zM136.12 76.05a14.84 14.84 0 0 0 13.63 0 6 6 0 0 0 3.39-5.05c0-2-1.25-3.85-3.43-5.11a14.84 14.84 0 0 0-13.64 0 6 6 0 0 0-3.39 5.07c.01 1.97 1.26 3.83 3.44 5.09zm2-6.72a9.9 9.9 0 0 1 4.79-1.11 10 10 0 0 1 4.85 1.13c.88.51 1.43 1.14 1.43 1.65s-.52 1.1-1.39 1.61a9.89 9.89 0 0 1-4.8 1.11 10 10 0 0 1-4.85-1.13c-.88-.51-1.43-1.14-1.43-1.65s.49-1.1 1.36-1.61zM44 29.61a13.91 13.91 0 0 0-6.85-1.67 13.77 13.77 0 0 0-6.78 1.65 6 6 0 0 0-3.39 5.07c0 2 1.25 3.85 3.43 5.11a13.91 13.91 0 0 0 6.85 1.67A13.78 13.78 0 0 0 44 39.79a6 6 0 0 0 3.39-5.07c0-1.99-1.25-3.85-3.39-5.11zm-2 6.72a9.89 9.89 0 0 1-4.78 1.11 10 10 0 0 1-4.85-1.13c-.88-.51-1.43-1.14-1.43-1.65s.52-1.1 1.39-1.61a9.89 9.89 0 0 1 4.78-1.11A10 10 0 0 1 42 33.07c.88.51 1.43 1.14 1.43 1.65s-.56 1.1-1.43 1.61zM65 41.78a14.83 14.83 0 0 0-13.63 0A6 6 0 0 0 48 46.83c0 2 1.25 3.85 3.43 5.11a14.84 14.84 0 0 0 13.64 0 6 6 0 0 0 3.39-5.07c.01-1.97-1.24-3.87-3.46-5.09zm-2 6.72a9.89 9.89 0 0 1-4.79 1.11 10 10 0 0 1-4.85-1.13C52.56 48 52 47.33 52 46.83s.52-1.1 1.39-1.61a9.89 9.89 0 0 1 4.78-1.11A10 10 0 0 1 63 45.24c.88.51 1.43 1.14 1.43 1.65s-.48 1.11-1.36 1.6zM86.11 53.94a14.83 14.83 0 0 0-13.63 0A6 6 0 0 0 69.09 59c0 2 1.25 3.85 3.43 5.11a13.92 13.92 0 0 0 6.85 1.67 13.77 13.77 0 0 0 6.78-1.65 6 6 0 0 0 3.39-5.07c0-2-1.25-3.86-3.43-5.12zm-2 6.72a9.89 9.89 0 0 1-4.78 1.11 10 10 0 0 1-4.85-1.13c-.88-.51-1.43-1.14-1.43-1.65s.52-1.1 1.39-1.61a9.9 9.9 0 0 1 4.78-1.11 10 10 0 0 1 4.85 1.13c.88.51 1.43 1.14 1.43 1.65s-.5 1.11-1.35 1.61zM107.19 66.11a13.91 13.91 0 0 0-6.85-1.67 13.77 13.77 0 0 0-6.78 1.65 6 6 0 0 0-3.39 5.07c0 2 1.25 3.85 3.43 5.11a14.84 14.84 0 0 0 13.64 0 6 6 0 0 0 3.39-5.07c-.02-1.97-1.27-3.83-3.44-5.09zm-2 6.72a9.89 9.89 0 0 1-4.78 1.11 10 10 0 0 1-4.85-1.13c-.88-.51-1.43-1.14-1.43-1.65s.52-1.1 1.39-1.61a9.89 9.89 0 0 1 4.78-1.11 10 10 0 0 1 4.85 1.13c.88.51 1.43 1.14 1.43 1.65s-.49 1.11-1.36 1.61zM128.3 88.46a6 6 0 0 0 3.39-5.07c0-2-1.25-3.85-3.43-5.11a14.84 14.84 0 0 0-13.64 0 6 6 0 0 0-3.39 5.07c0 2 1.25 3.85 3.43 5.11a14.83 14.83 0 0 0 13.63 0zm-13.06-5.13c0-.5.52-1.1 1.39-1.61a9.89 9.89 0 0 1 4.78-1.11 10 10 0 0 1 4.85 1.13c.88.51 1.43 1.14 1.43 1.65s-.52 1.1-1.39 1.61a9.89 9.89 0 0 1-4.78 1.11 10 10 0 0 1-4.86-1.11c-.88-.53-1.43-1.16-1.43-1.67z"/></svg>