<svg viewBox="0 0 512 512" xmlns="http://www.w3.org/2000/svg"><path d="m0 0h512v512h-512z" fill="#0095da"/><path d="m222.8 328.9-12.1-5.2c-20.7-9-29.7-14.8-29.7-29.3 0-11.7 9-20.7 23.1-20.7 13.8 0 22.8 5.9 31 20.7l37.6-24.1c-15.9-27.9-38-38.6-68.7-38.6-43.1 0-70.7 27.6-70.7 63.8 0 39.3 23.1 58 58 72.8l12.1 5.2c22.1 9.7 35.2 15.5 35.2 32.1 0 13.8-12.8 23.8-32.8 23.8-23.8 0-37.3-12.4-47.6-29.3l-39.2 22.7c14.1 27.9 43.1 49.3 88 49.3 45.9 0 80-23.8 80-67.3 0-40.3-23.1-58.3-64.2-75.9zm185.3 0-12.1-5.2c-20.7-9-29.7-14.8-29.7-29.3 0-11.7 9-20.7 23.1-20.7 13.8 0 22.8 5.9 31 20.7l37.6-24.1c-15.9-27.9-38-38.6-68.7-38.6-43.1 0-70.7 27.6-70.7 63.8 0 39.3 23.1 58 58 72.8l12.1 5.2c22.1 9.7 35.2 15.5 35.2 32.1 0 13.8-12.8 23.8-32.8 23.8-23.8 0-37.3-12.4-47.6-29.3l-39.3 22.8c14.1 27.9 43.1 49.3 88 49.3 45.9 0 80-23.8 80-67.3.1-40.4-23-58.4-64.1-76zm-104.9-214h-.5l-1.7 2.3h14.2v6.2l-1.5 1.5 13.6 14.1s-1.1 3.7-.2 6.2c.7 2.2 6.8 8.9 11.7 14.3 2.5 2.6 6.7 9 6.7 10.8h43.2v10.3c-3 .9-5.2 3.4-5.2 6.4 0 3.7 3.3 6.8 7.5 6.8 4.1 0 7.5-3 7.5-6.8 0-3-2.2-5.5-5.2-6.4v-10.3h47.1l2.2-7.7c-9.1-4.2.7-14.6 5.3-18.7l7.4-26.1c.9-.2 1.6-.8 1.6-1.6 0-.9-1-1.7-2.2-1.7s-2.1.7-2.1 1.7c0 .6.4 1.1 1 1.4l-1.1 3.2h-3.9v-10c1.1-.8 2.2-1.5 3.3-2.3v-2.1c-1.1.4-2.2.7-3.3 1.1v-18.2h2.6v-1.9h-6.6l-11.2-9.4v-14.1c.9-.3 1.6-1 1.6-1.8 0-1-1.1-1.9-2.4-1.9s-2.4.9-2.4 1.9c0 .8.7 1.5 1.6 1.8v4.3h-14l1.8 2.4h.7v.9l1.6 2.1h-9.6c-.5-.7-18.2-28.1-19.9-30.8v-3.7c.7-.3 1.2-.8 1.2-1.5 0-.9-1-1.7-2.2-1.7s-2.2.7-2.2 1.7c0 .7.6 1.3 1.5 1.6v3.4l-.2.3h-16.8l1.9 2.4h1v1.2l1.5 1.9-1.5 1.9v1.5h-1.1l-1.7 2.2h10l-.3.4-14.5 19.3h-24.2v-12.7c.8-.2 1.3-.7 1.3-1.4 0-.8-1-1.5-2.2-1.5s-2.1.7-2.1 1.5c0 .6.6 1.2 1.5 1.4v3.8h-16.2l1.9 2.5h.6v.7l1.6 2.1-1.6 2.1v.8h-.6l-1.8 2.3h16.1v1.9l-12.5 11.1.1.1h-6.1v1.7h3.3c-1.3 3.8-2.9 7.6-3.1 11.4h-7.3c-.3-.7-1-1.1-1.8-1.1-1.1 0-2 .9-2 1.9 0 .8.6 1.5 1.3 1.8v3.6h-14.1l1.5 2.1h.6v.8l1.4 1.9-1.4 1.8zm145.3 18.7h-14.1v-3.4h15.1zm-14.1-20.2v-3.1c1.9.1 3.4.4 4.6 1.1-1.6.6-3.1 1.3-4.6 2zm15 9.5-2.5 2.5 2.5 2.5-.9.9-2.5-2.5-2.5 2.5-.9-.9 2.5-2.5-2.5-2.5.9-.9 2.5 2.5 2.5-2.5zm-1.9-1.9h-8.1c2.4-4.4 5.2-7 8.1-9.1zm-.2-31.7h.2v18.9c-1 .4-2.1.7-3.1 1.1-1.1-1.2-3.1-3.7-3.1-6.9-.2-6.6 5.5-12.5 6-13.1zm-8.6 2.5c-2.8-.1-4.1-1.9-4.5-2.5h9.8s-2.7 2.6-5.3 2.5zm-5.3-11.6 8.6 7.2h-8.6zm-40.1 26.6v-4.1c3.4.4 6.9 2 8.6 4l.2.1zm12.4 12.3h-2.4l-1.1-2.6h2.4zm18.1 1.2c-1.9 1.7-3.6 3.6-5 5.7l-6.6-13.9c1.5-.4 2.6-1.2 3.7-2.1.8 2.4 1.8 4.3 2.1 4.7zm-4.5-5.7c.5-.7 3.8-4.4 10.7-4.4h.7v5.1c-2.2 1.2-4.2 2.6-6 4.2zm-1.3 12.8c-.8 1.4-1.6 3-2.1 4.5 1.1-.6 2.3-1.2 3.5-1.7.4.9 1.5 3.1 1.6 3.3h-.6c-1.7 0-4.2 0-4.3 3.7h-1l-10.3-23.2c1.7 0 3.4-.4 5.1-1.6.3 0 .6.1 1 .1.8 1.5 4.2 8.8 7.1 14.9zm-20.7-11 1.1 2.6h-1.9l-1-2.6zm-2.2-.8c.6-.2 1.1-.3 1.6-.5l.2.5zm11.2 10.4-1.1-2.6h2.4l1.1 2.6zm2.8.9 1.1 2.6h-2.4l-1.1-2.6zm-2.6 2.6h-2.5l-1.1-2.6h2.4zm-1.7-7-1.1-2.6h2.4l1.1 2.6zm-1 .9 1.1 2.6h-2.4l-1.1-2.6zm-2.6-.9-1.1-2.6h2.3l1.1 2.6zm-1.5-3.4-1.1-2.6h2.2l1.1 2.6zm-1.4-3.5-.4-.9c.7-.3 1.4-.6 1.7-.9l.8 1.8zm.4 4.3 1.1 2.6h-2l-1-2.6zm1.5 3.5 1.1 2.6h-2.1l-1-2.6zm1.4 3.5 1.1 2.6h-2.2l-1-2.6zm1.4 3.5 1.1 2.6h-2.3l-1-2.6zm1.5 3.4.9 2.3h-2.4l-.9-2.3zm-.1-3.4h2.5l1.1 2.6h-2.6zm4 3.4 1 2.3h-2.7l-.9-2.3zm1-.8-1.1-2.6h2.4l1.1 2.6zm-7.6-17.4-.9-2.1c.8.2 1.7.3 2.6.4l.7 1.7zm-8.5.2c.2 0 .4 0 .5-.1l7.8 20.4h-8.3zm3.3 25.9h4.4v4.4h-4.4zm7.7 13h-4.4v-4.4h4.4zm.7-13h4.4v4.4h-4.4zm7.7 13h-4.4v-4.4h4.4zm-2-18.6-1-2.3h2.4l1 2.3zm2.8 5.6h4.4v4.4h-4.4zm7.7 13h-4.4v-4.4h4.4zm5.2-8.6h-4.4v-4.4h4.4zm4.4-12.5h-8.4l-1.8-3.8c3.5-1.3 6.9-2 10.2-2.3zm-6-42.3c-2.2-.2-2.9-1.5-3.1-1.9h9.3c-.5.2-3.7 2-6.2 1.9zm6.9-3.9h-8.4l8.4-7zm-6.7-17.1 2.5 2.5 2.5-2.5.9.9-2.5 2.5 2.5 2.5-.9.8-2.5-2.5-2.5 2.5-.9-.9 2.5-2.5-2.5-2.5zm-4.1 4.9-.7.9v.8h-.6l-1.3 1.7h13l-10.6 8.9h-5.7v1.9h3.3c-.4.9-1.7 3.7-2.7 7-1.5-1.7-4-6-4-10.6v-10.5h9.3zm-10.6.1v10.4c0 6.8 3.9 11.3 4.8 12.6-.3 1.3-.5 2.7-.6 4-.1 1.4.2 3 .5 4.5h-8c-8.4-8.8-6.8-24.9-2.3-31.7h5.4zm-17.9-15.3c1-.3 1.7-.9 1.7-1.6s-.7-1.3-1.7-1.6v-11.2l.1-.1 17.7 28.1h-6l-11.8-13zm0 2.7 9.4 11h-9.4zm-.1 12.5h9.4c-.6 1-2.6 2.6-9.4 2.8zm-24.3 41.8-5.5 4.6-3.8-7.7c0-.1.1-.1.1-.2h1.7v-1.6h-2.5c-.4-.6-.7-1.1-1-1.7.3 0 .7.1 1 .2 2.2 1.5 4.9 1.5 7.6 1.4.9 1.6 1.7 3.3 2.4 5zm-.7-4.9c1.7 1 3.4 1.3 5.2 1.1l-3.4 2.8c-.6-1.2-1.2-2.6-1.8-3.9zm-13.7 7.5 1.5 3h-2.5l-1.3-3zm-2.5-.5-.7-1.5c.8.1 1.5.1 2.3 0l.7 1.5zm6.4 8.4 1 2.1h-2.9l-.2-.4zm-2.6.4-.6-1.4h2.3zm3-2.4-4.2-8.1c1.7-.5 3-1.5 4.2-2.7l3.7 7.6zm-2.6-2.4 1.4 3h-2.7l-1.3-3zm-.9 6.9h.2l1.3 3h-2.3l-.7-1.7zm1.7 3.5 1.1 2.6h-2.3l-1.1-2.6zm1.1-.5-1.3-3h2.9l1.5 3zm3.2.5 1.3 2.6h-3.2l-1.2-2.6zm-1.9-6.9 3.7-3.1 6 12.6h-4.8zm-2.9-19.7c-1.8-5.9.2-11.2 2.2-14.9 1.7 5.1 3.6 10 5.7 14.9zm.6-16.7c-1.2.9-4.6 2.4-4.9-.2h5.1zm.5 21.8h-10.9v-2.9c2 .5 3.4 1.5 3.4 2.8l1.8.1c1.3-4.1 6.4-.2 5.7 0zm-8.4 5.2c.3.1.6.2 1 .2l.7 1.7h-2.4l-.8-1.9zm1.8 2.4 1.3 3h-2.4l-1.3-3zm1.5 3.5 1.3 3h-2.4l-1.3-3zm1.5 3.4.9 2.2-1 .8h-1l-1.3-3zm-.6 3.5-.2.2-.1-.2zm-.7 2.2 1.6 4h-6.4zm5.5 22.5h-4.4v-4.4h4.4zm3.4-8.6h-4.4v-4.4h4.4zm5.1 8.6h-4.4v-4.4h4.4zm3.4-8.6h-4.4v-4.4h4.4zm-6-23.4 5.5-4.5c2.8 6 5.7 11.8 8.4 17.9h-7.4zm11.1 32h-4.4v-4.4h4.4zm3.4-8.6h-4.4v-4.4h4.4zm5.1 8.6h-4.4v-4.4h4.4zm3.4-8.6h-4.4v-4.4h4.4zm2.6-10h-10.1c-2.9-6.4-6-12.5-8.9-18.8l4.5-3.8c1.6.5 3.2.9 4.8.9 2.6 12 6.1 15.8 9.8 19v2.7zm-10.2-32.2c1.9.1 3.9 1.2 5 3h-9c.7-2.2 2.3-3.1 4-3zm-4-28.7h7.7c-.4.9-1.2 2.1-3.9 2.1-2.5 0-3.4-1.3-3.8-2.1zm14.2 56.5c-4.2-2.7-7.1-11-8.6-17.3 1.5-.1 3-.6 4.6-1.5.8 1.4 2.2 2.3 4 2.6zm0-24.8h-3.6v-.2c.4-2 1.8-3.1 3.6-3.6zm.9-29c-4.3-.3-5.5-2-5.9-2.8h5.9zm0-4.2h-10.6l10.6-10.9zm-7.5-21.9-.9-.9 2.5-2.5-2.5-2.5.9-.9 2.5 2.5 2.5-2.5.9.9-2.5 2.5 2.5 2.5-.9.9-2.5-2.5zm3.3 2.3h4.2v2.7c-1.2.3-2 .9-2 1.7s.8 1.4 2 1.7v.7l-13 12.9h-5.8zm-15.7 21.1h3c-1.3 1.5-5.5 6.9-5.7 14.9-.2 7.4 3.8 13.9 5.9 16.8h-8c-2.2-5.2-4.2-10.7-6-16.8h1.7v-1.7h-.7zm-23.9 0h22l-9.9 13.2h-.3l-11.8-11.4zm0 4.1 9.8 9h-9.8zm0 10.8h3.3c-.7 1.3-1.9 2.2-3.3 2.7zm-.3 27.2h.3v.1l5.6 13.6-5.8 4.8v-18.5zm-5.1-43.9-2.5-2.5-2.5 2.5-.9-.9 2.5-2.5-2.5-2.5.9-.9 2.5 2.5 2.5-2.5.9.9-2.5 2.5 2.5 2.5zm-13.9 59.6-6.1-6.2c1.2-1.2 8.3-8.3 9.6-9.5-.3 1.1 1 4.6 3 8.5zm14.3-16-7 7.8c-1.4-2.6-2.4-5.4-3.1-8.2 2 0 4.1-.5 6.2-1.1 1.2.9 2.5 1.3 3.9 1.5zm-7.1 10c1.9 3.4 4.2 6.8 6.5 9.1h-2.6v4.5h-3.7l-6.5-6.6zm2.4 22.1c-2.3-.4-3.4-.9-2.6-3.7l7.2 7.2c-2.6 0-4.4.2-4.6-3.5zm6.2-31.4v18.4h-.6c-2.4-3-5-6.1-7.2-10zm.9-24.5c-2.8 0-5.4-1.6-5.4-3.2h5.4zm0-13.6v8.8h-10.1zm-6.7 10.5c-.5 1.2-5 4.2-6.4 0zm-19.7 13.9c.3-.2.6-.5.8-.8h7.3c.2 2.9 1.3 5.8 4.1 8.8h.9c2.7-3.7 6.7-1.2 7 .1l1.4-.1c1-1.9 3-2.8 5-3v3.1h-21.1v1.6h.8c1.7 1.8 3.8 2.7 5.9 3l-9.3 9.2-.1.1-2.7-2.7zm-9.5 5 2.5 2.5 2.5-2.5.9.9-2.5 2.5 2.5 2.5-.9.9-2.5-2.5-2.5 2.5-.9-.9 2.5-2.5-2.5-2.5zm-250.2 196.8 36.9-26.2c-21-32.8-51.4-48-93.8-48h-.3v43.5h.3c26.9 0 45.9 12.8 56.9 30.7zm-56.9 123.2h-.3v43.1h.3c45.2 0 77.6-20 98-51.8l-37.6-25.9c-13.1 20.1-30 34.6-60.4 34.6z" fill="#fff"/></svg>