<svg viewBox="0 0 142 200" xmlns="http://www.w3.org/2000/svg"><g fill="none" fill-rule="evenodd" transform="translate(3 -3.36)"><g transform="translate(.1031 17.0052)"><path d="m84.2946481 164.84429c4.5880635 7.542088-.5955939 12.371324-7.583576 15.939052-9.8859792 5.046032-34.3452278 2.587649-42.71917-2.478943-7.685388-4.649865-11.0956581-11.51017-7.4362133-17.461923" fill="#fff" stroke="#000" stroke-width="4.99999"/><path d="m.4358094 109.5679c-1.05539741 19.30611 17.1024412 49.610868 38.6122204 56.65276 11.1066149 3.636423 36.1032386 4.735303 44.9277634-1.761704 15.1092903-11.124835 22.7507278-25.466535 26.2039638-43.196837 1.224279-6.284889 1.535551-13.46331 1.178618-19.330732-1.172278-19.2679464 15.943976-66.0682129 14.62793-71.006155-3.654274-13.7206095-19.54125-5.6806647-22.852909 3.1400437-1.604123 4.2724094-17.0581218 34.2344288-17.1492232 28.4987339-.2242572-14.0899395 1.2025385-31.0766573 3.4662852-47.040331 3.3874947-23.88826444-29.9662051-17.86695434-32.9085341 4.5332795-1.3785858 10.4937733-3.7628572 19.0931299-6.2896899 42.583749-3.8729175-12.6507836-10.3796504-30.8218196-12.5633755-43.383964-3.6015831-20.71448861-33.30987273-8.2971216-28.37439283 16.9374738 3.36139543 17.1849249 8.70326143 29.8455573 11.98906733 46.2167251-3.4547128 2.7810549-19.76654158 6.9990497-20.86837608 27.155604z" fill="#fff" stroke="#000" stroke-width="4.99999"/><g fill="#000"><path d="m47.4909136 62.219794c3.7387276 15.5869571 9.2230319 22.7322615 11.2639495 26.370162-2.6104245-9.7094395-3.5306717-12.1024517-5.5325634-22.6707065-.3394143-1.7917429-.439158-3.9371809-.1433124-6.5553613z"/><path d="m83.4870465 62.749167c.1560296 9.3969863 2.5994677 20.6910977 6.1202905 27.7416074-.1613725-5.1286395-.5153138-13.9397453-.9130576-21.7301461-.107869-2.11306.3122808-4.0261894 2.044734-6.4892512-2.3718373.6665175-4.8152014.4734318-7.2519177.4781592z"/><path d="m18.4972775 81.277222c4.7904563 20.629543-1.4787973 28.737567-5.647425 39.278245 6.3338864-10.911977 14.945554-14.514669 10.8837857-38.7045524z"/></g></g><g fill="#000"><path d="m1.1 18.3c1.6396-10.931 21.509-18.813 31.663-9.5656-7.9924-18.015-37.025-4.705-31.663 9.5656z" transform="translate(4.5 13)"/><path d="m1.10000285 18.3000473c1.63960424-10.93102824 21.50905565-18.81304863 31.66308185-9.56562471-7.9924206-18.01504659-37.02509572-4.70501217-31.66308185 9.56562471z" transform="matrix(.96352751 .26760931 -.26760931 .96352751 65.063 -.0982)"/><path d="m1.10000383 18.3000637c1.6396057-10.93103806 21.50907487-18.81306549 31.66311017-9.56563331-7.9924278-18.01506268-37.02512883-4.70501637-31.66311017 9.56563331z" transform="matrix(.76989732 .63816778 -.63816778 .76989732 118.08544 19.10372)"/></g></g></svg>