<svg viewBox="0 0 628 530" xmlns="http://www.w3.org/2000/svg" xmlns:xlink="http://www.w3.org/1999/xlink"><filter id="a"><feGaussianBlur in="SourceGraphic" stdDeviation="15"/></filter><linearGradient id="b" gradientUnits="userSpaceOnUse" x1="86.6997" x2="435.0327" y1="54.6665" y2="54.6665"><stop offset=".000478" stop-color="#c0ebfc"/><stop offset="1" stop-color="#d8e4e8"/></linearGradient><linearGradient id="c"><stop offset="0" stop-color="#2a5669"/><stop offset="1" stop-color="#91bdcf"/></linearGradient><linearGradient id="d" gradientUnits="userSpaceOnUse" x1="172.416" x2="222.6043" xlink:href="#c" y1="94.3335" y2="5.2418"/><linearGradient id="e" gradientUnits="userSpaceOnUse" x1="125.6079" x2="180.2284" y1="85.0557" y2="54.4346"><stop offset="0" stop-color="#082f40"/><stop offset="1" stop-color="#215d75" stop-opacity="0"/></linearGradient><linearGradient id="f" gradientUnits="userSpaceOnUse" x1="78.751" x2="512.7505" y1="75.5161" y2="-7.4841"><stop offset="0" stop-color="#fff"/><stop offset="1" stop-color="#fff" stop-opacity="0"/></linearGradient><linearGradient id="g" gradientUnits="userSpaceOnUse" x1="67.3667" x2="130.3687" y1="93.9946" y2="93.9946"><stop offset=".000478" stop-color="#c0ebfc"/><stop offset="1" stop-color="#86bccf"/></linearGradient><linearGradient id="h"><stop offset="0" stop-color="#97c7db"/><stop offset="1" stop-color="#bec8cc"/></linearGradient><linearGradient id="i" gradientUnits="userSpaceOnUse" x1="108.0327" x2="192.7793" xlink:href="#h" y1="434.9082" y2="434.9082"/><linearGradient id="j"><stop offset="0" stop-color="#496570"/><stop offset=".993" stop-color="#062430"/></linearGradient><linearGradient id="k" gradientUnits="userSpaceOnUse" x1="109.8066" x2="127.637" xlink:href="#j" y1="441.9814" y2="457.4792"/><linearGradient id="l"><stop offset="0" stop-color="#60a7c4"/><stop offset="1" stop-color="#bec8cc"/></linearGradient><linearGradient id="m" gradientUnits="userSpaceOnUse" x1="203.0532" x2="138.4094" xlink:href="#l" y1="461.9707" y2="395.2747"/><linearGradient id="n" gradientUnits="userSpaceOnUse" x1="203.9233" x2="141.8574" xlink:href="#l" y1="459.6445" y2="395.6082"/><linearGradient id="o" gradientUnits="userSpaceOnUse" x1="136.2871" x2="91.8497" y1="291.3438" y2="245.4956"><stop offset="0" stop-color="#60a7c4"/><stop offset="1" stop-color="#d1dce0"/></linearGradient><linearGradient id="p" gradientUnits="userSpaceOnUse" x1="336.2915" x2="531.3667" xlink:href="#h" y1="397.1357" y2="397.1357"/><linearGradient id="q"><stop offset="0" stop-color="#fff"/><stop offset="1" stop-color="#bec8cc"/></linearGradient><radialGradient id="r" cx="452.0708" cy="378.9082" gradientTransform="matrix(.9403 -.3403 .1524 .4211 -30.7585 373.2087)" gradientUnits="userSpaceOnUse" r="80.9142" xlink:href="#q"/><linearGradient id="s" gradientUnits="userSpaceOnUse" x1="527.3403" x2="348.9908" xlink:href="#l" y1="511.5986" y2="327.587"/><linearGradient id="t" gradientUnits="userSpaceOnUse" x1="76.6177" x2="278.1512" y1="142.626" y2="363.5129"><stop offset="0" stop-color="#77afc7"/><stop offset="1" stop-color="#bec8cc"/></linearGradient><radialGradient id="u" cx="177.4038" cy="376.2412" gradientTransform="matrix(.2588 .9659 -.5695 .1526 345.759 147.4618)" gradientUnits="userSpaceOnUse" r="97.8429"><stop offset="0" stop-color="#fff"/><stop offset=".3342" stop-color="#fcfdfd" stop-opacity=".6658"/><stop offset=".5499" stop-color="#f4f5f6" stop-opacity=".4501"/><stop offset=".7322" stop-color="#e5e9ea" stop-opacity=".2678"/><stop offset=".8948" stop-color="#d0d7da" stop-opacity=".1052"/><stop offset="1" stop-color="#bec8cc" stop-opacity="0"/></radialGradient><radialGradient id="v" cx="54.4038" cy="234.2412" gradientTransform="matrix(.9685 -.249 .1457 .5667 -32.4197 115.0476)" gradientUnits="userSpaceOnUse" r="82.5302"><stop offset="0" stop-color="#1c78ad"/><stop offset=".341" stop-color="#1e79ad" stop-opacity=".659"/><stop offset=".4948" stop-color="#257daf" stop-opacity=".5052"/><stop offset=".6109" stop-color="#3283b1" stop-opacity=".3891"/><stop offset=".7082" stop-color="#448cb5" stop-opacity=".2918"/><stop offset=".7937" stop-color="#5c97b9" stop-opacity=".2063"/><stop offset=".8708" stop-color="#79a6bf" stop-opacity=".1292"/><stop offset=".9402" stop-color="#9ab6c5" stop-opacity=".0598"/><stop offset="1" stop-color="#bec8cc" stop-opacity="0"/></radialGradient><linearGradient id="w"><stop offset="0" stop-color="#fff" stop-opacity="0"/><stop offset="1" stop-color="#fff"/></linearGradient><linearGradient id="x" gradientUnits="userSpaceOnUse" x1="188.002" x2="147.5424" xlink:href="#w" y1="218.6953" y2="245.2659"/><linearGradient id="y"><stop offset=".0061" stop-color="#97c7db"/><stop offset=".3676" stop-color="#3e829e"/><stop offset="1" stop-color="#1a495c"/></linearGradient><radialGradient id="z" cx="304.2173" cy="382.6719" gradientUnits="userSpaceOnUse" r="140.8178" xlink:href="#y"/><linearGradient id="A"><stop offset="0" stop-color="#1b6887"/><stop offset=".993" stop-color="#062430"/></linearGradient><linearGradient id="B" gradientUnits="userSpaceOnUse" x1="198.4038" x2="204.6963" xlink:href="#A" y1="240.7412" y2="240.7412"/><linearGradient id="C" gradientUnits="userSpaceOnUse" x1="238.7954" x2="359.7957" xlink:href="#c" y1="228.9399" y2="498.94"/><linearGradient id="D" gradientUnits="userSpaceOnUse" x1="243.8809" x2="346.1774" xlink:href="#c" y1="324.0889" y2="142.4973"/><linearGradient id="E" gradientUnits="userSpaceOnUse" x1="141.1577" x2="217.4913" xlink:href="#q" y1="286.2979" y2="442.6318"/><linearGradient id="F" gradientTransform="matrix(-.8426 -2.2743 .9377 -.3474 108.5504 884.7536)" gradientUnits="userSpaceOnUse" x1="220.6401" x2="223.6841" xlink:href="#h" y1="241.7344" y2="241.7344"/><linearGradient id="G" gradientUnits="userSpaceOnUse" x1="218.3062" x2="177.5561" xlink:href="#w" y1="159.0967" y2="166.5967"/><linearGradient id="H" gradientUnits="userSpaceOnUse" x1="133.4702" x2="171.7596" xlink:href="#c" y1="214.8184" y2="231.5787"/><linearGradient id="I" gradientTransform="matrix(1.0024 .0667 -.0388 1.051 7.8578 -14.1949)" gradientUnits="userSpaceOnUse" x1="31.8364" x2="66.769" xlink:href="#h" y1="211.0576" y2="211.0576"/><linearGradient id="J" gradientUnits="userSpaceOnUse" x1="104.1436" x2="90.3936" y1="158.9937" y2="180.4937"><stop offset="0" stop-color="#97c7db"/><stop offset="1" stop-color="#bec8cc" stop-opacity="0"/></linearGradient><linearGradient id="K" gradientUnits="userSpaceOnUse" x1="66.5942" x2="158.3443" y1="117.0005" y2="102.7505"><stop offset="0" stop-color="#fff"/><stop offset="1" stop-color="#215d75"/></linearGradient><linearGradient id="L" gradientUnits="userSpaceOnUse" x1="101.6763" x2="251.0916" xlink:href="#l" y1="198.0869" y2="194.8388"/><linearGradient id="M" gradientUnits="userSpaceOnUse" x1="226.5513" x2="189.8847" xlink:href="#c" y1="246.1533" y2="303.4863"/><linearGradient id="N" gradientUnits="userSpaceOnUse" x1="131.2529" x2="160.7157" xlink:href="#c" y1="264.5303" y2="263.8898"/><linearGradient id="O" gradientUnits="userSpaceOnUse" x1="121.688" x2="129.4878" y1="140.5381" y2="156.8689"><stop offset="0" stop-color="#69badb"/><stop offset="1" stop-color="#bec8cc"/></linearGradient><linearGradient id="P"><stop offset="0" stop-color="#082f40"/><stop offset="1" stop-color="#215d75"/></linearGradient><linearGradient id="Q" gradientUnits="userSpaceOnUse" x1="124.9668" x2="136.0422" xlink:href="#P" y1="115.8682" y2="142.449"/><linearGradient id="R" gradientUnits="userSpaceOnUse" x1="40.6724" x2="7.923" xlink:href="#w" y1="201.3027" y2="192.8029"/><linearGradient id="S" gradientUnits="userSpaceOnUse" x1="66.7002" x2="29.2342" xlink:href="#w" y1="204.8633" y2="184.7926"/><linearGradient id="T" gradientUnits="userSpaceOnUse" x1="50.3647" x2="47.2395" y1="162.2339" y2="153.2331"><stop offset="0" stop-color="#42839e"/><stop offset="1" stop-color="#8ac8cc"/></linearGradient><linearGradient id="U" gradientUnits="userSpaceOnUse" x1="35.9131" x2="49.9656" xlink:href="#P" y1="152.2832" y2="164.0811"/><linearGradient id="V"><stop offset="0" stop-color="#031a24"/><stop offset="1" stop-color="#085370"/></linearGradient><linearGradient id="W" gradientUnits="userSpaceOnUse" x1="84.3242" x2="34.9501" xlink:href="#V" y1="170.3779" y2="146.417"/><linearGradient id="X" gradientUnits="userSpaceOnUse" x1="98.748" x2="129.5815" y1="145.0449" y2="124.0449"><stop offset="0" stop-color="#031a24"/><stop offset="1" stop-color="#053345"/></linearGradient><linearGradient id="Y" gradientUnits="userSpaceOnUse" x1="133.3667" x2="213.9707" xlink:href="#P" y1="190.4121" y2="190.4121"/><linearGradient id="Z" gradientUnits="userSpaceOnUse" x1="286.7993" x2="349.0604" xlink:href="#c" y1="438.376" y2="327.8532"/><linearGradient id="aa" gradientUnits="userSpaceOnUse" x1="76.3989" x2="128.3385" y1="247.2627" y2="293.8058"><stop offset="0" stop-color="#2a5669"/><stop offset="1" stop-color="#91bdcf" stop-opacity="0"/></linearGradient><linearGradient id="ab"><stop offset=".0244" stop-color="#8a1323"/><stop offset="1" stop-color="#2b0712"/></linearGradient><radialGradient id="ac" cx="70.0708" cy="251.1455" gradientUnits="userSpaceOnUse" r="22.8364" xlink:href="#ab"/><radialGradient id="ad" cx="45.5288" cy="253.4912" gradientUnits="userSpaceOnUse" r="11.4079" xlink:href="#ab"/><radialGradient id="ae" cx="87.7788" cy="245.1162" gradientUnits="userSpaceOnUse" r="12.3908" xlink:href="#ab"/><radialGradient id="af" cx="156.7373" cy="200.4077" gradientUnits="userSpaceOnUse" r="57.2642"><stop offset="0" stop-color="#fff"/><stop offset=".2223" stop-color="#fafeff"/><stop offset=".5006" stop-color="#eafbff"/><stop offset=".8075" stop-color="#d1f7ff"/><stop offset="1" stop-color="#bdf3ff"/></radialGradient><radialGradient id="ag" cx="163.5474" cy="164.8872" gradientUnits="userSpaceOnUse" r="12.3488" xlink:href="#y"/><linearGradient id="ah" gradientUnits="userSpaceOnUse" x1="158.3931" x2="175.6538" xlink:href="#h" y1="203.1953" y2="203.1953"/><linearGradient id="ai" gradientUnits="userSpaceOnUse" x1="174.0288" x2="186.1289" xlink:href="#h" y1="154.334" y2="154.334"/><linearGradient id="aj" gradientUnits="userSpaceOnUse" x1="173.6309" x2="185.8789" xlink:href="#h" y1="176.7725" y2="176.7725"/><linearGradient id="ak" gradientUnits="userSpaceOnUse" x1="151.9102" x2="163.9043" xlink:href="#h" y1="184.5508" y2="184.5508"/><linearGradient id="al" gradientUnits="userSpaceOnUse" x1="152.8208" x2="173.7373" xlink:href="#h" y1="152.2832" y2="152.2832"/><linearGradient id="am" gradientUnits="userSpaceOnUse" x1="122.9658" x2="232.5626" y1="190.957" y2="188.5745"><stop offset="0" stop-color="#347691"/><stop offset="1" stop-color="#bec8cc"/></linearGradient><linearGradient id="an" gradientUnits="userSpaceOnUse" x1="143.1685" x2="135.4258" y1="218.96" y2="236.8076"><stop offset="0" stop-color="#1c373d"/><stop offset="1" stop-color="#215d75"/></linearGradient><linearGradient id="ao" gradientUnits="userSpaceOnUse" x1="130.8926" x2="158.7788" xlink:href="#h" y1="230.0537" y2="230.0537"/><linearGradient id="ap"><stop offset="0" stop-color="#fff"/><stop offset="1" stop-color="#75ffff"/></linearGradient><radialGradient id="aq" cx="118.4873" cy="133.3467" gradientUnits="userSpaceOnUse" r="31.4197" xlink:href="#ap"/><radialGradient id="ar" cx="44.2788" cy="146.3662" gradientUnits="userSpaceOnUse" r="20.5961" xlink:href="#ap"/><linearGradient id="as" gradientUnits="userSpaceOnUse" x1="74.7969" x2="50.2136" xlink:href="#V" y1="160.1597" y2="148.2296"/><linearGradient id="at" gradientUnits="userSpaceOnUse" x1="144.6572" x2="574.0698" xlink:href="#h" y1="135.0972" y2="135.0972"/><linearGradient id="au" gradientTransform="matrix(.8359 .202 -.1809 .7485 52.5479 -9.0487)" gradientUnits="userSpaceOnUse" x1="141.6772" x2="202.1743" xlink:href="#h" y1="115.561" y2="115.561"/><linearGradient id="av" gradientUnits="userSpaceOnUse" x1="454.4702" x2="353.4696" xlink:href="#w" y1="118.2241" y2="94.5576"/><linearGradient id="aw" gradientTransform="matrix(.8999 -.4362 .4362 .8999 13.3195 132.0651)" gradientUnits="userSpaceOnUse" x1="333.8599" x2="227.5849" xlink:href="#w" y1="36.0664" y2="11.1639"/><linearGradient id="ax"><stop offset="0" stop-color="#03131a"/><stop offset="1" stop-color="#215d75"/></linearGradient><linearGradient id="ay" gradientUnits="userSpaceOnUse" x1="134.4399" x2="75.4398" xlink:href="#ax" y1="97.6875" y2="111.5211"/><linearGradient id="az" gradientUnits="userSpaceOnUse" x1="71.8652" x2="36.8452" xlink:href="#P" y1="144.1768" y2="134.6567"/><radialGradient id="aA" cx="251.2373" cy="229.4082" gradientUnits="userSpaceOnUse" r="66.3033" xlink:href="#y"/><radialGradient id="aB" cx="309.9038" cy="389.7412" gradientUnits="userSpaceOnUse" r="157.0131" xlink:href="#y"/><linearGradient id="aC" gradientUnits="userSpaceOnUse" x1="216.8716" x2="243.3716" xlink:href="#j" y1="464.8145" y2="481.6485"/><linearGradient id="aD"><stop offset="0" stop-color="#f29545"/><stop offset="1" stop-color="#d51323"/></linearGradient><linearGradient id="aE" gradientUnits="userSpaceOnUse" x1="127.8042" x2="123.9296" xlink:href="#aD" y1="132.0288" y2="124.4047"/><linearGradient id="aF" gradientUnits="userSpaceOnUse" x1="59.5845" x2="54.5845" xlink:href="#aD" y1="155.5439" y2="147.669"/><radialGradient id="aG" cx="47.1157" cy="227.3032" gradientTransform="matrix(.9958 -.0921 .0491 .5313 -10.9677 110.8705)" gradientUnits="userSpaceOnUse" r="73.6778"><stop offset="0" stop-color="#f29545"/><stop offset=".4634" stop-color="#f74711"/><stop offset=".7134" stop-color="#8a1323"/><stop offset="1" stop-color="#7d2f47"/></radialGradient><linearGradient id="aH" gradientUnits="userSpaceOnUse" x1="68.0034" x2="37.6678" xlink:href="#w" y1="228.2314" y2="224.1767"/><linearGradient id="aI" gradientUnits="userSpaceOnUse" x1="46.4736" x2="24.8487" xlink:href="#w" y1="123.8516" y2="138.2265"/><linearGradient id="aJ" gradientTransform="matrix(.9817 -.1902 .1902 .9817 -17.7967 22.3179)" gradientUnits="userSpaceOnUse" x1="119.4429" x2="128.9006" xlink:href="#w" y1="93.7656" y2="77.2146"/><linearGradient id="aK" gradientUnits="userSpaceOnUse" x1="443.9038" x2="337.1097" xlink:href="#P" y1="23.7046" y2="23.7046"/><linearGradient id="aL" gradientUnits="userSpaceOnUse" x1="586.2183" x2="439.9733" xlink:href="#P" y1="145.8516" y2="145.8516"/><linearGradient id="aM" gradientUnits="userSpaceOnUse" x1="143.7373" x2="187.2373" xlink:href="#P" y1="140.0225" y2="140.0225"/><linearGradient id="aN" gradientUnits="userSpaceOnUse" x1="280.397" x2="323.9273" xlink:href="#c" y1="135.3462" y2="58.0734"/><linearGradient id="aO" gradientUnits="userSpaceOnUse" x1="179.9038" x2="248.1538" xlink:href="#ax" y1="110.9434" y2="110.9434"/><linearGradient id="aP" gradientUnits="userSpaceOnUse" x1="179.9038" x2="365.0366" xlink:href="#ax" y1="99.2227" y2="99.2227"/><radialGradient id="aQ" cx="171.7441" cy="201.6118" gradientUnits="userSpaceOnUse" r="45.7255"><stop offset="0" stop-color="#f5c6b3"/><stop offset=".9878" stop-color="#ed3e3e"/></radialGradient><linearGradient id="aR" gradientUnits="userSpaceOnUse" x1="133.1348" x2="158.6342" y1="219.8369" y2="259.336"><stop offset="0" stop-color="#60a7c4"/><stop offset="1" stop-color="#60a7c4" stop-opacity="0"/></linearGradient><linearGradient id="aS" gradientUnits="userSpaceOnUse" x1="97.1538" x2="149.1526" y1="266.0312" y2="274.0311"><stop offset="0" stop-color="#60a7c4"/><stop offset=".993" stop-color="#0f394a"/></linearGradient><linearGradient id="aT" gradientUnits="userSpaceOnUse" x1="112.9214" x2="128.5887" xlink:href="#A" y1="252.7739" y2="242.2738"/><linearGradient id="aU" gradientUnits="userSpaceOnUse" x1="119.8052" x2="142.5883" xlink:href="#A" y1="258.7822" y2="243.513"/><linearGradient id="aV" gradientUnits="userSpaceOnUse" x1="151.083" x2="137.1665" xlink:href="#A" y1="253.4355" y2="251.0185"/><linearGradient id="aW" gradientUnits="userSpaceOnUse" x1="180.6997" x2="193.9995" xlink:href="#A" y1="240.4458" y2="240.4458"/><linearGradient id="aX" gradientUnits="userSpaceOnUse" x1="184.1553" x2="186.3667" xlink:href="#A" y1="245.9102" y2="245.9102"/><linearGradient id="aY" gradientUnits="userSpaceOnUse" x1="169.6997" x2="188.8237" xlink:href="#A" y1="249.2935" y2="249.2935"/><linearGradient id="aZ" gradientUnits="userSpaceOnUse" x1="169.3667" x2="181.9302" xlink:href="#A" y1="257.1943" y2="257.1943"/><linearGradient id="a0" gradientUnits="userSpaceOnUse" x1="128.3989" x2="137.8989" xlink:href="#j" y1="450.1982" y2="456.8643"/><linearGradient id="a1" gradientUnits="userSpaceOnUse" x1="115.4771" x2="132.1431" xlink:href="#j" y1="452.0029" y2="468.668"/><linearGradient id="a2" gradientUnits="userSpaceOnUse" x1="223.7612" x2="236.5947" xlink:href="#j" y1="474.7012" y2="483.2012"/><linearGradient id="a3" gradientUnits="userSpaceOnUse" x1="236.3115" x2="248.1445" xlink:href="#j" y1="478.6602" y2="485.9932"/><linearGradient id="a4" gradientTransform="matrix(.9039 -.008 -.008 .9048 19.4427 21.7036)" gradientUnits="userSpaceOnUse" x1="188.1118" x2="165.7781" xlink:href="#w" y1="213.144" y2="227.8111"/><linearGradient id="a5" gradientTransform="matrix(.4314 -2.3867 .9841 .1779 -185.1383 780.9224)" gradientUnits="userSpaceOnUse" x1="224.8306" x2="228.8306" xlink:href="#h" y1="303.8115" y2="303.8115"/><linearGradient id="a6" gradientUnits="userSpaceOnUse" x1="209.4663" x2="214.4565" xlink:href="#h" y1="293.9229" y2="293.9229"/><linearGradient id="a7" gradientTransform="matrix(.8315 -.5555 .4006 .5998 -93.7301 201.5673)" gradientUnits="userSpaceOnUse" x1="144.7417" x2="149.7314" xlink:href="#h" y1="294.6553" y2="294.6553"/><linearGradient id="a8" gradientUnits="userSpaceOnUse" x1="167.4253" x2="172.3807" xlink:href="#h" y1="368.1807" y2="383.3473"/><g transform="translate(23 8)"><path d="m553.199 164.241c6.957 2.722 13.914 5.445 20.871 8.167-45.723-52.209-111.051-80.252-178.731-90.479-52.35-7.909-106.096-6.252-158.345 1.654-16.368 2.477-32.681 5.553-48.735 9.61-3.879.981-7.76 1.999-11.569 3.225-7.375 2.375-11.42 1.959-19.121.87 26.428-37.73 85.737-46.905 127.87-52.085 22.083-2.715 44.39-4.105 66.642-3.942 12.468.091 24.869 1.208 37.302 2.026 12.635.832 28.726 3.223 40.776-1.906-2.942-3.508-6.651-8.076-13.018-10.121 6.318.154 12.974 1.624 18.127 5.446-1.252-2.435-3.985-7.801-8.882-11.793-5.314-4.359-11.566-7.483-17.953-9.941-20.476-7.871-43.661-10.182-65.42-10.182-79.8-1.007-158.96 23.152-223 70.895-8.188 6.104-19.895 11.354-26.958 18.753-5.959 6.244-7.076 9.984-14.771 13.631-4.168 1.973-8.228 4.181-12.15 6.605-3.43 2.123-6.758 4.412-9.963 6.861-6.039 4.648-5.893 3.147-14.132 1.588-9.951-1.883-15.297 8.397-19.923 15.868 2.417-1.194 4.833-2.389 7.25-3.583-2.762 2.413-5.332 5.192-7.25 8.333 4.19-3.494 9.792-4.675 15.129-4.636-.827 3.953-5.002 5.341-5.83 10.032-.435 2.465-.452 12.159 3.234 10.784-17.455 18.985-42.135 59.626-21.752 83.249 10.999 12.742 18.397 21.42 36.259 23.344-2.929-6.219 3.498-2.126 7.218-1.577 4.48.662 4.876 2.008 10.062 1.332 9.834-1.282 16.077-5.108 24.506-11.121-.112 1.25-.331 2.482-.656 3.698 5.273-2.832 10.599-5.495 15.868-8.361-5.991 12.43-18.511 37.551-5.342 48.022 12.646 10.036 31.233-14.999 36.317-24.223 5.959 26.856 3.838 56.159 7.038 83.484 1.694 14.469 7.327 30.552 8.243 44.299 2.013 24.887-44.934 21.989-44.379 51.841 1.678-.537 3.975-.648 5.62-.999-2.041 4.703-3.586 10.162-3.62 15.332 6.247-3.06 12.621-6.023 18.672-9.475-.008 1.938.551 4.523.328 6.475 16.589-11.006 33.475-22.896 53.513-26.729 4.559-.879 16.202 6.94 20.973 8.628 10.658 3.77 21.623 6.63 32.248 8.469-8.418 6.233-14.81 15.923-15.734 26.632 1.56.255 3.932.002 5.055-.11-1.299 4.23-1.903 8.705-1.388 13.11 5.005-1.19 9.939-2.84 14.571-5.09-.08 1.479-.048 2.953.096 4.424 12.664-1.881 25.876-7.897 37.377-13.917 18.826-9.854 38.767-17.907 59.957-20.75.281-.275.406-1.276.517-1.635 2.286-7.482 5.727-7.492 11.87-12.004 11.326-4.76 24.501-8.021 36.711-4.947 14.222 3.607 26.569 8.753 41.595 9.996 11.723.97 23.557 1.152 35.308.59-4.851-1.305-9.601-2.996-14.334-4.667 40.612 4.406 75.228-20.975 84-60.667-2.667 1.223-5.333 2.444-8 3.667 2.111-3.556 4.223-7.111 6.334-10.667-6 2-12 4-18 6 5.247-3.797 10.914-7.384 17-9.666-7.23-10.395-19.128-17.684-31-21.667 4.312-.493 8.667-.5 13-.333-26.368-16.518-53.564-13.95-78.538 3.383-14.029 9.736-39.287 39.24-58.897 29.598-10.179-4.965-7.717-24.133-9.168-32.815-14.99-90.398-73.846-184.715-151.362-234.573 44.777-21.853 94.025-25.759 141.909-12.68 49.674 13.66 92.694 42.126 138.033 65.508 16.595 8.575 63.043 34.225 78.725 14.771-3.901-2.786-7.802-5.572-11.703-8.358 4 .833 8 1.667 12 2.5-6.167-5.667-12.333-11.334-18.5-17.001z" fill-opacity=".4" filter="url(#a)" transform="translate(5 20)"/><path d="m412.435 31.375c15.332-1.167 22.832 5.333 22.832 5.333-18.332-35.667-121.535-39.486-206.667-14.334-88.001 26-141.667 83.667-141.667 83.667s50.137-1.05 69.471-7.05c32.75-50.5 152.264-58.923 202.529-57.617 21.531.56 57.6 5.807 71.225.008-6.377-7.602-12.959-8.737-17.723-10.007z" fill="#4a5c5e"/><path d="m412.201 29.908c15.332-1.167 22.832 5.333 22.832 5.333-18.332-35.666-121.535-39.486-206.666-14.333-88.001 26-141.667 83.667-141.667 83.667s20.999-1.667 40.333-7.667c92-57.667 181.4-58.306 231.666-57 21.531.56 57.6 5.807 71.225.008-6.378-7.603-12.96-8.737-17.723-10.008z" fill="url(#b)"/><path d="m128.651 95.908c42.859-26.563 85.106-40.817 123.045-48.325.126-.116.247-.225.374-.342-96 10.667-133.667 48.667-133.667 48.667z" fill="url(#d)" fill-opacity=".4"/><path d="m187.044 66.521s-48.307 9.72-28.636-15.761c-33.671 19.147-53.151 36.221-64.011 46.289l11.514 4.896c6.491-1.17 13.921-2.803 21.121-5.038 20.261-12.699 40.394-22.63 60.012-30.386z" fill="url(#e)" fill-opacity=".3"/><path d="m228.367 20.908c-58.87 17.393-102.369 48.955-124.721 67.947l.424 4.387 9-4s59-58.333 148.333-73.667 161.591 5.667 173.629 19.667c-18.331-35.667-121.534-39.487-206.665-14.334z" fill="url(#f)" fill-opacity=".5"/><path d="m140.117 88.991-28-4-7.912 3.391c-4.857 4.108-8.749 7.649-11.617 10.364l-.971 2.996s3.303.528 7.955 1.257c7.672-1.166 17.775-3.084 27.461-6.09 4.348-2.725 8.688-5.321 13.02-7.797.037-.072.064-.121.064-.121z" fill="url(#g)"/><path d="m152.367 401.575s1.666 13-8.667 17-34.999 14.666-35.667 35.333c6-1.667 7.334-2 7.334-2s-5.334 6.999-5.334 16.333c16.334-8 19-9.666 19-9.666v6.666s31.666-24.333 57.334-27.333c25.666-3-34-36.333-34-36.333z" fill="url(#i)"/><path d="m143.7 418.575c-6.775 2.623-19.71 8.111-28.004 17.404l3.042 2.262s5.167-7.834 17.667-13.167 18.333-6.166 21.667-11.333c1.382-2.143.814-5.66-.323-9.044-3.264-1.939-5.381-3.122-5.381-3.122s1.665 13-8.668 17z" fill="#fff" fill-opacity=".3"/><path d="m187.433 425.615c-3.076.034-7.317 1.524-13.154 5.376-24.625 16.25-47.375 18.125-47.375 18.125l-3.439 12.427c4.557-2.337 5.568-2.968 5.568-2.968v6.666s31.666-24.333 57.334-27.333c9.357-1.094 7.367-6.22 1.066-12.293z" fill="#4e6e75" fill-opacity=".1"/><path d="m108.033 453.908s-1.004-9.042 8.871-19.167c2.375 1.125 4 12.875 4 15.125s-12.871 4.042-12.871 4.042z" fill="url(#k)"/><path d="m152.367 401.575s1.4 10.984-6.404 15.864c2.866 6.183 9.269 17.568 20.496 26.057 6.615-2.728 13.451-4.833 19.908-5.588 25.666-3-34-36.333-34-36.333z" fill="url(#m)" fill-opacity=".5"/><path d="m192.044 435.763-39.594-31.386c-.022.64-.072 1.357-.171 2.13v.609s6.75 25.75 24.75 32.5c.107.04.205.072.311.111 3.05-.838 6.079-1.475 9.027-1.819 2.951-.345 4.762-1.095 5.677-2.145z" fill="url(#n)" fill-opacity=".4"/><path d="m107.867 247.491c-.75.25-20.5 39.75-8.75 48s37-47 37-47l-23.75-9.25z" fill="url(#o)"/><path d="m111.404 246.741-3.052-.139-.485.889c-.736.245-19.769 38.292-9.369 47.505 1.358-1.045 2.026-3.197-.094-7.588-4.667-9.666 13.167-37.333 13.5-37.833z" fill="#fff" fill-opacity=".4"/><path d="m105.904 251.241s5.167 4 11 6 4.833-8.333 4.833-8.333l-14.167-2.667z" fill="#4e6e75" fill-opacity=".4"/><path d="m364.367 371.241s.666 25.001 27.666 14.667 60.668-68.333 118.668-32c-8.668-.334-13 .333-13 .333s20.334 6.334 31 21.667c-8 3-17 9.666-17 9.666l18-6-6.334 10.667 8-3.667s-13.334 68.334-84 60.667c11.334 4 14.334 4.667 14.334 4.667s-48 2.666-70.668-8.334c-22.666-11-53.666 8-53.666 8s-9.334-67.666 27-80.333z" fill="url(#p)"/><path d="m364.367 371.241s.666 25.001 27.666 14.667 60.668-68.333 118.668-32c-8.668-.334-13 .333-13 .333s20.334 6.334 31 21.667c-8 3-17 9.666-17 9.666l18-6-6.334 10.667 8-3.667s-13.334 68.334-84 60.667c11.334 4 14.334 4.667 14.334 4.667s-48 2.666-70.668-8.334c-22.666-11-53.666 8-53.666 8s-9.334-67.666 27-80.333z" fill="url(#r)"/><path d="m531.367 386.574c-19.668 28.999-52.666 39.667-52.666 39.667s3 1.334 15.666-.666c-40 22.667-119.666 19-120.566-38.432-9.109-3.966-9.434-15.902-9.434-15.902-3.375 1.177-6.354 2.829-8.984 4.855l-11.016 18.145-2.689 54.981c9.293-4.71 31.814-14.161 49.355-5.648 22.668 11 70.668 8.334 70.668 8.334s-3-.667-14.334-4.667c70.666 7.667 84-60.667 84-60.667z" fill="url(#s)" fill-opacity=".5"/><path d="m365.691 377.774-23.472 71.176c3.996-1.992 10.132-4.697 17.186-6.583 16.376-10.368 10.666-57.625 10.666-57.625l-.044-.079c-2.167-2.017-3.512-4.556-4.336-6.889z" fill="#4e6e75" fill-opacity=".4"/><path d="m366.867 377.241c-9-127-123.25-266.25-206.25-279.5s-122.5 41.25-122.5 41.25l.75 16.625s-38.834 35.625-32.167 79.292c7.356 11.268 15.907 18.561 24.884 23.016 7.207 3.576 14.689 5.323 22.052 5.828-2.595-5.655-2.784-11.043-.342-12.256 2.556-1.27 7.019 2.512 9.968 8.447.619 1.248 1.116 2.488 1.502 3.687 6.152-.527 12.062-1.756 17.48-3.308-.757-2.365-.999-5.36-.543-8.547.99-6.921 4.863-12.092 8.651-11.55s6.058 6.591 5.067 13.512c-.102.716-.242 1.407-.402 2.081 9.653-4.039 15.85-8.076 15.85-8.076 23.5 6.5 26.537 23.914 27.5 35 3.098 35.688 4 118.5 25.5 141 30.322 31.733 108 42.5 163 31.5s40-78.001 40-78.001z" fill="url(#t)"/><path d="m366.867 377.241c-9-127-123.25-266.25-206.25-279.5s-122.5 41.25-122.5 41.25l.75 16.625s-38.834 35.625-32.167 79.292c7.356 11.268 15.907 18.561 24.884 23.016 7.207 3.576 14.689 5.323 22.052 5.828-2.595-5.655-2.784-11.043-.342-12.256 2.556-1.27 7.019 2.512 9.968 8.447.619 1.248 1.116 2.488 1.502 3.687 6.152-.527 12.062-1.756 17.48-3.308-.757-2.365-.999-5.36-.543-8.547.99-6.921 4.863-12.092 8.651-11.55s6.058 6.591 5.067 13.512c-.102.716-.242 1.407-.402 2.081 9.653-4.039 15.85-8.076 15.85-8.076 23.5 6.5 26.537 23.914 27.5 35 3.098 35.688 4 118.5 25.5 141 30.322 31.733 108 42.5 163 31.5s40-78.001 40-78.001z" fill="url(#u)"/><path d="m366.867 377.241c-9-127-123.25-266.25-206.25-279.5s-122.5 41.25-122.5 41.25l.75 16.625s-38.834 35.625-32.167 79.292c7.356 11.268 15.907 18.561 24.884 23.016 7.207 3.576 14.689 5.323 22.052 5.828-2.595-5.655-2.784-11.043-.342-12.256 2.556-1.27 7.019 2.512 9.968 8.447.619 1.248 1.116 2.488 1.502 3.687 6.152-.527 12.062-1.756 17.48-3.308-.757-2.365-.999-5.36-.543-8.547.99-6.921 4.863-12.092 8.651-11.55s6.058 6.591 5.067 13.512c-.102.716-.242 1.407-.402 2.081 9.653-4.039 15.85-8.076 15.85-8.076 23.5 6.5 26.537 23.914 27.5 35 3.098 35.688 4 118.5 25.5 141 30.322 31.733 108 42.5 163 31.5s40-78.001 40-78.001z" fill="url(#v)"/><path d="m136.404 249.366c.375-.125 32.25-12.5 43.75-26.75 0 0-22 24.125-44 29.375-1.375-1.125.25-2.625.25-2.625z" fill="url(#x)" fill-opacity=".4"/><path d="m366.867 377.241c-.72-10.15-2.118-20.379-4.112-30.614 2.076 15.596 1.796 48.562-44.017 24.614-34-18.333-41-25.333-41-25.333-1 0-30.333 21.333-43.333 58.333s-72 31.999-86.333-21.667c-.202-.758-.397-1.479-.587-2.172 3.467 18.979 8.561 35.152 16.383 43.339 30.322 31.733 108 42.5 163 31.5s39.999-78 39.999-78z" fill="url(#z)" fill-opacity=".2"/><path d="m203.279 246.866s3.5-6.375-.5-12.25c-.25 3.5-4.375 8.875-4.375 8.875s1.75 3 4.875 3.375z" fill="url(#B)"/><path d="m366.867 377.241c-9-127-123.25-266.25-206.25-279.5-20.534-3.278-38.4-2.405-53.67.758l3.957 23.742 39.375 2.625s39.125-21.125 63.625 16.875c4 16-4 54.5-5.5 58 8.5-9.5 17.5-40 17.5-40s25.5 38 17.5 43-19 20.5-19 20.5 21.5-18 24.5-17.5 44.5 16 27 81.5c6.5-8 8.5-16.5 8.5-16.5s12.5 45.5 9 60c8.5 2.5 35.5-1.5 46 34 8.152 27.562-.271 70.49-4.447 88.312 45.364-15.675 31.91-75.812 31.91-75.812z" fill="url(#C)" fill-opacity=".2"/><path d="m193.397 108.574-5.494-.333s37.5 18 49 39c21.5 13.5 87.5 85 108.5 172 .5-12-.5-20.5-.5-20.5s30.281 109.98 2.891 146.99c-.382.517-.741 1.017-1.091 1.509 31.101-21.107 20.163-69.999 20.163-69.999-7.859-110.907-95.984-231.148-173.469-268.667z" fill="url(#D)" fill-opacity=".3"/><path d="m208.737 442.575s1.667-.667 6.333-2.334c-80.333-4.334-64.333-134-64.333-134s8.333 25.667 11 36.334c-4.667-44.666-21.333-86-21.333-86l-5.667 3.666-.117 6.314c2.551 5.657 3.338 11.488 3.746 16.186 3.098 35.688 4 118.5 25.5 141 19.877 20.803 60.105 32.594 100.954 35.151.769-2.845 1.215-6.713.917-11.984-26.999 5.667-57-4.333-57-4.333z" fill="url(#E)" fill-opacity=".3"/><path d="m146.749 292.05c2.759-1.022 5.569-.301 6.278 1.609.708 1.913-.954 4.29-3.713 5.314-2.76 1.021-5.57.3-6.278-1.611-.709-1.912.953-4.291 3.713-5.312z" fill="url(#F)" fill-opacity=".2"/><path d="m170.237 132.575s16.167 1.333 22.833 9 5.333 40.333-10.667 59.5c2.334-15.334-12.166-68.5-12.166-68.5z" fill="url(#G)" fill-opacity=".8"/><path d="m130.404 254.241c.75-.25 55-17.5 62.75-57-8 29-20 47.5-59.75 61.25-2.75-1.5-3-4.25-3-4.25z" fill="url(#H)" fill-opacity=".9"/><path d="m51.484 220.912c-9.657 2.312-18.557-.292-19.879-5.809-1.322-5.522 5.436-11.873 15.091-14.182 9.657-2.316 18.556.288 19.878 5.811 1.322 5.518-5.434 11.87-15.09 14.18z" fill="url(#I)" fill-opacity=".5"/><path d="m111.939 169.09c-8.516 10.435-19.613 15.469-24.785 11.251-5.174-4.222-2.463-16.105 6.053-26.536 8.512-10.439 19.608-15.472 24.785-11.25 5.171 4.221 2.464 16.104-6.053 26.535z" fill="url(#J)" fill-opacity=".6"/><path d="m57.737 135.408s14.833 5.833 41.333-10.5c-1.333 21-2.167 30-2.167 30s-18-6.167-32.167 4.667c-8.332-12.834-6.999-24.167-6.999-24.167z" fill="#063a3f" fill-opacity=".2"/><path d="m156.904 102.991c4.943-1.149 9.018-2.455 11.994-3.532-2.79-.703-5.553-1.282-8.281-1.718-62.653-10.002-100.513 18.596-115.313 33.221.058.477.1.779.1.779l11-.75s30.5-41.5 100.5-28z" fill="url(#K)" fill-opacity=".6"/><path d="m125.225 95.946c-15.667.964-29.194 4.394-40.614 8.936-2.33 3.522-4.24 7.736-5.492 12.792 2.367-2.241 4.497-5.709 4.394-4.926-.103.784-2.872 12.78-2.872 12.78l11.339 5.952s12.054-31.11 37.809-33.553c-1.644-.936-3.185-1.559-4.564-1.981z" fill="#fff" fill-opacity=".3"/><path d="m88.07 109.575s-9.5 9.833-7.833 29.5c1.333-9 4.333-16.833 9.167-21.5s-1.334-8-1.334-8z" fill="#fff" fill-opacity=".5"/><path d="m241.737 218.741s-4.5.167-8.167 9.5-15.667 22.833-15.667 22.833l9.667 7 14-30z" fill="#fff" fill-opacity=".2"/><path d="m93.529 157.991s1.375-15 1.25-14.5-5.25 16.5-5.25 16.5.375-13.5 1.25-17c-1.875 4.875-2.375 15.75-2.375 15.75s-1-12.875-.5-15.75c-1 9.75-1 11.125-1 11.125s-.625-12.125.625-19.5c-1.625 4.375-1.625 4.375-1.625 4.375s-2.366-37.53 42.458-34.25c10.25.75 21.5 6 27.042 18.125-2.625-2.125-7-4.625-6.625-4.625s3.875 6 3.875 6l-3.625-2.5 1.25 3.125-7 1.625s-17.875 2.75-25.625 10.125-17.25 9.75-24.125 21.375z" fill="#fff" fill-opacity=".2"/><path d="m295.451 335.991c-73.668 2.334-38.001 105.334-38.001 105.334s-17.646 1.607-30.849 12.534c32.222 6.901 69.145 7.406 99.266 1.382 1.12-.225 2.201-.479 3.265-.749 5.011-16.417 34.188-120.651-33.681-118.501z" fill="#fff" fill-opacity=".3"/><path d="m113.667 248.956 35.737-54.714 4.75-51-2.5-2.75-2.75 3.75s-8 75-62.5 70.5c-2.431 10.02 10.174 39.967 10.174 39.967 8.168-3.637 13.289-6.967 13.289-6.967 1.334.368 2.594.777 3.8 1.214z" fill="url(#L)" fill-opacity=".9"/><path d="m108.071 237.908c-6.445 3.997-10.302 7.436-12.56 10.297.199 1.708.187 3.582-.092 5.531-.102.716-.242 1.407-.402 2.081 9.653-4.039 15.85-8.076 15.85-8.076 1.728.478 3.331 1.021 4.845 1.61l2.692-1.11s27-56.833 27.333-70.833c0 0-16.166 47.166-37.666 60.5z" fill="#fff" fill-opacity=".7"/><path d="m151.654 140.491-6.25 7.25s1.5 36.25-14.25 67.25c10-15.75 21.5-41.25 20.5-74.5z" fill="#4e6e75" fill-opacity=".5"/><path d="m255.117 230.241s5.707 40.535-8 49.75c-29.75 20-75.25-3.5-75.25-3.5l13.5-4-15.75-5.25s9.75-4.25 14.75-4.5 48 5.5 48 5.5z" fill="url(#M)" fill-opacity=".3"/><path d="m152.538 249.713-9.83 8.639s4.674-9.932 6.423-12.969c-7.675.046-13.982 9.083-13.982 9.083l-2.085-12.954s-5.857 5.097-8.497 12.113c11.137 8.166 13.069 20.209 13.8 28.616.14 1.608.274 3.315.407 5.104 14.01-17.707 13.764-37.632 13.764-37.632z" fill="url(#N)" fill-opacity=".2"/><path d="m146.737 127.491s-3.167 27.417-45.833 26.25c4.833-5.666 26.5-22.917 45.833-26.25z" fill="#4e6e75"/><path d="m145.737 127.241s-5 28.667-47.667 27.5c4.834-5.666 28.334-24.167 47.667-27.5z" fill="url(#O)"/><path d="m98.07 154.741c2.397.065 4.658.024 6.823-.088-.054-.026-.098-.05-.156-.078-5.083-2.417 19.667-18.75 19.667-18.75l-5.731 2.899c-9.917 6.141-17.989 12.954-20.603 16.017z" fill="#4e6e75"/><path d="m146.279 127.116s2 17-23.25 24c5.375-2.125 17.792-6.125 17.542-22.458 2.25-1.25 5.167-1.417 5.167-1.417" fill="url(#Q)" fill-opacity=".4"/><path d="m68.904 158.241c-3.873-18.458-22.041-8.225-30.039-2.67l.002.045s-38.834 35.625-32.167 79.292c6.869 10.521 14.779 17.574 23.105 22.09 7.549-14.293-6.708-9.891-4.234-18.59-7.834-57.667 46.271-66.16 43.333-80.167z" fill="url(#R)" fill-opacity=".6"/><path d="m21.071 233.575s-2.833-31.667 19.667-47.833 28.833-23.667 26.833-31.5 5.166 7.333.333 12.667-40.5 33.167-28.833 55c-3.667 8.332-18 11.666-18 11.666z" fill="url(#S)"/><path d="m34.821 159.575s-1.167 2.833 3.083 3.833 19.667-7.583 26.75-3.833c-5.333-3.084-17.833-8.334-29.833 0z" fill="url(#T)"/><path d="m52.32 156.241s-9.166 1.25-16.833 5.5c-.667-1.833-.833-3.583-.833-3.583z" fill="url(#U)" fill-opacity=".4"/><path d="m57.117 210.967c-24.98 3.122-45 16.55-42.625 32.501.25 1.681.802 3.291 1.621 4.817 4.604 4.26 9.471 7.489 14.471 9.87 5.308 2.527 10.764 4.096 16.212 4.944-2.359-5.23-2.465-10.105-.103-11.231 1.195-.57 2.81-.069 4.49 1.199.276-.487.645-.856 1.11-1.079 2.556-1.219 7.019 2.41 9.968 8.104.619 1.197 1.116 2.388 1.502 3.537.769-.063 1.534-.137 2.294-.22 3.46-.506 6.796-1.208 9.958-2.103-1.044-2.387-1.44-5.658-.916-9.172.989-6.64 4.863-11.602 8.651-11.082.822.113 1.567.487 2.228 1.051 1.078-.738 2.229-1.088 3.373-.931 3.51.481 5.711 5.503 5.228 11.52 8.062-5.777 12.593-13.086 11.595-20.444-1.929-14.216-24.077-24.403-49.057-21.281z" fill="#fff" fill-opacity=".2"/><path d="m64.654 159.241s-1.25-7.125-1-6.75 3.25 6.75 3.25 6.75l-.875-5.5 2.75 3.125s-4.5-21.625-7-25-24.625 1.125-24.625 1.125l.375 24.875s20.875-7.375 27.125 1.375z" fill="#4e6e75"/><path d="m59.071 143.908s4.333 2.5 7 .5 2.333-15.334 5.833-21.167c-3.667 5.167-4 8.667-5.333 11.167s-6 0-6 0-3.667 6.5-1.5 9.5z" fill="#4e6e75"/><path d="m95.404 157.491s1.375-15 1.25-14.5-5.25 16.5-5.25 16.5.375-13.5 1.25-17c-1.875 4.875-2.375 15.75-2.375 15.75s-1-12.875-.5-15.75c-1 9.75-1 11.125-1 11.125s-.625-12.125.625-19.5c-1.625 4.375-1.625 4.375-1.625 4.375s-2.366-37.53 42.458-34.25c10.25.75 21.5 6 27.042 18.125-2.625-2.125-7-4.625-6.625-4.625s3.875 6 3.875 6l-3.625-2.5 1.25 3.125-7 1.625s-17.875 2.75-25.625 10.125-17.25 9.75-24.125 21.375z" fill="#2d4144"/><path d="m33.2 160.491s20.583-8.833 31.792-.75c-.75-4.625-9.051-30.125-28.463-18.125-9.561 5.91-3.329 18.875-3.329 18.875z" fill="url(#W)"/><path d="m94.867 158.908s-2.167-56.5 44.5-47.042c-5.875-.5-9.125.5-9.125.5s7.25-1 13.5 5.25c-1.125.75-1.75 1-1.75 1l3.375 5.625 10.833 2s-39.5 5.5-61.333 32.667z" fill="url(#X)"/><path d="m109.867 247.741s46.5-57.167 38.333-107.667c0 0 7-19.167 36.667.667 3.833 8.833 27.166 74-61.5 108.333z" fill="url(#Y)" fill-opacity=".5"/><path d="m301.154 342.689c-73.287 7.83-39.75 111.552-39.75 111.552s-4.021.268-10.691 3.506c25.621 2.871 52.338 2.058 75.154-2.506 9.102-1.82 16.275-5.181 21.928-9.51 5.134-33.016 10.902-109.19-46.641-103.042z" fill="url(#Z)" fill-opacity=".3"/><path d="m65.949 213.625c-24.98 3.343-43.666 18.394-41.736 33.618.451 3.549 1.986 6.793 4.388 9.64.659.361 1.319.712 1.983 1.041 7.207 3.576 14.689 5.323 22.052 5.828-2.595-5.655-2.784-11.043-.342-12.256 2.556-1.27 7.019 2.512 9.968 8.447.068.139.121.276.187.415.72.949 1.414 2.021 2.057 3.197 5.885-.56 11.539-1.744 16.739-3.233-.757-2.365-.999-5.36-.543-8.547.99-6.921 4.863-12.092 8.651-11.55 2.054.293 3.653 2.212 4.538 5.003 2.105 1.41 3.473 4.844 3.638 9.056 7.618-3.467 12.339-6.542 12.339-6.542.521.145 1.021.3 1.523.455 2.623-4.144 3.852-8.591 3.285-13.058-1.931-15.224-23.747-24.856-48.727-21.514z" fill="url(#aa)"/><path d="m41.071 258.074s19.75-40.333 58-9.583c-32.583 30.25-58 10.583-58 10.583z" fill="url(#ac)"/><path d="m40.071 255.074s19.75-40.333 58-9.583c-32.583 30.25-58 10.583-58 10.583z" fill="#0f1c1e"/><path d="m65.639 262.104c-1.081-.396-3.27-.885-7.11-1.488-17.5-2.75-7.25-8.5-7.25-8.5l-4.586-.745-2.914 5.245.845 2.092c4.383 2.066 11.712 4.432 21.015 3.396z" fill="url(#ad)"/><path d="m93.713 242.244c-1.288-.889-2.553-1.698-3.794-2.429l-4.765-.074-4 3.75s7.75-1 5.25 5.625-9.875 9-9.875 9l.169 1.267c5.717-2.179 11.9-5.737 18.4-11.252z" fill="url(#ae)"/><path d="m109.867 247.741s49.5-59.5 43.25-108.25c14.5-10.75 28.75 3.5 28.75 3.5s31.5 71-62.25 108.25c-6.75 1-9.75-3.5-9.75-3.5z" fill="url(#af)"/><path d="m152.154 164.075s10.667 1.167 13.333 7.667c.167-1.083.167-1.667.167-1.667l1.917 2.25.667-3.667-6.167-4-9.75-3.333z" fill="url(#ag)" fill-opacity=".4"/><path d="m158.654 195.491s15.875 5 12 17.5c3.875-3.125 5-9.625 5-9.625l-2.5-3.375s-11.667-6.417-13.583-6.583-.917 2.083-.917 2.083z" fill="url(#ah)"/><path d="m161.57 193.241s11.5-11 10.5-24.333-2.833.333-2.833.333-5.5 18.167-9.167 21.833 1.5 2.167 1.5 2.167z" fill="#4e6e75" fill-opacity=".5"/><path d="m172.029 162.991s12 5.75 13.375-.375c0 3.125.375 5.375-2 6.25s-12.75-1.625-12.75-1.625z" fill="#fff"/><path d="m174.654 146.741s3.917 8.167 3.083 10.167-1.773 8.465-6.47 9.899c-.53-2.066-.03-3.399-.03-3.399s3.5-13.834 3.417-16.667z" fill="#4e6e75" fill-opacity=".5"/><path d="m152.779 156.741s12.5 7.375 18.5 6.125c-.625 2.875-2.375 3.875-2.375 3.875l-15.375-5.75z" fill="#fff"/><path d="m145.154 215.741s15.875-10.75 15.875-21.375c-3-.75-3.75 0-3.75 0s-7.5 17.125-12.75 19.5c-1.125 1.125.625 1.875.625 1.875z" fill="#4e6e75" fill-opacity=".5"/><path d="m174.279 151.991s12.25 4.625 11.625 11.25 1.5-13-1.125-16.375-9.25-2.75-9.25-2.75-1.5 1.875-1.5 2.375.25 5.5.25 5.5z" fill="url(#ai)" fill-opacity=".4"/><ellipse cx="158.813" cy="180.948" fill="#fff" rx="2.385" ry="6.211" transform="matrix(-.4091 .9125 -.9125 -.4091 388.898 110.0613)"/><path d="m185.654 174.116s-11.375-5.625-12-3.25 11.75 8.375 11.75 11.75.875-7.5.25-8.5z" fill="url(#aj)" fill-opacity=".4"/><path d="m163.904 184.241c.098-.405-10.917-6.75-11.917-3.417s8.083 8.417 8.083 8.417 3.167-2.25 3.834-5z" fill="url(#ak)" fill-opacity=".4"/><path d="m152.821 140.991s13.333 1.667 17.167 6.417c-4.917-2-7.417-2.583-7.417-2.583s12.75 12.833 1 19.667c2.583 1.917 5.75 2.583 5.75 2.583l2-4.417 1.917-5.667.5-8.75-1.417-6.583-14.917-4.167z" fill="url(#al)" fill-opacity=".4"/><path d="m153.185 140.106c4.969 41.952-30.859 91.609-40.802 104.466l18.256-15.017s-.734-1.064-2.484-2.064c-.75-3.75 5-11.75 9.25-14.5-.75-5.75 5.5-16.5 12.5-22.75-2.75-5 2-20 7.75-27.5-7.5-9.25 3.5-26 3.5-26z" fill="url(#am)"/><path d="m160.409 227.205c-4.898-.83-15.197-9.656-17.671-12.13-5.166-1.5-8.108-4.627-8.108-4.627-11.815 21.728-24.762 37.294-24.762 37.294s3 4.5 9.75 3.5c17.721-7.042 30.961-15.291 40.791-24.037z" fill="url(#an)" fill-opacity=".2"/><path d="m132.404 228.991s9.75-3.75 11.375-11.875c-1.625-1.25-2.125-.75-2.125-.75s-6.75 10.125-9.625 11 .375 1.625.375 1.625z" fill="#4e6e75" fill-opacity=".5"/><path d="m114.737 242.575s4 5.5 10.833 6.5c-4.5 3.667-11.907 3.167-15.704-1.333 2.371-3.667 4.871-5.167 4.871-5.167z" fill="#fff"/><ellipse cx="115.5" cy="248.074" fill="#fff" fill-opacity=".4" rx="2.141" ry="5.231" transform="matrix(-.2917 .9565 -.9565 -.2917 386.4781 209.9704)"/><path d="m134.654 225.241s7.5 13.25 13.75 10.5-3.375-11.125-3.375-11.125 4.625.5 6.75 4c-3.375-5.625-1.125-4-5.75-9.75 7.5 5.25 12.75 7.875 12.75 7.875l-6.75 7.125-5.625 3.875-6.25 3.5-3.375-2.125s-5.625-9.375-5.875-10.75 3.75-3.125 3.75-3.125z" fill="url(#ao)" fill-opacity=".6"/><path d="m98.533 152.408s16.5-22.167 44-26.167c0 0-5.166-20.833-26.666-7.5-15.248 9.456-17.334 33.667-17.334 33.667z" fill="url(#aq)"/><path d="m105.517 129.988c-5.942 10.408-6.984 22.42-6.984 22.42s1.827-2.447 5.26-5.855c-4.656-2.272-.215-12.58 1.724-16.565z" fill="#f5c6b3"/><path d="m115.867 118.741c-15.248 9.456-17.334 33.667-17.334 33.667 7.371-8.25 8.766-8.524 11.455-11.417-4.5-3.5-4.026-17.698 11.333-23.667 14.583-5.667 18.102 7.392 18.583 9.417.518-.089 2.104-.424 2.629-.5 0 0-5.166-20.833-26.666-7.5z" fill="#91bcc1"/><path d="m63.533 158.241s-3-17-18.166-15.833c-15.167 1.167-7.834 13.333-7.834 13.333s14.668-4.167 26 2.5z" fill="url(#ar)"/><path d="m51.399 142.998c.924 1.507 5.338 9.287-.541 11.561 4.099.293 8.602 1.286 12.675 3.683 0-.001-2.173-12.275-12.134-15.244z" fill="url(#as)" fill-opacity=".2"/><path d="m559.699 178.741 12 2.5-18.5-17 20.871 8.167c-130.592-149.06-386.713-80.663-399.703-75.167-13 5.5-27.213 4.25-27.213 4.25-15.625 9.75 46.75 22.5 58.213 21.75 148-78.5 259.5 57 342 69.5 12.762 1.934 20.209-.895 24.035-5.642z" fill="url(#at)"/><path d="m200.641 118.29c-.85 3.513-12.858 3.626-26.823.251s-24.597-8.96-23.747-12.474c.849-3.514 12.858-3.626 26.822-.25 13.965 3.374 24.598 8.959 23.748 12.473z" fill="url(#au)"/><path d="m324.071 81.575s58.333 9.333 98 38.333 64.666 18 60.333 4-88.333-49.666-158.333-42.333z" fill="url(#av)"/><path d="m188.904 42.741s40.5-18.5 113.904-7.498c48.594 7.283 66.041-12.009 56.035-22.717s-99.939-8.285-169.939 30.215z" fill="url(#aw)"/><path d="m96.479 125.979s12.054-31.11 37.809-33.553c-6.01-3.419-10.721-2.761-10.721-2.761l8.004-2.06s-8.314-3.482-17.348-1.478c7.917-3.826 13.412-4.381 13.412-4.381s-35.875-2.472-44.017 30.427c2.367-2.241 4.497-5.709 4.394-4.926-.103.784-2.872 12.78-2.872 12.78z" fill="url(#ay)"/><path d="m61.867 145.241s-26.25-12.75-39.75-1.5c2.75-4.5 7.25-8.333 7.25-8.333l-7.25 3.583s8.5-14 14-16 25.75 6.75 25.75 6.75z" fill="url(#az)"/><path d="m236.867 226.741s-8 23.5-14.25 26c-1.5-2.5-3.5-3-3.5-3l-2.5 2-3.25-2.25-3 .5s-7.834-3.917-14.167-9.25-15.5-6.333-15.5-6.333l5.667 11.833s-10.334-3.833-16.667.5c3.167 1.5 12.667 7 12.667 7l-13-1.5s8.166 23.5 47.666 25c11.67.443 25.564 1.363 31.834-12 21.5-45.833-8.167-58.5-12-38.5z" fill="url(#aA)"/><path d="m335.701 459.908s40.666-123.001-33-120.667c-73.668 2.334-38.001 105.334-38.001 105.334s-40.333 3.666-44.667 37.666c5.334-.333 5.334-.333 5.334-.333l-1.667 13.333 14.667-5.333v4.667s23-6.334 35-12.667 35-18.333 62.334-22z" fill="url(#aB)"/><path d="m264.571 407.742s2 1.666 6 3.666c-14.872-15.647-4.546-51.879-2.883-57.312-24.249 29.052-2.988 90.479-2.988 90.479s-32.195 2.93-42.146 27.804c1.742 5.026 4.634 8.773 9.017 1.529 8.167-13.5 36.167-20.166 50.167-22.5-19.001-8.834-17.167-43.666-17.167-43.666z" fill="#fff" fill-opacity=".2"/><path d="m220.033 482.241s.371-12.375 11.746-23.375c1.75 3.75 3.875 16.375 3.625 21.375-2.75 1-12.367 2.5-15.371 2z" fill="url(#aC)"/><path d="m126.316 122.996c-3.371 0-6.104 2.733-6.104 6.104 0 1.571.599 3 1.574 4.082 3.238-1.729 6.782-3.295 10.611-4.548-.239-3.153-2.867-5.638-6.081-5.638z" fill="url(#aE)"/><path d="m126.316 122.996c-3.371 0-6.104 2.733-6.104 6.104 0 1.571.599 3 1.574 4.082 3.238-1.729 6.782-3.295 10.611-4.548-.239-3.153-2.867-5.638-6.081-5.638z" fill="url(#aE)"/><ellipse cx="126.023" cy="128.59" fill="#f29545" rx="5.395" ry="2.195" transform="matrix(.924 -.3824 .3824 .924 -39.5915 57.9572)"/><path d="m130.25 128.808c0-1.817-1.475-3.292-3.292-3.292s-3.292 1.474-3.292 3.292c0 1.133.574 2.133 1.447 2.725 1.627-.759 3.316-1.47 5.075-2.118.036-.197.062-.399.062-.607z" fill="#f29545"/><path d="m62.167 153.818c-.543-1.328-1.281-2.816-2.262-4.273-.461-.195-.966-.304-1.497-.304-2.117 0-3.833 1.716-3.833 3.833 0 .762.229 1.468.611 2.064 1.609.323 3.232.778 4.83 1.404 1.095-.508 1.911-1.509 2.151-2.724z" fill="url(#aF)"/><circle cx="59.301" cy="152.991" r="1.667"/><path d="m129.716 128.976c0-1.427-1.156-2.583-2.584-2.583-1.426 0-2.582 1.156-2.582 2.583 0 .947.515 1.766 1.274 2.216 1.229-.557 2.499-1.081 3.802-1.574.053-.207.09-.42.09-.642z"/><path d="m108.175 233.548c-1.931-14.818-23.746-24.194-48.727-20.94s-43.666 17.904-41.736 32.723c1.465 11.244 14.385 19.347 31.445 21.183-2.71-5.75-2.944-11.286-.465-12.518 2.555-1.27 7.018 2.512 9.967 8.447.738 1.484 1.312 2.964 1.717 4.366 1.994-.101 4.016-.274 6.062-.541 4.046-.527 7.923-1.356 11.578-2.434-1.044-2.488-1.44-5.897-.916-9.561.989-6.92 4.863-12.092 8.651-11.55 3.789.542 6.059 6.591 5.067 13.512-.129.903-.31 1.774-.53 2.609 11.903-6.401 19.122-15.811 17.887-25.296z" fill="url(#aG)"/><path d="m69.828 265.156c1.328-.25 2.642-.523 3.925-.836-1.65-1.402-17.696-15.697-18.365-41.3-1.168 15.336 2.366 32.343 14.44 42.136z" fill="#ff0" fill-opacity=".6"/><path d="m49.158 266.514c-2.71-5.75-2.944-11.286-.465-12.518 2.555-1.27 7.018 2.512 9.967 8.447.738 1.484 1.312 2.964 1.717 4.366 1.994-.101 4.016-.274 6.062-.541 4.046-.527 7.923-1.356 11.578-2.434-1.044-2.488-1.44-5.897-.916-9.561.515-3.601 1.814-6.718 3.472-8.813-5.125 2.332-11.661 4.392-20.002 5.947-33.704 6.282-40.875-3.371-42.271-9.16l.415 6.955c3.599 9.209 15.411 15.694 30.443 17.312z" fill="#c1272d" fill-opacity=".3"/><path d="m97.987 219.229c.812 3.12 2.534 14.511-12.217 23.5 3.777.56 6.038 6.599 5.048 13.507-.129.903-.31 1.774-.53 2.609 11.902-6.402 19.121-15.813 17.887-25.298-.746-5.725-4.469-10.632-10.188-14.318z" fill="#c1272d" fill-opacity=".3"/><path d="m17.985 239.57c-.005.68.058 1.614.314 2.678l-.19-3.184c-.042.168-.087.337-.124.506z" fill="#c1272d" fill-opacity=".3"/><path d="m64.49 217.785c1.417 3.739-6.149 10.071-16.893 14.145-10.749 4.074-20.61 4.345-22.026.607-1.418-3.737 6.148-10.071 16.893-14.145 10.747-4.074 20.609-4.345 22.026-.607z" fill="url(#aH)" fill-opacity=".3"/><ellipse cx="38.7" cy="225.824" fill="#fff" rx="11.5" ry="4" transform="matrix(.9106 -.4132 .4132 .9106 -89.8527 36.1705)"/><circle cx="120.97" cy="127.929" fill="#fff" r="1.75"/><ellipse cx="112.548" cy="129.444" fill="#fff" rx="6.058" ry="2.756" transform="matrix(.5961 -.8029 .8029 .5961 -58.4747 142.6388)"/><circle cx="60.7" cy="155.324" fill="#fff" fill-opacity=".4" r="1.417"/><ellipse cx="38.616" cy="150.075" fill="#fff" rx="1.75" ry="4.083"/><path d="m174.654 146.741s-1.25-.75-3.5-.75c2.083 5.75 3.417 13.917-3.082 19.612-3.636-.625-11.837-3.143-15.13-6.633-.138 1.068-.294 2.136-.469 3.205 2.538.604 10.379 2.738 14.563 6.91-.132 6.406-1.215 16.406-10.207 23.052-5.392-.73-9.5-4.001-11.141-5.505-.27.708-.543 1.416-.822 2.119 3.384.237 8.589 3.846 10.765 5.462-1.229 6.195-4.562 14.612-13.479 19.577-3.803-.417-6.062-3.048-6.499-5.36-.193.355-2.119 3.96-2.312 4.312 2.5-.562 5.5.688 7.456 2.747-1.643 4.753-3.726 8.42-10.362 11.902-2.698.271-4.506-.564-5.259-1.011-.113.175-.224.345-.335.519.785.39 2.896 1.406 4.357 1.803-6.627 8.624-15.418 14.712-16.78 15.826-.012.015-.023.029-.035.045 6.801-4.967 12.859-9.996 18.256-15.017 1.928 2.884 7.891 12.686 7.891 12.686s.5-.25 2.375-1.5c-6.336-1.223-8.319-9.253-8.769-12.602 3.974-3.782 7.58-7.555 10.845-11.291 3.047 2.401 14.044 9.631 16.45 11.207.814-.706 1.605-1.414 2.375-2.126-8.833-.624-15.308-8.083-17.137-11.044 6-7.089 10.8-14.018 14.64-20.577 5.146.769 14.347 6.516 18.014 12.599.5-.954 3.083-5.792 3.771-7.729-7.938 1.688-18.692-5.315-20.687-6.782 4.862-8.63 8.068-16.567 10.179-23.319 4.383-.351 11.788.846 16.29 4.917.066-1.486.156-5.066-.032-7.253-2.938 3.375-11.785 1.689-15.574.066 3.532-12.259 3.384-20.067 3.384-20.067z" fill="#380502"/><path d="m171.154 145.991c3 1.375 3.5.75 3.5.75s5.869-2.21 9.269 2.223c-1.09-3.79-2.056-5.973-2.056-5.973s-13.812-13.793-28.075-3.965c3.319.173 15.008 1.187 17.362 6.965z" fill="#380502"/><path d="m22.117 143.741c3.742-3.118 8.464-4.388 13.334-4.601-6.714-5.815-1.964-14.149 2.833-16.44-.854-.003-1.594.083-2.167.292-5.5 2-14 16-14 16l7.25-3.583c0-.001-4.5 3.832-7.25 8.332z" fill="url(#aI)" fill-opacity=".2"/><path d="m123.568 89.665 8.004-2.06s-8.314-3.482-17.348-1.478c7.917-3.826 13.412-4.381 13.412-4.381s-13.899-.956-26.358 6.255c5.138 1.779 14.48 4.97 21.852 7.483 3.384-1.575 7.101-2.674 11.159-3.059-6.01-3.418-10.721-2.76-10.721-2.76z" fill="url(#aJ)" fill-opacity=".5"/><path d="m435.033 35.241c-10.225-19.893-46.854-29.874-92.02-30.452 5.158 7.997 10.754 22.042-1.584 34.835 6.166.029 11.94.145 17.27.283 21.531.56 57.6 5.807 71.225.008-6.377-7.603-12.959-8.737-17.723-10.008 15.332-1.165 22.832 5.334 22.832 5.334z" fill="url(#aK)" fill-opacity=".2"/><path d="m462.215 98.347c2.793 5.539 22.629 47.46-16.327 48.381 37.873 20.799 71.58 41.483 101.479 46.013 12.762 1.934 20.209-.895 24.035-5.642l-11.703-8.358 12 2.5-18.5-17 20.871 8.167c-31.658-36.135-70.694-59.491-111.855-74.061z" fill="url(#aL)" fill-opacity=".5"/><ellipse cx="172.362" cy="194.373" fill="#fff" rx="3.5" ry="8.547" transform="matrix(-.3991 .9169 -.9169 -.3991 419.3778 113.9208)"/><ellipse cx="129.589" cy="142.575" fill="#fff" fill-opacity=".3" rx="4.332" ry="10.323" transform="matrix(.5842 .8116 -.8116 .5842 169.6104 -45.8907)"/><ellipse cx="155.79" cy="219.409" fill="#fff" rx="3.5" ry="8.74" transform="matrix(-.5483 .8363 -.8363 -.5483 424.6975 209.4199)"/><ellipse cx="138.542" cy="233.924" fill="#fff" fill-opacity=".4" rx="2.385" ry="6.909" transform="matrix(-.7473 .6645 -.6645 -.7473 397.5149 316.675)"/><path d="m145.237 149.908s18-24 42-12.667c-7.167-5.333-26.333-15-43.5 4.833.334 4.667 1.5 7.834 1.5 7.834z" fill="url(#aM)"/><path d="m403.063 124.839c-103.726-62.769-195.968-27.328-223.159-18.348 16.053 4.128 29.992 12.037 32.19 13.317 72.135-35.391 135.495-20.411 190.969 5.031z" fill="url(#aN)" fill-opacity=".7"/><path d="m248.154 105.866c-27.625-8.875-68.25.625-68.25.625 16.053 4.128 29.992 12.037 32.19 13.317 2.684-1.316 23.185-10.942 36.06-13.942z" fill="url(#aO)" fill-opacity=".2"/><path d="m69.279 265.616c1.335-.207 1.688-.565 2.981-.837-1.604-1.456-17.181-16.26-17.023-41.871-1.662 15.291 2.167 34.083 14.042 42.708z" fill="#754c24" fill-opacity=".8"/><path d="m61.867 145.241v-15.5c-.046 0 .454 9.917-4.129 10.083s-10.5-5.417-18-5.833c2.25 1.917 3.5 2.75 3.5 2.75s-14.273-2.809-20.522 6.073c-.013.02-.028.04-.042.06-.193.278-.38.566-.557.867 13.5-11.25 39.75 1.5 39.75 1.5z" fill="#4e6e75" fill-opacity=".5"/><path d="m83.654 242.908.008.079c.687-.265 1.39-.362 2.089-.262 3.789.542 6.059 6.591 5.067 13.512-.129.903-.31 1.774-.53 2.609.979-.526 1.913-1.08 2.826-1.646 1.737-19.512-9.46-14.292-9.46-14.292z" fill="#ed1e79" fill-opacity=".4"/><path d="m134.289 92.426c-7.99-1.315-17.26.94-20.385 3.44-.25-1.75.75-3.125 3.125-6.25-9.875 1.75-11.25 10.875-12.25 15.125-1.75-5.75 2.625-11.125 2.625-11.125-9 5.875-11.875 27.125-12.375 27s-9.5-1.125-9.5-1.125l-.287.096c-.064.278-.102.44-.102.44l11.339 5.952s12.054-31.11 37.81-33.553z" fill="#4e6e75" fill-opacity=".5"/><path d="m365.037 105.755c-87.616-35.284-161.32-7.128-185.133.736 3.922 1.009 7.716 2.244 11.246 3.552l.754-.302s88.609-34.976 173.133-3.986z" fill="url(#aP)" fill-opacity=".5"/><path d="m183.922 148.964s3.106 17.027.356 19.152-.042 3.708.208 3.958 3.083 17.5-7.5 27c-4.833.5-2.5 3.667-2.333 4.25s-5.583 18.833-16.333 21.833c-1.333.583-1.333 1.5-1.333 1.5s-10.083 11.75-16.083 14.083c-.806.313-.527.142.472.046 53.918-31.233 47.139-75.851 42.546-91.822z" fill="url(#aQ)"/><path d="m147.404 177.991s-4 28.5 0 32.25c4-4.5 4-4.5 4-4.5s3.75 12 15.25 14.25c-1.5 3-9.75 10-1.75 16.75s6.5 20.5 1.75 29.5-32.25 3-32.25 3l-24.537-21.5 1.537-3s23.25-27.75 36-66.75z" fill="url(#aR)" fill-opacity=".6"/><path d="m146.154 213.325s8.25 10.083 14.25 11.25c-1.333 1-3.083 1.333-3.083 1.333l-9-5.583-5-5.917z" fill="#fff" fill-opacity=".2"/><circle cx="167.904" cy="193.408" fill="#fff" fill-opacity=".5" r="8.333"/><path d="m145.205 245.213-9.83 8.639s4.674-9.932 6.423-12.969c-7.675.046-13.982 9.084-13.982 9.084l-2.085-12.955s-6.964 6.043-9.131 14.036c-2.166 7.992-6.373 15.673-6.373 15.673l-2.75 1.298-1.389 3.701-3.195-.221s-1.838 1.93-3.213 5.117c-9.807 22.733 7.166 25.312 9.199 24.064 36.821-17.773 36.326-55.467 36.326-55.467z" fill="url(#aS)"/><path d="m112.737 268.074s3.667-5.5 4.5-9 2.042-9.708 2.042-9.708l-.843-2.938c-.744 1.437-1.394 2.984-1.837 4.619-2.166 7.992-6.373 15.673-6.373 15.673l-2.75 1.298-1.389 3.701-3.195-.221s-1.838 1.93-3.213 5.117c-5.848 13.556-2.173 19.942 2.177 22.628-.179-.331-.437-.719-.786-1.17-5.667-7.334 1.5-21.166 2.167-23.666s4.167-.834 4.167-.834.833-2 1.333-3.833 4-1.666 4-1.666z" fill="#fff" fill-opacity=".4"/><path d="m137.571 257.074s-15.575 41-38.454 38.417c-.329-.037-.644-.069-.95-.098 2.998 5.415 9.501 6.03 10.712 5.287 24.414-11.784 32.417-32.316 35.042-44.822z" fill="#4e6e75" fill-opacity=".2"/><path d="m171.237 121.741c.523.06-22.333-3-33.333 21.333s-19 26.667-19 26.667 15.667-9.5 22-25.5 23-23.333 30.333-22.5z" fill="#fff"/><path d="m34.999 220.354c-11.546 6.394-18.5 15.65-17.286 24.976 1.465 11.244 14.385 19.347 31.445 21.183-45.938-16.512-19.1-41.922-14.159-46.159z" fill="#fff" fill-opacity=".5"/><path d="m108.175 233.548c-1.216-9.336-10.33-16.508-23.15-19.726 3.475 1.015 37.211 11.861 5.794 42.414-.129.903-.31 1.774-.53 2.609 11.902-6.402 19.121-15.812 17.886-25.297z" fill="#29abe2" fill-opacity=".2"/><path d="m125.73 237.012s-4.678 4.066-7.559 9.935c.191.846 2.122 8.31 9.644 3.02z" fill="url(#aT)"/><path d="m135.375 253.852s4.674-9.932 6.423-12.969c-7.675.046-13.982 9.084-13.982 9.084s-1.054 7.161 7.559 3.885z" fill="url(#aU)"/><path d="m145.205 245.213-8.951 7.866-.517.496c-.166.249 3.235 8.628 7.887 3.612 1.635-7.079 1.581-11.974 1.581-11.974z" fill="url(#aV)"/><path d="m125.73 237.012s-7.826 10.604-6.451 12.354 6.451-12.354 6.451-12.354z" fill="#fff"/><path d="m141.797 240.882c.377-.157-8.31 1.692-13.81 10.942.167 1.333 1 2.25 1.333 2.167s3.537-9.385 12.477-13.109z" fill="#fff" fill-opacity=".4"/><path d="m138.273 257.741c1.38 1.235 3.236 1.728 5.352-.554 1.635-7.079 1.58-11.975 1.58-11.975s-1.544 12.885-6.932 12.529z" fill="#fff" fill-opacity=".3"/><path d="m193.843 239.024c-6.025-3.835-13.144-4.616-13.144-4.616l5.667 11.833c8.839 1.713 7.671-6.169 7.477-7.217z" fill="url(#aW)"/><path d="m186.367 246.241s-.851-.315-2.211-.662c.656.275 1.386.503 2.211.662z" fill="url(#aX)"/><path d="m193.843 239.024c-6.025-3.835-13.144-4.616-13.144-4.616l5.667 11.833c8.839 1.713 7.671-6.169 7.477-7.217z" fill="url(#aW)"/><path d="m186.367 246.241s-.851-.315-2.211-.662c.656.275 1.386.503 2.211.662z" fill="url(#aX)"/><path d="m193.843 239.024c-6.025-3.835-13.144-4.616-13.144-4.616l5.667 11.833c8.839 1.713 7.671-6.169 7.477-7.217z" fill="url(#aW)"/><path d="m186.367 246.241s-.851-.315-2.211-.662c.656.275 1.386.503 2.211.662z" fill="url(#aX)"/><path d="m186.367 246.241s-10.334-3.833-16.667.5c3.167 1.5 12.667 7 12.667 7 11.629 1.5 4-7.5 4-7.5z" fill="url(#aY)"/><path d="m181.906 253.688-12.539-1.447s1.599 4.584 6.779 9.831c.003 0 .005.002.008.002 6.289.968 5.791-7.816 5.752-8.386z" fill="url(#aZ)"/><path d="m180.7 234.408s6.954 4.427 8.704 7.927-1.156 3.281-1.688 2.594-1.752-7.605-7.016-10.521z" fill="#fff" fill-opacity=".4"/><path d="m169.7 246.741s6.787-1.416 11.746 1.667 2.958 3.75 1.958 3.417-5.075-5.084-13.704-5.084z" fill="#fff"/><path d="m169.529 252.2s6.25 5.833 8.958 6.917.208 2.125-1.083 1.667-6.292-4.376-7.875-8.584z" fill="#fff"/><path d="m248.696 265.58c-.14.097-.273.187-.417.286-24 16.625-68-5.375-68-5.375h-5.606c6.106 6.93 18.521 15.845 42.36 16.75 11.568.44 25.317 1.339 31.663-11.661z" fill="#4e6e75" fill-opacity=".2"/><path d="m129.033 465.241s-2.004-16 3.871-23 9.125 14.375 9.125 14.375z" fill="url(#a0)"/><path d="m110.033 468.241s.371-18.125 13.371-28.375c7.875-.125 3.375 19.625 3.375 19.625z" fill="url(#a1)"/><g fill="#fff"><path d="m136.759 441.496c-1.12-.977-2.407-.98-3.855.745-5.875 7-3.871 23-3.871 23l1.285-.853c-1.916-12.242 5.336-21.556 6.441-22.892z" fill-opacity=".3"/><path d="m126.996 442.278c-.713-1.49-1.848-2.439-3.592-2.412-13 10.25-13.371 28.375-13.371 28.375l3.601-1.882c.005-.07.017-.13.021-.201.333-7.25 9.833-18.5 9.833-18.5s-5.5 5.167-8.167 9.75c.309-6.212 10.31-14.083 11.675-15.13z" fill-opacity=".5"/><path d="m116.904 434.741c-9.875 10.125-8.871 19.167-8.871 19.167s1.127-.157 2.711-.436c-.002-.105-.001-.205-.006-.314-.316-6.808 6.655-16.015 7.355-16.921-.37-.757-.767-1.296-1.189-1.496z" fill-opacity=".5"/><ellipse cx="118.814" cy="446.529" fill-opacity=".3" rx="4.667" ry="1.216" transform="matrix(.5972 -.8021 .8021 .5972 -310.2957 275.1525)"/><ellipse cx="132.231" cy="446.445" fill-opacity=".3" rx="3.704" ry="1.217" transform="matrix(.3637 -.9315 .9315 .3637 -331.7331 407.2612)"/><ellipse cx="113.526" cy="440.727" fill-opacity=".2" rx="4.49" ry=".97" transform="matrix(.5507 -.8347 .8347 .5507 -316.8725 292.7899)"/></g><path d="m223.7 495.241s-2.921-16.125 13.454-32.25c10.375 9.625 4 25.625 4 25.625s-6.408 4-17.454 6.625z" fill="url(#a2)"/><path d="m238.367 494.575s-1.838-14.834 8.162-24.209c3.875 1.875 9.5 18.875 9.5 18.875s-8.949 4.043-17.662 5.334z" fill="url(#a3)"/><path d="m182.398 212.881c1.44 1.359-1.599 6.917-6.787 12.414s-10.562 8.851-12.001 7.492c-1.44-1.358 1.599-6.917 6.787-12.414 5.188-5.496 10.561-8.85 12.001-7.492z" fill="url(#a4)" fill-opacity=".5"/><path d="m318.654 456.741c-20 15.25-66.25 23-67 23l-.558 10.963c7.303-2.385 16.195-5.59 22.271-8.796 12-6.333 35-18.333 62.334-22 0 0 7.964-24.104 10.457-50.769-3.3 10.982-12.162 35.904-27.504 47.602z" fill="#4e6e75" fill-opacity=".3"/><path d="m244.779 479.866s-2.625 6.938-2.938 9.875c-.833-9.765 6.202-16.509 6.871-17.127-.755-1.103-1.497-1.916-2.184-2.248-10 9.375-8.162 24.209-8.162 24.209 1.677-.248 3.361-.6 4.99-1.004-.933-3.428 1.423-13.705 1.423-13.705z" fill="#fff" fill-opacity=".8"/><path d="m237.154 462.991c-16.375 16.125-13.454 32.25-13.454 32.25 1.711-.406 3.297-.848 4.779-1.301-.006-.026-.006-.048-.012-.074-1.562-6.688 5.25-20.25 5.25-20.25s-5.062 8.5-6.625 12.562c1.679-10.733 11.003-20.597 11.758-21.381-.509-.621-1.071-1.226-1.696-1.806z" fill="#fff" fill-opacity=".6"/><path d="m231.779 458.866c-11.375 11-11.746 23.375-11.746 23.375.464.077 1.099.102 1.828.093.014-.075.029-.141.043-.218 2.271-12.546 10.118-19.935 10.807-20.563-.313-1.102-.628-2.034-.932-2.687z" fill="#fff"/><ellipse cx="227.981" cy="465.446" fill="#fff" fill-opacity=".3" rx="3.704" ry="1.217" transform="matrix(.5674 -.8234 .8234 .5674 -284.6392 389.0563)"/><ellipse cx="232.452" cy="471.572" fill="#fff" fill-opacity=".6" rx="5.604" ry="1.586" transform="matrix(.5674 -.8234 .8234 .5674 -287.7497 395.3861)"/><ellipse cx="243.117" cy="477.905" fill="#fff" fill-opacity=".7" rx="5.604" ry="1.587" transform="matrix(.4529 -.8916 .8916 .4529 -293.0718 478.2455)"/><path d="m212.56 288.821c3.805.688 6.502 3.382 6.026 6.018-.477 2.637-3.946 4.215-7.752 3.529-3.805-.688-6.501-3.383-6.025-6.019s3.946-4.215 7.751-3.528z" fill="url(#a5)" fill-opacity=".4"/><path d="m212.346 291.793c-1.361-.246-2.637.508-2.85 1.685-.212 1.176.718 2.329 2.08 2.575 1.361.245 2.637-.508 2.85-1.685.213-1.176-.718-2.329-2.08-2.575z" fill="url(#a6)" fill-opacity=".6"/><path d="m146.203 295.021c-1.23.608-1.989 1.77-1.694 2.593.294.823 1.53.998 2.761.389 1.23-.608 1.989-1.769 1.694-2.593s-1.53-.999-2.761-.389z" fill="url(#a7)" fill-opacity=".3"/><path d="m171.539 373.254c-.029-.163-.058-.326-.092-.492-.766-3.79-2.263-6.685-3.346-6.466s-1.34 3.467-.575 7.257c.766 3.79 2.263 6.685 3.346 6.466.332-.067.584-.42.755-.983.693 4.434-1.303 3.496-2.141 3.705 4.5 1.423 3.278-5.17 2.053-9.487z" fill="url(#a8)"/><path d="m155.018 229.093c-.171.082-.281.148-.281.148.084-.012.18-.07.281-.148z" fill="#fff"/><path d="m160.404 269.075c-.167-.834-2.833-39.667-1.333-44.5-.917.667-1.667.792-1.667.792s-1.481 3.026-2.386 3.727c.601-.288 1.997-.779 2.386.648.048.177.109.673.179 1.415-.787 3.828-4.099 4.725-6.013 4.419-2.083-.333-.917-2.167-.917-2.167s-2.083 2.333-4.25 4.333c3.167.167 7.333-1.25 9-1.833 1.518-.531 2.48 1.283 2.64 1.612.683 11.004 1.509 29.868 1.027 31.556-.667 2.333-2.334 4.334-.167 5s1.667-4.168 1.501-5.002z" fill="#fff"/></g></svg>