<svg viewBox="0 0 496.5 373.5" xmlns="http://www.w3.org/2000/svg"><g fill="none"><path d="m.87 372.72 494.66-371.14" stroke="#000"/><path d="m248.77 1.3 246.76 370.56" stroke="#000"/><path d="m.75.75h495v372h-495z" stroke="#000" stroke-width="1.5"/><path d="m248.25 1.25v372" stroke="#000" stroke-width="1.5"/><g stroke="#0000c8"><path d="m248.88 42.36h246.48"/><path d="m248.88 83.59h246.48"/><path d="m248.88 124.81h246.48"/><path d="m248.88 166h246.48"/><path d="m248.88 207.25h246.48"/><path d="m248.88 248.48h246.48"/><path d="m248.88 289.7h246.48"/><path d="m248.88 330.92h246.48"/><path d="m470.36.78v371.14"/><path d="m442.61.78v371.14"/><path d="m414.86.78v371.14"/><path d="m387.11.78v371.14"/><path d="m359.36.78v371.14"/><path d="m331.62.78v371.14"/><path d="m303.87.78v371.14"/><path d="m276.12.78v371.14"/></g><path d="m54.75 42.34h166.23v247.29h-166.23z" stroke="#ed1c24" stroke-width="2"/><path d="m276 42.34h166.22v247.29h-166.22z" stroke="#ed1c24" stroke-width="2"/><path d="m248.06 166.11a123.64 123.64 0 1 1 -247.28 0 123.64 123.64 0 1 1 247.28 0z" stroke="#000" stroke-linejoin="bevel" stroke-width="1.51"/><path d="m247.55 1.3-246.76 370.56" stroke="#000"/></g></svg>