<svg viewBox="0 0 256 48.102" xmlns="http://www.w3.org/2000/svg" xmlns:xlink="http://www.w3.org/1999/xlink"><linearGradient id="a"><stop offset="0" stop-color="#5b6fb5"/><stop offset=".675" stop-color="#4f7dbf"/><stop offset="1" stop-color="#428bca"/></linearGradient><linearGradient id="b" gradientUnits="userSpaceOnUse" x1="14.688" x2="14.688" xlink:href="#a" y1="-2.193" y2="45.81"/><linearGradient id="c" gradientUnits="userSpaceOnUse" x1="46.336" x2="46.336" xlink:href="#a" y1="-2.192" y2="45.81"/><linearGradient id="d" gradientUnits="userSpaceOnUse" x1="77.269" x2="77.269" xlink:href="#a" y1="-2.192" y2="45.81"/><linearGradient id="e" gradientUnits="userSpaceOnUse" x1="107.015" x2="107.015" xlink:href="#a" y1="-2.193" y2="45.811"/><linearGradient id="f" gradientUnits="userSpaceOnUse" x1="139.301" x2="139.301" xlink:href="#a" y1="-2.193" y2="45.813"/><linearGradient id="g" gradientUnits="userSpaceOnUse" x1="168.046" x2="168.046" xlink:href="#a" y1="-2.191" y2="45.813"/><linearGradient id="h" gradientUnits="userSpaceOnUse" x1="193.675" x2="193.675" xlink:href="#a" y1="-2.194" y2="45.81"/><linearGradient id="i" gradientUnits="userSpaceOnUse" x1="225.523" x2="225.523" xlink:href="#a" y1=".004" y2="48.003"/><linearGradient id="j" gradientUnits="userSpaceOnUse" x1="234.801" x2="234.801" xlink:href="#a" y1=".001" y2="48.004"/><linearGradient id="k" gradientUnits="userSpaceOnUse" x1="241.529" x2="241.529" xlink:href="#a" y1="0" y2="48.004"/><linearGradient id="l" gradientUnits="userSpaceOnUse" x1="247.732" x2="247.732" xlink:href="#a" y1=".001" y2="48.004"/><linearGradient id="m" gradientUnits="userSpaceOnUse" x1="252.814" x2="252.814" xlink:href="#a" y1=".002" y2="48.003"/><path d="m15.143 16.166c-1.305 0-2.4.298-3.279.894a7.052 7.052 0 0 0 -2.162 2.302 9.961 9.961 0 0 0 -1.182 3.112 16.977 16.977 0 0 0 -.344 3.371c0 1.068.115 2.166.344 3.275a10.061 10.061 0 0 0 1.123 3.029 6.509 6.509 0 0 0 2.102 2.217c.884.577 1.959.862 3.23.862 1.954 0 3.462-.548 4.521-1.64 1.053-1.099 1.718-2.564 1.988-4.407h7.892c-.541 3.952-2.075 6.965-4.608 9.042-2.538 2.071-5.78 3.106-9.738 3.106-2.227 0-4.272-.37-6.133-1.12-1.864-.745-3.451-1.795-4.753-3.142-1.302-1.345-2.323-2.947-3.05-4.808-.733-1.857-1.094-3.9-1.094-6.134 0-2.301.335-4.441 1.008-6.42.671-1.979 1.66-3.685 2.968-5.128 1.304-1.443 2.897-2.559 4.776-3.371 1.882-.806 4.036-1.209 6.453-1.209 1.766 0 3.464.235 5.098.694a13.573 13.573 0 0 1 4.377 2.1 11.284 11.284 0 0 1 3.139 3.516c.807 1.4 1.269 3.061 1.383 4.982h-8.007c-.542-3.414-2.557-5.123-6.052-5.123z" fill="url(#b)"/><path d="m40.864 33.187a4.705 4.705 0 0 0 1.411 1.556 6.034 6.034 0 0 0 1.988.896 9.53 9.53 0 0 0 2.332.281c.577 0 1.182-.062 1.813-.201a6.012 6.012 0 0 0 1.73-.633c.52-.286.952-.671 1.296-1.153.347-.474.518-1.078.518-1.814 0-1.228-.815-2.146-2.449-2.761-1.631-.614-3.907-1.233-6.825-1.847a40.33 40.33 0 0 1 -3.485-.948 11.882 11.882 0 0 1 -3.023-1.443 7.002 7.002 0 0 1 -2.133-2.245c-.539-.901-.807-2.005-.807-3.312 0-1.918.374-3.495 1.123-4.722a8.326 8.326 0 0 1 2.968-2.911c1.228-.708 2.609-1.209 4.148-1.496a25.316 25.316 0 0 1 4.723-.438c1.611 0 3.178.155 4.695.461 1.517.308 2.871.827 4.059 1.555s2.178 1.697 2.964 2.906c.788 1.208 1.259 2.739 1.413 4.58h-7.776c-.114-1.574-.712-2.64-1.783-3.197-1.076-.553-2.347-.834-3.802-.834-.462 0-.961.027-1.498.083a5.065 5.065 0 0 0 -1.47.375c-.44.191-.815.473-1.123.836s-.462.855-.462 1.47c0 .729.27 1.324.806 1.787.539.457 1.242.834 2.102 1.121.865.292 1.854.55 2.967.778 1.114.229 2.248.483 3.399.748 1.19.266 2.35.597 3.484.981a11.45 11.45 0 0 1 3.024 1.521 7.552 7.552 0 0 1 2.132 2.358c.539.947.807 2.11.807 3.488 0 1.959-.396 3.6-1.182 4.927a9.448 9.448 0 0 1 -3.08 3.197c-1.269.807-2.718 1.369-4.35 1.701a25.59 25.59 0 0 1 -4.981.482c-1.729 0-3.419-.168-5.067-.516-1.653-.349-3.121-.924-4.407-1.729a9.847 9.847 0 0 1 -3.169-3.196c-.825-1.322-1.277-2.986-1.352-4.983h7.774c-.003.903.183 1.658.548 2.291z" fill="url(#c)"/><path d="m71.794 33.187c.361.637.834 1.152 1.411 1.556s1.238.704 1.987.896a9.53 9.53 0 0 0 2.332.281c.577 0 1.182-.062 1.814-.201a6.036 6.036 0 0 0 1.732-.633 3.905 3.905 0 0 0 1.296-1.153c.344-.474.518-1.078.518-1.814 0-1.228-.815-2.146-2.452-2.761-1.631-.614-3.907-1.233-6.825-1.847a40.21 40.21 0 0 1 -3.484-.948 11.955 11.955 0 0 1 -3.024-1.443 6.96 6.96 0 0 1 -2.13-2.245c-.541-.901-.807-2.005-.807-3.312 0-1.918.37-3.495 1.123-4.722a8.301 8.301 0 0 1 2.965-2.911c1.23-.708 2.611-1.209 4.148-1.496a25.314 25.314 0 0 1 4.722-.438c1.612 0 3.179.155 4.695.461 1.516.308 2.871.827 4.062 1.555a9.291 9.291 0 0 1 2.962 2.906c.788 1.208 1.259 2.739 1.413 4.58h-7.774c-.115-1.574-.712-2.64-1.787-3.197-1.075-.553-2.346-.834-3.801-.834-.462 0-.961.027-1.498.083a5.099 5.099 0 0 0 -1.47.375 3.063 3.063 0 0 0 -1.123.836c-.308.363-.461.855-.461 1.47 0 .729.269 1.324.806 1.787.541.457 1.243.834 2.103 1.121.866.292 1.855.55 2.967.778 1.114.229 2.25.483 3.399.748 1.19.266 2.353.597 3.484.981a11.45 11.45 0 0 1 3.024 1.521 7.61 7.61 0 0 1 2.135 2.358c.537.947.807 2.11.807 3.488 0 1.959-.396 3.6-1.182 4.927a9.463 9.463 0 0 1 -3.082 3.197c-1.269.807-2.717 1.369-4.35 1.701a25.592 25.592 0 0 1 -4.979.482c-1.731 0-3.422-.168-5.069-.516-1.653-.349-3.12-.924-4.407-1.729a9.837 9.837 0 0 1 -3.169-3.196c-.825-1.322-1.277-2.986-1.35-4.983h7.772c-.002.903.18 1.658.547 2.291z" fill="url(#d)"/><path d="m103.443 10.809-.921 4.495h.115c1.23-1.729 2.784-3.023 4.666-3.886a14.002 14.002 0 0 1 5.932-1.299c2.804 0 4.886.614 6.251 1.844 1.359 1.231 2.044 3.168 2.044 5.821 0 .651-.078 1.496-.229 2.532a40.006 40.006 0 0 1 -.638 3.286l-3.629 16.991h-4.896l3.802-17.396c.04-.31.096-.665.173-1.067.075-.404.153-.826.229-1.264.08-.438.148-.865.202-1.269.059-.402.086-.739.086-1.007 0-1.42-.499-2.467-1.497-3.139-.998-.673-2.226-1.009-3.686-1.009-1.343 0-2.677.327-4.004.979-1.325.65-2.447 1.476-3.368 2.474a8.125 8.125 0 0 0 -2.072 2.795 20.716 20.716 0 0 0 -1.209 3.425l-3.457 16.478h-4.837l6.22-29.779h4.722z" fill="url(#e)"/><path d="m130.23 29.761c0 1.146.211 2.179.633 3.084a6.352 6.352 0 0 0 1.729 2.246 8.281 8.281 0 0 0 2.477 1.383 8.644 8.644 0 0 0 2.879.487c2.188 0 3.992-.487 5.414-1.467 1.423-.979 2.478-2.392 3.168-4.232h4.896c-.384 1.647-1 3.098-1.844 4.344a11.764 11.764 0 0 1 -3.052 3.113c-1.189.83-2.518 1.448-3.975 1.871a16.535 16.535 0 0 1 -4.607.638c-2.456 0-4.504-.376-6.135-1.125-1.633-.749-2.93-1.706-3.888-2.878-.961-1.171-1.634-2.456-2.016-3.863-.384-1.396-.577-2.751-.577-4.059 0-2.843.413-5.443 1.24-7.806.826-2.359 1.94-4.387 3.342-6.073 1.398-1.693 3.031-2.995 4.896-3.919a13.02 13.02 0 0 1 5.846-1.385c4.378 0 7.574 1.153 9.59 3.46 2.018 2.303 3.023 5.545 3.023 9.729 0 .769-.054 1.5-.17 2.188-.115.693-.211 1.251-.287 1.673h-22.408a19.186 19.186 0 0 0 -.174 2.591zm17.944-9.994a7.18 7.18 0 0 0 -1.148-2.707c-.557-.788-1.297-1.42-2.221-1.903-.921-.478-2.054-.716-3.4-.716-1.418 0-2.695.221-3.826.659a9.446 9.446 0 0 0 -2.969 1.814 10.774 10.774 0 0 0 -2.131 2.682 15.693 15.693 0 0 0 -1.385 3.253h17.281c.076-1.039.01-2.066-.201-3.082z" fill="url(#f)"/><path d="m159.204 10.809h5.646l4.493 10.833 8.868-10.833h5.936l-12.789 14.398 7.604 15.382h-5.586l-5.416-12.212-10.14 12.212h-5.875l13.882-15.784z" fill="url(#g)"/><path d="m202.059 10.809-.927 4.322h-5.932l-3.687 17.512c-.039.347-.078.67-.115.979a7.721 7.721 0 0 0 -.061.976c0 .769.299 1.298.895 1.584.596.291 1.277.437 2.05.437.499 0 .977-.053 1.438-.146.461-.1.92-.222 1.381-.375l-.863 4.491c-.574.079-1.148.146-1.727.201-.58.061-1.15.088-1.729.088-.921 0-1.785-.068-2.593-.2-.807-.137-1.506-.385-2.104-.75a4.162 4.162 0 0 1 -1.438-1.468c-.365-.612-.553-1.4-.553-2.361 0-.422.028-.825.088-1.209.057-.384.125-.807.201-1.267l3.918-18.491h-5.012l.922-4.317h5.012l1.847-8.815h4.896l-1.848 8.813h5.938v-.005h.003z" fill="url(#h)"/><path d="m231.709 3.111c-.966 0-1.727.47-2.275 1.421a9.56 9.56 0 0 0 -1.139 3.126l-1.914 9.359c-.277 1.212-.682 2.239-1.217 3.085-.539.841-1.096 1.536-1.68 2.066-.59.535-1.166.947-1.735 1.242-.565.291-1.013.474-1.319.546l-.049.147c.242.04.549.144.93.314.379.168.75.455 1.114.852.361.395.673.896.931 1.5s.388 1.369.388 2.301c0 .311-.033.619-.103.93-.072.312-.14.656-.207 1.04l-1.914 9.31a10.046 10.046 0 0 0 -.153 1.758c0 .793.104 1.453.311 1.992.208.535.671.798 1.397.798h2.587l-.672 3.104h-3.621a4.32 4.32 0 0 1 -1.577-.311 4.43 4.43 0 0 1 -1.424-.877c-.418-.374-.749-.861-1.01-1.446-.258-.592-.387-1.263-.387-2.017 0-.313.016-.651.049-1.014.033-.359.086-.73.156-1.11l1.963-9.359a11.787 11.787 0 0 0 .202-2.124c0-1.205-.317-2.161-.954-2.869-.637-.707-1.408-1.063-2.302-1.063l.774-3.516c.55 0 1.111-.146 1.68-.439a6.052 6.052 0 0 0 1.604-1.214 8.24 8.24 0 0 0 1.349-1.913c.396-.762.696-1.603.903-2.536l1.965-9.418c.207-1.101.57-2.071 1.086-2.922.518-.841 1.104-1.55 1.76-2.117a7.267 7.267 0 0 1 2.07-1.293c.724-.292 1.412-.439 2.063-.439h3.624l-.671 3.103h-2.583z" fill="url(#i)"/><path d="m239.591 8.576-6.139 31.602h-3.442l6.133-31.602z" fill="url(#j)"/><path d="m245.541 10.341-5.562 28.065h-2.461l5.584-28.065z" fill="url(#k)"/><path d="m251.053 11.661-4.968 25.423h-1.673l4.974-25.423z" fill="url(#l)"/><path d="m255.475 13.569-4.391 21.613h-.932l4.373-21.613z" fill="url(#m)"/></svg>