<svg xmlns="http://www.w3.org/2000/svg" viewBox="0 0 547.769 410.595" fill="#cd6799"><path d="M471.418 235.99a112.63 112.63 0 0 0-49.627 11.549c-5.084-10.147-10.229-19.072-11.093-25.709-1.009-7.748-2.179-12.37-.96-21.6s6.559-22.3 6.48-23.28-1.2-5.681-12.24-5.76-20.488 2.124-21.6 5.04a108.977 108.977 0 0 0-4.56 16.32c-1.935 10.013-22.047 45.723-33.468 64.4-3.734-7.291-6.91-13.721-7.572-18.8-1.009-7.748-2.179-12.37-.96-21.6s6.559-22.3 6.48-23.28-1.2-5.68-12.24-5.76-20.488 2.124-21.6 5.04-2.3 9.729-4.561 16.32-29 66.16-36 81.6a467.21 467.21 0 0 1-8.865 18.5.32.32 0 0 0-.015-.024s-.134.287-.367.773c-1.877 3.674-2.993 5.707-2.993 5.707l.033.076c-1.488 2.7-3.083 5.2-3.873 5.2-.552 0-1.658-7.183.24-17.04 3.978-20.664 13.536-52.891 13.44-54-.049-.569 1.777-6.185-6.24-9.12-7.793-2.853-10.568 1.9-11.28 1.92-.689.015-1.2 1.681-1.2 1.681s8.682-36.24-16.56-36.24c-15.781 0-37.648 17.264-48.42 32.911a13874.077 13874.077 0 0 0-54.492 29.874c-.39-.432-.778-.864-1.18-1.293-30.607-32.647-87.188-55.745-84.787-99.645.873-15.96 6.42-57.984 108.72-108.96 83.8-41.758 150.887-30.267 162.481-4.8C329.1 92.373 276.684 160 189.658 169.75c-33.158 3.717-50.617-9.134-54.96-13.92-4.571-5.039-5.253-5.266-6.96-4.32-2.781 1.541-1.018 5.989 0 8.64 2.6 6.763 13.261 18.754 31.44 24.72 15.992 5.248 54.921 8.13 102-10.08 52.73-20.4 93.9-77.135 81.81-124.56-12.299-48.23-92.276-64.092-167.97-37.2-45.048 16-93.816 41.123-128.88 73.92-41.691 39-48.34 72.938-45.6 87.12 9.734 50.391 79.189 83.206 107 107.526l-3.831 2.114c-13.944 6.9-66.888 34.6-80.131 63.88-15.021 33.21 2.392 57.032 13.924 60.24 35.719 9.938 72.372-7.938 92.07-37.319s17.289-67.622 8.25-85.081c-.112-.217-.236-.429-.352-.645 3.6-2.131 7.273-4.3 10.912-6.435a719.786 719.786 0 0 1 20.109-11.345c-3.382 9.268-5.86 20.379-7.149 36.424-1.514 18.85 6.21 43.215 16.32 52.8 4.451 4.22 9.806 4.319 13.2 4.319 11.763 0 17.13-9.786 23.04-21.36 7.249-14.2 13.68-30.72 13.68-30.72s-8.072 44.64 13.92 44.64c8.013 0 16.075-10.391 19.664-15.688l.015.089s.208-.345.617-1.037c.832-1.272 1.3-2.082 1.3-2.082l.042-.23c3.221-5.593 10.365-18.344 21.079-39.37 13.842-27.167 27.119-61.2 27.119-61.2a181.9 181.9 0 0 0 5.28 22.08c2.38 8.1 7.436 17.045 11.425 25.627-3.211 4.455-5.185 7.014-5.185 7.014l.054.133c-2.566 3.406-5.443 7.082-8.453 10.666-10.925 13.013-23.938 27.871-25.681 32.16-2.053 5.053-1.567 8.771 2.4 11.76 2.9 2.185 8.058 2.523 13.44 2.16a61.267 61.267 0 0 0 20.134-4.578 67.738 67.738 0 0 0 17.307-9.1c10.718-7.879 17.182-19.15 16.561-34.08-.344-8.229-2.968-16.383-6.287-24.082q1.459-2.1 2.926-4.238a457.3 457.3 0 0 0 30-51.84 181.811 181.811 0 0 0 5.281 22.08c2.047 6.965 6.086 14.562 9.718 22.014-15.886 12.908-25.738 27.906-29.159 37.746-6.324 18.2-1.371 26.443 7.921 28.32 4.209.851 10.153-1.078 14.625-2.971a67.785 67.785 0 0 0 18.495-9.509c10.718-7.879 21.022-18.911 20.4-33.841a63.505 63.505 0 0 0-4.628-20.023c13.466-5.609 30.9-8.729 53.107-6.136 47.641 5.564 56.986 35.31 55.2 47.76s-11.779 19.294-15.121 21.36-4.359 2.783-4.079 4.32c.406 2.234 1.951 2.148 4.8 1.668 3.922-.662 25.017-10.127 25.92-33.108 1.147-29.178-26.806-61.225-76.319-60.962zm-367.21 123.8c-15.78 17.21-37.826 23.72-47.28 18.239-10.208-5.919-6.165-31.263 13.2-49.53 11.8-11.134 27.04-21.388 37.148-27.7 2.3-1.385 5.68-3.417 9.787-5.878.681-.389 1.065-.6 1.065-.6l-.015-.025 2.444-1.463c7.043 25.996.214 48.888-16.349 66.956zm114.96-78.152c-5.5 13.4-17 47.678-24 45.841-6.01-1.577-9.67-27.635-1.2-53.28 4.263-12.908 13.37-28.334 18.72-34.32 8.613-9.635 18.1-12.785 20.4-8.879 2.936 4.975-10.474 42.237-13.92 50.637zm94.978 45.318c-2.33 1.219-4.467 1.984-5.459 1.394-.728-.435.961-2.04.961-2.04s11.881-12.78 16.56-18.6c2.722-3.385 5.878-7.4 9.317-11.895.027.449.043.895.043 1.334-.035 15.312-14.826 25.651-21.422 29.806zm73.168-16.68c-1.738-1.236-1.449-5.234 4.267-17.687a66.771 66.771 0 0 1 16.265-20.989 30.273 30.273 0 0 1 1.643 9.225c-.116 19.269-13.862 26.464-22.175 29.45z"/></svg>