<svg height="640" viewBox="0 0 1024 640" width="1024" xmlns="http://www.w3.org/2000/svg"><path d="m0 0h1024v640h-1024z" fill="#fff"/><path d="m864 114.5h-704c-11.046 0-20 8.954-20 20v435c0 11.046 8.954 20 20 20h704c11.046 0 20-8.954 20-20v-435c0-11.05-8.95-20-20-20z" fill="#fafaa2"/><path d="m824 194.5h-624c-11.046 0-20 8.954-20 20v315c0 11.046 8.954 20 20 20h624c11.046 0 20-8.954 20-20v-315c0-11.05-8.95-20-20-20z"/><path d="m784 274.5h-544c-11.046 0-20 8.954-20 20v195c0 11.046 8.954 20 20 20h544c11.046 0 20-8.954 20-20v-195c0-11.05-8.95-20-20-20z" fill="#fff"/><path d="m714 364.5h-414c-11.046 0-20 8.954-20 20v75c0 11.046 8.954 20 20 20h414c11.046 0 20-8.954 20-20v-75c0-11.05-8.95-20-20-20z" fill="#c00"/><g font-family="'PT Mono', monospace"><text fill="#fff" font-size="60" transform="translate(326 440.45)">Содержимое</text><text font-size="40" transform="translate(328 333.45)">padding</text><text fill="#fff" font-size="40" transform="translate(440 249.45)">border</text><text font-size="40" transform="translate(328 168.45)">margin</text><text font-size="40" transform="translate(217 85.449)">position</text></g><path d="m712.78 296.06v-236.25h-39.56v236.25h-21.22l41 54.37 41-54.37z" fill="#c00"/></svg>