<svg height="211.051" viewBox="0 0 497.166 211.051" width="497.166" xmlns="http://www.w3.org/2000/svg"><path d="m248.58 188.9c-112.41 0-205.75-81.847-224.09-188.84h-21.517c18.525 118.96 121.43 210.05 245.61 210.05s227.09-91.1 245.61-210.06h-21.516c-18.34 107-111.67 188.85-224.09 188.85z" fill="#9d9d9c"/><path d="m248.58 165.33c99.359 0 182.09-71.35 200.14-165.28h-22.82c-17.666 81.716-90.334 142.9-177.32 142.9-86.981 0-159.65-61.181-177.32-142.9h-22.82c18.051 93.932 100.79 165.28 200.14 165.28z" fill="#c6c6c6"/><path d="m248.58 122.06c75.333 0 138.53-52.192 155.84-122.01h-20.098c-16.849 58.858-71.236 102.61-135.74 102.61-64.501 0-118.89-43.756-135.74-102.61h-20.095c17.305 69.815 80.505 122.01 155.84 122.01z" fill="#dadada"/><path d="m248.58 83.692c53.965 0 99.74-35.155 115.88-83.641h-21.998c-15.231 36.713-51.522 63.17-93.88 63.17-42.357 0-78.648-26.457-93.88-63.17h-21.997c16.14 48.486 61.92 83.641 115.88 83.641z" fill="#ededed"/></svg>