<svg height="211.051" viewBox="0 0 497.166 211.051" width="497.166" xmlns="http://www.w3.org/2000/svg"><path d="m248.59 22.209c112.42 0 205.75 81.851 224.09 188.85h21.518c-18.53-118.96-121.44-210.06-245.62-210.06s-227.08 91.09-245.61 210.05h21.52c18.34-106.99 111.68-188.84 224.09-188.84h.01z" fill="#e30613"/><path d="m248.58 45.779c99.36 0 182.09 71.349 200.14 165.27h23.95c-18.34-106.99-111.68-188.84-224.09-188.84s-205.75 81.85-224.09 188.85h23.95c18.05-93.93 100.78-165.28 200.14-165.28v-.001z" fill="#f39200"/><path d="m248.58 45.779c-99.35 0-182.09 71.349-200.14 165.28h22.82c17.67-81.719 90.339-142.9 177.32-142.9 86.986 0 159.65 61.184 177.32 142.9h22.818c-18.05-93.93-100.78-165.28-200.14-165.28v-.001z" fill="#fcea10"/><path d="m248.59 68.159c-86.985 0-159.65 61.184-177.32 142.9h21.475c17.31-69.818 80.509-122.01 155.84-122.01 75.335 0 138.53 52.196 155.84 122.01h21.48c-17.67-81.719-90.338-142.9-177.32-142.9h.01z" fill="#009640"/><path d="m248.59 89.049c-75.335 0-138.54 52.195-155.84 122.01h20.095c16.85-58.854 71.239-102.61 135.74-102.61 64.504 0 118.89 43.752 135.74 102.61h20.098c-17.31-69.817-80.507-122.01-155.84-122.01h.01z" fill="#36a9e1"/><path d="m248.58 108.45c-64.5 0-118.89 43.751-135.74 102.61h19.863c16.14-48.486 61.917-83.642 115.88-83.642 53.967 0 99.742 35.154 115.88 83.642h19.862c-16.852-58.854-71.236-102.61-135.74-102.61z" fill="#1d71b8"/><path d="m248.58 127.42c-53.96 0-99.74 35.155-115.88 83.643h21.997c15.232-36.715 51.523-63.172 93.88-63.172 42.358 0 78.649 26.457 93.88 63.172h21.998c-16.14-48.486-61.915-83.643-115.88-83.643z" fill="#662483"/></svg>