<svg height="640" viewBox="0 0 1024 640" width="1024" xmlns="http://www.w3.org/2000/svg"><path d="m0 0h1024v640h-1024z" fill="#fff"/><path d="m910.56 312.06v-61.42c0-4.026-3.264-7.29-7.29-7.29h-36.451v-47.386c0-4.026-3.264-7.29-7.29-7.29h-36.45v-47.386c0-4.026-3.264-7.29-7.29-7.29h-36.451v-47.378c0-4.026-3.264-7.29-7.29-7.29h-252.19c-4.026 0-7.29 3.264-7.29 7.29v61.419c0 4.026 3.264 7.29 7.29 7.29h36.45v47.386c0 4.026 3.265 7.29 7.291 7.29h36.45v47.387c0 4.025 3.264 7.29 7.29 7.29h36.451v47.386c0 1.562.495 3.005 1.331 4.191h-125.27c-4.026 0-7.29 3.264-7.29 7.29v61.42c0 4.026 3.264 7.29 7.29 7.29h36.45v47.386c0 4.026 3.265 7.29 7.291 7.29h36.45v47.386c0 4.026 3.264 7.29 7.29 7.29h36.451v47.386c0 4.026 3.264 7.29 7.29 7.29h252.19c4.026 0 7.29-3.264 7.29-7.29v-61.419c0-4.026-3.264-7.29-7.29-7.29h-36.451v-47.386c0-4.026-3.264-7.29-7.29-7.29h-36.45v-47.387c0-4.025-3.264-7.29-7.29-7.29h-36.451v-47.386c0-1.562-.495-3.005-1.331-4.191h125.26c4.03-.01 7.3-3.27 7.3-7.3z" fill="#fafaa2"/><path d="m372.77 79.732h-252.19c-4.026 0-7.29 3.264-7.29 7.29v462.38c0 4.026 3.264 7.29 7.29 7.29h252.19c4.026 0 7.29-3.264 7.29-7.29v-462.38c0-4.024-3.26-7.288-7.29-7.288z" fill="#fafaa2"/><g font-family="'PT Mono', monospace" font-size="27.338"><text transform="translate(147.73 365.14)"><tspan x="0" y="0">#fox</tspan> <tspan x="0" y="54.676">#fox UL</tspan> <tspan x="0" y="109.352">#fox UL LI</tspan> <tspan x="0" y="164.028">#fox UL LI A</tspan></text><text transform="translate(147.73 128.21)"><tspan x="0" y="0">#box</tspan> <tspan x="0" y="54.676">#box UL</tspan> <tspan x="0" y="109.352">#box UL LI</tspan> <tspan x="0" y="164.028">#box UL LI A</tspan></text><text transform="translate(547.01 364.73)"><tspan x="0" y="0">#fox</tspan> <tspan x="39.367" y="54.676">#fox UL</tspan> <tspan x="91.855" y="109.352">#fox UL LI</tspan> <tspan x="131.223" y="164.028">#fox UL LI A</tspan></text><text transform="translate(547.01 127.8)"><tspan x="0" y="0">#box</tspan> <tspan x="39.367" y="54.676">#box UL</tspan> <tspan x="91.855" y="109.352">#box UL LI</tspan> <tspan x="131.223" y="164.028">#box UL LI A</tspan></text></g><path d="m459.53 71.132h5.689v34.133h-5.689z" transform="matrix(.707 -.7072 .7072 .707 73.093 352.83)"/><path d="m445.31 142.2h34.133v5.689h-34.133z" transform="matrix(.7071 -.7071 .7071 .7071 32.864 369.43)"/><path d="m429.64 113.78h34.133v5.689h-34.133z"/><path d="m459.53 310.78h5.689v34.134h-5.689z" transform="matrix(.7071 -.7071 .7071 .7071 -96.393 422.97)"/><path d="m445.31 381.85h34.133v5.689h-34.133z" transform="matrix(.7071 -.7071 .7071 .7071 -136.59 439.62)"/><path d="m429.64 353.42h34.133v5.689h-34.133z"/><path d="m535.68 266.4v-56.59h-23.27v56.59h-12.47l24.1 31.96 24.11-31.96z" fill="#c00"/><path d="m535.68 508.17v-56.58h-23.27v56.58h-12.47l24.1 31.97 24.11-31.97z" fill="#c00"/></svg>