<svg height="640" viewBox="0 0 1024 640" width="1024" xmlns="http://www.w3.org/2000/svg"><path d="m0 0h1024v640h-1024z" fill="#fff"/><path d="m473.57 327.16c7.378 2.821 14.497 11.006 27.219 6.2 5.524-.267 3.833 6.684 9.766 6.219 103.29-7.862 150.69 105.23 139.28 198.66 7.627-.085 22.58-.076 30.672.105.168-29.805-2.622-229.61-206.92-211.18h-.02z" fill="#e30613"/><path d="m456.9 317.27c1.411 2.804 2.771 9.737 3.71 12.031 6.316-1.687 9.44-2.771 13.214-1.22 196.36-16.899 202.56 180.58 202.4 210.41 9.162.222 22.688.604 32.266 1.01-1.134-27.696-24.852-238.89-251.58-222.19v-.044z" fill="#f39200"/><path d="m460.32 308.97c-.208-.022-1.788-.079-1.968-.103-.24 2.82-.125 7.098.327 9.838 227.23-12.019 244.63 193.02 245.76 220.72 9.312.398 23.045.881 32.565 1.291-1.481-23.521-25.717-232.07-276.72-231.76l.034.021.01-.01z" fill="#fcea10"/><path d="m478.15 300.26c0 1.892-.444 3.538-3.05 3.686-7.317 2.128-10.341-5.946-15.501-1.602-.725 2.101-1.127 5.718-1.31 7.935.177.023.385.072.57.092 251-.325 272.42 206.8 273.89 230.32 9.438.404 23.039.815 32.481 1.065-1.205-19.095-27.764-226.81-287.08-241.5z" fill="#009640"/><path d="m499.04 294.55c-5.081 1.434-10.56 1.121-16.621-.698-1.184 1.231-3.22 6.019-4.011 7.679 261.47 21.658 281.5 221.04 282.71 240.09 9.532.25 23.472.479 32.827.41-.417-18.298-19.619-215.26-294.55-247v-.48h-.36z" fill="#36a9e1"/><path d="m516.4 297.39c-10.709-7.101-13.674-2.35-19.99-.977 261.94 35.682 292.65 227.34 293.1 245.63 9.465-.045 23.05-.29 32.148-.857-4.627-24.241-58.962-217.77-297.03-248.45-2.999 2.262-3.927 3.243-8.243 4.654h.043-.03z" fill="#1d71b8"/><path d="m817.12 541.13c11.157-.676 24.942-1.755 35.238-3.478-56.58-130.65-160.09-228.13-321.73-250.1-1.206 2.072-4.443 5.183-6.316 6.579 242.91 39.12 288.27 222.79 292.53 247v-.01l.28.01z" fill="#662483"/><path d="m542.8 86.246c-.979 5.666-3.615 9.675-11.42 8.376.139-6.189 6.172-11.209 11.416-8.376z"/><path d="m552.45 111.76c.51 7.076-8.445 9.636-12.845 6.929-.515-6.84 8.438-9.773 12.841-6.929h.01z"/><path d="m509.83 121.68c-5.274 0-8.946-1.618-12.721-3.073l.057-4.202c5.162-3.227 17.062.176 12.669 7.275h-.01z"/><path d="m506.78 141.52c-4.496 2.821-9.826-.789-12.721-2.991 1.495-5.218 14.188-4.108 12.723 2.991z"/><path d="m518.2 97.85c-5.954.386-7.739-6.549-8.857-10.127 4.42-3.48 13.91 5.715 8.86 10.127z"/><path d="m560.52 151.44c-.43 7.076-15.711 9.218-18.464 4.04 1.464-5.664 13.301-6.885 18.462-4.04z"/><path d="m497.85 179.77c-4.951 2.845-16.452 1.541-19.807-1.786-.385-2.295 1.351-2.339 1.468-4.145 3.231-.241 18.65-2.58 18.344 5.931z"/><path d="m564.44 183.04c1.257 6.586-15.009 5.449-15.598 1.242-.08-6.3 13.86-5.16 15.6-1.24z"/><path d="m568.3 216.61c.602 4.255-1.304 6.312-5.732 5.621-4.36-3.973 1.875-9.877 5.729-5.621z"/><path d="m580.86 235.65c1.909 13.75-31.896 19.188-32.639 3.907 12.58 6.34 21.28-1.37 32.64-3.91z"/><path d="m491.52 240.33c.386 5.645-2.802 7.66-8.566 7.01-.625-1.283-1.22-2.547-2.823-2.867-2.559-9.332 9.965-10.995 11.386-4.14z"/><path d="m604.94 237.86c6.659 2.845 17.978 2.038 16.851 12.945-7.582 6.835-19.125-1.612-16.849-12.945z"/><path d="m606.02 268.52c-14.17 7.14-21.304-12.27-36.748-8.913 5.414-14.049 40.527-10.71 36.746 8.911z"/><path d="m362.97 333.89c-9.368 8.562-26.913 16.414-41.264 15.126 12.219-6.592 24.257-13.396 41.266-15.123l-.01-.01z"/><path d="m313.21 346.98 4.256.316-.045 5.808c-2.985.57-3.75-1.22-5.653-1.666.757-1.129 1.494-1.613 1.44-4.458z"/><path d="m941.54 549.95c-4.256 1.226-4.361 1.225-8.511-.09-.179-6.951 8.511-6.856 8.511.095v-.01z"/><path d="m113.97 546.58c0 4.44-1.304 6.291-5.733 5.6-4.361-3.949 1.478-10.069 5.733-5.626v.03z"/><path d="m858.2 536.26-.015.01c-47.13-116.05-131.66-195.46-252.47-239.42 18.443-1.195 28.346-11.16 35.687-23.703 4.335-41.134-25.751-48.616-58.93-53.077-.083-15.388-21.464-22.5-33.87-13.123-.759-3.459-1.138-7.305-5.587-7.144-3.611.23-3.929 11.146-7.178 7.021 1.134-38.483-1.556-73.248-8.785-103.56-1.809-.1-1.927-1.83-4.221-1.451-11.942 32.212-13.779 74.75-18.269 114.57-21.085-4.533-48.041-4.969-61.014 6.436-3.121 2.913.663 4.043-.09 8.487-14.632 6.557-23.553 20.232-37.153 27.948-4.878 2.78-11.51 1.735-14.266 8.352 1.117 5.923 10.735 3.52 14.098 7.234-6.022 6.727-17.756 7.629-20.032 18.206-1.331 5.981 7.979 1.515 6.997 7.155-43.251 40.33-126.94 39.306-183.53 66.023-37.289-7.043-44.878 28.608-78.273 30.33-1.289 6.849 9.164 2.238 8.405 8.575-16.783 6.121-23.983-7.922-38.163-8.901 2.291 25.962 33.275 46.183 56.343 31.78 14.479-9.035 15.88-33.469 28.767-39.369-21.731 39.416-17.356 105.48-28.625 155.58-14.186-.546-30.757-6.932-36.906 5.262 12.797-2.785 26.45 1.863 39.66 1.838 20.043-.008 55.232-6.906 73.746-4.858 6.895.752 13.764 6.297 21.176 7.313 20.259 2.832 48.433-5.171 73.742-4.857 12.354.152 24.861 4.353 35.407 3.213 7.632-.825 14.627-6.08 22.742-6.828 21.733-2.024 44.285 3.933 62.313 4.928 16.036.896 29.858-7.164 45.415-8.016 28.018-1.49 58.395 9.738 84.953 8.021 33.899-2.203 71.052-10.117 102.12-7.388 14.44 1.284 27.386 3.872 43.894 3.306 30.549-1.036 63.899 4.176 90.662 2.421 14.771-.981 28.802-6.3 42.572-5.217 23.116 1.839 47.342 19.178 68.011.741-23.54-.52-49.15-.67-69.32-7.83zm-287.18-307.82-.003.025c-6.162 2.813-15.126 1.106-18.385-3.059-8.95-22.91 33.61-16.93 18.38 3.04zm-35.28-13.13c3.215.442 5.325-.275 5.705-2.754 2.077 1.228 2.99 3.579 2.743 7.099-4.305-1.075-5.18 1.39-8.522 1.32l.08-5.67zm-13.21-87.99c3.129.624 1.008 7.512-.096 8.485-4.27-1.79 1.59-4.84.1-8.48zm1.29 12.76c3.611.211 2.741 4.772 2.729 8.531-4.449-.734-3.264 4.321-8.532 2.755 1.94-3.75 1.16-10.26 5.8-11.28zm4.09 14.2-.125 9.921c-3.121 2.082-7.648 2.689-9.965 5.565-4.84-7.86 2.4-15.65 10.09-15.48zm1.2 16.98h.031l-.108 8.527c-4.471 2.112-8.551 4.637-14.224 5.502-.87-10.42 6.7-12.6 14.3-14.03zm-1.57 15.63c3.172.648.494 6.985 1.31 9.932-6.421 1.07-9.524 5.526-17.065 5.487-1.22-11.77 10.81-9.97 15.76-15.42zm-15.83 22.5c7.288.294 10.678-3.393 15.648-5.497 3.149.647.497 6.984 1.311 9.932-5.6.968-11.485 1.632-15.643 4.086-3.12-.22-.52-6.01-1.32-8.52zm-31.4 19.5c15.409-5.64 22.559 2.047 23.995 10.178 4.12 23.618-33.374 27.229-34.051 3.873-.168-5.824 2.559-11.312 10.079-14.049h-.02zm-62.78 40.39-.008.005c1.476-4.229-3.125-2.544-5.644-2.889 14.558-12.369 24.646-29.28 47.142-33.489 2.795-5.061-.489-5.212-1.309-9.931 6.016-1.022 10.9-3.192 18.453-2.63-6.896 5.839-14.499 10.955-13.035 25.358-25.843 11.799-36.935 38.651-67.106 46.03 5.78-8.92 19.12-10.07 21.52-22.45zm-242.21 117.84c-8.391 9.444-13.559 34.616-27.345 37.945-12.271 2.989-28.316-3.556-32.416-15.936 13.896 8.717 36.334 3.524 38.396-12.326 14.512-5.237 21.365-18.285 35.687-23.703l4.255.032c-6.02 4.68-12.15 6.74-18.58 14zm12.48 154.59-21.251-.236c-.41-5.667 2.617-7.827 1.568-14.141 7.654-.261 12.944-2.372 19.843.225l-.16 14.15zm5.66.05c.785-11.058-1.077-19.503-5.384-25.566 2.056-21.183-.368-75.415 17.837-76.319 13.156-.656 15.298 24.522 15.11 44.083-.243 25.396-7.708 32.723-7.687 55.19-4.56 2.98-12.04 3.01-19.88 2.62zm43.98-3.76-18.427-.192c.453-4.809 2.347-8.115 1.575-14.164l17.007.18c2.14 2.61 2.04 11.62-.15 14.17zm-4.01-21.31-5.674-.066c-7.055-2.986-1.643-11.979-1.212-18.421 1.81-27.413.824-67.163-21.968-65.437-15.442 1.158-21.371 32.163-23.259 53.611-1.112 12.636 5.209 30.448-7.459 33.916-.748-49.786 2.284-119.66 32.791-144.15l-.032-.015c16.332-13.118 44.636-18.681 71.114-23.333 27.744-4.861 52.482-10.677 73.915-20.442 49.738-22.658 74.978-50.131 111.39-78.155 8.145 2.697 21.015 18.505 36.737 10.326-5.859 9.18-26.496 1.05-31.208 1.075 1.315 14.749 29.316 11.232 36.807 4.658-3.359-12.057 10.171-19.882 4.66-36.805 13.235-1.017 18.742-8.575 31.252-6.739 10.303 1.538 13.586 11.65 22.551 11.601 7.93-.067 11.201-4.426 17.107-11.151 24.766 4.871 46.163 8.555 52.167 24.646 3.668 9.809 1.052 21.394-3.124 26.896-27.824 36.679-135.54-23.542-170.21 13.722-2.905 3.152-6.18 8.205-7.224 12.688-11.003 47.484 44.467 42.494 78.918 40.535-34.561 16.834-89.361-.936-117.83 19.982-38.854 28.518-24.856 97.506-15.805 148.6l-12.742-.122c-5.618-26.251 2.319-94.945-27.286-98.089-36.735-3.922-25.46 73.604-23.785 101.78-15.617.579-7.229-18.055-6.808-25.588 1.455-25.663-.165-63.306-20.512-68.246-25.85-6.296-56.791 4.839-66.859 23.366-10.08 18.56-2.54 47.45-6.41 69.35zm290.18-230.63c.337 5.593-10.371 5.462-9.921-.128l9.92.13zm-18.54-.22v.002c-2.821 3.191-16.184 9.762-18.418 1.221 6.93.4 11.35-2.38 18.42-1.22zm-31.18 12.96h-.004c-2.295 0-2.412-1.638-4.221-1.732l.022-2.966c1.644.25 2.529-.083 2.855-1.195 1.92.47 1.12 3.08 1.35 5.9zm-4.25 36.25v-.005c1.433-5.584 4.309.408 8.51.089-1.79 4.33-5.66-1.56-8.51-.08zm-157.14 208.03c-23.937-2.71-45.071 8.61-65.201.692-3.91-22.583-14.928-77.648 1.066-97.751 9.271-11.653 51.281-26.239 65.301-10.636 15.735 17.493 3.054 83.593-1.158 107.7h-.01zm29.79-2.52-21.251-.236c-.941-6.185 2.488-7.956 1.568-14.14 7.205-1.122 14.597-2.233 19.808 1.635l-.13 12.74zm29.6 1.76v-.005c-8.51 2.665-14.005 2.509-24.032 1.151-3.762-32.151-25.059-107.19 5.594-120.4 12.73-5.499 19.217 24.839 20.86 37.074 2.697 20.04.626 36.337 5.061 51.06-7.54 5.21-4.66 20.92-7.48 31.12zm8.48-4.16v-.004c-1.41-2.64 1.22-10.518.292-16.997l19.875.201c2.646 3.492.233 11.868 2.604 15.633-8.56-.63-15.66.21-22.77 1.17zm263.75.03c-24.987.867-48.293 4.97-72.3 4.892-26.012-.082-50.827-8.997-75.032-7.896-13.911.607-27.366 7.685-41.185 8.049-17.165.421-30.099-5.585-46.69-6.193.812-11.073.739-21.274-5.397-25.552-4.189-47.488-23.337-109.99 11.449-138.77 27.813-22.995 87.3-.338 120.67-19.937.188-3.619 2.645-4.928 4.335-7.042 78.44 19.81 113.51 96.03 104.16 192.45zm8.34-1.32v-.006c11.331-93.428-36.185-207.96-142.3-198.53-5.918.655-2.821-7.456-8.369-7.188-19.223 7.258-20.929-9.609-39.586-4.683-2.604-6.256-3.747-15.191-1.154-22.674 5.136-4.345 6.829 3.695 14.147 1.567 4.892-.265 4.61-5.8 7.192-8.431 13.573 4.089 24.303-6.921 33.984 1.792 6.991-1.451 12.604-4.333 15.688-9.752 162.08 27.397 260.92 116.58 317.49 247.23-59.3 9.94-136.15-.01-197.09.67z"/></svg>