<svg xmlns="http://www.w3.org/2000/svg" width="1024" height="300" viewBox="0 0 1024 300">
	<style>
		#long {
			display:inline;
			}
		#short {
			display:none;
			}
		@media screen and (max-width:800px) {
			#long {
				display:none;
				}
			#short {
				display:inline;
				}
		}
		@media screen and (max-width:500px) {
			#short {
				display:none;
				}
		}
	</style>
	<g id="icon">
		<path d="m125.87 151.7c0-38.014 6.142-80.016 36.155-80.016 30.005 0 36.101 42.447 36.101 80.46 0 35.223-3.752 83.212-36.101 83.212-32.35 0-36.15-48.44-36.15-83.65m-52.227 2.11c0 50.337 35.345 96.188 88.381 96.188 53.038 0 88.378-45.853 88.378-96.188 0-56.579-36.384-94.279-88.378-94.279-52 0.002-88.377 37.702-88.377 94.279" fill="#E11F21"/>
	</g>
	<g id="long">
		<path d="m320.91 196.99c-25.232 0-31.13-16.965-31.13-39.717 0-20.478 5.898-38.061 31.13-38.061 25.237 0 31.441 17.583 31.441 38.061 0 22.86-6.21 39.72-31.44 39.72m0-68.26c-15.928 0-20.065 9.926-20.065 28.543 0 20.583 4.24 30.303 20.065 30.303 15.821 0 20.373-9.718 20.373-30.303 0.01-18.51-4.43-28.54-20.36-28.54" fill="#E11F21"/>
		<path d="m382.24 196.99c-4.654 0-8.892-1.242-12.31-3.311v23.169h-10.859v-76.951h7.451l2.27 4.762c5.895-4.863 10.138-6.312 15.414-6.312 17.581 0 24.615 11.791 24.615 28.442 0 18.61-5.9 30.2-26.58 30.2m1.96-49.85c-5.276 0-9.104 1.551-14.275 5.274v32.576c4.554 3.104 8.379 3.827 12.31 3.827 12.205 0 15.511-7.139 15.511-22.028 0.01-13.14-3.81-19.65-13.54-19.65" fill="#E11F21"/>
		<path d="m424.21 171.03c0.204 11.687 4.035 16.962 15.31 16.962 7.237 0 11.891-2.278 14.892-8.069l9.201 3.516c-4.547 9.309-11.687 13.551-24.093 13.551-18.102 0-26.168-9.203-26.168-29.376 0-18.194 6.209-29.268 26.168-29.268 21.408 0 24.718 17.066 24.718 29.268v3.416h-40.03zm15.31-23.69c-9.932 0-14.482 3.517-15.201 14.893h28.438c-0.21-8.58-3.93-14.89-13.24-14.89" fill="#E11F21"/>
		<path d="m493.53 147.65c-3.208 0-6.414 0.622-8.791 2.587l-3.616 3.001v42.194h-10.864v-55.54h8.896l1.347 5.278 3.82-3.209c3.312-2.791 6.932-3.62 10.967-3.62 1.758 0 3.41 0.21 5.171 0.415v9.516c-2.18-0.31-4.56-0.63-6.94-0.63" fill="#E11F21"/>
		<path d="m537.65 195.44l-1.14-4.033c-5.583 3.724-10.962 5.586-17.474 5.586-13.656 0-19.653-7.758-19.653-18.723 0-14.375 10.654-17.788 21.199-17.788 4.966 0 10.55 0.725 15.102 1.756v-7.129c0-5.276-2.794-7.968-10.236-7.968-6.208 0-11.379 1.444-15 6.722l-8.17-4.757c4.757-8.17 13.759-10.757 23.374-10.757 17.789 0 20.893 8.792 20.893 16.856v40.233h-8.89zm-1.96-25.13c-4.031-0.624-8.48-1.349-12.932-1.349-7.134 0-12.409 2.38-12.409 9.307 0 7.551 4.032 9.723 8.691 9.723 6.722 0 11.06-1.654 16.646-5.274v-12.405-0.01z" fill="#E11F21"/>
		<path d="m592.39 197.14c-12.508 0-22.428-4.652-26.254-15.189l6.824-3.407c3.716 7.955 9.714 11.36 19.43 11.36 14.37 0 19.435-7.544 19.435-15.497 0-7.444-3.102-11.577-11.371-13.025l-16.229-2.896c-12.606-2.271-16.325-10.646-16.325-19.43 0-10.854 5.782-19.746 25.008-19.746 15.919 0 21.914 7.758 24.291 12.303l-6.926 3.411c-2.995-5.269-8.166-8.475-17.365-8.475-13.228 0-16.842 4.855-16.842 12.507 0 7.234 2.48 10.44 10.021 11.786l16.229 2.787c12.399 2.17 17.675 10.026 17.675 20.776 0 12.3-8.47 22.73-27.59 22.73" fill="#B2B2B2"/>
		<path d="m648.07 196.84c-18.193 0-24.807-10.742-24.807-29.457 0-18.604 6.612-29.354 24.807-29.354 18.189 0 24.906 10.751 24.906 29.354-0.01 18.61-6.72 29.46-24.91 29.46m0-52.08c-11.988 0-16.642 5.995-16.642 22.633 0 16.64 4.542 22.739 16.642 22.739 12.093 0 16.64-6.101 16.64-22.739 0-16.64-4.65-22.63-16.64-22.63" fill="#B2B2B2"/>
		<path d="m707.3 122.4c-1.438-0.243-2.96-0.393-5.094-0.396-5.995 0-11.259 2.999-11.259 11.889v6.098h13.748l-1.753 7.028h-11.995v48.479h-8.065v-43.931c0-1.551 0.407-3.102 0.932-4.548h-9.512v-7.028h8.582v-6.098c0-12.715 8.166-18.918 19.325-18.918 2.867 0 4.876 0.207 6.851 0.508l-1.77 6.92z" fill="#B2B2B2"/>
		<path d="m731.57 197.14c-8.167 0-14.577-2.997-14.577-15.189v-30.699c0-1.967 0.52-2.896 0.937-4.131h-10.444v-7.137h9.509v-18.811l8.062-2.377v21.188h13.641l-2.378 7.137h-11.263v34.83c0 6.612 2.896 8.572 9.098 8.572 2.688 0 5.584-0.929 8.89-3.094l5.063 5.164c-4.24 3.52-11.16 4.55-16.54 4.55" fill="#B2B2B2"/>
		<path d="m801.49 195.49h-7.96l-11.473-37.103c-1.036-3.416-2.066-10.238-2.066-10.238s-0.624 6.822-1.655 10.238l-11.576 37.103h-7.96l-17.262-55.506h7.859l11.472 37.936c0.929 2.896 1.965 10.13 1.965 10.13s0.925-6.927 1.963-10.13l11.576-37.936h7.647l11.578 37.936c0.933 3.203 1.756 10.333 1.756 10.333s1.14-7.13 2.069-10.333l11.576-37.936h7.854l-17.38 55.51z" fill="#B2B2B2"/>
		<path d="m857.25 195.49l-1.339-4.967c-6.407 4.967-11.374 6.62-19.435 6.62-11.992 0-18.814-6.195-18.814-18.296 0-13.021 9.406-17.467 21.289-17.467 5.48 0 11.472 0.829 16.646 2.38v-9.199c0-8.062-5.174-9.508-12.194-9.508-5.793 0-12.307 1.033-15.921 6.302l-6.306-3.825c4.34-7.334 14.266-9.198 22.227-9.198 11.777 0 20.258 3.62 20.258 16.333v40.828h-6.409l-0.02 0.01zm-1.65-25.84c-4.135-0.619-9.926-1.865-15.398-1.865-7.341 0-14.268 2.173-14.268 11.062 0 7.031 3.102 11.676 10.545 11.676 7.546 0 12.813-2.165 19.121-6.403v-14.47z" fill="#B2B2B2"/>
		<path d="m894.37 146.29c-4.339 0-7.443 0.724-11.883 4.443l-3.206 2.688v42.066h-8.062v-55.503h6.72l1.344 5.79 4.757-3.928c3.408-2.895 8.061-3.516 10.332-3.516s3.307 0.203 4.854 0.517v7.854c-1.65-0.3-3.2-0.41-4.85-0.41" fill="#B2B2B2"/>
		<path d="m908.22 170.06c0.42 13.746 4.242 20.365 17.266 20.365 8.062 0 12.919-2.689 15.605-8.065l7.031 2.792c-3.725 7.648-10.131 11.99-22.639 11.99-17.773 0-25.842-8.889-25.842-29.457 0-18.603 6.412-29.354 25.944-29.354 20.774 0 23.461 13.742 23.461 29.354v2.377h-40.828zm17.36-25c-10.848 0-16.533 4.44-17.367 18.188h32.456c0-11.17-2.68-18.19-15.09-18.19" fill="#B2B2B2"/>
		<polygon points="306.32 225.76 306.32 242.25 303.57 242.25 303.57 225.76 297.89 225.76 297.89 223.38 311.97 223.38 311.97 225.76" fill="#B2B2B2"/>
		<polygon points="327.93 242.25 327.93 233.56 318.32 233.56 318.32 242.25 315.58 242.25 315.58 223.38 318.32 223.38 318.32 231.02 327.93 231.02 327.93 223.38 330.68 223.38 330.68 242.25" fill="#B2B2B2"/>
		<path d="m335.08 242.25v-18.87h12.302v2.486h-9.552v5.185h8.636l-0.707 2.538h-8.114c0.078 0.212 0.186 0.575 0.186 0.812v5.366h9.577v2.486h-12.327l-0.01-0.02z" fill="#B2B2B2"/>
		<path d="m365.83 242.25h-6.778v-18.867h6.778c4.108 0 6.149 1.729 6.149 5.047 0 1.833-0.888 3.143-2.197 3.695 1.517 0.44 3.062 1.854 3.062 4.366 0.01 3.98-2.66 5.76-7.01 5.76m0-16.49h-4.03v5.364h4.318c1.702 0 3.089-0.707 3.089-2.696 0-2.14-1.26-2.66-3.38-2.66m0.29 7.77h-4.318v6.336h4.03c3.323 0 4.267-1.18 4.267-3.379 0-2.43-2.28-2.96-3.98-2.96" fill="#B2B2B2"/>
		<path d="m376.8 242.25v-18.87h12.303v2.486h-9.555v5.185h8.636l-0.707 2.538h-8.112c0.078 0.212 0.183 0.575 0.183 0.812v5.366h9.579v2.486h-12.327v-0.02h0.01z" fill="#B2B2B2"/>
		<path d="m399.22 242.67c-3.533 0-5.731-1.518-6.807-3.797l2.307-1.176c0.887 1.622 2.275 2.536 4.5 2.536 3.296 0 4.369-1.568 4.369-3.423 0-1.573-0.681-2.541-2.562-2.854l-3.979-0.684c-2.96-0.494-4.294-2.301-4.294-5.129 0-2.719 1.677-5.188 6.595-5.188 3.952 0 5.576 1.704 6.467 3.248l-2.33 1.179c-0.783-1.26-1.987-2.016-4.136-2.016-2.931 0-3.82 1.101-3.82 2.775 0 1.568 0.551 2.221 2.146 2.485l3.927 0.656c2.983 0.495 4.816 2.248 4.816 5.524-0.02 3.27-2.19 5.87-7.22 5.87" fill="#B2B2B2"/>
		<polygon points="417.31 225.76 417.31 242.25 414.56 242.25 414.56 225.76 408.88 225.76 408.88 223.38 422.96 223.38 422.96 225.76" fill="#B2B2B2"/>
		<rect y="223.38" x="434.33" height="18.87" width="2.723" fill="#B2B2B2"/>
		<path d="m454.4 242.25l-10.364-14.212c0.054 0.26 0.158 0.705 0.158 1.073v13.139h-2.75v-18.87h2.462l10.364 14.21c-0.026-0.232-0.158-0.708-0.158-1.148v-13.062h2.748v18.87h-2.46z" fill="#B2B2B2"/>
		<polygon points="468.9 225.76 468.9 242.25 466.15 242.25 466.15 225.76 460.48 225.76 460.48 223.38 474.56 223.38 474.56 225.76" fill="#B2B2B2"/>
		<path d="m478.17 242.25v-18.87h12.303v2.486h-9.553v5.185h8.636l-0.707 2.538h-8.113c0.077 0.212 0.186 0.575 0.186 0.812v5.366h9.577v2.486h-12.327l-0.01-0.02z" fill="#B2B2B2"/>
		<path d="m504.73 242.25l-4.424-6.777c-0.129-0.184-0.259-0.551-0.313-0.919h-2.877v7.696h-2.748v-18.87h6.071c4.791 0 6.83 2.353 6.83 5.655 0 2.665-1.359 4.551-4.368 5.284l5.153 7.932h-3.32zm-4.27-16.49h-3.35v6.384h3.322c2.694 0 4.027-0.78 4.027-3.109 0.01-2.22-1.36-3.27-4-3.27" fill="#B2B2B2"/>
		<path d="m524.57 242.25l-10.364-14.212c0.054 0.26 0.158 0.705 0.158 1.073v13.139h-2.75v-18.87h2.462l10.363 14.21c-0.025-0.232-0.154-0.708-0.154-1.148v-13.062h2.747v18.87h-2.47z" fill="#B2B2B2"/>
		<path d="m531.42 242.25v-18.87h12.303v2.486h-9.553v5.185h8.636l-0.707 2.538h-8.113c0.078 0.212 0.186 0.575 0.186 0.812v5.366h9.577v2.486h-12.327l-0.01-0.02z" fill="#B2B2B2"/>
		<polygon points="555.27 225.76 555.27 242.25 552.52 242.25 552.52 225.76 546.84 225.76 546.84 223.38 560.92 223.38 560.92 225.76" fill="#B2B2B2"/>
		<path d="m572.33 242.25v-18.87h12.303v2.486h-9.553v5.185h8.637l-0.707 2.538h-8.113c0.077 0.212 0.186 0.575 0.186 0.812v5.366h9.576v2.486h-12.327l-0.01-0.02z" fill="#B2B2B2"/>
		<path d="m600.64 242.25l-4.633-6.854c-0.232-0.344-0.285-0.576-0.364-0.917-0.076 0.341-0.236 0.707-0.392 0.943l-4.79 6.832h-3.351l6.937-9.789-6.1-9.085h3.353l4.107 6.204c0.21 0.314 0.29 0.573 0.368 0.889 0.104-0.29 0.13-0.551 0.366-0.889l4.293-6.204h3.403l-6.389 9.136 6.544 9.734h-3.36z" fill="#B2B2B2"/>
		<path d="m613.26 235.37h-3.664c0.104 0.207 0.158 0.417 0.158 0.656v6.229h-2.752v-18.871h6.256c4.815 0 6.858 2.695 6.858 6.02-0.01 3.28-2 5.96-6.87 5.96m0-9.61h-3.506v7.225h3.506c2.645 0 4.059-1.049 4.059-3.589 0-2.4-1.44-3.63-4.06-3.63" fill="#B2B2B2"/>
		<path d="m623.99 242.25v-18.87h12.303v2.486h-9.553v5.185h8.636l-0.707 2.538h-8.114c0.078 0.212 0.187 0.575 0.187 0.812v5.366h9.579v2.486h-12.34v-0.02z" fill="#B2B2B2"/>
		<path d="m650.55 242.25l-4.423-6.777c-0.13-0.184-0.257-0.551-0.313-0.919h-2.877v7.696h-2.752v-18.87h6.074c4.788 0 6.831 2.353 6.831 5.655 0 2.665-1.359 4.551-4.371 5.284l5.153 7.932h-3.32zm-4.26-16.49h-3.35v6.384h3.322c2.693 0 4.027-0.78 4.027-3.109 0-2.22-1.36-3.27-4-3.27" fill="#B2B2B2"/>
		<rect y="223.38" x="657.44" height="18.87" width="2.724" fill="#B2B2B2"/>
		<path d="m664.55 242.25v-18.87h12.304v2.486h-9.55v5.185h8.636l-0.707 2.538h-8.108c0.075 0.212 0.181 0.575 0.181 0.812v5.366h9.581v2.486h-12.329v-0.02z" fill="#B2B2B2"/>
		<path d="m693.71 242.25l-10.367-14.212c0.055 0.26 0.156 0.705 0.156 1.073v13.139h-2.748v-18.87h2.461l10.366 14.21c-0.029-0.232-0.156-0.708-0.156-1.148v-13.062h2.748v18.87h-2.46z" fill="#B2B2B2"/>
		<path d="m707.92 242.67c-6.441 0-7.877-4.525-7.877-9.867 0-5.993 1.779-9.844 7.692-9.844 4.686 0 6.468 2.777 6.649 5.604h-2.566c-0.233-1.754-1.201-3.192-4.105-3.192-4.347 0-4.871 2.932-4.871 7.433 0 4.057 0.604 7.463 5.078 7.463 2.148 0 3.533-0.916 4.501-3.113l2.199 1.334c-0.91 2.1-2.66 4.19-6.69 4.19" fill="#B2B2B2"/>
		<path d="m718.38 242.25v-18.87h12.303v2.486h-9.555v5.185h8.636l-0.706 2.538h-8.111c0.077 0.212 0.183 0.575 0.183 0.812v5.366h9.582v2.486h-12.33l0.01-0.02z" fill="#B2B2B2"/>
		<path d="m749.74 242.64c-6.386 0-7.876-4.294-7.876-10.05 0-5.187 1.49-9.633 7.876-9.633 6.385 0 7.958 4.446 7.958 9.633-0.01 5.79-1.58 10.05-7.96 10.05m0-17.27c-4.03 0-5.076 2.515-5.076 7.226 0 5.208 1.07 7.668 5.076 7.668s5.155-2.46 5.155-7.668c0-4.7-1.13-7.23-5.16-7.23" fill="#B2B2B2"/>
		<path d="m774.52 242.25l-10.366-14.212c0.053 0.26 0.154 0.705 0.154 1.073v13.139h-2.746v-18.87h2.46l10.368 14.21c-0.031-0.232-0.158-0.708-0.158-1.148v-13.062h2.746v18.87h-2.45z" fill="#B2B2B2"/>
		<path d="m801.95 242.25l-2.099-5.579h-7.038l-2.095 5.579h-2.823l7.039-18.874h2.906l7.016 18.874h-2.92zm-5.31-14.35c-0.158-0.393-0.235-0.991-0.288-1.281-0.054 0.29-0.158 0.89-0.287 1.258l-2.328 6.355h5.234l-2.32-6.34z" fill="#B2B2B2"/>
		<path d="m820.92 242.25l-10.364-14.212c0.055 0.26 0.158 0.705 0.158 1.073v13.139h-2.75v-18.87h2.462l10.364 14.21c-0.026-0.232-0.158-0.708-0.158-1.148v-13.062h2.748v18.87h-2.46z" fill="#B2B2B2"/>
		<path d="m836.02 234.64v7.617h-2.748v-7.617l-6.834-11.257h3.062l4.817 7.956c0.152 0.237 0.259 0.654 0.313 0.996 0.078-0.344 0.132-0.706 0.343-1.046l4.787-7.906h3.038l-6.78 11.26z" fill="#B2B2B2"/>
		<path d="m859.36 242.25h-5.548v-18.87h5.548c6.622 0 9.265 3.949 9.265 9.214 0 5.31-2.48 9.66-9.26 9.66m0-16.49h-2.8v14.106h2.8c4.397 0 6.464-2.434 6.464-7.274 0-4.62-2.06-6.84-6.46-6.84" fill="#B2B2B2"/>
		<path d="m872.5 242.25v-18.87h12.3v2.486h-9.555v5.185h8.636l-0.707 2.538h-8.111c0.077 0.212 0.184 0.575 0.184 0.812v5.366h9.579v2.486h-12.327l0.01-0.02z" fill="#B2B2B2"/>
		<path d="m897.41 242.25h-2.904l-7.014-18.87h2.903l5.181 13.978c0.132 0.363 0.342 0.992 0.446 1.678 0.104-0.683 0.261-1.312 0.393-1.678l5.208-13.978h2.828l-7.05 18.87z" fill="#B2B2B2"/>
		<rect y="223.38" x="907.64" height="18.87" width="2.722" fill="#B2B2B2"/>
		<path d="m922.12 242.67c-6.439 0-7.875-4.525-7.875-9.867 0-5.993 1.777-9.844 7.688-9.844 4.688 0 6.47 2.777 6.651 5.604h-2.564c-0.238-1.754-1.205-3.192-4.11-3.192-4.347 0-4.869 2.932-4.869 7.433 0 4.057 0.603 7.463 5.079 7.463 2.146 0 3.533-0.916 4.503-3.113l2.196 1.334c-0.92 2.1-2.67 4.19-6.7 4.19" fill="#B2B2B2"/>
		<path d="m932.59 242.25v-18.87h12.303v2.486h-9.555v5.185h8.636l-0.707 2.538h-8.11c0.078 0.212 0.183 0.575 0.183 0.812v5.366h9.579v2.486h-12.327v-0.02z" fill="#B2B2B2"/>
		<path d="m960.57 116.96h-3.392v8.983h-2.68v-8.983h-3.394v-2.176h9.462v2.176zm14.06 8.98h-2.411v-8.983h-0.052l-3.262 6.942h-1.433l-3.205-6.942h-0.078v8.983h-2.411v-11.159h3.353l3.074 6.627 3.062-6.627h3.366v11.159h-0.01z" fill="#B2B2B2"/>
	</g>
	<g id="short">
		<polygon points="560.65 108.2 560.65 116.13 558.89 116.13 558.89 108.2 556.2 108.2 556.2 106.74 563.33 106.74 563.33 108.2" fill="#E11F21"/>
		<path d="m571.75 116.13l-0.42-5.576c-0.012-0.194-0.024-0.438 0.026-0.633l-1.836 4.166h-1.461l-1.836-4.152c0.029 0.22 0.039 0.477 0.029 0.661l-0.417 5.534h-1.709l0.702-9.392h1.512l2.318 4.961c0.076 0.172 0.114 0.329 0.146 0.443 0.024-0.15 0.049-0.309 0.117-0.458l2.313-4.946h1.512l0.707 9.392h-1.7v0.01z" fill="#E11F21"/>
		<path d="m310.56 172.63c-22.401 0-27.421-15.323-27.421-34.403 0-17.211 5.108-32.979 27.421-32.979 22.316 0 27.689 15.771 27.689 32.979 0 19.08-5.37 34.4-27.69 34.4m0-57.08c-11.83 0-15.233 7.438-15.233 22.678 0 17.022 3.491 24.19 15.233 24.19 11.83 0 15.499-7.259 15.499-24.19 0-15.24-3.58-22.68-15.5-22.68" fill="#E11F21"/>
		<path d="m366.33 148.81h-10.486c0.18 0.619 0.626 1.699 0.626 2.323v20.163h-12.008v-64.609h21.868c16.491 0 24.015 8.782 24.015 20.52 0.01 11.65-7.34 21.61-24.01 21.61m0-31.91h-9.857v21.689h9.857c8.067 0 11.827-4.037 11.827-11.387 0-6.9-3.94-10.3-11.83-10.3" fill="#E11F21"/>
		<path d="m395.44 171.29v-64.609h43.018v10.037h-31.008v15.504h28.315l-2.96 10.033h-25.715c0.271 0.624 0.358 1.344 0.358 1.709v17.286h31.091v10.038h-43.101 0.01z" fill="#E11F21"/>
		<path d="m480.43 171.35l-14.872-22.763c-0.45-0.634-0.629-1.435-0.812-2.157h-7.526v24.92h-12v-64.61h21.952c16.398 0 23.923 8.062 23.923 19.98 0 8.782-4.301 15.238-13.44 18.101l17.205 26.529h-14.43zm-13.26-54.57h-9.95v19.624h9.95c8.423 0 11.734-3.767 11.734-9.677 0.01-6.45-3.58-9.94-11.73-9.94" fill="#E11F21"/>
		<path d="m542.87 171.35l-5.554-16.393h-22.67l-5.646 16.393h-12.458l23.386-64.609h12.273l23.306 64.609h-12.64zm-15.59-45.7c-0.626-1.704-1.157-3.941-1.342-5.109-0.18 1.259-0.717 3.501-1.258 5.109l-6.629 19.267h15.771l-6.54-19.27z" fill="#E11F21"/>
		<path d="m300.72 235.68c-6.603 0-12.419-2.487-15.116-8.305l6.319-2.272c1.702 3.199 4.674 4.62 8.797 4.62 5.108 0 8.514-1.779 8.514-5.961 0-2.623-1.419-4.257-4.259-4.757l-9.296-1.628c-5.812-1-9.294-4.473-9.294-10.786 0-6.961 5.539-11.144 14.901-11.144 6.954 0 11.85 2.409 14.409 7.029l-5.749 2.913c-1.633-2.423-4.118-3.918-8.589-3.918-4.825 0-7.66 1.572-7.66 5.12 0 2.058 0.782 3.69 3.759 4.19l8.933 1.479c5.615 0.924 10.296 4.053 10.296 10.862 0.01 9.16-7.51 12.56-15.96 12.56" fill="#B2B2B2"/>
		<path d="m336.68 235.68c-12.851 0-17.459-7.663-17.459-20.153 0-12.484 4.61-20.08 17.459-20.08 12.836 0 17.525 7.596 17.525 20.08 0.01 12.49-4.68 20.15-17.52 20.15m0-34.21c-7.107 0-10.011 3.486-10.011 14.059 0 10.571 2.906 14.128 10.011 14.128 7.09 0 9.925-3.557 9.925-14.128 0.01-10.57-2.83-14.06-9.92-14.06" fill="#B2B2B2"/>
		<path d="m378.28 185.62c-1.175-0.185-2.235-0.261-3.474-0.261-3.908 0-6.607 1.785-6.607 7.534v3.613h9.682l-1.409 6.175h-8.272v31.935h-7.443v-29.312c0-0.775 0.354-1.623 0.714-2.618h-6.561v-6.176h5.847v-3.613c0-10.786 6.673-13.558 14.126-13.558 1.646 0 3.262 0.224 4.866 0.522l-1.48 5.76z" fill="#B2B2B2"/>
		<path d="m398.07 235.68c-6.11 0-11.853-2.414-11.853-10.791v-19.79c0-0.71 0.144-1.419 0.707-2.414h-6.951v-6.176h6.244v-12.914l7.451-2.199v15.113h12.938l-1.986 6.176h-10.952v22.204c0 3.342 2.262 4.62 4.898 4.62 2.195 0 4.036-0.785 6.238-2.272l4.335 4.332c-2.92 2.7-7.1 4.11-11.07 4.11" fill="#B2B2B2"/>
		<path d="m450.2 234.62h-6.743l-7.241-22.004c-0.498-1.414-0.917-2.623-1.061-4.681-0.146 2.058-0.641 3.267-1.138 4.681l-7.237 22.004h-6.739l-12.21-38.108h7.319l7.158 22.423c0.287 0.863 0.715 2.918 1.061 6.819 0.502-3.901 0.787-5.187 1.282-6.677l7.235-22.565h6.461l7.241 22.565c0.495 1.49 0.777 2.777 1.275 6.677 0.354-3.901 0.771-5.956 1.061-6.819l7.17-22.423h7.312l-12.2 38.12z" fill="#B2B2B2"/>
		<path d="m488.9 234.62l-0.784-2.777c-3.828 2.562-7.521 3.833-11.985 3.833-9.37 0-13.49-5.319-13.49-12.849 0-9.857 7.314-12.205 14.553-12.205 3.401 0 7.233 0.5 10.359 1.214v-4.9c0-3.623-1.916-5.471-7.025-5.471-4.263 0-7.808 0.999-10.286 4.615l-5.61-3.269c3.262-5.595 9.442-7.37 16.038-7.37 12.205 0 14.331 6.024 14.331 11.566v27.608h-6.098v0.004h-0.01zm-1.35-17.24c-2.762-0.438-5.819-0.924-8.872-0.924-4.896 0-8.512 1.629-8.512 6.375 0 5.187 2.763 6.676 5.962 6.676 4.604 0 7.59-1.139 11.422-3.613v-8.53z" fill="#B2B2B2"/>
		<path d="m515.99 201.84c-2.202 0-4.403 0.43-6.035 1.776l-2.484 2.059v28.952h-7.455v-38.111h6.101l0.93 3.612 2.623-2.193c2.271-1.914 4.757-2.482 7.518-2.482 1.212 0 2.348 0.14 3.555 0.285v6.529c-1.49-0.23-3.11-0.43-4.75-0.43" fill="#B2B2B2"/>
		<path d="m528.74 217.87c0.14 8.028 2.761 11.643 10.499 11.643 4.969 0 8.165-1.567 10.218-5.537l6.312 2.419c-3.129 6.381-8.015 9.292-16.53 9.292-12.417 0-17.954-6.315-17.954-20.153 0-12.484 4.259-20.08 17.954-20.08 14.688 0 16.957 11.716 16.957 20.08v2.338h-27.46zm10.5-16.25c-6.809 0-9.934 2.408-10.431 10.219h19.513c-0.14-5.89-2.69-10.22-9.08-10.22" fill="#B2B2B2"/>
	</g>
</svg>