<svg height="640" width="1024" xmlns="http://www.w3.org/2000/svg"><path d="m642 124.234c0-5.101-4.481-9.234-10.004-9.234h-239.992c-5.525 0-10.004 4.137-10.004 9.234v31.531c0 5.101 4.481 9.234 10.004 9.234h239.992c5.525 0 10.004-4.137 10.004-9.234zm0 0" fill="#090"/><path d="m642 244.234c0-5.101-4.481-9.234-10.004-9.234h-239.992c-5.525 0-10.004 4.137-10.004 9.234v31.531c0 5.101 4.481 9.234 10.004 9.234h239.992c5.525 0 10.004-4.137 10.004-9.234zm0 0" fill="#0175a7"/><path d="m642 364.234c0-5.101-4.481-9.234-10.004-9.234h-239.992c-5.525 0-10.004 4.137-10.004 9.234v31.531c0 5.101 4.481 9.234 10.004 9.234h239.992c5.525 0 10.004-4.137 10.004-9.234zm0 0" fill="#0175a7"/><path d="m642 484.234c0-5.101-4.481-9.234-10.004-9.234h-239.992c-5.525 0-10.004 4.137-10.004 9.234v31.531c0 5.101 4.481 9.234 10.004 9.234h239.992c5.525 0 10.004-4.137 10.004-9.234zm0 0" fill="#c00"/><g fill="#888"><path d="m447.25 305v30h30v-30zm0 0"/><path d="m247.25 305v30h30v-30zm0 0"/><path d="m297.25 305v30h30v-30zm0 0"/><path d="m347.25 305v30h30v-30zm0 0"/><path d="m397.25 305v30h30v-30zm0 0"/><path d="m547.25 305v30h30v-30zm0 0"/><path d="m597.25 305v30h30v-30zm0 0"/><path d="m647.25 305v30h30v-30zm0 0"/><path d="m697.25 305v30h30v-30zm0 0"/><path d="m747.25 305v30h30v-30zm0 0"/></g><path d="m477.25 66v470h70v-470zm0 0" fill="#fff"/><path d="m497 30.5h30v539.592l32-27.592v36.473l-47 40.527-47-41.202v-35.798l32 27.592zm0 0" fill="#888"/></svg>