<svg height="640" width="1024" xmlns="http://www.w3.org/2000/svg"><g fill="#888"><path d="m497 106v30h30v-30zm0 0"/><path d="m497 56v30h30v-30zm0 0"/><path d="m497 156v30h30v-30zm0 0"/><path d="m497 206v30h30v-30zm0 0"/><path d="m497 256v30h30v-30zm0 0"/><path d="m497 356v30h30v-30zm0 0"/><path d="m497 406v30h30v-30zm0 0"/><path d="m497 456v30h30v-30zm0 0"/><path d="m497 506v30h30v-30zm0 0"/><path d="m497 556v30h30v-30zm0 0"/></g><path d="m137 306v30h740.092v-30zm0 0" fill="#888"/><path d="m966.77 301.201-16.972-16.969-19.798 19.798-19.799-19.8-16.971 16.971 19.799 19.799-19.799 19.799 16.971 16.971 19.799-19.799 19.799 19.799 16.971-16.971-19.799-19.799zm0 0" fill="#c00"/><path d="m86 356c19.33 0 35-15.67 35-35s-15.67-35-35-35-35 15.67-35 35 15.67 35 35 35zm0 0" fill="#090"/></svg>