<svg height="640" width="1024" xmlns="http://www.w3.org/2000/svg"><g fill="#888"><path d="m297.115 305v30h30v-30zm0 0"/><path d="m247.115 305v30h30v-30zm0 0"/><path d="m347.115 305v30h30v-30zm0 0"/><path d="m397.115 305v30h30v-30zm0 0"/><path d="m447.115 305v30h30v-30zm0 0"/><path d="m547.115 305v30h30v-30zm0 0"/><path d="m597.115 305v30h30v-30zm0 0"/><path d="m647.115 305v30h30v-30zm0 0"/><path d="m697.115 305v30h30v-30zm0 0"/><path d="m747.115 305v30h30v-30zm0 0"/></g><path d="m497.115 136v369.092h30v-369.092zm0 0" fill="#888"/><path d="m492.316 594.77-16.968-16.972 19.797-19.798-19.799-19.799 16.97-16.971 19.799 19.799 19.799-19.799 16.971 16.971-19.799 19.799 19.799 19.799-16.971 16.971-19.799-19.799zm0 0" fill="#c00"/><path d="m512.115 120c19.33 0 35-15.67 35-35s-15.67-35-35-35-35 15.67-35 35 15.67 35 35 35zm0 0" fill="#090"/></svg>