<svg height="640" width="1024" xmlns="http://www.w3.org/2000/svg"><path d="m166.003 200c-5.525 0-10.003 4.481-10.003 10.003v219.993c0 5.525 4.481 10.004 10.003 10.004h99.993c5.525 0 10.004-4.481 10.004-10.004v-219.993c0-5.525-4.481-10.003-10.004-10.003z" fill="#090"/><path d="m356.004 200c-5.525 0-10.004 4.481-10.004 10.003v219.993c0 5.525 4.481 10.004 10.004 10.004h99.992c5.525 0 10.004-4.481 10.004-10.004v-219.993c0-5.525-4.481-10.003-10.004-10.003z" fill="#0175a7"/><path d="m566.004 200c-5.525 0-10.004 4.481-10.004 10.003v219.993c0 5.525 4.481 10.004 10.004 10.004h99.992c5.525 0 10.004-4.481 10.004-10.004v-219.993c0-5.525-4.481-10.003-10.004-10.003z" fill="#0175a7"/><path d="m756.004 200c-5.525 0-10.004 4.481-10.004 10.003v219.993c0 5.525 4.481 10.004 10.004 10.004h109.992c5.525 0 10.004-4.481 10.004-10.004v-219.993c0-5.525-4.481-10.003-10.004-10.003z" fill="#c00"/></svg>