<svg height="640" width="1024" xmlns="http://www.w3.org/2000/svg"><path d="m921.996 506h-819.992c-8.824 0-16.004-7.18-16.004-16.004v-339.993c0-8.824 7.18-16.003 16.004-16.003h819.992c8.824 0 16.004 7.179 16.004 16.003v339.993c0 8.824-7.18 16.004-16.004 16.004zm-819.992-360c-2.208 0-4.004 1.796-4.004 4.003v339.993c0 2.208 1.796 4.004 4.004 4.004h819.992c2.208 0 4.004-1.796 4.004-4.004v-339.993c0-2.208-1.796-4.003-4.004-4.003zm0 0" fill="#888"/><path d="m166.004 200c-5.525 0-10.004 4.481-10.004 10.003v219.993c0 5.525 4.481 10.004 10.004 10.004h99.992c5.525 0 10.004-4.481 10.004-10.004v-219.993c0-5.525-4.481-10.003-10.004-10.003zm0 0" fill="#090"/><path d="m356.004 200c-5.525 0-10.004 4.481-10.004 10.003v219.993c0 5.525 4.481 10.004 10.004 10.004h99.992c5.525 0 10.004-4.481 10.004-10.004v-219.993c0-5.525-4.481-10.003-10.004-10.003zm0 0" fill="#0175a7"/><path d="m566.004 200c-5.525 0-10.004 4.481-10.004 10.003v219.993c0 5.525 4.481 10.004 10.004 10.004h99.992c5.525 0 10.004-4.481 10.004-10.004v-219.993c0-5.525-4.481-10.003-10.004-10.003zm0 0" fill="#0175a7"/><path d="m756.004 200c-5.525 0-10.004 4.481-10.004 10.003v219.993c0 5.525 4.481 10.004 10.004 10.004h109.992c5.525 0 10.004-4.481 10.004-10.004v-219.993c0-5.525-4.481-10.003-10.004-10.003zm0 0" fill="#c00"/></svg>