<svg height="640" width="1024" xmlns="http://www.w3.org/2000/svg"><path d="m166.003 200c-5.525 0-10.003 4.481-10.003 10.003v219.993c0 5.525 4.481 10.004 10.003 10.004h99.993c5.525 0 10.004-4.481 10.004-10.004v-219.993c0-5.525-4.481-10.003-10.004-10.003zm0 0" fill="#090"/><path d="m356.004 200c-5.525 0-10.004 4.481-10.004 10.003v219.993c0 5.525 4.481 10.004 10.004 10.004h99.992c5.525 0 10.004-4.481 10.004-10.004v-219.993c0-5.525-4.481-10.003-10.004-10.003zm0 0" fill="#0175a7"/><path d="m566.004 200c-5.525 0-10.004 4.481-10.004 10.003v219.993c0 5.525 4.481 10.004 10.004 10.004h99.992c5.525 0 10.004-4.481 10.004-10.004v-219.993c0-5.525-4.481-10.003-10.004-10.003zm0 0" fill="#0175a7"/><path d="m756.004 200c-5.525 0-10.004 4.481-10.004 10.003v219.993c0 5.525 4.481 10.004 10.004 10.004h109.992c5.525 0 10.004-4.481 10.004-10.004v-219.993c0-5.525-4.481-10.003-10.004-10.003zm0 0" fill="#c00"/><g fill="#888"><path d="m497 56v30h30v-30zm0 0"/><path d="m497 106v30h30v-30zm0 0"/><path d="m497 156v30h30v-30zm0 0"/><path d="m497 206v30h30v-30zm0 0"/><path d="m497 256v30h30v-30zm0 0"/><path d="m497 356v30h30v-30zm0 0"/><path d="m497 406v30h30v-30zm0 0"/><path d="m497 456v30h30v-30zm0 0"/><path d="m497 506v30h30v-30zm0 0"/><path d="m497 556v30h30v-30zm0 0"/></g><path d="m122.5 286v70h778v-70zm0 0" fill="#fff"/><path d="m47 336v-30h890.092l-27.592-32h36.473l40.527 47-41.202 47h-35.798l27.592-32zm0 0" fill="#888"/></svg>