<svg height="640" width="1024" xmlns="http://www.w3.org/2000/svg"><path d="m213.25 408.594c-75.13 0-136.25-61.126-136.25-136.25s61.12-136.25 136.25-136.25 136.25 61.126 136.25 136.25-61.12 136.25-136.25 136.25zm0-245.25c-60.102 0-109 48.898-109 109 0 60.101 48.898 109 109 109s109-48.899 109-109c0-60.102-48.898-109-109-109zm0 0" fill="#006ebd"/><path d="m513 408.594c-75.13 0-136.25-61.126-136.25-136.25s61.12-136.25 136.25-136.25c75.124 0 136.25 61.126 136.25 136.25s-61.126 136.25-136.25 136.25zm0-245.25c-60.102 0-109 48.898-109 109 0 60.101 48.898 109 109 109 60.101 0 109-48.899 109-109 0-60.102-48.899-109-109-109zm0 0"/><path d="m812.75 408.594c-75.124 0-136.25-61.126-136.25-136.25s61.126-136.25 136.25-136.25 136.25 61.126 136.25 136.25-61.126 136.25-136.25 136.25zm0-245.25c-60.102 0-109 48.898-109 109 0 60.101 48.898 109 109 109s109-48.899 109-109c0-60.102-48.898-109-109-109zm0 0" fill="#d80015"/><path d="m322.25 251.906c75.13 0 136.25 61.126 136.25 136.25s-61.12 136.25-136.25 136.25-136.25-61.126-136.25-136.25 61.12-136.25 136.25-136.25zm0 245.25c60.102 0 109-48.899 109-109s-48.898-109-109-109-109 48.899-109 109 48.898 109 109 109zm0 0" fill="#f1ba00" transform="matrix(-1 0 0 -1 645 776)"/><path d="m622 251.906c75.124 0 136.25 61.126 136.25 136.25s-61.126 136.25-136.25 136.25-136.25-61.126-136.25-136.25 61.126-136.25 136.25-136.25zm0 245.25c60.101 0 109-48.899 109-109s-48.899-109-109-109-109 48.899-109 109 48.899 109 109 109zm0 0" fill="#00922a" transform="matrix(-1 0 0 -1 1244 776)"/></svg>