<svg height="73" width="54" xmlns="http://www.w3.org/2000/svg"><path d="m-238.5 36.5c0-5.667.5-10.75 1.5-15.25s2.5-8.3 4.5-11.4 4.533-5.467 7.6-7.1 6.7-2.45 10.9-2.45c4.467 0 8.25.8 11.35 2.4s5.617 3.933 7.55 7 3.333 6.85 4.2 11.35 1.3 9.65 1.3 15.45c0 5.667-.5 10.75-1.5 15.25s-2.5 8.3-4.5 11.4-4.533 5.467-7.6 7.1-6.7 2.45-10.9 2.45c-4.4 0-8.15-.883-11.25-2.65s-5.633-4.25-7.6-7.45-3.383-7.017-4.25-11.45-1.3-9.317-1.3-14.65zm40.7 0c0-3.533-.2-6.9-.6-10.1l-29.7 27.1c1.133 3.8 2.833 6.833 5.1 9.1s5.233 3.4 8.9 3.4c5.867 0 10.05-2.433 12.55-7.3s3.75-12.267 3.75-22.2zm-32.4 0c0 1.667.05 3.267.15 4.8s.217 3.033.35 4.5l29.8-27c-1.133-3.6-2.817-6.467-5.05-8.6s-5.25-3.2-9.05-3.2c-5.933 0-10.117 2.45-12.55 7.35s-3.65 12.283-3.65 22.15zm58.9 27.8h15.7v-52.6l-16 11.2-3.9-5.7 22-15.7h5.6v62.8h15.4v7.2h-38.8zm97.3-45.1c0 6.133-2.9 12.967-8.7 20.5s-13.9 15.733-24.3 24.6h35.2v7.2h-44.4v-7.2c1.267-1.2 3-2.767 5.2-4.7s4.567-4.083 7.1-6.45 5.117-4.917 7.75-7.65 5.017-5.533 7.15-8.4 3.867-5.733 5.2-8.6 2-5.633 2-8.3c0-4-1.05-7.15-3.15-9.45s-5.25-3.45-9.45-3.45c-3.6 0-6.633.4-9.1 1.2s-4.7 1.967-6.7 3.5l-3.4-5.5c3-2.133 6.183-3.7 9.55-4.7s7.05-1.5 11.05-1.5c6.267 0 11 1.7 14.2 5.1s4.8 8 4.8 13.8zm34.8 46.6c2.667 0 5.117-.35 7.35-1.05s4.183-1.683 5.85-2.95 2.967-2.8 3.9-4.6 1.4-3.8 1.4-6c0-4.6-1.617-7.883-4.85-9.85s-7.583-2.95-13.05-2.95h-6.4v-4.8l19.7-24.9h-29.9v-7.2h39.5v7.2l-19.7 23.1h1.6c3.067 0 5.867.433 8.4 1.3s4.733 2.1 6.6 3.7 3.317 3.533 4.35 5.8 1.55 4.833 1.55 7.7c0 3.6-.7 6.8-2.1 9.6s-3.3 5.15-5.7 7.05-5.217 3.333-8.45 4.3-6.683 1.45-10.35 1.45c-3.4 0-6.35-.25-8.85-.75s-4.783-1.117-6.85-1.85l2-7c1.733.8 3.767 1.45 6.1 1.95s4.967.75 7.9.75zm93.2-16.1h-13.5v21.8h-7.8v-21.8h-32.3v-5.8l33.5-42.4h6.6v41.6h13.5zm-21.3-35.7-23.1 29.1h23.1zm0 0" fill="#fff"/></svg>